<svg width="72" height="72" viewBox="0 0 72 72" fill="none" xmlns="http://www.w3.org/2000/svg">
<g filter="url(#filter0_d)">
<circle cx="36" cy="28" r="26" fill="white"/>
</g>
<path d="M34.4496 28.0583L33.5088 31.9559C34.7184 32.2246 38.4143 33.4342 38.9519 31.2167C39.4894 28.9319 35.6591 28.3943 34.4496 28.0583Z" fill="#ED6C0C"/>
<path d="M38.9519 31.2841C39.5566 28.9993 35.6591 28.3945 34.4496 28.1257L33.5088 31.956" fill="#E05A00"/>
<path d="M35.793 22.7498L34.9194 26.3113C35.9274 26.5801 39.0185 27.588 39.4889 25.5721C39.9593 23.4889 36.801 23.0185 35.793 22.7498Z" fill="#ED6C0C"/>
<path d="M39.4889 25.5721C40.0265 23.4889 36.801 23.0185 35.793 22.7498L34.9194 26.3113" fill="#E05A00"/>
<path d="M39.7581 12.1997C31.0895 10.0493 22.3537 15.358 20.2033 23.9594C18.053 32.628 23.2945 41.3638 31.963 43.5141C40.6316 45.6645 49.3674 40.423 51.5178 31.7544C53.6681 23.153 48.4266 14.4172 39.7581 12.1997ZM42.9836 25.5721C42.782 27.1177 41.9084 27.9241 40.6988 28.1929C42.3116 28.9993 43.118 30.276 42.3116 32.4936C41.3708 35.2487 39.0861 35.4503 36.0621 34.9127L35.323 37.8694L33.5758 37.3319L34.315 34.4423C33.8446 34.3079 33.3742 34.1735 32.9038 34.1063L32.1646 36.9959L30.4175 36.5255L31.1567 33.5687C30.7535 33.4344 30.3503 33.3672 29.8799 33.2328L27.5952 32.628L28.4687 30.612L29.7455 30.948C30.2159 31.0824 30.4847 30.7464 30.5519 30.5448L31.6943 25.9081C31.7614 25.9081 31.8286 25.9081 31.8958 25.9753C31.8286 25.9753 31.7614 25.9081 31.6943 25.9081L32.5006 22.6154C32.5006 22.2122 32.3662 21.7418 31.6943 21.6074L30.4175 21.2715L30.8879 19.3899L33.307 19.9947C33.643 20.0619 34.0462 20.1963 34.4494 20.2635L35.1886 17.3739L36.9357 17.8443L36.1965 20.6667C36.6669 20.8011 37.1373 20.8683 37.6077 21.0027L38.2797 18.1803L40.0268 18.6507L39.2877 21.5402C41.6396 22.2794 43.3196 23.4218 42.9836 25.5721Z" fill="#FFB600"/>
<path d="M20.2033 23.9594C18.053 32.628 23.2945 41.3638 31.963 43.5141C40.6316 45.6645 49.3674 40.423 51.5178 31.7544C53.6681 23.0858 48.4266 14.3501 39.7581 12.1997L20.2033 23.9594ZM42.9836 25.5722C42.782 27.1177 41.9084 27.9241 40.6988 28.1929C42.3116 28.9993 43.118 30.2761 42.3116 32.4936C41.3708 35.2487 39.0861 35.4503 36.0621 34.9128L35.323 37.8695L33.5758 37.3319L34.315 34.4424C33.8446 34.308 33.3742 34.1736 32.9038 34.1064L32.1646 36.9959L30.4175 36.5255L31.1567 33.5688C30.7535 33.4344 30.3503 33.3672 29.8799 33.2328L27.5952 32.628L28.4687 30.6121L29.7455 30.948C30.2159 31.0824 30.4847 30.7465 30.5519 30.5449L31.6943 25.9082C31.7614 25.9082 31.8286 25.9082 31.8958 25.9754C31.8286 25.9754 31.7614 25.9082 31.6943 25.9082L32.5006 22.6155C32.5006 22.2123 32.3662 21.7419 31.6943 21.6075L30.4175 21.2715L30.8879 19.3899L33.307 19.9947C33.643 20.0619 34.0462 20.1963 34.4494 20.2635L35.1886 17.374L36.9357 17.8444L36.1965 20.6667C36.6669 20.8011 37.1373 20.8683 37.6077 21.0027L38.2797 18.1804L40.0268 18.6507L39.2877 21.5403C41.6396 22.2795 43.3196 23.4218 42.9836 25.5722Z" fill="#F6921E"/>
<path d="M51.3832 32.3591L42.6474 23.6233C42.9834 24.1609 43.1849 24.8329 43.0506 25.6392C42.849 27.1848 41.9754 27.9912 40.7658 28.26C42.3786 29.0664 43.1849 30.3431 42.3786 32.5607C41.4378 35.3158 39.153 35.5174 36.1291 34.9798L35.3899 37.9365L33.5756 37.3318L34.3148 34.4422C33.8444 34.3078 33.374 34.1734 32.9036 34.1062L32.1644 36.9958L31.7612 36.8614L38.6155 43.7156C44.5289 42.7076 49.636 38.4069 51.3832 32.3591Z" fill="#D85107"/>
<path d="M27.5952 32.6951L30.6191 35.719L31.1567 33.5686C30.7535 33.4342 30.3503 33.3671 29.88 33.2327L27.5952 32.6951Z" fill="#E26600"/>
<path d="M39.6916 20.6665L39.4229 21.5401C40.2292 21.8089 40.9684 22.1449 41.5732 22.5481L39.6916 20.6665Z" fill="#E26600"/>
<path d="M37.0038 17.8445L36.2646 20.6668C36.735 20.8012 37.2054 20.8684 37.6758 21.0028L38.1462 18.9869L37.0038 17.8445Z" fill="#ED6C0C"/>
<path d="M40.162 18.5837L39.4229 21.4733L39.49 21.5405C41.506 22.2125 43.0516 23.2876 43.0516 25.102L51.1154 33.1658C51.2498 32.6954 51.3842 32.225 51.5186 31.8218C51.653 31.2842 51.7201 30.8138 51.7873 30.2763L40.162 18.5837Z" fill="#ED6C0C"/>
<path d="M41.7071 42.9095L35.5921 36.7944L35.3233 37.8024L33.5761 37.332L34.1137 35.2489L32.9041 34.0393L32.1649 36.9288L30.4178 36.4584V36.3912L30.3506 36.4584L37.6752 43.7831C39.0864 43.7159 40.4303 43.3799 41.7071 42.9095Z" fill="#ED6C0C"/>
<path d="M43.3863 42.1029L36.1289 34.8455C36.1289 34.8455 36.1289 34.8455 36.0617 34.8455L35.3225 37.8022L33.6426 37.399L39.7576 43.514C41.0344 43.1781 42.244 42.7077 43.3863 42.1029Z" fill="#E05A00"/>
<defs>
<filter id="filter0_d" x="0" y="0" width="72" height="72" filterUnits="userSpaceOnUse" color-interpolation-filters="sRGB">
<feFlood flood-opacity="0" result="BackgroundImageFix"/>
<feColorMatrix in="SourceAlpha" type="matrix" values="0 0 0 0 0 0 0 0 0 0 0 0 0 0 0 0 0 0 127 0"/>
<feOffset dy="8"/>
<feGaussianBlur stdDeviation="5"/>
<feColorMatrix type="matrix" values="0 0 0 0 0.729412 0 0 0 0 0.741176 0 0 0 0 0.815686 0 0 0 0.2 0"/>
<feBlend mode="normal" in2="BackgroundImageFix" result="effect1_dropShadow"/>
<feBlend mode="normal" in="SourceGraphic" in2="effect1_dropShadow" result="shape"/>
</filter>
</defs>
</svg>
