<svg width="72" height="75" viewBox="0 0 72 75" fill="none" xmlns="http://www.w3.org/2000/svg">
<g filter="url(#filter0_f)">
<g filter="url(#filter1_d)">
<circle cx="36" cy="31" r="26" fill="white"/>
</g>
<path d="M38.374 44.2245L50.227 32.3715C51.2577 31.3409 51.2577 29.6543 50.227 28.6236L38.374 16.7706C37.3433 15.7399 35.6567 15.7399 34.626 16.7706L22.773 28.6236C21.7423 29.6543 21.7423 31.3409 22.773 32.3715L34.626 44.2245C35.6567 45.3021 37.3433 45.3021 38.374 44.2245Z" fill="#FF9100"/>
<path d="M38.374 44.2245L50.227 32.3715C51.2577 31.3409 51.2577 29.6543 50.227 28.6236L38.374 16.7706C37.3433 15.7399 35.6567 15.7399 34.626 16.7706L22.773 28.6236C21.7423 29.6543 21.7423 31.3409 22.773 32.3715L34.626 44.2245C35.6567 45.3021 37.3433 45.3021 38.374 44.2245Z" fill="#FF9100"/>
<path d="M38.5652 44.0506L46.7476 35.8682L39.9896 29.1102L31.8072 37.2926L38.5652 44.0506Z" fill="#F16823"/>
<path d="M50.227 32.3715C51.2577 31.3409 51.2577 29.6543 50.227 28.6236L38.374 16.7706C37.3433 15.7399 35.6567 15.7399 34.626 16.7706L22.773 28.6236C21.7423 29.6543 21.7423 31.3409 22.773 32.3715" fill="#F16823"/>
<path d="M42.8244 24.1729L30.5029 36.4943C32.049 37.853 34.0167 38.6494 36.2186 38.6494C41.0441 38.6494 44.9327 34.714 44.9327 29.8885C44.9327 27.7334 44.1362 25.7189 42.8244 24.1729Z" fill="#E84E0A"/>
<path d="M44.3239 22.6736L38.374 16.7706C37.3433 15.7399 35.6567 15.7399 34.626 16.7706L22.773 28.6236C21.7423 29.6543 21.7423 31.3409 22.773 32.3715L28.7229 38.3215L44.3239 22.6736Z" fill="#07A8EF"/>
<path d="M22.7725 32.3715L28.7224 38.3215L44.3702 22.6736L38.3734 16.7706C37.3427 15.7399 35.6561 15.7399 34.6254 16.7706" fill="#0086D1"/>
<path d="M28.6768 38.3215L44.3246 22.6736L38.3747 16.7706C37.344 15.7399 35.6574 15.7399 34.6267 16.7706" fill="#0063A6"/>
<path d="M42.4961 31.7158C42.0276 34.0583 39.9662 36.0728 37.4363 36.3539C36.4056 36.4476 35.4686 36.3071 34.5785 35.9323C34.4379 36.0728 32.7045 37.8063 32.5171 37.9937C34.0163 38.8838 35.8434 39.3523 37.7174 39.1649C40.9032 38.837 43.5268 36.7287 44.7449 33.9646L42.4961 31.7158Z" fill="white"/>
<path d="M42.4961 31.7158C42.0276 34.0583 39.9662 36.0728 37.4363 36.3539C36.4056 36.4476 35.4686 36.3071 34.5785 35.9323C34.4379 36.0728 32.7045 37.8063 32.5171 37.9937C34.0163 38.8838 35.8434 39.3523 37.7174 39.1649C40.9032 38.837 43.5268 36.7287 44.7449 33.9646L42.4961 31.7158Z" fill="white"/>
<path d="M44.6989 33.9176L42.7312 31.9031C42.6375 32.0436 42.497 32.1842 42.3564 32.2779C41.7005 34.3861 39.7797 36.1196 37.4372 36.3538C36.5939 36.4475 35.7974 36.3538 35.0479 36.0727C36.3128 36.5881 37.7651 36.8692 39.2175 36.6818C41.4194 36.4944 43.3403 35.4168 44.6989 33.9176Z" fill="#CBE4EF"/>
<path d="M30.7861 36.6819C31.1141 37.0099 31.442 37.291 31.8168 37.5721L43.8104 25.5785C43.5293 25.2037 43.2482 24.8758 42.9202 24.5479L30.7861 36.6819Z" fill="white"/>
<path d="M42.4025 24.0792C41.9809 23.7512 41.6529 23.4701 41.2781 23.2359C39.7321 22.2989 37.9049 21.8304 35.9841 22.0178C31.2523 22.4863 27.8322 26.7027 28.3007 31.4346C28.4413 32.8869 28.9098 34.105 29.6125 35.2294C29.7999 35.5574 30.3153 36.1664 30.3153 36.1664L42.4025 24.0792ZM36.4994 24.7819C37.4833 24.6882 38.4671 24.8288 39.3104 25.2036L31.7208 32.7932C31.4865 32.2779 31.346 31.7157 31.2991 31.1535C31.018 27.9677 33.3137 25.1099 36.4994 24.7819Z" fill="white"/>
<path d="M28.3008 31.4346C28.4413 32.8869 28.9098 34.105 29.6126 35.2294C29.8 35.5574 30.3153 36.1664 30.3153 36.1664L42.4026 24.0792C41.9809 23.7512 41.653 23.4701 41.2782 23.2359C39.7321 22.2989 37.905 21.8304 35.9841 22.0178L28.3008 31.4346ZM36.4995 24.7819C37.4833 24.6882 38.4672 24.8288 39.3105 25.2036L31.7208 32.7932C31.4866 32.2779 31.346 31.7157 31.2992 31.1535C31.0181 27.9677 33.3137 25.1099 36.4995 24.7819Z" fill="#CBE4EF"/>
<path d="M32.8477 34.6674C33.1756 34.9954 33.5504 35.2765 33.9721 35.5107L43.8574 25.6254C43.5763 25.2506 43.2952 24.9227 42.9672 24.5947L32.8477 34.6674Z" fill="#CBE4EF"/>
</g>
<defs>
<filter id="filter0_f" x="5" y="0" width="62" height="62" filterUnits="userSpaceOnUse" color-interpolation-filters="sRGB">
<feFlood flood-opacity="0" result="BackgroundImageFix"/>
<feBlend mode="normal" in="SourceGraphic" in2="BackgroundImageFix" result="shape"/>
<feGaussianBlur stdDeviation="2.5" result="effect1_foregroundBlur"/>
</filter>
<filter id="filter1_d" x="0" y="3" width="72" height="72" filterUnits="userSpaceOnUse" color-interpolation-filters="sRGB">
<feFlood flood-opacity="0" result="BackgroundImageFix"/>
<feColorMatrix in="SourceAlpha" type="matrix" values="0 0 0 0 0 0 0 0 0 0 0 0 0 0 0 0 0 0 127 0"/>
<feOffset dy="8"/>
<feGaussianBlur stdDeviation="5"/>
<feColorMatrix type="matrix" values="0 0 0 0 0.729412 0 0 0 0 0.741176 0 0 0 0 0.815686 0 0 0 0.2 0"/>
<feBlend mode="normal" in2="BackgroundImageFix" result="effect1_dropShadow"/>
<feBlend mode="normal" in="SourceGraphic" in2="effect1_dropShadow" result="shape"/>
</filter>
</defs>
</svg>
