<svg width="72" height="80" viewBox="0 0 72 80" fill="none" xmlns="http://www.w3.org/2000/svg">
<g filter="url(#filter0_f)">
<g filter="url(#filter1_d)">
<circle cx="36" cy="36" r="26" fill="white"/>
</g>
<path d="M53.9998 35.8C53.9998 41.7428 49.1998 46.5999 43.1999 46.5999C37.257 46.5999 32.3999 41.7428 32.3999 35.8C32.3999 29.8571 37.1999 25 43.1427 25C49.1998 25 53.9998 29.8571 53.9998 35.8Z" fill="#FFB600"/>
<path d="M43.1999 25C49.1427 25 53.9998 29.8571 53.9998 35.8C53.9998 41.7428 49.1998 46.5999 43.1999 46.5999C37.257 46.5999 32.3999 41.7428 32.3999 35.8" fill="#F7981D"/>
<path d="M43.2002 25C49.143 25 54.0001 29.8571 54.0001 35.8C54.0001 41.7428 49.2002 46.5999 43.2002 46.5999" fill="#FF8500"/>
<path d="M28.6857 25C22.8 25.0571 18 29.8571 18 35.8C18 41.7428 22.8 46.5999 28.8 46.5999C31.5999 46.5999 34.1142 45.5142 36.0571 43.7999C36.4571 43.4571 36.7999 43.0571 37.1428 42.6571H34.9142C34.6285 42.3142 34.3428 41.9142 34.1142 41.5714H37.9428C38.1713 41.2285 38.3999 40.8285 38.5713 40.4285H33.4856C33.3142 40.0856 33.1428 39.6856 33.0285 39.2857H38.9713C39.3142 38.1999 39.5428 37.0571 39.5428 35.8571C39.5428 35.0571 39.4285 34.3142 39.3142 33.5714H32.6857C32.7428 33.1714 32.8571 32.8285 32.9714 32.4285H38.9142C38.7999 32.0285 38.6285 31.6285 38.4571 31.2857H33.4285C33.5999 30.8857 33.8285 30.5428 34.0571 30.1428H37.8856C37.6571 29.7428 37.3713 29.3428 37.0285 29H34.9142C35.2571 28.6 35.5999 28.2571 35.9999 27.9143C34.1142 26.1429 31.5428 25.1143 28.7428 25.1143C28.7428 25 28.7428 25 28.6857 25Z" fill="#FF5050"/>
<path d="M18 35.7999C18 41.7428 22.8 46.5999 28.8 46.5999C31.5999 46.5999 34.1142 45.5142 36.0571 43.7999C36.4571 43.457 36.7999 43.057 37.1428 42.657H34.9142C34.6285 42.3142 34.3428 41.9142 34.1142 41.5713H37.9428C38.1713 41.2285 38.3999 40.8285 38.5713 40.4285H33.4856C33.3142 40.0856 33.1428 39.6856 33.0285 39.2856H38.9713C39.3142 38.1999 39.5428 37.0571 39.5428 35.8571C39.5428 35.0571 39.4285 34.3142 39.3142 33.5714H32.6857C32.7428 33.1714 32.8571 32.8285 32.9714 32.4285H38.9142C38.7999 32.0285 38.6285 31.6285 38.4571 31.2857H33.4285C33.5999 30.8857 33.8285 30.5428 34.0571 30.1428H37.8856C37.6571 29.7428 37.3713 29.3428 37.0285 29H34.9142C35.2571 28.6 35.5999 28.2571 35.9999 27.9142C34.1142 26.1428 31.5428 25.1143 28.7428 25.1143H28.6857" fill="#E52836"/>
<path d="M28.8003 46.5999C31.6003 46.5999 34.1146 45.5142 36.0574 43.7999C36.4574 43.457 36.8003 43.057 37.1431 42.657H34.9146C34.6289 42.3142 34.3432 41.9142 34.1146 41.5713H37.9431C38.1717 41.2285 38.4003 40.8285 38.5717 40.4285H33.486C33.3146 40.0856 33.1432 39.6856 33.0289 39.2856H38.9717C39.3146 38.1999 39.5431 37.0571 39.5431 35.8571C39.5431 35.0571 39.4288 34.3142 39.3146 33.5714H32.686C32.7432 33.1714 32.8574 32.8285 32.9717 32.4285H38.9146C38.8003 32.0285 38.6288 31.6285 38.4574 31.2857H33.4289C33.6003 30.8857 33.8289 30.5428 34.0574 30.1428H37.886C37.6574 29.7428 37.3717 29.3428 37.0289 29H34.9146C35.2574 28.6 35.6003 28.2571 36.0003 27.9142C34.1146 26.1428 31.5432 25.1143 28.7432 25.1143H28.686" fill="#CB2026"/>
</g>
<defs>
<filter id="filter0_f" x="0" y="0" width="72" height="72" filterUnits="userSpaceOnUse" color-interpolation-filters="sRGB">
<feFlood flood-opacity="0" result="BackgroundImageFix"/>
<feBlend mode="normal" in="SourceGraphic" in2="BackgroundImageFix" result="shape"/>
<feGaussianBlur stdDeviation="5" result="effect1_foregroundBlur"/>
</filter>
<filter id="filter1_d" x="0" y="8" width="72" height="72" filterUnits="userSpaceOnUse" color-interpolation-filters="sRGB">
<feFlood flood-opacity="0" result="BackgroundImageFix"/>
<feColorMatrix in="SourceAlpha" type="matrix" values="0 0 0 0 0 0 0 0 0 0 0 0 0 0 0 0 0 0 127 0"/>
<feOffset dy="8"/>
<feGaussianBlur stdDeviation="5"/>
<feColorMatrix type="matrix" values="0 0 0 0 0.729412 0 0 0 0 0.741176 0 0 0 0 0.815686 0 0 0 0.2 0"/>
<feBlend mode="normal" in2="BackgroundImageFix" result="effect1_dropShadow"/>
<feBlend mode="normal" in="SourceGraphic" in2="effect1_dropShadow" result="shape"/>
</filter>
</defs>
</svg>
