<svg width="60" height="46" viewBox="0 0 60 46" fill="none" xmlns="http://www.w3.org/2000/svg">
<path d="M59.8189 36.7182C59.8189 41.8281 55.6506 45.989 50.5316 45.989H0V9.27081C0 4.16091 4.16831 0 9.28728 0H59.8189V36.7182Z" fill="white"/>
<path d="M43.3662 27.3014H47.2054C47.3151 27.3014 47.5711 27.2649 47.6808 27.2649C48.412 27.1189 49.0336 26.4619 49.0336 25.5494C49.0336 24.6735 48.412 24.0165 47.6808 23.834C47.5711 23.7975 47.3517 23.7975 47.2054 23.7975H43.3662V27.3014Z" fill="url(#paint0_linear)"/>
<path d="M46.7654 3.10254C43.109 3.10254 40.1108 6.05898 40.1108 9.7454V16.6438H49.5078C49.7271 16.6438 49.9831 16.6438 50.1659 16.6803C52.2866 16.7898 53.8589 17.8847 53.8589 19.7827C53.8589 21.2792 52.7985 22.5566 50.8241 22.8121V22.8851C52.9813 23.0311 54.6267 24.2356 54.6267 26.0971C54.6267 28.1045 52.7985 29.4185 50.3853 29.4185H40.0742V42.9232H49.8368C53.4932 42.9232 56.4915 39.9668 56.4915 36.2803V3.10254H46.7654Z" fill="url(#paint1_linear)"/>
<path d="M48.5583 20.2206C48.5583 19.3446 47.9367 18.7606 47.2054 18.6511C47.1323 18.6511 46.9495 18.6146 46.8398 18.6146H43.3662V21.8266H46.8398C46.9495 21.8266 47.1689 21.8266 47.2054 21.7901C47.9367 21.6806 48.5583 21.0966 48.5583 20.2206Z" fill="url(#paint2_linear)"/>
<path d="M9.98127 3.10254C6.32486 3.10254 3.3266 6.05898 3.3266 9.7454V26.1336C5.19137 27.046 7.12927 27.63 9.06717 27.63C11.3707 27.63 12.6139 26.2431 12.6139 24.3451V16.6073H18.3179V24.3086C18.3179 27.3015 16.4531 29.747 10.1275 29.747C6.28829 29.747 3.29004 28.9075 3.29004 28.9075V42.8867H13.0527C16.7091 42.8867 19.7073 39.9303 19.7073 36.2438V3.10254H9.98127Z" fill="url(#paint3_linear)"/>
<path d="M28.3734 3.10254C24.717 3.10254 21.7188 6.05898 21.7188 9.7454V18.4322C23.4007 17.0087 26.3258 16.0963 31.0426 16.3153C33.5655 16.4248 36.2713 17.1182 36.2713 17.1182V19.9287C34.9184 19.2352 33.3096 18.6147 31.2254 18.4687C27.6421 18.2132 25.4849 19.9652 25.4849 23.0311C25.4849 26.1336 27.6421 27.8855 31.2254 27.5935C33.3096 27.4475 34.9184 26.7905 36.2713 26.1336V28.944C36.2713 28.944 33.6021 29.6375 31.0426 29.747C26.3258 29.966 23.4007 29.0535 21.7188 27.63V42.9597H31.4814C35.1378 42.9597 38.136 40.0033 38.136 36.3168V3.10254H28.3734Z" fill="url(#paint4_linear)"/>
<defs>
<linearGradient id="paint0_linear" x1="40.1058" y1="25.5538" x2="56.5369" y2="25.5538" gradientUnits="userSpaceOnUse">
<stop stop-color="#007940"/>
<stop offset="0.229" stop-color="#00873F"/>
<stop offset="0.743" stop-color="#40A737"/>
<stop offset="1" stop-color="#5CB531"/>
</linearGradient>
<linearGradient id="paint1_linear" x1="40.1042" y1="22.9968" x2="56.5365" y2="22.9968" gradientUnits="userSpaceOnUse">
<stop stop-color="#007940"/>
<stop offset="0.229" stop-color="#00873F"/>
<stop offset="0.743" stop-color="#40A737"/>
<stop offset="1" stop-color="#5CB531"/>
</linearGradient>
<linearGradient id="paint2_linear" x1="40.1054" y1="20.2158" x2="56.537" y2="20.2158" gradientUnits="userSpaceOnUse">
<stop stop-color="#007940"/>
<stop offset="0.229" stop-color="#00873F"/>
<stop offset="0.743" stop-color="#40A737"/>
<stop offset="1" stop-color="#5CB531"/>
</linearGradient>
<linearGradient id="paint3_linear" x1="3.31892" y1="22.9968" x2="20.0042" y2="22.9968" gradientUnits="userSpaceOnUse">
<stop stop-color="#1F286F"/>
<stop offset="0.475" stop-color="#004E94"/>
<stop offset="0.826" stop-color="#0066B1"/>
<stop offset="1" stop-color="#006FBC"/>
</linearGradient>
<linearGradient id="paint4_linear" x1="21.624" y1="22.9968" x2="37.8296" y2="22.9968" gradientUnits="userSpaceOnUse">
<stop stop-color="#6C2C2F"/>
<stop offset="0.173" stop-color="#882730"/>
<stop offset="0.573" stop-color="#BE1833"/>
<stop offset="0.859" stop-color="#DC0436"/>
<stop offset="1" stop-color="#E60039"/>
</linearGradient>
</defs>
</svg>
