<svg width="71" height="22" viewBox="0 0 71 22" fill="none" xmlns="http://www.w3.org/2000/svg">
<path d="M25.9756 20.9154L29.5739 0.674805H35.1963L31.7104 20.9154H25.9756Z" fill="#3C58BF"/>
<path d="M25.9756 20.9154L30.586 0.674805H35.1963L31.7104 20.9154H25.9756Z" fill="#293688"/>
<path d="M52.0639 0.899583C50.9394 0.449791 49.1403 0 46.8913 0C41.2689 0 37.2208 2.8112 37.2208 6.85932C37.2208 9.89542 40.032 11.4697 42.2809 12.4817C44.5299 13.4938 45.2046 14.1684 45.2046 15.068C45.2046 16.4174 43.4054 17.0921 41.8312 17.0921C39.5822 17.0921 38.3453 16.7547 36.4336 15.9676L35.6465 15.6303L34.8594 20.2406C36.2088 20.8029 38.6826 21.3651 41.2689 21.3651C47.2287 21.3651 51.1643 18.5539 51.1643 14.2809C51.1643 11.9195 49.7025 10.1203 46.3291 8.65849C44.305 7.64646 43.0681 7.08422 43.0681 6.07219C43.0681 5.17261 44.0801 4.27302 46.3291 4.27302C48.2407 4.27302 49.5901 4.61037 50.6021 5.06016L51.1643 5.28505L52.0639 0.899583Z" fill="#3C58BF"/>
<path d="M52.0639 0.899583C50.9394 0.449791 49.1403 0 46.8913 0C41.2689 0 38.2328 2.8112 38.2328 6.85932C38.2328 9.89542 40.032 11.4697 42.2809 12.4817C44.5299 13.4938 45.2046 14.1684 45.2046 15.068C45.2046 16.4174 43.4054 17.0921 41.8312 17.0921C39.5822 17.0921 38.3453 16.7547 36.4336 15.9676L35.6465 15.6303L34.8594 20.2406C36.2088 20.8029 38.6826 21.3651 41.2689 21.3651C47.2287 21.3651 51.1643 18.5539 51.1643 14.2809C51.1643 11.9195 49.7025 10.1203 46.3291 8.65849C44.305 7.64646 43.0681 7.08422 43.0681 6.07219C43.0681 5.17261 44.0801 4.27302 46.3291 4.27302C48.2407 4.27302 49.5901 4.61037 50.6021 5.06016L51.1643 5.28505L52.0639 0.899583Z" fill="#293688"/>
<path d="M61.7352 0.674805C60.3858 0.674805 59.3738 0.787254 58.8115 2.13663L50.3779 20.9154H56.4501L57.5746 17.542H64.7713L65.446 20.9154H70.8435L66.1206 0.674805H61.7352ZM59.1489 14.1686C59.4862 13.1565 61.3978 8.20882 61.3978 8.20882C61.3978 8.20882 61.8476 6.97189 62.185 6.18476L62.5223 8.09637C62.5223 8.09637 63.6468 13.1565 63.8717 14.281H59.1489V14.1686Z" fill="#3C58BF"/>
<path d="M63.0846 0.674805C61.7352 0.674805 60.7231 0.787254 60.1609 2.13663L50.3779 20.9154H56.4501L57.5746 17.542H64.7713L65.446 20.9154H70.8435L66.1206 0.674805H63.0846ZM59.1489 14.1686C59.5987 13.0441 61.3978 8.20882 61.3978 8.20882C61.3978 8.20882 61.8476 6.97189 62.185 6.18476L62.5223 8.09637C62.5223 8.09637 63.6468 13.1565 63.8717 14.281H59.1489V14.1686Z" fill="#293688"/>
<path d="M15.6289 14.8431L15.0667 11.9195C14.0546 8.54602 10.7936 4.83524 7.19531 3.03607L12.2555 21.0277H18.3277L27.436 0.787109H21.3638L15.6289 14.8431Z" fill="#3C58BF"/>
<path d="M15.6289 14.8431L15.0667 11.9195C14.0546 8.54602 10.7936 4.83524 7.19531 3.03607L12.2555 21.0277H18.3277L27.436 0.787109H22.4882L15.6289 14.8431Z" fill="#293688"/>
<path d="M0 0.674805L1.01203 0.899702C8.2087 2.58642 13.1564 6.85944 15.068 11.9196L13.044 2.36152C12.7066 1.01215 11.6946 0.674805 10.4577 0.674805H0Z" fill="#FFBC00"/>
<path d="M0 0.674805C7.19667 2.36152 13.1564 6.747 15.068 11.8072L13.1564 3.82335C12.8191 2.47397 11.6946 1.68684 10.4577 1.68684L0 0.674805Z" fill="#F7981D"/>
<path d="M0 0.674805C7.19667 2.36152 13.1564 6.747 15.068 11.8072L13.7187 7.42168C13.3813 6.07231 12.9315 4.72293 11.3572 4.16069L0 0.674805Z" fill="#ED7C00"/>
<path d="M21.2531 14.1686L17.4299 10.3454L15.6307 14.6184L15.1809 11.8072C14.1689 8.43378 10.9079 4.723 7.30957 2.92383L12.3697 20.9155H18.4419L21.2531 14.1686Z" fill="#051244"/>
<path d="M31.7114 20.9152L26.8761 15.9675L25.9766 20.9152H31.7114Z" fill="#051244"/>
<path d="M44.6424 13.9435C45.0921 14.3933 45.317 14.7306 45.2046 15.1804C45.2046 16.5298 43.4054 17.2045 41.8312 17.2045C39.5822 17.2045 38.3453 16.8671 36.4336 16.08L35.6465 15.7427L34.8594 20.353C36.2088 20.9153 38.6826 21.4775 41.2689 21.4775C44.8672 21.4775 47.7909 20.4655 49.4776 18.6663L44.6424 13.9435Z" fill="#051244"/>
<path d="M51.1641 20.9156H56.4491L57.5736 17.5422H64.7703L65.445 20.9156H70.8425L68.9308 12.7069L62.184 6.18494L62.5213 7.9841C62.5213 7.9841 63.6458 13.0443 63.8707 14.1687H59.1479C59.5977 13.0443 61.3968 8.209 61.3968 8.209C61.3968 8.209 61.8466 6.97207 62.184 6.18494" fill="#051244"/>
</svg>
