<svg width="174" height="82" viewBox="0 0 174 82" fill="none" xmlns="http://www.w3.org/2000/svg">
<g filter="url(#filter0_i)">
<path d="M35.88 80H19.44V27.92H0.72V16.76C6.32 16.68 11 15.28 14.76 12.56C18.52 9.76 20.8 6.28 21.6 2.11999H35.88V80ZM66.9788 32.24L51.2588 31.76C50.8588 30 50.6588 28.2 50.6588 26.36C50.6588 19.16 53.2188 13.04 58.3388 8C63.4588 2.88 70.3788 0.319996 79.0988 0.319996C87.5788 0.319996 94.3788 2.76 99.4988 7.63999C104.619 12.44 107.179 18.36 107.179 25.4C107.179 35.32 102.139 43.36 92.0588 49.52L77.0587 58.64C73.5388 60.88 71.2988 63.24 70.3388 65.72H107.659V80H50.0588C50.1388 72.72 51.5388 66.36 54.2588 60.92C57.0588 55.48 61.7788 50.76 68.4188 46.76L81.2588 39.08C87.4188 35.4 90.4988 30.92 90.4988 25.64C90.4988 22.68 89.4588 20.16 87.3788 18.08C85.3788 16 82.4988 14.96 78.7388 14.96C74.7388 14.96 71.6588 16.16 69.4988 18.56C67.4188 20.96 66.3788 24.08 66.3788 27.92C66.3788 29.36 66.5788 30.8 66.9788 32.24ZM137.407 45.44L130.087 33.92L150.487 16.4H116.407V2.11999H171.487V15.44L151.327 32.24C157.487 32.48 162.767 34.8 167.167 39.2C171.647 43.52 173.887 49.12 173.887 56C173.887 63.04 171.167 69.12 165.727 74.24C160.287 79.28 153.047 81.8 144.007 81.8C135.287 81.8 128.207 79.4 122.767 74.6C117.327 69.72 114.367 63.84 113.887 56.96L129.847 53.84C130.007 57.84 131.367 61.12 133.927 63.68C136.567 66.24 139.927 67.52 144.007 67.52C148.007 67.52 151.207 66.4 153.607 64.16C156.007 61.92 157.207 59.12 157.207 55.76C157.207 52.16 156.007 49.36 153.607 47.36C151.287 45.28 148.247 44.24 144.487 44.24C142.007 44.24 139.647 44.64 137.407 45.44Z" fill="#FFDB66"/>
</g>
<defs>
<filter id="filter0_i" x="0.720215" y="0.320068" width="173.167" height="85.48" filterUnits="userSpaceOnUse" color-interpolation-filters="sRGB">
<feFlood flood-opacity="0" result="BackgroundImageFix"/>
<feBlend mode="normal" in="SourceGraphic" in2="BackgroundImageFix" result="shape"/>
<feColorMatrix in="SourceAlpha" type="matrix" values="0 0 0 0 0 0 0 0 0 0 0 0 0 0 0 0 0 0 127 0" result="hardAlpha"/>
<feOffset dy="4"/>
<feGaussianBlur stdDeviation="2"/>
<feComposite in2="hardAlpha" operator="arithmetic" k2="-1" k3="1"/>
<feColorMatrix type="matrix" values="0 0 0 0 0.820833 0 0 0 0 0.680809 0 0 0 0 0.225729 0 0 0 1 0"/>
<feBlend mode="normal" in2="shape" result="effect1_innerShadow"/>
</filter>
</defs>
</svg>
