<svg width="27" height="24" viewBox="0 0 27 24" fill="none" xmlns="http://www.w3.org/2000/svg">
<path d="M23.3776 7.56383C23.3776 9.67015 21.6701 11.3777 19.5638 11.3777C17.4575 11.3777 15.75 9.67015 15.75 7.56383C15.75 5.45751 17.4575 3.75 19.5638 3.75C21.6701 3.75 23.3776 5.45751 23.3776 7.56383Z" fill="white" stroke="#414B83" stroke-width="1.5"/>
<path d="M25.6489 20.2535C26.0695 19.6827 26.2336 18.9782 26.25 18.5171C26.2435 14.7759 23.2212 11.75 19.5 11.75C15.7748 11.75 12.75 14.7824 12.75 18.5291C12.75 19.5809 13.1597 20.2179 13.6374 20.6165C14.1305 21.0278 14.7307 21.21 15.1203 21.25H23.4894C24.6019 21.25 25.2509 20.7937 25.6489 20.2535Z" fill="white" stroke="#414B83" stroke-width="1.5"/>
<path d="M11.3776 7.56383C11.3776 9.67015 9.67012 11.3777 7.5638 11.3777C5.45748 11.3777 3.74997 9.67015 3.74997 7.56383C3.74997 5.45751 5.45748 3.75 7.5638 3.75C9.67012 3.75 11.3776 5.45751 11.3776 7.56383Z" fill="white" stroke="#414B83" stroke-width="1.5"/>
<path d="M13.6489 20.2535C14.0695 19.6827 14.2336 18.9782 14.25 18.5171C14.2435 14.7759 11.2212 11.75 7.5 11.75C3.77482 11.75 0.75 14.7824 0.75 18.5291C0.75 19.5809 1.1597 20.2179 1.63737 20.6165C2.13048 21.0278 2.7307 21.21 3.12027 21.25H11.4894C12.6019 21.25 13.2509 20.7937 13.6489 20.2535Z" fill="white" stroke="#414B83" stroke-width="1.5"/>
<path d="M18.25 5.5C18.25 8.12335 16.1233 10.25 13.5 10.25C10.8766 10.25 8.74996 8.12335 8.74996 5.5C8.74996 2.87665 10.8766 0.75 13.5 0.75C16.1233 0.75 18.25 2.87665 18.25 5.5Z" fill="white" stroke="#576FFF" stroke-width="1.5"/>
<path d="M21.4486 21.8999C22.0118 21.1318 22.2289 20.1902 22.25 19.5707C22.2437 14.692 18.3225 10.75 13.5 10.75C8.67361 10.75 4.75 14.6983 4.75 19.5825C4.75 20.9851 5.29795 21.8531 5.94723 22.3973C6.61152 22.9542 7.41682 23.1979 7.9425 23.25H18.5532C20.0274 23.25 20.9079 22.6372 21.4486 21.8999Z" fill="white" stroke="#576FFF" stroke-width="1.5"/>
</svg>
