<svg width="24" height="24" viewBox="0 0 24 24" fill="none" xmlns="http://www.w3.org/2000/svg">
<path d="M15.2723 11.4882C16.0836 11.0309 16.5221 10.1155 16.3709 9.19714C16.1831 7.77933 14.493 7.24408 13.1596 7.13143V5H11.8451V7.11267H10.9625V5H9.64792V7.11267H7V8.47418H7.98592C8.42724 8.47418 8.64319 8.60564 8.64319 8.96243V14.8122C8.64319 15.3004 8.39905 15.4507 8.13614 15.4507H7.13146V16.8404H9.68545V19H11.0094V16.8404H11.892V19H13.1784V16.8404H13.4601C16.1643 16.8404 17.0657 15.5164 17.0657 13.7136C17.0441 12.6507 16.307 11.7361 15.2723 11.4882ZM10.9624 8.55868H11.9014C12.5587 8.55868 13.8544 8.67137 13.8544 9.74178C13.8995 10.4404 13.3934 11.0526 12.6995 11.1408H10.9624V8.55868ZM12.4178 15.3192V15.3098H10.9624V12.4929H12.6526C13.0469 12.4929 14.5305 12.6244 14.5305 13.676C14.5305 14.7277 13.8263 15.3192 12.4178 15.3192Z" fill="#576FFF"/>
<circle cx="12" cy="12" r="11.25" stroke="#414B83" stroke-width="1.5"/>
</svg>
