<svg width="27" height="22" viewBox="0 0 27 22" fill="none" xmlns="http://www.w3.org/2000/svg">
<path d="M17.1875 15.2109L19.1772 17.2292L22.5964 14" stroke="#576FFF" stroke-width="1.5" stroke-linecap="round" stroke-linejoin="round"/>
<path d="M24.1458 8.23547C24.1458 8.64968 24.4816 8.98547 24.8958 8.98547C25.31 8.98547 25.6458 8.64968 25.6458 8.23547H24.1458ZM11.4383 17.25C11.8525 17.25 12.1883 16.9142 12.1883 16.5C12.1883 16.0858 11.8525 15.75 11.4383 15.75V17.25ZM4 1.75H21.8958V0.25H4V1.75ZM1.75 13.5V4H0.25V13.5H1.75ZM24.1458 4V8.23547H25.6458V4H24.1458ZM11.4383 15.75H4V17.25H11.4383V15.75ZM0.25 13.5C0.25 15.5711 1.92893 17.25 4 17.25V15.75C2.75736 15.75 1.75 14.7426 1.75 13.5H0.25ZM21.8958 1.75C23.1385 1.75 24.1458 2.75736 24.1458 4H25.6458C25.6458 1.92893 23.9669 0.25 21.8958 0.25V1.75ZM4 0.25C1.92893 0.25 0.25 1.92893 0.25 4H1.75C1.75 2.75736 2.75736 1.75 4 1.75V0.25Z" fill="#414B83"/>
<path d="M1.74609 4.875H24.1484" stroke="#576FFF" stroke-width="1.5"/>
<path d="M3.58398 10.042H6.81315" stroke="#576FFF" stroke-width="1.5" stroke-linecap="round"/>
<path d="M3.58398 12.625H8.75065" stroke="#576FFF" stroke-width="1.5" stroke-linecap="round"/>
<circle cx="19.6875" cy="15.5" r="5.75" stroke="#576FFF" stroke-width="1.5"/>
</svg>
