<svg width="720" height="401" viewBox="0 0 720 401" fill="none" xmlns="http://www.w3.org/2000/svg">
<path d="M701.096 36.7879C697.754 25.6211 685.52 22.0467 679.82 21.6553L619.386 14.458L522.89 2.72526C510.975 1.27651 500.476 10.576 500.476 22.579V148.365C500.476 161.431 512.77 170.996 525.424 167.741C594.82 149.893 700.247 122.734 709.58 120.148C720.127 117.226 720.675 107.015 719.631 102.276C714.845 85.0992 704.437 47.9547 701.096 36.7879Z" fill="#F6F8FF"/>
<path d="M594.408 98.8L589.496 110H587.912L582.984 98.8H584.712L588.744 108L592.808 98.8H594.408ZM595.628 101.52H597.164V110H595.628V101.52ZM596.396 99.888C596.097 99.888 595.847 99.792 595.644 99.6C595.452 99.408 595.356 99.1733 595.356 98.896C595.356 98.6187 595.452 98.384 595.644 98.192C595.847 97.9893 596.097 97.888 596.396 97.888C596.695 97.888 596.94 97.984 597.132 98.176C597.335 98.3573 597.436 98.5867 597.436 98.864C597.436 99.152 597.335 99.3973 597.132 99.6C596.94 99.792 596.695 99.888 596.396 99.888ZM602.529 110.096C601.835 110.096 601.169 110.005 600.529 109.824C599.889 109.632 599.387 109.392 599.025 109.104L599.665 107.888C600.038 108.155 600.491 108.368 601.025 108.528C601.558 108.688 602.097 108.768 602.641 108.768C603.985 108.768 604.657 108.384 604.657 107.616C604.657 107.36 604.566 107.157 604.385 107.008C604.203 106.859 603.974 106.752 603.697 106.688C603.43 106.613 603.046 106.533 602.545 106.448C601.862 106.341 601.302 106.219 600.865 106.08C600.438 105.941 600.07 105.707 599.761 105.376C599.451 105.045 599.297 104.581 599.297 103.984C599.297 103.216 599.617 102.603 600.257 102.144C600.897 101.675 601.755 101.44 602.833 101.44C603.398 101.44 603.963 101.509 604.529 101.648C605.094 101.787 605.558 101.973 605.921 102.208L605.265 103.424C604.571 102.976 603.755 102.752 602.817 102.752C602.166 102.752 601.67 102.859 601.329 103.072C600.987 103.285 600.817 103.568 600.817 103.92C600.817 104.197 600.913 104.416 601.105 104.576C601.297 104.736 601.531 104.853 601.809 104.928C602.097 105.003 602.497 105.088 603.009 105.184C603.691 105.301 604.241 105.429 604.657 105.568C605.083 105.696 605.446 105.92 605.745 106.24C606.043 106.56 606.193 107.008 606.193 107.584C606.193 108.352 605.862 108.965 605.201 109.424C604.55 109.872 603.659 110.096 602.529 110.096ZM611.2 101.44C612.374 101.44 613.27 101.728 613.888 102.304C614.518 102.88 614.832 103.739 614.832 104.88V110H613.376V108.88C613.12 109.275 612.752 109.579 612.272 109.792C611.803 109.995 611.243 110.096 610.592 110.096C609.643 110.096 608.88 109.867 608.304 109.408C607.739 108.949 607.456 108.347 607.456 107.6C607.456 106.853 607.728 106.256 608.272 105.808C608.816 105.349 609.68 105.12 610.864 105.12H613.296V104.816C613.296 104.155 613.104 103.648 612.72 103.296C612.336 102.944 611.771 102.768 611.024 102.768C610.523 102.768 610.032 102.853 609.552 103.024C609.072 103.184 608.667 103.403 608.336 103.68L607.696 102.528C608.134 102.176 608.656 101.909 609.264 101.728C609.872 101.536 610.518 101.44 611.2 101.44ZM610.848 108.912C611.435 108.912 611.942 108.784 612.368 108.528C612.795 108.261 613.104 107.888 613.296 107.408V106.224H610.928C609.627 106.224 608.976 106.661 608.976 107.536C608.976 107.963 609.142 108.299 609.472 108.544C609.803 108.789 610.262 108.912 610.848 108.912Z" fill="#333333"/>
<g clip-path="url(#clip0)">
<path d="M587.2 85.7905L592.076 58.3619H599.695L594.972 85.7905H587.2Z" fill="#3C58BF"/>
<path d="M587.2 85.7905L593.448 58.3619H599.695L594.972 85.7905H587.2Z" fill="#293688"/>
<path d="M622.553 58.6667C621.029 58.0572 618.591 57.4476 615.543 57.4476C607.924 57.4476 602.438 61.2572 602.438 66.7429C602.438 70.8571 606.248 72.9905 609.295 74.3619C612.343 75.7333 613.257 76.6476 613.257 77.8667C613.257 79.6952 610.819 80.6095 608.686 80.6095C605.638 80.6095 603.962 80.1524 601.372 79.0857L600.305 78.6286L599.238 84.8762C601.067 85.6381 604.419 86.4 607.924 86.4C616 86.4 621.334 82.5905 621.334 76.8C621.334 73.6 619.353 71.1619 614.781 69.181C612.038 67.8095 610.362 67.0476 610.362 65.6762C610.362 64.4572 611.734 63.2381 614.781 63.2381C617.372 63.2381 619.2 63.6952 620.572 64.3048L621.334 64.6095L622.553 58.6667Z" fill="#3C58BF"/>
<path d="M622.553 58.6667C621.029 58.0572 618.591 57.4476 615.543 57.4476C607.924 57.4476 603.81 61.2572 603.81 66.7429C603.81 70.8571 606.248 72.9905 609.295 74.3619C612.343 75.7333 613.257 76.6476 613.257 77.8667C613.257 79.6952 610.819 80.6095 608.686 80.6095C605.638 80.6095 603.962 80.1524 601.372 79.0857L600.305 78.6286L599.238 84.8762C601.067 85.6381 604.419 86.4 607.924 86.4C616 86.4 621.334 82.5905 621.334 76.8C621.334 73.6 619.353 71.1619 614.781 69.181C612.038 67.8095 610.362 67.0476 610.362 65.6762C610.362 64.4572 611.734 63.2381 614.781 63.2381C617.372 63.2381 619.2 63.6952 620.572 64.3048L621.334 64.6095L622.553 58.6667Z" fill="#293688"/>
<path d="M635.657 58.3619C633.829 58.3619 632.457 58.5143 631.695 60.3429L620.267 85.7905H628.495L630.019 81.2191H639.771L640.686 85.7905H648L641.6 58.3619H635.657ZM632.152 76.6477C632.609 75.2762 635.2 68.5715 635.2 68.5715C635.2 68.5715 635.809 66.8953 636.267 65.8286L636.724 68.4191C636.724 68.4191 638.248 75.2762 638.552 76.8H632.152V76.6477Z" fill="#3C58BF"/>
<path d="M637.486 58.3619C635.657 58.3619 634.286 58.5143 633.524 60.3429L620.267 85.7905H628.495L630.019 81.2191H639.771L640.686 85.7905H648L641.6 58.3619H637.486ZM632.152 76.6477C632.762 75.1238 635.2 68.5715 635.2 68.5715C635.2 68.5715 635.809 66.8953 636.267 65.8286L636.724 68.4191C636.724 68.4191 638.248 75.2762 638.552 76.8H632.152V76.6477Z" fill="#293688"/>
<path d="M573.181 77.5619L572.419 73.6C571.047 69.0286 566.628 64 561.752 61.5619L568.609 85.9429H576.838L589.181 58.5143H580.952L573.181 77.5619Z" fill="#3C58BF"/>
<path d="M573.181 77.5619L572.419 73.6C571.047 69.0286 566.628 64 561.752 61.5619L568.609 85.9429H576.838L589.181 58.5143H582.476L573.181 77.5619Z" fill="#293688"/>
<path d="M552 58.3619L553.371 58.6667C563.124 60.9524 569.829 66.7429 572.419 73.6L569.676 60.6477C569.219 58.8191 567.848 58.3619 566.171 58.3619H552Z" fill="#FFBC00"/>
<path d="M552 58.3619C561.752 60.6477 569.829 66.5905 572.419 73.4477L569.829 62.6286C569.371 60.8 567.848 59.7334 566.171 59.7334L552 58.3619Z" fill="#F7981D"/>
<path d="M552 58.3619C561.752 60.6477 569.829 66.5905 572.419 73.4477L570.59 67.5048C570.133 65.6762 569.524 63.8477 567.39 63.0857L552 58.3619Z" fill="#ED7C00"/>
<path d="M580.801 76.6476L575.62 71.4667L573.181 77.2572L572.572 73.4476C571.201 68.8762 566.781 63.8476 561.905 61.4095L568.762 85.7905H576.991L580.801 76.6476Z" fill="#051244"/>
<path d="M594.972 85.7904L588.419 79.0857L587.2 85.7904H594.972Z" fill="#051244"/>
<path d="M612.495 76.3429C613.105 76.9524 613.41 77.4096 613.257 78.0191C613.257 79.8477 610.819 80.7619 608.686 80.7619C605.638 80.7619 603.962 80.3048 601.372 79.2381L600.305 78.781L599.238 85.0286C601.067 85.7905 604.419 86.5524 607.924 86.5524C612.8 86.5524 616.762 85.181 619.048 82.7429L612.495 76.3429Z" fill="#051244"/>
<path d="M621.334 85.7905H628.496L630.02 81.2191H639.772L640.686 85.7905H648.001L645.41 74.6667L636.267 65.8286L636.724 68.2667C636.724 68.2667 638.248 75.1239 638.553 76.6477H632.153C632.763 75.1239 635.201 68.5715 635.201 68.5715C635.201 68.5715 635.81 66.8953 636.267 65.8286" fill="#051244"/>
</g>
<path d="M200.619 36.7879C197.278 25.6211 185.043 22.0467 179.343 21.6553L118.91 14.458L22.4136 2.72526C10.4983 1.27651 -0.00038147 10.576 -0.00038147 22.579V148.365C-0.00038147 161.431 12.2938 170.996 24.9479 167.741C94.3432 149.893 199.77 122.734 209.104 120.148C219.65 117.226 220.198 107.015 219.154 102.276C214.368 85.0992 203.961 47.9547 200.619 36.7879Z" fill="#F6F8FF"/>
<path d="M45.441 100.2H39.489L38.257 103H36.609L41.681 91.8H43.265L48.353 103H46.673L45.441 100.2ZM44.881 98.92L42.465 93.432L40.049 98.92H44.881ZM60.4078 94.44C61.4744 94.44 62.3171 94.7493 62.9358 95.368C63.5651 95.9867 63.8798 96.904 63.8798 98.12V103H62.3438V98.296C62.3438 97.4747 62.1518 96.856 61.7678 96.44C61.3944 96.024 60.8558 95.816 60.1518 95.816C59.3731 95.816 58.7544 96.0613 58.2958 96.552C57.8371 97.032 57.6078 97.7253 57.6078 98.632V103H56.0718V98.296C56.0718 97.4747 55.8798 96.856 55.4958 96.44C55.1224 96.024 54.5838 95.816 53.8798 95.816C53.1011 95.816 52.4824 96.0613 52.0238 96.552C51.5651 97.032 51.3358 97.7253 51.3358 98.632V103H49.7998V94.52H51.2718V95.784C51.5811 95.3467 51.9864 95.016 52.4878 94.792C52.9891 94.5573 53.5598 94.44 54.1998 94.44C54.8611 94.44 55.4478 94.5733 55.9598 94.84C56.4718 95.1067 56.8664 95.496 57.1438 96.008C57.4638 95.5173 57.9064 95.1333 58.4718 94.856C59.0478 94.5787 59.6931 94.44 60.4078 94.44ZM74.4169 98.808C74.4169 98.9253 74.4062 99.08 74.3849 99.272H67.5049C67.6009 100.019 67.9262 100.621 68.4809 101.08C69.0462 101.528 69.7449 101.752 70.5769 101.752C71.5902 101.752 72.4062 101.411 73.0249 100.728L73.8729 101.72C73.4889 102.168 73.0089 102.509 72.4329 102.744C71.8675 102.979 71.2329 103.096 70.5289 103.096C69.6329 103.096 68.8382 102.915 68.1449 102.552C67.4515 102.179 66.9129 101.661 66.5289 101C66.1555 100.339 65.9689 99.592 65.9689 98.76C65.9689 97.9387 66.1502 97.1973 66.5129 96.536C66.8862 95.8747 67.3929 95.3627 68.0329 95C68.6835 94.6267 69.4142 94.44 70.2249 94.44C71.0355 94.44 71.7555 94.6267 72.3849 95C73.0249 95.3627 73.5209 95.8747 73.8729 96.536C74.2355 97.1973 74.4169 97.9547 74.4169 98.808ZM70.2249 95.736C69.4889 95.736 68.8702 95.96 68.3689 96.408C67.8782 96.856 67.5902 97.4427 67.5049 98.168H72.9449C72.8595 97.4533 72.5662 96.872 72.0649 96.424C71.5742 95.9653 70.9609 95.736 70.2249 95.736ZM78.0218 95.944C78.2884 95.4533 78.6831 95.08 79.2057 94.824C79.7284 94.568 80.3631 94.44 81.1098 94.44V95.928C81.0244 95.9173 80.9071 95.912 80.7578 95.912C79.9258 95.912 79.2698 96.1627 78.7898 96.664C78.3204 97.1547 78.0858 97.8587 78.0858 98.776V103H76.5498V94.52H78.0218V95.944ZM83.0029 94.52H84.5389V103H83.0029V94.52ZM83.7709 92.888C83.4722 92.888 83.2215 92.792 83.0189 92.6C82.8269 92.408 82.7309 92.1733 82.7309 91.896C82.7309 91.6187 82.8269 91.384 83.0189 91.192C83.2215 90.9893 83.4722 90.888 83.7709 90.888C84.0695 90.888 84.3149 90.984 84.5069 91.176C84.7095 91.3573 84.8109 91.5867 84.8109 91.864C84.8109 92.152 84.7095 92.3973 84.5069 92.6C84.3149 92.792 84.0695 92.888 83.7709 92.888ZM91.1676 103.096C90.3036 103.096 89.5303 102.909 88.8476 102.536C88.1756 102.163 87.6476 101.651 87.2636 101C86.8796 100.339 86.6876 99.592 86.6876 98.76C86.6876 97.928 86.8796 97.1867 87.2636 96.536C87.6476 95.8747 88.1756 95.3627 88.8476 95C89.5303 94.6267 90.3036 94.44 91.1676 94.44C91.9356 94.44 92.6183 94.5947 93.2156 94.904C93.8236 95.2133 94.293 95.6613 94.6236 96.248L93.4556 97C93.189 96.5947 92.8583 96.2907 92.4636 96.088C92.069 95.8853 91.6316 95.784 91.1516 95.784C90.597 95.784 90.0956 95.9067 89.6476 96.152C89.2103 96.3973 88.8636 96.7493 88.6076 97.208C88.3623 97.656 88.2396 98.1733 88.2396 98.76C88.2396 99.3573 88.3623 99.8853 88.6076 100.344C88.8636 100.792 89.2103 101.139 89.6476 101.384C90.0956 101.629 90.597 101.752 91.1516 101.752C91.6316 101.752 92.069 101.651 92.4636 101.448C92.8583 101.245 93.189 100.941 93.4556 100.536L94.6236 101.272C94.293 101.859 93.8236 102.312 93.2156 102.632C92.6183 102.941 91.9356 103.096 91.1676 103.096ZM99.7003 94.44C100.874 94.44 101.77 94.728 102.388 95.304C103.018 95.88 103.332 96.7387 103.332 97.88V103H101.876V101.88C101.62 102.275 101.252 102.579 100.772 102.792C100.303 102.995 99.7429 103.096 99.0923 103.096C98.1429 103.096 97.3803 102.867 96.8043 102.408C96.2389 101.949 95.9563 101.347 95.9563 100.6C95.9563 99.8533 96.2283 99.256 96.7723 98.808C97.3163 98.3493 98.1803 98.12 99.3643 98.12H101.796V97.816C101.796 97.1547 101.604 96.648 101.22 96.296C100.836 95.944 100.271 95.768 99.5243 95.768C99.0229 95.768 98.5323 95.8533 98.0523 96.024C97.5723 96.184 97.1669 96.4027 96.8363 96.68L96.1963 95.528C96.6336 95.176 97.1563 94.9093 97.7643 94.728C98.3723 94.536 99.0176 94.44 99.7003 94.44ZM99.3483 101.912C99.9349 101.912 100.442 101.784 100.868 101.528C101.295 101.261 101.604 100.888 101.796 100.408V99.224H99.4283C98.1269 99.224 97.4763 99.6613 97.4763 100.536C97.4763 100.963 97.6416 101.299 97.9723 101.544C98.3029 101.789 98.7616 101.912 99.3483 101.912ZM110.703 94.44C111.78 94.44 112.633 94.7547 113.263 95.384C113.903 96.0027 114.223 96.9147 114.223 98.12V103H112.687V98.296C112.687 97.4747 112.489 96.856 112.095 96.44C111.7 96.024 111.135 95.816 110.399 95.816C109.567 95.816 108.911 96.0613 108.431 96.552C107.951 97.032 107.711 97.7253 107.711 98.632V103H106.175V94.52H107.647V95.8C107.956 95.3627 108.372 95.0267 108.895 94.792C109.428 94.5573 110.031 94.44 110.703 94.44ZM129.714 101.608V103H121.586V91.8H129.49V93.192H123.186V96.632H128.802V97.992H123.186V101.608H129.714ZM137.302 103L134.854 99.752L132.374 103H130.662L134.006 98.664L130.822 94.52H132.534L134.87 97.576L137.19 94.52H138.87L135.67 98.664L139.046 103H137.302ZM145.218 94.44C146.039 94.44 146.775 94.6213 147.426 94.984C148.076 95.3467 148.583 95.8533 148.946 96.504C149.319 97.1547 149.506 97.9067 149.506 98.76C149.506 99.6133 149.319 100.371 148.946 101.032C148.583 101.683 148.076 102.189 147.426 102.552C146.775 102.915 146.039 103.096 145.218 103.096C144.61 103.096 144.05 102.979 143.538 102.744C143.036 102.509 142.61 102.168 142.258 101.72V106.104H140.722V94.52H142.194V95.864C142.535 95.3947 142.967 95.0427 143.49 94.808C144.012 94.5627 144.588 94.44 145.218 94.44ZM145.09 101.752C145.634 101.752 146.119 101.629 146.546 101.384C146.983 101.128 147.324 100.776 147.57 100.328C147.826 99.8693 147.954 99.3467 147.954 98.76C147.954 98.1733 147.826 97.656 147.57 97.208C147.324 96.7493 146.983 96.3973 146.546 96.152C146.119 95.9067 145.634 95.784 145.09 95.784C144.556 95.784 144.071 95.912 143.634 96.168C143.207 96.4133 142.866 96.76 142.61 97.208C142.364 97.656 142.242 98.1733 142.242 98.76C142.242 99.3467 142.364 99.8693 142.61 100.328C142.855 100.776 143.196 101.128 143.634 101.384C144.071 101.629 144.556 101.752 145.09 101.752ZM153.1 95.944C153.367 95.4533 153.761 95.08 154.284 94.824C154.807 94.568 155.441 94.44 156.188 94.44V95.928C156.103 95.9173 155.985 95.912 155.836 95.912C155.004 95.912 154.348 96.1627 153.868 96.664C153.399 97.1547 153.164 97.8587 153.164 98.776V103H151.628V94.52H153.1V95.944ZM165.667 98.808C165.667 98.9253 165.656 99.08 165.635 99.272H158.755C158.851 100.019 159.176 100.621 159.731 101.08C160.296 101.528 160.995 101.752 161.827 101.752C162.84 101.752 163.656 101.411 164.275 100.728L165.123 101.72C164.739 102.168 164.259 102.509 163.683 102.744C163.118 102.979 162.483 103.096 161.779 103.096C160.883 103.096 160.088 102.915 159.395 102.552C158.702 102.179 158.163 101.661 157.779 101C157.406 100.339 157.219 99.592 157.219 98.76C157.219 97.9387 157.4 97.1973 157.763 96.536C158.136 95.8747 158.643 95.3627 159.283 95C159.934 94.6267 160.664 94.44 161.475 94.44C162.286 94.44 163.006 94.6267 163.635 95C164.275 95.3627 164.771 95.8747 165.123 96.536C165.486 97.1973 165.667 97.9547 165.667 98.808ZM161.475 95.736C160.739 95.736 160.12 95.96 159.619 96.408C159.128 96.856 158.84 97.4427 158.755 98.168H164.195C164.11 97.4533 163.816 96.872 163.315 96.424C162.824 95.9653 162.211 95.736 161.475 95.736ZM170.232 103.096C169.538 103.096 168.872 103.005 168.232 102.824C167.592 102.632 167.09 102.392 166.728 102.104L167.368 100.888C167.741 101.155 168.194 101.368 168.728 101.528C169.261 101.688 169.8 101.768 170.344 101.768C171.688 101.768 172.36 101.384 172.36 100.616C172.36 100.36 172.269 100.157 172.088 100.008C171.906 99.8587 171.677 99.752 171.4 99.688C171.133 99.6133 170.749 99.5333 170.248 99.448C169.565 99.3413 169.005 99.2187 168.568 99.08C168.141 98.9413 167.773 98.7067 167.464 98.376C167.154 98.0453 167 97.5813 167 96.984C167 96.216 167.32 95.6027 167.96 95.144C168.6 94.6747 169.458 94.44 170.536 94.44C171.101 94.44 171.666 94.5093 172.232 94.648C172.797 94.7867 173.261 94.9733 173.624 95.208L172.968 96.424C172.274 95.976 171.458 95.752 170.52 95.752C169.869 95.752 169.373 95.8587 169.032 96.072C168.69 96.2853 168.52 96.568 168.52 96.92C168.52 97.1973 168.616 97.416 168.808 97.576C169 97.736 169.234 97.8533 169.512 97.928C169.8 98.0027 170.2 98.088 170.712 98.184C171.394 98.3013 171.944 98.4293 172.36 98.568C172.786 98.696 173.149 98.92 173.448 99.24C173.746 99.56 173.896 100.008 173.896 100.584C173.896 101.352 173.565 101.965 172.904 102.424C172.253 102.872 171.362 103.096 170.232 103.096ZM178.247 103.096C177.554 103.096 176.887 103.005 176.247 102.824C175.607 102.632 175.106 102.392 174.743 102.104L175.383 100.888C175.757 101.155 176.21 101.368 176.743 101.528C177.277 101.688 177.815 101.768 178.359 101.768C179.703 101.768 180.375 101.384 180.375 100.616C180.375 100.36 180.285 100.157 180.103 100.008C179.922 99.8587 179.693 99.752 179.415 99.688C179.149 99.6133 178.765 99.5333 178.263 99.448C177.581 99.3413 177.021 99.2187 176.583 99.08C176.157 98.9413 175.789 98.7067 175.479 98.376C175.17 98.0453 175.015 97.5813 175.015 96.984C175.015 96.216 175.335 95.6027 175.975 95.144C176.615 94.6747 177.474 94.44 178.551 94.44C179.117 94.44 179.682 94.5093 180.247 94.648C180.813 94.7867 181.277 94.9733 181.639 95.208L180.983 96.424C180.29 95.976 179.474 95.752 178.535 95.752C177.885 95.752 177.389 95.8587 177.047 96.072C176.706 96.2853 176.535 96.568 176.535 96.92C176.535 97.1973 176.631 97.416 176.823 97.576C177.015 97.736 177.25 97.8533 177.527 97.928C177.815 98.0027 178.215 98.088 178.727 98.184C179.41 98.3013 179.959 98.4293 180.375 98.568C180.802 98.696 181.165 98.92 181.463 99.24C181.762 99.56 181.911 100.008 181.911 100.584C181.911 101.352 181.581 101.965 180.919 102.424C180.269 102.872 179.378 103.096 178.247 103.096Z" fill="#333333"/>
<path d="M69.8506 54.7499H73.1506L71.5006 50.5499L69.8506 54.7499Z" fill="#2FABF7"/>
<path d="M110.801 51.15C110.501 51 110.051 51 109.601 51H106.601V53.4H109.601C110.051 53.4 110.501 53.4 110.801 53.25C111.101 53.1 111.251 52.65 111.251 52.2C111.401 51.6 111.101 51.3 110.801 51.15Z" fill="#228FE0"/>
<path d="M142.9 46.65V48.45L142 46.65H134.95V48.45L134.05 46.65H124.45C122.8 46.65 121.45 46.95 120.25 47.55V46.65H113.5V47.55C112.75 46.95 111.85 46.65 110.65 46.65H86.5L84.85 50.4L83.2 46.65H75.55V48.45L74.65 46.65H68.2L65.2 53.7L61.75 61.5H69.4L70.3 59.1H72.4L73.3 61.5H82V59.7L82.75 61.5H87.1L87.85 59.7V61.5H108.7V57.6H109C109.3 57.6 109.3 57.6 109.3 58.05V61.35H120.1V60.45C121 60.9 122.35 61.35 124.15 61.35H128.65L129.55 58.95H131.65L132.55 61.35H141.25V59.1L142.6 61.35H149.65V46.65H142.9ZM92.2 59.25H89.65V51L86.05 59.25H83.8L80.2 51V59.25H75.1L74.05 57H68.95L68.05 59.4H65.2L69.7 48.75H73.45L77.65 58.8V48.75H81.7L85 55.95L88 48.75H92.2V59.25ZM102.4 51H96.55V52.95H102.25V55.05H96.55V57.15H102.4V59.4H94V48.75H102.4V51ZM113.65 55.35C113.95 55.95 114.1 56.4 114.1 57.3V59.4H111.55V58.05C111.55 57.45 111.55 56.55 111.1 55.95C110.65 55.5 110.2 55.5 109.3 55.5H106.6V59.4H104.05V48.75H109.75C111.1 48.75 112 48.75 112.75 49.2C113.5 49.65 113.95 50.4 113.95 51.6C113.95 53.25 112.9 54.15 112.15 54.45C112.9 54.6 113.35 55.05 113.65 55.35ZM118.15 59.25H115.6V48.6H118.15V59.25ZM147.7 59.25H144.1L139.3 51.3V59.25H134.2L133.3 57H128.05L127.15 59.4H124.3C123.1 59.4 121.6 59.1 120.7 58.2C119.8 57.3 119.35 56.1 119.35 54.15C119.35 52.65 119.65 51.15 120.7 49.95C121.45 49.05 122.8 48.75 124.45 48.75H126.85V51H124.45C123.55 51 123.1 51.15 122.5 51.6C122.05 52.05 121.75 52.95 121.75 54C121.75 55.2 121.9 55.95 122.5 56.55C122.95 57 123.55 57.15 124.3 57.15H125.35L128.8 48.9H132.55L136.75 58.95V48.9H140.5L144.85 56.25V48.9H147.4V59.25H147.7Z" fill="#0571C1"/>
<path d="M128.95 54.7499H132.4L130.75 50.5499L128.95 54.7499ZM103.45 76.3499V67.7999L99.5498 71.9999L103.45 76.3499Z" fill="#228FE0"/>
<path d="M87.3994 68.85V70.8H92.9494V72.9H87.3994V75.15H93.5494L96.3994 72L93.6994 68.85H87.3994Z" fill="#2FABF7"/>
<path d="M109.15 68.85H106V71.55H109.3C110.2 71.55 110.8 71.1 110.8 70.2C110.65 69.3 110.05 68.85 109.15 68.85Z" fill="#228FE0"/>
<path d="M155.501 71.4V64.65H149.201C147.851 64.65 146.801 64.95 146.051 65.55V64.65H139.151C138.101 64.65 136.751 64.95 136.151 65.55V64.65H124.001V65.55C123.101 64.8 121.451 64.65 120.701 64.65H112.601V65.55C111.851 64.8 110.051 64.65 109.151 64.65H100.151L98.0506 66.9L96.1006 64.65H82.6006V79.35H95.8006L97.9006 77.1L99.8506 79.35H107.951V75.9H109.001C110.051 75.9 111.401 75.9 112.451 75.45V79.5H119.201V75.6H119.501C119.951 75.6 119.951 75.6 119.951 76.05V79.5H140.351C141.701 79.5 143.051 79.2 143.801 78.6V79.5H150.251C151.601 79.5 152.951 79.35 153.851 78.75C155.351 77.85 156.251 76.2 156.251 74.25C156.251 73.2 155.951 72.15 155.501 71.4ZM109.001 73.8H106.001V77.4H101.201L98.2006 73.95L95.0506 77.4H85.1506V66.75H95.2006L98.2006 70.2L101.351 66.75H109.301C111.251 66.75 113.501 67.35 113.501 70.2C113.351 73.2 111.251 73.8 109.001 73.8ZM124.001 73.2C124.301 73.65 124.451 74.25 124.451 75.15V77.25H121.901V75.9C121.901 75.3 121.901 74.25 121.451 73.8C121.151 73.35 120.551 73.35 119.651 73.35H116.951V77.25H114.401V66.6H120.101C121.301 66.6 122.351 66.6 123.101 67.05C123.851 67.5 124.451 68.25 124.451 69.45C124.451 71.1 123.401 72 122.651 72.3C123.401 72.6 123.851 72.9 124.001 73.2ZM134.351 68.85H128.501V70.8H134.201V72.9H128.501V75H134.351V77.25H125.951V66.6H134.351V68.85ZM140.651 77.25H135.851V75H140.651C141.101 75 141.401 75 141.701 74.7C141.851 74.55 142.001 74.25 142.001 73.95C142.001 73.65 141.851 73.35 141.701 73.2C141.551 73.05 141.251 72.9 140.801 72.9C138.401 72.75 135.551 72.9 135.551 69.6C135.551 68.1 136.451 66.45 139.151 66.45H144.101V69H139.451C139.001 69 138.701 69 138.401 69.15C138.101 69.3 138.101 69.6 138.101 69.9C138.101 70.35 138.401 70.5 138.701 70.65C139.001 70.8 139.301 70.8 139.601 70.8H140.951C142.301 70.8 143.201 71.1 143.801 71.7C144.251 72.15 144.551 72.9 144.551 73.95C144.551 76.2 143.201 77.25 140.651 77.25ZM153.551 76.2C152.951 76.8 151.901 77.25 150.401 77.25H145.601V75H150.401C150.851 75 151.151 75 151.451 74.7C151.601 74.55 151.751 74.25 151.751 73.95C151.751 73.65 151.601 73.35 151.451 73.2C151.301 73.05 151.001 72.9 150.551 72.9C148.151 72.75 145.301 72.9 145.301 69.6C145.301 68.1 146.201 66.45 148.901 66.45H153.851V69H149.351C148.901 69 148.601 69 148.301 69.15C148.001 69.3 148.001 69.6 148.001 69.9C148.001 70.35 148.151 70.5 148.601 70.65C148.901 70.8 149.201 70.8 149.501 70.8H150.851C152.201 70.8 153.101 71.1 153.701 71.7C153.851 71.7 153.851 71.85 153.851 71.85C154.301 72.45 154.451 73.2 154.451 73.95C154.451 74.85 154.151 75.6 153.551 76.2Z" fill="#0571C1"/>
<path d="M121.3 69.1499C121 68.9999 120.55 68.9999 120.1 68.9999H117.1V71.3999H120.1C120.55 71.3999 121 71.3999 121.3 71.2499C121.6 71.0999 121.75 70.6499 121.75 70.1999C121.9 69.5999 121.6 69.2999 121.3 69.1499ZM110.8 51.1499C110.5 50.9999 110.05 50.9999 109.6 50.9999H106.6V53.3999H109.6C110.05 53.3999 110.5 53.3999 110.8 53.2499C111.1 53.0999 111.25 52.6499 111.25 52.1999C111.4 51.5999 111.1 51.2999 110.8 51.1499ZM128.95 54.7499H132.4L130.75 50.5499L128.95 54.7499ZM103.45 76.3499V67.7999L99.5498 71.9999L103.45 76.3499ZM109.15 68.8499H106V71.5499H109.3C110.2 71.5499 110.8 71.0999 110.8 70.1999C110.65 69.2999 110.05 68.8499 109.15 68.8499Z" fill="#228FE0"/>
<path d="M121.301 69.15C121.001 69 120.551 69 120.101 69H117.101V71.4H120.101C120.551 71.4 121.001 71.4 121.301 71.25C121.601 71.1 121.751 70.65 121.751 70.2C121.901 69.6 121.601 69.3 121.301 69.15Z" fill="#228FE0"/>
<path d="M108.101 76.95L106.001 74.7V77.25H101.051L98.0506 73.8L94.7506 77.25H84.8506V66.75H94.9006L98.0506 70.2L99.5506 68.4L95.8006 64.65H82.6006V79.35H95.8006L98.0506 77.1L100.001 79.35H108.101V76.95Z" fill="#2FABF7"/>
<path d="M92.5 61.35L90.55 59.25H89.65V58.35L87.4 56.1L85.9 59.25H83.8L80.2 51V59.25H75.1L74.05 57H68.95L67.9 59.25H65.2L69.7 48.75H73.45L77.65 58.8V48.75H79.9L77.8 46.65H75.55V48.45L74.8 46.65H68.2L65.2 53.7L61.75 61.35H69.55L70.45 59.1H72.55L73.6 61.35H82V59.55L82.75 61.35H87.1L87.85 59.55V61.35H92.5Z" fill="#2FABF7"/>
<path d="M85.6002 54.45L83.2002 52.05L85.0002 55.95L85.6002 54.45Z" fill="#2FABF7"/>
<path d="M153.85 78.6001C155.2 77.7001 156.1 76.2001 156.25 74.5501L154.15 72.4501C154.3 72.9001 154.45 73.3501 154.45 73.9501C154.45 74.8501 154.15 75.6001 153.55 76.2001C152.95 76.8001 151.9 77.2501 150.4 77.2501H145.6V75.0001H150.4C150.85 75.0001 151.15 75.0001 151.45 74.7001C151.6 74.5501 151.75 74.2501 151.75 73.9501C151.75 73.6501 151.6 73.3501 151.45 73.2001C151.3 73.0501 151 72.9001 150.55 72.9001C148.15 72.7501 145.3 72.9001 145.3 69.6001C145.3 68.1001 146.2 66.7501 148.45 66.4501L146.8 64.8001C146.5 64.9501 146.35 65.1001 146.2 65.1001V64.2001H139.3C138.25 64.2001 136.9 64.5001 136.3 65.1001V64.2001H124V65.1001C123.1 64.3501 121.45 64.2001 120.7 64.2001H112.6V65.1001C111.85 64.3501 110.05 64.2001 109.15 64.2001H100.15L98.0502 66.4501L96.1002 64.2001H94.4502L98.9502 68.7001L101.2 66.3001H109.15C111.1 66.3001 113.35 66.9001 113.35 69.7501C113.35 72.7501 111.25 73.3501 109 73.3501H106V75.6001L108.25 77.8501V75.6001H109C110.05 75.6001 111.4 75.6001 112.45 75.1501V79.2001H119.2V75.3001H119.5C119.95 75.3001 119.95 75.3001 119.95 75.7501V79.2001H140.35C141.7 79.2001 143.05 78.9001 143.8 78.3001V79.2001H150.25C151.45 79.3501 152.8 79.2001 153.85 78.6001ZM124 73.2001C124.3 73.6501 124.45 74.2501 124.45 75.1501V77.2501H121.9V75.9001C121.9 75.3001 121.9 74.2501 121.45 73.8001C121.15 73.3501 120.55 73.3501 119.65 73.3501H116.95V77.2501H114.4V66.6001H120.1C121.3 66.6001 122.35 66.6001 123.1 67.0501C123.85 67.5001 124.45 68.2501 124.45 69.4501C124.45 71.1001 123.4 72.0001 122.65 72.3001C123.4 72.6001 123.85 72.9001 124 73.2001ZM134.35 68.8501H128.5V70.8001H134.2V72.9001H128.5V75.0001H134.35V77.2501H125.95V66.6001H134.35V68.8501ZM140.65 77.2501H135.85V75.0001H140.65C141.1 75.0001 141.4 75.0001 141.7 74.7001C141.85 74.5501 142 74.2501 142 73.9501C142 73.6501 141.85 73.3501 141.7 73.2001C141.55 73.0501 141.25 72.9001 140.8 72.9001C138.4 72.7501 135.55 72.9001 135.55 69.6001C135.55 68.1001 136.45 66.4501 139.15 66.4501H144.1V69.0001H139.45C139 69.0001 138.7 69.0001 138.4 69.1501C138.1 69.3001 138.1 69.6001 138.1 69.9001C138.1 70.3501 138.4 70.5001 138.7 70.6501C139 70.8001 139.3 70.8001 139.6 70.8001H140.95C142.3 70.8001 143.2 71.1001 143.8 71.7001C144.25 72.1501 144.55 72.9001 144.55 73.9501C144.55 76.2001 143.2 77.2501 140.65 77.2501Z" fill="#228FE0"/>
<path d="M147.85 69.9C147.85 70.35 148 70.5 148.45 70.65C148.75 70.8 149.05 70.8 149.35 70.8H150.7C151.6 70.8 152.2 70.95 152.8 71.25L150.55 69H149.2C148.75 69 148.45 69 148.15 69.15C148 69.3 147.85 69.6 147.85 69.9Z" fill="#228FE0"/>
<path d="M142.601 60.8999L142.901 61.3499H143.051L142.601 60.8999ZM134.351 52.6499L136.901 58.7999V55.1999L134.351 52.6499Z" fill="#228FE0"/>
<path d="M108.701 57.5999H109.001C109.301 57.5999 109.301 57.5999 109.301 58.0499V61.3499H120.101V60.4499C121.001 60.8999 122.351 61.3499 124.151 61.3499H128.651L129.551 58.9499H131.651L132.551 61.3499H141.251V59.8499L139.151 57.7499V59.3999H134.051L133.301 56.9999H128.051L127.151 59.3999H124.301C123.101 59.3999 121.601 59.0999 120.701 58.1999C119.801 57.2999 119.351 56.0999 119.351 54.1499C119.351 52.6499 119.651 51.1499 120.701 49.9499C121.451 49.0499 122.801 48.7499 124.451 48.7499H126.851V50.9999H124.451C123.551 50.9999 123.101 51.1499 122.501 51.5999C122.051 52.0499 121.751 52.9499 121.751 53.9999C121.751 55.1999 121.901 55.9499 122.501 56.5499C122.951 56.9999 123.551 57.1499 124.301 57.1499H125.351L128.801 48.8999H130.301L128.201 46.7999H124.301C122.651 46.7999 121.301 47.0999 120.101 47.6999V46.7999H113.501V47.6999C112.751 47.0999 111.851 46.7999 110.651 46.7999H86.5006L84.8506 50.5499L83.2006 46.7999H76.6006L78.7006 48.8999H81.7006L84.2506 54.4499L85.1506 55.3499L87.8506 48.7499H92.0506V59.3999H89.5006V51.1499L86.9506 57.1499L91.3006 61.4999H108.551L108.701 57.5999ZM115.601 48.7499H118.151V59.3999H115.601V48.7499ZM102.401 50.9999H96.5506V52.9499H102.251V55.0499H96.5506V57.1499H102.401V59.3999H94.0006V48.7499H102.401V50.9999ZM106.601 59.2499H104.051V48.5999H109.751C111.101 48.5999 112.001 48.5999 112.751 49.0499C113.501 49.4999 113.951 50.2499 113.951 51.4499C113.951 53.0999 112.901 53.9999 112.151 54.2999C112.751 54.4499 113.201 54.8999 113.351 55.1999C113.651 55.7999 113.801 56.2499 113.801 57.1499V59.2499H111.251V57.8999C111.251 57.2999 111.251 56.3999 110.801 55.7999C110.651 55.4999 110.201 55.4999 109.301 55.4999H106.601V59.2499Z" fill="#228FE0"/>
<path d="M268.904 263.052C272.246 251.838 284.48 248.249 290.18 247.856L350.614 240.628L447.1 228.847C459.018 227.392 469.524 236.693 469.524 248.7V375.179C469.524 388.254 457.215 397.82 444.556 394.55C375.16 376.627 269.752 349.359 260.42 346.762C249.873 343.828 249.325 333.574 250.369 328.815C255.155 311.566 265.563 274.266 268.904 263.052Z" fill="#F6F8FF"/>
<path d="M353.12 350.128C352.448 350.128 351.824 349.99 351.248 349.712C350.672 349.424 350.208 349.024 349.856 348.512L350.784 347.424C351.403 348.31 352.181 348.752 353.12 348.752C353.749 348.752 354.224 348.56 354.544 348.176C354.875 347.792 355.04 347.227 355.04 346.48V340.192H350.992V338.8H356.624V346.4C356.624 347.638 356.325 348.571 355.728 349.2C355.141 349.819 354.272 350.128 353.12 350.128ZM364.891 350.128C363.771 350.128 362.758 349.883 361.851 349.392C360.955 348.891 360.251 348.208 359.739 347.344C359.227 346.47 358.971 345.488 358.971 344.4C358.971 343.312 359.227 342.336 359.739 341.472C360.251 340.598 360.96 339.915 361.867 339.424C362.774 338.923 363.787 338.672 364.907 338.672C365.782 338.672 366.582 338.822 367.307 339.12C368.032 339.408 368.651 339.84 369.163 340.416L368.123 341.424C367.28 340.539 366.23 340.096 364.971 340.096C364.139 340.096 363.387 340.283 362.715 340.656C362.043 341.03 361.515 341.547 361.131 342.208C360.758 342.859 360.571 343.59 360.571 344.4C360.571 345.211 360.758 345.947 361.131 346.608C361.515 347.259 362.043 347.771 362.715 348.144C363.387 348.518 364.139 348.704 364.971 348.704C366.219 348.704 367.27 348.256 368.123 347.36L369.163 348.368C368.651 348.944 368.027 349.382 367.291 349.68C366.566 349.979 365.766 350.128 364.891 350.128ZM378.982 344.192C379.632 344.374 380.144 344.704 380.518 345.184C380.891 345.654 381.078 346.251 381.078 346.976C381.078 347.947 380.71 348.694 379.974 349.216C379.248 349.739 378.187 350 376.79 350H371.446V338.8H376.47C377.75 338.8 378.736 339.056 379.43 339.568C380.134 340.08 380.486 340.79 380.486 341.696C380.486 342.283 380.347 342.79 380.07 343.216C379.803 343.643 379.44 343.968 378.982 344.192ZM373.046 340.096V343.68H376.326C377.147 343.68 377.776 343.531 378.214 343.232C378.662 342.923 378.886 342.475 378.886 341.888C378.886 341.302 378.662 340.859 378.214 340.56C377.776 340.251 377.147 340.096 376.326 340.096H373.046ZM376.726 348.704C377.632 348.704 378.315 348.555 378.774 348.256C379.232 347.958 379.462 347.488 379.462 346.848C379.462 345.6 378.55 344.976 376.726 344.976H373.046V348.704H376.726Z" fill="#333333"/>
<path d="M385.648 301.195H391.195C391.353 301.195 391.723 301.143 391.882 301.143C392.938 300.935 393.836 299.998 393.836 298.697C393.836 297.448 392.938 296.512 391.882 296.251C391.723 296.199 391.406 296.199 391.195 296.199H385.648V301.195Z" fill="url(#paint0_linear)"/>
<path d="M390.561 266.695C385.279 266.695 380.947 270.91 380.947 276.166V286H394.523C394.84 286 395.21 286 395.474 286.052C398.538 286.209 400.809 287.77 400.809 290.476C400.809 292.609 399.277 294.43 396.425 294.795V294.899C399.541 295.107 401.918 296.824 401.918 299.478C401.918 302.34 399.277 304.213 395.791 304.213H380.895V323.466H394.998C400.281 323.466 404.612 319.251 404.612 313.996V266.695H390.561Z" fill="url(#paint1_linear)"/>
<path d="M393.149 291.1C393.149 289.851 392.251 289.019 391.195 288.862C391.089 288.862 390.825 288.81 390.667 288.81H385.648V293.39H390.667C390.825 293.39 391.142 293.39 391.195 293.338C392.251 293.181 393.149 292.349 393.149 291.1Z" fill="url(#paint2_linear)"/>
<path d="M337.421 266.695C332.138 266.695 327.807 270.91 327.807 276.166V299.53C330.501 300.831 333.3 301.663 336.1 301.663C339.428 301.663 341.224 299.686 341.224 296.98V285.948H349.464V296.928C349.464 301.195 346.77 304.681 337.632 304.681C332.085 304.681 327.754 303.485 327.754 303.485V323.414H341.858C347.14 323.414 351.472 319.199 351.472 313.944V266.695H337.421Z" fill="url(#paint3_linear)"/>
<path d="M363.991 266.695C358.708 266.695 354.377 270.91 354.377 276.166V288.55C356.807 286.521 361.033 285.22 367.847 285.532C371.492 285.688 375.401 286.677 375.401 286.677V290.684C373.446 289.695 371.122 288.81 368.111 288.602C362.934 288.238 359.818 290.736 359.818 295.107C359.818 299.53 362.934 302.028 368.111 301.611C371.122 301.403 373.446 300.466 375.401 299.53V303.537C375.401 303.537 371.545 304.525 367.847 304.681C361.033 304.994 356.807 303.693 354.377 301.663V323.518H368.481C373.763 323.518 378.095 319.303 378.095 314.048V266.695H363.991Z" fill="url(#paint4_linear)"/>
<path d="M268.904 74.2616C272.246 63.0478 284.48 59.4584 290.18 59.0654L350.614 51.8378L447.1 40.057C459.018 38.6018 469.524 47.9026 469.524 59.9096V186.389C469.524 199.463 457.215 209.029 444.556 205.76C375.16 187.837 269.752 160.568 260.42 157.972C249.873 155.037 249.325 144.784 250.369 140.024C255.155 122.776 265.563 85.4753 268.904 74.2616Z" fill="#F6F8FF"/>
<path d="M330.064 150L330.048 141.84L326 148.64H325.264L321.216 141.888V150H319.68V138.8H320.992L325.664 146.672L330.272 138.8H331.584L331.6 150H330.064ZM337.825 141.44C338.999 141.44 339.895 141.728 340.513 142.304C341.143 142.88 341.457 143.739 341.457 144.88V150H340.001V148.88C339.745 149.275 339.377 149.579 338.897 149.792C338.428 149.995 337.868 150.096 337.217 150.096C336.268 150.096 335.505 149.867 334.929 149.408C334.364 148.949 334.081 148.347 334.081 147.6C334.081 146.853 334.353 146.256 334.897 145.808C335.441 145.349 336.305 145.12 337.489 145.12H339.921V144.816C339.921 144.155 339.729 143.648 339.345 143.296C338.961 142.944 338.396 142.768 337.649 142.768C337.148 142.768 336.657 142.853 336.177 143.024C335.697 143.184 335.292 143.403 334.961 143.68L334.321 142.528C334.759 142.176 335.281 141.909 335.889 141.728C336.497 141.536 337.143 141.44 337.825 141.44ZM337.473 148.912C338.06 148.912 338.567 148.784 338.993 148.528C339.42 148.261 339.729 147.888 339.921 147.408V146.224H337.553C336.252 146.224 335.601 146.661 335.601 147.536C335.601 147.963 335.767 148.299 336.097 148.544C336.428 148.789 336.887 148.912 337.473 148.912ZM346.732 150.096C346.038 150.096 345.372 150.005 344.732 149.824C344.092 149.632 343.59 149.392 343.228 149.104L343.868 147.888C344.241 148.155 344.694 148.368 345.228 148.528C345.761 148.688 346.3 148.768 346.844 148.768C348.188 148.768 348.86 148.384 348.86 147.616C348.86 147.36 348.769 147.157 348.588 147.008C348.406 146.859 348.177 146.752 347.9 146.688C347.633 146.613 347.249 146.533 346.748 146.448C346.065 146.341 345.505 146.219 345.068 146.08C344.641 145.941 344.273 145.707 343.964 145.376C343.654 145.045 343.5 144.581 343.5 143.984C343.5 143.216 343.82 142.603 344.46 142.144C345.1 141.675 345.958 141.44 347.036 141.44C347.601 141.44 348.166 141.509 348.732 141.648C349.297 141.787 349.761 141.973 350.124 142.208L349.468 143.424C348.774 142.976 347.958 142.752 347.02 142.752C346.369 142.752 345.873 142.859 345.532 143.072C345.19 143.285 345.02 143.568 345.02 143.92C345.02 144.197 345.116 144.416 345.308 144.576C345.5 144.736 345.734 144.853 346.012 144.928C346.3 145.003 346.7 145.088 347.212 145.184C347.894 145.301 348.444 145.429 348.86 145.568C349.286 145.696 349.649 145.92 349.948 146.24C350.246 146.56 350.396 147.008 350.396 147.584C350.396 148.352 350.065 148.965 349.404 149.424C348.753 149.872 347.862 150.096 346.732 150.096ZM357.083 149.504C356.859 149.696 356.582 149.845 356.251 149.952C355.921 150.048 355.579 150.096 355.227 150.096C354.374 150.096 353.713 149.867 353.243 149.408C352.774 148.949 352.539 148.293 352.539 147.44V142.784H351.099V141.52H352.539V139.664H354.075V141.52H356.507V142.784H354.075V147.376C354.075 147.835 354.187 148.187 354.411 148.432C354.646 148.677 354.977 148.8 355.403 148.8C355.873 148.8 356.273 148.667 356.603 148.4L357.083 149.504ZM366.323 145.808C366.323 145.925 366.312 146.08 366.291 146.272H359.411C359.507 147.019 359.832 147.621 360.387 148.08C360.952 148.528 361.651 148.752 362.483 148.752C363.496 148.752 364.312 148.411 364.931 147.728L365.779 148.72C365.395 149.168 364.915 149.509 364.339 149.744C363.774 149.979 363.139 150.096 362.435 150.096C361.539 150.096 360.744 149.915 360.051 149.552C359.358 149.179 358.819 148.661 358.435 148C358.062 147.339 357.875 146.592 357.875 145.76C357.875 144.939 358.056 144.197 358.419 143.536C358.792 142.875 359.299 142.363 359.939 142C360.59 141.627 361.32 141.44 362.131 141.44C362.942 141.44 363.662 141.627 364.291 142C364.931 142.363 365.427 142.875 365.779 143.536C366.142 144.197 366.323 144.955 366.323 145.808ZM362.131 142.736C361.395 142.736 360.776 142.96 360.275 143.408C359.784 143.856 359.496 144.443 359.411 145.168H364.851C364.766 144.453 364.472 143.872 363.971 143.424C363.48 142.965 362.867 142.736 362.131 142.736ZM369.928 142.944C370.195 142.453 370.589 142.08 371.112 141.824C371.635 141.568 372.269 141.44 373.016 141.44V142.928C372.931 142.917 372.813 142.912 372.664 142.912C371.832 142.912 371.176 143.163 370.696 143.664C370.227 144.155 369.992 144.859 369.992 145.776V150H368.456V141.52H369.928V142.944ZM378.527 150.096C377.663 150.096 376.89 149.909 376.207 149.536C375.535 149.163 375.007 148.651 374.623 148C374.239 147.339 374.047 146.592 374.047 145.76C374.047 144.928 374.239 144.187 374.623 143.536C375.007 142.875 375.535 142.363 376.207 142C376.89 141.627 377.663 141.44 378.527 141.44C379.295 141.44 379.978 141.595 380.575 141.904C381.183 142.213 381.652 142.661 381.983 143.248L380.815 144C380.548 143.595 380.218 143.291 379.823 143.088C379.428 142.885 378.991 142.784 378.511 142.784C377.956 142.784 377.455 142.907 377.007 143.152C376.57 143.397 376.223 143.749 375.967 144.208C375.722 144.656 375.599 145.173 375.599 145.76C375.599 146.357 375.722 146.885 375.967 147.344C376.223 147.792 376.57 148.139 377.007 148.384C377.455 148.629 377.956 148.752 378.511 148.752C378.991 148.752 379.428 148.651 379.823 148.448C380.218 148.245 380.548 147.941 380.815 147.536L381.983 148.272C381.652 148.859 381.183 149.312 380.575 149.632C379.978 149.941 379.295 150.096 378.527 150.096ZM387.06 141.44C388.233 141.44 389.129 141.728 389.748 142.304C390.377 142.88 390.692 143.739 390.692 144.88V150H389.236V148.88C388.98 149.275 388.612 149.579 388.132 149.792C387.662 149.995 387.102 150.096 386.452 150.096C385.502 150.096 384.74 149.867 384.164 149.408C383.598 148.949 383.316 148.347 383.316 147.6C383.316 146.853 383.588 146.256 384.132 145.808C384.676 145.349 385.54 145.12 386.724 145.12H389.156V144.816C389.156 144.155 388.964 143.648 388.58 143.296C388.196 142.944 387.63 142.768 386.884 142.768C386.382 142.768 385.892 142.853 385.412 143.024C384.932 143.184 384.526 143.403 384.196 143.68L383.556 142.528C383.993 142.176 384.516 141.909 385.124 141.728C385.732 141.536 386.377 141.44 387.06 141.44ZM386.708 148.912C387.294 148.912 387.801 148.784 388.228 148.528C388.654 148.261 388.964 147.888 389.156 147.408V146.224H386.788C385.486 146.224 384.836 146.661 384.836 147.536C384.836 147.963 385.001 148.299 385.332 148.544C385.662 148.789 386.121 148.912 386.708 148.912ZM395.006 142.944C395.273 142.453 395.667 142.08 396.19 141.824C396.713 141.568 397.347 141.44 398.094 141.44V142.928C398.009 142.917 397.891 142.912 397.742 142.912C396.91 142.912 396.254 143.163 395.774 143.664C395.305 144.155 395.07 144.859 395.07 145.776V150H393.534V141.52H395.006V142.944ZM407.909 138.128V150H406.437V148.656C406.096 149.125 405.664 149.483 405.141 149.728C404.618 149.973 404.042 150.096 403.413 150.096C402.592 150.096 401.856 149.915 401.205 149.552C400.554 149.189 400.042 148.683 399.669 148.032C399.306 147.371 399.125 146.613 399.125 145.76C399.125 144.907 399.306 144.155 399.669 143.504C400.042 142.853 400.554 142.347 401.205 141.984C401.856 141.621 402.592 141.44 403.413 141.44C404.021 141.44 404.581 141.557 405.093 141.792C405.605 142.016 406.032 142.352 406.373 142.8V138.128H407.909ZM403.541 148.752C404.074 148.752 404.56 148.629 404.997 148.384C405.434 148.128 405.776 147.776 406.021 147.328C406.266 146.869 406.389 146.347 406.389 145.76C406.389 145.173 406.266 144.656 406.021 144.208C405.776 143.749 405.434 143.397 404.997 143.152C404.56 142.907 404.074 142.784 403.541 142.784C402.997 142.784 402.506 142.907 402.069 143.152C401.642 143.397 401.301 143.749 401.045 144.208C400.8 144.656 400.677 145.173 400.677 145.76C400.677 146.347 400.8 146.869 401.045 147.328C401.301 147.776 401.642 148.128 402.069 148.384C402.506 148.629 402.997 148.752 403.541 148.752Z" fill="#333333"/>
<g clip-path="url(#clip1)">
<path d="M404 103C404 116.206 393.333 127 380 127C366.794 127 356 116.206 356 103C356 89.7935 366.667 78.9999 379.873 78.9999C393.333 78.9999 404 89.7935 404 103Z" fill="#FFB600"/>
<path d="M380 78.9999C393.206 78.9999 404 89.7935 404 103C404 116.206 393.333 127 380 127C366.794 127 356 116.206 356 103" fill="#F7981D"/>
<path d="M380 78.9999C393.206 78.9999 404 89.7935 404 103C404 116.206 393.333 127 380 127" fill="#FF8500"/>
<path d="M347.746 78.9999C334.667 79.1269 324 89.7935 324 103C324 116.206 334.667 127 348 127C354.222 127 359.81 124.587 364.127 120.778C365.016 120.016 365.778 119.127 366.54 118.238H361.587C360.952 117.476 360.317 116.587 359.81 115.825H368.317C368.825 115.063 369.333 114.174 369.714 113.286H358.413C358.032 112.524 357.651 111.635 357.397 110.746H370.603C371.365 108.333 371.873 105.794 371.873 103.127C371.873 101.349 371.619 99.6983 371.365 98.0475H356.635C356.762 97.1586 357.016 96.3967 357.27 95.5078H370.476C370.222 94.6189 369.841 93.73 369.46 92.9681H358.286C358.667 92.0792 359.175 91.3173 359.683 90.4284H368.19C367.683 89.5396 367.048 88.6507 366.286 87.8888H361.587C362.349 86.9999 363.111 86.238 364 85.4761C359.81 81.5396 354.095 79.2538 347.873 79.2538C347.873 78.9999 347.873 78.9999 347.746 78.9999Z" fill="#FF5050"/>
<path d="M324 103C324 116.206 334.667 127 348 127C354.222 127 359.81 124.587 364.127 120.778C365.016 120.016 365.778 119.127 366.54 118.238H361.587C360.952 117.476 360.317 116.587 359.81 115.825H368.317C368.825 115.064 369.333 114.175 369.714 113.286H358.413C358.032 112.524 357.651 111.635 357.397 110.746H370.603C371.365 108.333 371.873 105.794 371.873 103.127C371.873 101.349 371.619 99.6985 371.365 98.0477H356.635C356.762 97.1588 357.016 96.3969 357.27 95.508H370.476C370.222 94.6191 369.841 93.7302 369.46 92.9683H358.286C358.667 92.0794 359.175 91.3175 359.683 90.4286H368.19C367.683 89.5397 367.048 88.6509 366.286 87.8889H361.587C362.349 87.0001 363.111 86.2382 364 85.4763C359.81 81.5397 354.095 79.254 347.873 79.254H347.746" fill="#E52836"/>
<path d="M348 127C354.222 127 359.81 124.587 364.127 120.778C365.016 120.016 365.778 119.127 366.54 118.238H361.587C360.952 117.476 360.318 116.587 359.81 115.825H368.318C368.825 115.064 369.333 114.175 369.714 113.286H358.413C358.032 112.524 357.651 111.635 357.397 110.746H370.603C371.365 108.333 371.873 105.794 371.873 103.127C371.873 101.349 371.619 99.6985 371.365 98.0477H356.635C356.762 97.1588 357.016 96.3969 357.27 95.508H370.476C370.222 94.6191 369.841 93.7302 369.46 92.9683H358.286C358.667 92.0794 359.175 91.3175 359.683 90.4286H368.191C367.683 89.5397 367.048 88.6509 366.286 87.8889H361.587C362.349 87.0001 363.111 86.2382 364 85.4763C359.81 81.5397 354.095 79.254 347.873 79.254H347.746" fill="#CB2026"/>
<path d="M356.507 109.095L356.888 106.937C356.761 106.937 356.507 107.064 356.253 107.064C355.364 107.064 355.237 106.556 355.364 106.302L356.126 101.857H357.523L357.904 99.4445H356.634L356.888 97.9207H354.348C354.348 97.9207 352.824 106.302 352.824 107.317C352.824 108.841 353.713 109.476 354.856 109.476C355.618 109.476 356.253 109.222 356.507 109.095Z" fill="white"/>
<path d="M357.396 105.032C357.396 108.587 359.809 109.476 361.841 109.476C363.746 109.476 364.508 109.095 364.508 109.095L365.016 106.683C365.016 106.683 363.619 107.317 362.349 107.317C359.555 107.317 360.063 105.286 360.063 105.286H365.27C365.27 105.286 365.65 103.635 365.65 103C365.65 101.349 364.762 99.3175 361.968 99.3175C359.301 99.0635 357.396 101.857 357.396 105.032ZM361.841 101.349C363.238 101.349 362.984 103 362.984 103.127H360.19C360.19 103 360.444 101.349 361.841 101.349Z" fill="white"/>
<path d="M377.969 109.095L378.476 106.302C378.476 106.302 377.207 106.936 376.318 106.936C374.54 106.936 373.778 105.54 373.778 104.016C373.778 100.968 375.302 99.3174 377.08 99.3174C378.349 99.3174 379.365 100.079 379.365 100.079L379.746 97.4126C379.746 97.4126 378.222 96.7777 376.826 96.7777C373.905 96.7777 370.984 99.3174 370.984 104.143C370.984 107.317 372.508 109.476 375.556 109.476C376.572 109.476 377.969 109.095 377.969 109.095Z" fill="white"/>
<path d="M342.539 99.0635C340.761 99.0635 339.492 99.5714 339.492 99.5714L339.111 101.73C339.111 101.73 340.254 101.222 341.904 101.222C342.793 101.222 343.555 101.349 343.555 102.111C343.555 102.619 343.428 102.746 343.428 102.746C343.428 102.746 342.666 102.746 342.285 102.746C340.127 102.746 337.714 103.635 337.714 106.556C337.714 108.841 339.238 109.349 340.127 109.349C341.904 109.349 342.666 108.206 342.793 108.206L342.666 109.222H344.952L345.968 102.238C345.968 99.1905 343.428 99.0635 342.539 99.0635ZM343.047 104.778C343.047 105.159 342.793 107.19 341.269 107.19C340.508 107.19 340.254 106.556 340.254 106.175C340.254 105.54 340.635 104.651 342.539 104.651C342.92 104.778 343.047 104.778 343.047 104.778Z" fill="white"/>
<path d="M348.381 109.349C349.016 109.349 352.19 109.476 352.19 106.048C352.19 102.873 349.142 103.508 349.142 102.238C349.142 101.603 349.65 101.349 350.539 101.349C350.92 101.349 352.317 101.476 352.317 101.476L352.698 99.1905C352.698 99.1905 351.809 98.9365 350.285 98.9365C348.381 98.9365 346.476 99.6984 346.476 102.238C346.476 105.159 349.65 104.905 349.65 106.048C349.65 106.81 348.762 106.937 348.127 106.937C346.984 106.937 345.841 106.556 345.841 106.556L345.46 108.841C345.587 109.095 346.222 109.349 348.381 109.349Z" fill="white"/>
<path d="M399.047 97.0317L398.539 100.46C398.539 100.46 397.523 99.1905 396.126 99.1905C393.84 99.1905 391.809 101.984 391.809 105.286C391.809 107.317 392.824 109.476 394.983 109.476C396.507 109.476 397.396 108.46 397.396 108.46L397.269 109.349H399.809L401.713 97.1587L399.047 97.0317ZM397.904 103.762C397.904 105.159 397.269 106.937 395.872 106.937C394.983 106.937 394.475 106.175 394.475 104.905C394.475 102.873 395.364 101.603 396.507 101.603C397.396 101.603 397.904 102.238 397.904 103.762Z" fill="white"/>
<path d="M328.698 109.222L330.222 100.079L330.476 109.222H332.253L335.555 100.079L334.158 109.222H336.825L338.857 97.0317H334.666L332.126 104.524L331.999 97.0317H328.317L326.285 109.222H328.698Z" fill="white"/>
<path d="M368.063 109.222C368.825 105.032 368.952 101.603 370.73 102.238C370.984 100.587 371.365 99.9523 371.619 99.3174C371.619 99.3174 371.492 99.3174 371.111 99.3174C369.968 99.3174 369.079 100.841 369.079 100.841L369.333 99.4444H366.92L365.27 109.349H368.063V109.222Z" fill="white"/>
<path d="M383.809 99.0635C382.031 99.0635 380.761 99.5714 380.761 99.5714L380.38 101.73C380.38 101.73 381.523 101.222 383.174 101.222C384.063 101.222 384.825 101.349 384.825 102.111C384.825 102.619 384.698 102.746 384.698 102.746C384.698 102.746 383.936 102.746 383.555 102.746C381.396 102.746 378.983 103.635 378.983 106.556C378.983 108.841 380.507 109.349 381.396 109.349C383.174 109.349 383.936 108.206 384.063 108.206L383.936 109.222H386.221L387.237 102.238C387.364 99.1905 384.698 99.0635 383.809 99.0635ZM384.444 104.778C384.444 105.159 384.19 107.19 382.666 107.19C381.904 107.19 381.65 106.556 381.65 106.175C381.65 105.54 382.031 104.651 383.936 104.651C384.317 104.778 384.317 104.778 384.444 104.778Z" fill="white"/>
<path d="M389.396 109.222C390.158 105.032 390.285 101.603 392.063 102.238C392.317 100.587 392.698 99.9523 392.952 99.3174C392.952 99.3174 392.825 99.3174 392.444 99.3174C391.301 99.3174 390.412 100.841 390.412 100.841L390.666 99.4444H388.253L386.603 109.349H389.396V109.222Z" fill="white"/>
<path d="M352.571 107.317C352.571 108.841 353.46 109.476 354.603 109.476C355.492 109.476 356.254 109.222 356.508 109.095L356.889 106.937C356.762 106.937 356.508 107.064 356.254 107.064C355.365 107.064 355.238 106.556 355.365 106.302L356.127 101.857H357.524L357.905 99.4445H356.635L356.889 97.9207" fill="#DCE5E5"/>
<path d="M358.666 105.032C358.666 108.587 359.809 109.476 361.841 109.476C363.745 109.476 364.507 109.095 364.507 109.095L365.015 106.683C365.015 106.683 363.618 107.317 362.349 107.317C359.555 107.317 360.063 105.286 360.063 105.286H365.269C365.269 105.286 365.65 103.635 365.65 103C365.65 101.349 364.761 99.3175 361.968 99.3175C359.301 99.0635 358.666 101.857 358.666 105.032ZM361.841 101.349C363.237 101.349 363.491 103 363.491 103.127H360.19C360.19 103 360.444 101.349 361.841 101.349Z" fill="#DCE5E5"/>
<path d="M377.968 109.095L378.476 106.302C378.476 106.302 377.206 106.936 376.317 106.936C374.54 106.936 373.778 105.54 373.778 104.016C373.778 100.968 375.302 99.3174 377.079 99.3174C378.349 99.3174 379.365 100.079 379.365 100.079L379.746 97.4126C379.746 97.4126 378.222 96.7777 376.825 96.7777C373.905 96.7777 372.254 99.3174 372.254 104.143C372.254 107.317 372.508 109.476 375.555 109.476C376.571 109.476 377.968 109.095 377.968 109.095Z" fill="#DCE5E5"/>
<path d="M339.111 101.857C339.111 101.857 340.254 101.349 341.904 101.349C342.793 101.349 343.555 101.476 343.555 102.238C343.555 102.746 343.428 102.873 343.428 102.873C343.428 102.873 342.666 102.873 342.285 102.873C340.127 102.873 337.714 103.762 337.714 106.682C337.714 108.968 339.238 109.476 340.127 109.476C341.904 109.476 342.666 108.333 342.793 108.333L342.666 109.349H344.952L345.968 102.365C345.968 99.4444 343.428 99.3174 342.412 99.3174L339.111 101.857ZM344.317 104.778C344.317 105.159 342.793 107.19 341.269 107.19C340.508 107.19 340.254 106.555 340.254 106.175C340.254 105.54 340.635 104.651 342.539 104.651C342.92 104.778 344.317 104.778 344.317 104.778Z" fill="#DCE5E5"/>
<path d="M345.587 109.095C345.587 109.095 346.349 109.349 348.508 109.349C349.142 109.349 352.317 109.476 352.317 106.048C352.317 102.873 349.269 103.508 349.269 102.238C349.269 101.603 349.777 101.349 350.666 101.349C351.047 101.349 352.444 101.476 352.444 101.476L352.825 99.1905C352.825 99.1905 351.936 98.9365 350.412 98.9365C348.508 98.9365 347.873 99.6984 347.873 102.238C347.873 105.159 349.777 104.905 349.777 106.048C349.777 106.81 348.889 106.937 348.254 106.937" fill="#DCE5E5"/>
<path d="M398.539 100.46C398.539 100.46 397.523 99.1903 396.126 99.1903C393.84 99.1903 393.079 101.984 393.079 105.286C393.079 107.317 392.825 109.476 394.983 109.476C396.507 109.476 397.396 108.46 397.396 108.46L397.269 109.349H399.809L401.713 97.1586L398.539 100.46ZM398.412 103.762C398.412 105.159 397.269 106.936 395.872 106.936C394.983 106.936 394.475 106.174 394.475 104.905C394.475 102.873 395.364 101.603 396.507 101.603C397.396 101.603 398.412 102.238 398.412 103.762Z" fill="#DCE5E5"/>
<path d="M328.698 109.222L330.222 100.079L330.476 109.222H332.253L335.555 100.079L334.158 109.222H336.825L338.857 97.0317H335.682L332.126 104.524L331.999 97.0317H330.603L326.285 109.222H328.698Z" fill="#DCE5E5"/>
<path d="M365.396 109.222H368.063C368.825 105.032 368.952 101.603 370.73 102.238C370.984 100.587 371.365 99.9523 371.619 99.3174C371.619 99.3174 371.492 99.3174 371.111 99.3174C369.968 99.3174 369.079 100.841 369.079 100.841L369.333 99.4444" fill="#DCE5E5"/>
<path d="M380.38 101.857C380.38 101.857 381.523 101.349 383.174 101.349C384.063 101.349 384.825 101.476 384.825 102.238C384.825 102.746 384.698 102.873 384.698 102.873C384.698 102.873 383.936 102.873 383.555 102.873C381.396 102.873 378.983 103.762 378.983 106.682C378.983 108.968 380.507 109.476 381.396 109.476C383.174 109.476 383.936 108.333 384.063 108.333L383.936 109.349H386.222L387.237 102.365C387.237 99.4444 384.698 99.3174 383.682 99.3174L380.38 101.857ZM385.587 104.778C385.587 105.159 384.063 107.19 382.539 107.19C381.777 107.19 381.523 106.555 381.523 106.175C381.523 105.54 381.904 104.651 383.809 104.651C384.317 104.778 385.587 104.778 385.587 104.778Z" fill="#DCE5E5"/>
<path d="M386.729 109.222H389.396C390.158 105.032 390.285 101.603 392.063 102.238C392.317 100.587 392.698 99.9523 392.952 99.3174C392.952 99.3174 392.825 99.3174 392.444 99.3174C391.301 99.3174 390.412 100.841 390.412 100.841L390.666 99.4444" fill="#DCE5E5"/>
</g>
<path d="M701.096 226.788C697.754 215.621 685.52 212.047 679.82 211.655L619.386 204.458L522.89 192.725C510.975 191.277 500.476 200.576 500.476 212.579V338.365C500.476 351.431 512.77 360.996 525.424 357.741C594.82 339.893 700.247 312.734 709.58 310.148C720.127 307.226 720.675 297.015 719.631 292.276C714.845 275.099 704.437 237.955 701.096 226.788Z" fill="#F6F8FF"/>
<path d="M547.477 283.8H552.197C553.381 283.8 554.432 284.035 555.349 284.504C556.266 284.973 556.976 285.635 557.477 286.488C557.989 287.331 558.245 288.301 558.245 289.4C558.245 290.499 557.989 291.475 557.477 292.328C556.976 293.171 556.266 293.827 555.349 294.296C554.432 294.765 553.381 295 552.197 295H547.477V283.8ZM552.101 293.608C553.008 293.608 553.802 293.432 554.485 293.08C555.178 292.728 555.712 292.237 556.085 291.608C556.458 290.968 556.645 290.232 556.645 289.4C556.645 288.568 556.458 287.837 556.085 287.208C555.712 286.568 555.178 286.072 554.485 285.72C553.802 285.368 553.008 285.192 552.101 285.192H549.077V293.608H552.101ZM560.472 286.52H562.008V295H560.472V286.52ZM561.24 284.888C560.941 284.888 560.69 284.792 560.488 284.6C560.296 284.408 560.2 284.173 560.2 283.896C560.2 283.619 560.296 283.384 560.488 283.192C560.69 282.989 560.941 282.888 561.24 282.888C561.538 282.888 561.784 282.984 561.976 283.176C562.178 283.357 562.28 283.587 562.28 283.864C562.28 284.152 562.178 284.397 561.976 284.6C561.784 284.792 561.538 284.888 561.24 284.888ZM567.372 295.096C566.679 295.096 566.012 295.005 565.372 294.824C564.732 294.632 564.231 294.392 563.868 294.104L564.508 292.888C564.882 293.155 565.335 293.368 565.868 293.528C566.402 293.688 566.94 293.768 567.484 293.768C568.828 293.768 569.5 293.384 569.5 292.616C569.5 292.36 569.41 292.157 569.228 292.008C569.047 291.859 568.818 291.752 568.54 291.688C568.274 291.613 567.89 291.533 567.388 291.448C566.706 291.341 566.146 291.219 565.708 291.08C565.282 290.941 564.914 290.707 564.604 290.376C564.295 290.045 564.14 289.581 564.14 288.984C564.14 288.216 564.46 287.603 565.1 287.144C565.74 286.675 566.599 286.44 567.676 286.44C568.242 286.44 568.807 286.509 569.372 286.648C569.938 286.787 570.402 286.973 570.764 287.208L570.108 288.424C569.415 287.976 568.599 287.752 567.66 287.752C567.01 287.752 566.514 287.859 566.172 288.072C565.831 288.285 565.66 288.568 565.66 288.92C565.66 289.197 565.756 289.416 565.948 289.576C566.14 289.736 566.375 289.853 566.652 289.928C566.94 290.003 567.34 290.088 567.852 290.184C568.535 290.301 569.084 290.429 569.5 290.568C569.927 290.696 570.29 290.92 570.588 291.24C570.887 291.56 571.036 292.008 571.036 292.584C571.036 293.352 570.706 293.965 570.044 294.424C569.394 294.872 568.503 295.096 567.372 295.096ZM576.652 295.096C575.788 295.096 575.015 294.909 574.332 294.536C573.66 294.163 573.132 293.651 572.748 293C572.364 292.339 572.172 291.592 572.172 290.76C572.172 289.928 572.364 289.187 572.748 288.536C573.132 287.875 573.66 287.363 574.332 287C575.015 286.627 575.788 286.44 576.652 286.44C577.42 286.44 578.103 286.595 578.7 286.904C579.308 287.213 579.777 287.661 580.108 288.248L578.94 289C578.673 288.595 578.343 288.291 577.948 288.088C577.553 287.885 577.116 287.784 576.636 287.784C576.081 287.784 575.58 287.907 575.132 288.152C574.695 288.397 574.348 288.749 574.092 289.208C573.847 289.656 573.724 290.173 573.724 290.76C573.724 291.357 573.847 291.885 574.092 292.344C574.348 292.792 574.695 293.139 575.132 293.384C575.58 293.629 576.081 293.752 576.636 293.752C577.116 293.752 577.553 293.651 577.948 293.448C578.343 293.245 578.673 292.941 578.94 292.536L580.108 293.272C579.777 293.859 579.308 294.312 578.7 294.632C578.103 294.941 577.42 295.096 576.652 295.096ZM585.604 295.096C584.761 295.096 584.004 294.909 583.332 294.536C582.66 294.163 582.132 293.651 581.748 293C581.374 292.339 581.188 291.592 581.188 290.76C581.188 289.928 581.374 289.187 581.748 288.536C582.132 287.875 582.66 287.363 583.332 287C584.004 286.627 584.761 286.44 585.604 286.44C586.446 286.44 587.198 286.627 587.86 287C588.532 287.363 589.054 287.875 589.428 288.536C589.812 289.187 590.004 289.928 590.004 290.76C590.004 291.592 589.812 292.339 589.428 293C589.054 293.651 588.532 294.163 587.86 294.536C587.198 294.909 586.446 295.096 585.604 295.096ZM585.604 293.752C586.148 293.752 586.633 293.629 587.06 293.384C587.497 293.128 587.838 292.776 588.084 292.328C588.329 291.869 588.452 291.347 588.452 290.76C588.452 290.173 588.329 289.656 588.084 289.208C587.838 288.749 587.497 288.397 587.06 288.152C586.633 287.907 586.148 287.784 585.604 287.784C585.06 287.784 584.569 287.907 584.132 288.152C583.705 288.397 583.364 288.749 583.108 289.208C582.862 289.656 582.74 290.173 582.74 290.76C582.74 291.347 582.862 291.869 583.108 292.328C583.364 292.776 583.705 293.128 584.132 293.384C584.569 293.629 585.06 293.752 585.604 293.752ZM599.398 286.52L595.686 295H594.118L590.405 286.52H592.006L594.918 293.32L597.894 286.52H599.398ZM608.261 290.808C608.261 290.925 608.25 291.08 608.229 291.272H601.349C601.445 292.019 601.77 292.621 602.325 293.08C602.89 293.528 603.589 293.752 604.421 293.752C605.434 293.752 606.25 293.411 606.869 292.728L607.717 293.72C607.333 294.168 606.853 294.509 606.277 294.744C605.711 294.979 605.077 295.096 604.373 295.096C603.477 295.096 602.682 294.915 601.989 294.552C601.295 294.179 600.757 293.661 600.373 293C599.999 292.339 599.813 291.592 599.813 290.76C599.813 289.939 599.994 289.197 600.357 288.536C600.73 287.875 601.237 287.363 601.877 287C602.527 286.627 603.258 286.44 604.069 286.44C604.879 286.44 605.599 286.627 606.229 287C606.869 287.363 607.365 287.875 607.717 288.536C608.079 289.197 608.261 289.955 608.261 290.808ZM604.069 287.736C603.333 287.736 602.714 287.96 602.213 288.408C601.722 288.856 601.434 289.443 601.349 290.168H606.789C606.703 289.453 606.41 288.872 605.909 288.424C605.418 287.965 604.805 287.736 604.069 287.736ZM611.866 287.944C612.132 287.453 612.527 287.08 613.049 286.824C613.572 286.568 614.207 286.44 614.954 286.44V287.928C614.868 287.917 614.751 287.912 614.602 287.912C613.77 287.912 613.114 288.163 612.634 288.664C612.164 289.155 611.93 289.859 611.93 290.776V295H610.394V286.52H611.866V287.944ZM624.341 286.44C625.514 286.44 626.41 286.728 627.029 287.304C627.658 287.88 627.973 288.739 627.973 289.88V295H626.517V293.88C626.261 294.275 625.893 294.579 625.413 294.792C624.944 294.995 624.384 295.096 623.733 295.096C622.784 295.096 622.021 294.867 621.445 294.408C620.88 293.949 620.597 293.347 620.597 292.6C620.597 291.853 620.869 291.256 621.413 290.808C621.957 290.349 622.821 290.12 624.005 290.12H626.437V289.816C626.437 289.155 626.245 288.648 625.861 288.296C625.477 287.944 624.912 287.768 624.165 287.768C623.664 287.768 623.173 287.853 622.693 288.024C622.213 288.184 621.808 288.403 621.477 288.68L620.837 287.528C621.274 287.176 621.797 286.909 622.405 286.728C623.013 286.536 623.658 286.44 624.341 286.44ZM623.989 293.912C624.576 293.912 625.082 293.784 625.509 293.528C625.936 293.261 626.245 292.888 626.437 292.408V291.224H624.069C622.768 291.224 622.117 291.661 622.117 292.536C622.117 292.963 622.282 293.299 622.613 293.544C622.944 293.789 623.402 293.912 623.989 293.912ZM635.343 286.44C636.421 286.44 637.274 286.755 637.903 287.384C638.543 288.003 638.863 288.915 638.863 290.12V295H637.327V290.296C637.327 289.475 637.13 288.856 636.735 288.44C636.341 288.024 635.775 287.816 635.039 287.816C634.207 287.816 633.551 288.061 633.071 288.552C632.591 289.032 632.351 289.725 632.351 290.632V295H630.815V286.52H632.287V287.8C632.597 287.363 633.013 287.027 633.535 286.792C634.069 286.557 634.671 286.44 635.343 286.44ZM649.753 283.128V295H648.281V293.656C647.94 294.125 647.508 294.483 646.985 294.728C646.462 294.973 645.886 295.096 645.257 295.096C644.436 295.096 643.7 294.915 643.049 294.552C642.398 294.189 641.886 293.683 641.513 293.032C641.15 292.371 640.969 291.613 640.969 290.76C640.969 289.907 641.15 289.155 641.513 288.504C641.886 287.853 642.398 287.347 643.049 286.984C643.7 286.621 644.436 286.44 645.257 286.44C645.865 286.44 646.425 286.557 646.937 286.792C647.449 287.016 647.876 287.352 648.217 287.8V283.128H649.753ZM645.385 293.752C645.918 293.752 646.404 293.629 646.841 293.384C647.278 293.128 647.62 292.776 647.865 292.328C648.11 291.869 648.233 291.347 648.233 290.76C648.233 290.173 648.11 289.656 647.865 289.208C647.62 288.749 647.278 288.397 646.841 288.152C646.404 287.907 645.918 287.784 645.385 287.784C644.841 287.784 644.35 287.907 643.913 288.152C643.486 288.397 643.145 288.749 642.889 289.208C642.644 289.656 642.521 290.173 642.521 290.76C642.521 291.347 642.644 291.869 642.889 292.328C643.145 292.776 643.486 293.128 643.913 293.384C644.35 293.629 644.841 293.752 645.385 293.752ZM573.703 304.8H578.423C579.607 304.8 580.658 305.035 581.575 305.504C582.493 305.973 583.202 306.635 583.703 307.488C584.215 308.331 584.471 309.301 584.471 310.4C584.471 311.499 584.215 312.475 583.703 313.328C583.202 314.171 582.493 314.827 581.575 315.296C580.658 315.765 579.607 316 578.423 316H573.703V304.8ZM578.327 314.608C579.234 314.608 580.029 314.432 580.711 314.08C581.405 313.728 581.938 313.237 582.311 312.608C582.685 311.968 582.871 311.232 582.871 310.4C582.871 309.568 582.685 308.837 582.311 308.208C581.938 307.568 581.405 307.072 580.711 306.72C580.029 306.368 579.234 306.192 578.327 306.192H575.303V314.608H578.327ZM586.698 307.52H588.234V316H586.698V307.52ZM587.466 305.888C587.168 305.888 586.917 305.792 586.714 305.6C586.522 305.408 586.426 305.173 586.426 304.896C586.426 304.619 586.522 304.384 586.714 304.192C586.917 303.989 587.168 303.888 587.466 303.888C587.765 303.888 588.01 303.984 588.202 304.176C588.405 304.357 588.506 304.587 588.506 304.864C588.506 305.152 588.405 305.397 588.202 305.6C588.01 305.792 587.765 305.888 587.466 305.888ZM595.695 307.44C596.772 307.44 597.626 307.755 598.255 308.384C598.895 309.003 599.215 309.915 599.215 311.12V316H597.679V311.296C597.679 310.475 597.482 309.856 597.087 309.44C596.692 309.024 596.127 308.816 595.391 308.816C594.559 308.816 593.903 309.061 593.423 309.552C592.943 310.032 592.703 310.725 592.703 311.632V316H591.167V307.52H592.639V308.8C592.948 308.363 593.364 308.027 593.887 307.792C594.42 307.557 595.023 307.44 595.695 307.44ZM609.768 311.808C609.768 311.925 609.758 312.08 609.736 312.272H602.856C602.952 313.019 603.278 313.621 603.832 314.08C604.398 314.528 605.096 314.752 605.928 314.752C606.942 314.752 607.758 314.411 608.376 313.728L609.224 314.72C608.84 315.168 608.36 315.509 607.784 315.744C607.219 315.979 606.584 316.096 605.88 316.096C604.984 316.096 604.19 315.915 603.496 315.552C602.803 315.179 602.264 314.661 601.88 314C601.507 313.339 601.32 312.592 601.32 311.76C601.32 310.939 601.502 310.197 601.864 309.536C602.238 308.875 602.744 308.363 603.384 308C604.035 307.627 604.766 307.44 605.576 307.44C606.387 307.44 607.107 307.627 607.736 308C608.376 308.363 608.872 308.875 609.224 309.536C609.587 310.197 609.768 310.955 609.768 311.808ZM605.576 308.736C604.84 308.736 604.222 308.96 603.72 309.408C603.23 309.856 602.942 310.443 602.856 311.168H608.296C608.211 310.453 607.918 309.872 607.416 309.424C606.926 308.965 606.312 308.736 605.576 308.736ZM613.373 308.944C613.64 308.453 614.035 308.08 614.557 307.824C615.08 307.568 615.715 307.44 616.461 307.44V308.928C616.376 308.917 616.259 308.912 616.109 308.912C615.277 308.912 614.621 309.163 614.141 309.664C613.672 310.155 613.437 310.859 613.437 311.776V316H611.901V307.52H613.373V308.944ZM620.849 316.096C620.156 316.096 619.489 316.005 618.849 315.824C618.209 315.632 617.708 315.392 617.345 315.104L617.985 313.888C618.358 314.155 618.812 314.368 619.345 314.528C619.878 314.688 620.417 314.768 620.961 314.768C622.305 314.768 622.977 314.384 622.977 313.616C622.977 313.36 622.886 313.157 622.705 313.008C622.524 312.859 622.294 312.752 622.017 312.688C621.75 312.613 621.366 312.533 620.865 312.448C620.182 312.341 619.622 312.219 619.185 312.08C618.758 311.941 618.39 311.707 618.081 311.376C617.772 311.045 617.617 310.581 617.617 309.984C617.617 309.216 617.937 308.603 618.577 308.144C619.217 307.675 620.076 307.44 621.153 307.44C621.718 307.44 622.284 307.509 622.849 307.648C623.414 307.787 623.878 307.973 624.241 308.208L623.585 309.424C622.892 308.976 622.076 308.752 621.137 308.752C620.486 308.752 619.99 308.859 619.649 309.072C619.308 309.285 619.137 309.568 619.137 309.92C619.137 310.197 619.233 310.416 619.425 310.576C619.617 310.736 619.852 310.853 620.129 310.928C620.417 311.003 620.817 311.088 621.329 311.184C622.012 311.301 622.561 311.429 622.977 311.568C623.404 311.696 623.766 311.92 624.065 312.24C624.364 312.56 624.513 313.008 624.513 313.584C624.513 314.352 624.182 314.965 623.521 315.424C622.87 315.872 621.98 316.096 620.849 316.096Z" fill="#333333"/>
<g clip-path="url(#clip2)">
<path d="M641.096 247.164C641.096 247.164 617.649 263.801 574.706 271.247H641.096V247.164Z" fill="#F48120"/>
<path d="M562.845 233.296H559.265V245.871H562.826C564.72 245.871 566.088 245.421 567.288 244.419C568.715 243.232 569.559 241.443 569.559 239.592C569.559 235.881 566.801 233.296 562.845 233.296ZM565.695 242.742C564.928 243.438 563.933 243.742 562.357 243.742H561.702V235.427H562.357C563.933 235.427 564.89 235.71 565.695 236.443C566.539 237.199 567.046 238.369 567.046 239.574C567.046 240.781 566.539 241.987 565.695 242.742Z" fill="#231F20"/>
<path d="M573.12 233.296H570.681V245.871H573.12V233.296Z" fill="#231F20"/>
<path d="M579.085 238.122C577.621 237.577 577.191 237.218 577.191 236.539C577.191 235.746 577.957 235.145 579.008 235.145C579.739 235.145 580.34 235.446 580.975 236.163L582.252 234.482C581.203 233.56 579.948 233.088 578.577 233.088C576.364 233.088 574.676 234.633 574.676 236.691C574.676 238.424 575.462 239.311 577.753 240.14C578.708 240.478 579.194 240.704 579.44 240.856C579.927 241.176 580.171 241.629 580.171 242.157C580.171 243.176 579.365 243.93 578.277 243.93C577.113 243.93 576.176 243.345 575.615 242.253L574.039 243.779C575.163 245.438 576.513 246.173 578.369 246.173C580.904 246.173 582.682 244.479 582.682 242.044C582.682 240.046 581.86 239.142 579.085 238.122Z" fill="#231F20"/>
<path d="M583.452 239.592C583.452 243.288 586.339 246.154 590.053 246.154C591.103 246.154 592.003 245.946 593.112 245.421V242.534C592.136 243.515 591.273 243.911 590.167 243.911C587.71 243.911 585.966 242.12 585.966 239.573C585.966 237.159 587.765 235.255 590.053 235.255C591.217 235.255 592.098 235.672 593.112 236.67V233.783C592.041 233.237 591.161 233.011 590.111 233.011C586.415 233.012 583.452 235.936 583.452 239.592Z" fill="#231F20"/>
<path d="M612.453 241.742L609.118 233.296H606.453L611.761 246.193H613.073L618.476 233.296H615.831L612.453 241.742Z" fill="#231F20"/>
<path d="M619.578 245.871H626.496V243.742H622.016V240.348H626.331V238.218H622.016V235.427H626.496V233.296H619.578V245.871Z" fill="#231F20"/>
<path d="M636.154 237.008C636.154 234.654 634.541 233.296 631.728 233.296H628.111V245.871H630.548V240.819H630.866L634.242 245.871H637.242L633.305 240.573C635.142 240.197 636.154 238.934 636.154 237.008ZM631.261 239.085H630.548V235.276H631.299C632.818 235.276 633.644 235.917 633.644 237.14C633.644 238.405 632.818 239.085 631.261 239.085Z" fill="#231F20"/>
<path d="M600.56 246.316C604.234 246.316 607.213 243.322 607.213 239.627C607.213 235.933 604.234 232.938 600.56 232.938C596.886 232.938 593.907 235.933 593.907 239.627C593.907 243.322 596.886 246.316 600.56 246.316Z" fill="url(#paint5_linear)"/>
<path opacity="0.65" d="M600.56 246.316C604.234 246.316 607.213 243.322 607.213 239.627C607.213 235.933 604.234 232.938 600.56 232.938C596.886 232.938 593.907 235.933 593.907 239.627C593.907 243.322 596.886 246.316 600.56 246.316Z" fill="url(#paint6_linear)"/>
<path d="M637.713 233.769C637.713 233.548 637.562 233.428 637.296 233.428H636.943V234.533H637.206V234.104L637.513 234.533H637.833L637.472 234.077C637.627 234.036 637.713 233.922 637.713 233.769ZM637.25 233.92H637.206V233.631H637.253C637.383 233.631 637.45 233.678 637.45 233.773C637.45 233.87 637.382 233.92 637.25 233.92Z" fill="#231F20"/>
<path d="M637.349 233.015C636.815 233.015 636.392 233.443 636.392 233.978C636.392 234.513 636.82 234.942 637.349 234.942C637.869 234.942 638.295 234.508 638.295 233.978C638.295 233.45 637.869 233.015 637.349 233.015ZM637.345 234.77C636.925 234.77 636.581 234.418 636.581 233.98C636.581 233.54 636.921 233.188 637.345 233.188C637.763 233.188 638.104 233.548 638.104 233.98C638.104 234.415 637.763 234.77 637.345 234.77Z" fill="#231F20"/>
</g>
<path d="M200.619 226.788C197.278 215.621 185.043 212.047 179.343 211.655L118.91 204.458L22.4136 192.725C10.4983 191.277 -0.00038147 200.576 -0.00038147 212.579V338.365C-0.00038147 351.431 12.2938 360.996 24.9479 357.741C94.3432 339.893 199.77 312.734 209.104 310.148C219.65 307.226 220.198 297.015 219.154 292.276C214.368 275.099 203.961 237.955 200.619 226.788Z" fill="#F6F8FF"/>
<path d="M47.0003 283.8H51.7203C52.9043 283.8 53.955 284.035 54.8723 284.504C55.7896 284.973 56.499 285.635 57.0003 286.488C57.5123 287.331 57.7683 288.301 57.7683 289.4C57.7683 290.499 57.5123 291.475 57.0003 292.328C56.499 293.171 55.7896 293.827 54.8723 294.296C53.955 294.765 52.9043 295 51.7203 295H47.0003V283.8ZM51.6243 293.608C52.531 293.608 53.3256 293.432 54.0083 293.08C54.7016 292.728 55.235 292.237 55.6083 291.608C55.9816 290.968 56.1683 290.232 56.1683 289.4C56.1683 288.568 55.9816 287.837 55.6083 287.208C55.235 286.568 54.7016 286.072 54.0083 285.72C53.3256 285.368 52.531 285.192 51.6243 285.192H48.6003V293.608H51.6243ZM59.9951 286.52H61.5311V295H59.9951V286.52ZM60.7631 284.888C60.4644 284.888 60.2137 284.792 60.0111 284.6C59.8191 284.408 59.7231 284.173 59.7231 283.896C59.7231 283.619 59.8191 283.384 60.0111 283.192C60.2137 282.989 60.4644 282.888 60.7631 282.888C61.0617 282.888 61.3071 282.984 61.4991 283.176C61.7017 283.357 61.8031 283.587 61.8031 283.864C61.8031 284.152 61.7017 284.397 61.4991 284.6C61.3071 284.792 61.0617 284.888 60.7631 284.888ZM66.8958 295.096C66.2025 295.096 65.5358 295.005 64.8958 294.824C64.2558 294.632 63.7545 294.392 63.3918 294.104L64.0318 292.888C64.4051 293.155 64.8585 293.368 65.3918 293.528C65.9251 293.688 66.4638 293.768 67.0078 293.768C68.3518 293.768 69.0238 293.384 69.0238 292.616C69.0238 292.36 68.9331 292.157 68.7518 292.008C68.5705 291.859 68.3411 291.752 68.0638 291.688C67.7971 291.613 67.4131 291.533 66.9118 291.448C66.2291 291.341 65.6691 291.219 65.2318 291.08C64.8051 290.941 64.4371 290.707 64.1278 290.376C63.8185 290.045 63.6638 289.581 63.6638 288.984C63.6638 288.216 63.9838 287.603 64.6238 287.144C65.2638 286.675 66.1225 286.44 67.1998 286.44C67.7651 286.44 68.3305 286.509 68.8958 286.648C69.4611 286.787 69.9251 286.973 70.2878 287.208L69.6318 288.424C68.9385 287.976 68.1225 287.752 67.1838 287.752C66.5331 287.752 66.0371 287.859 65.6958 288.072C65.3545 288.285 65.1838 288.568 65.1838 288.92C65.1838 289.197 65.2798 289.416 65.4718 289.576C65.6638 289.736 65.8985 289.853 66.1758 289.928C66.4638 290.003 66.8638 290.088 67.3758 290.184C68.0585 290.301 68.6078 290.429 69.0238 290.568C69.4505 290.696 69.8131 290.92 70.1118 291.24C70.4105 291.56 70.5598 292.008 70.5598 292.584C70.5598 293.352 70.2291 293.965 69.5678 294.424C68.9171 294.872 68.0265 295.096 66.8958 295.096ZM76.1754 295.096C75.3114 295.096 74.5381 294.909 73.8554 294.536C73.1834 294.163 72.6554 293.651 72.2714 293C71.8874 292.339 71.6954 291.592 71.6954 290.76C71.6954 289.928 71.8874 289.187 72.2714 288.536C72.6554 287.875 73.1834 287.363 73.8554 287C74.5381 286.627 75.3114 286.44 76.1754 286.44C76.9434 286.44 77.6261 286.595 78.2234 286.904C78.8314 287.213 79.3008 287.661 79.6314 288.248L78.4634 289C78.1968 288.595 77.8661 288.291 77.4714 288.088C77.0768 287.885 76.6394 287.784 76.1594 287.784C75.6048 287.784 75.1034 287.907 74.6554 288.152C74.2181 288.397 73.8714 288.749 73.6154 289.208C73.3701 289.656 73.2474 290.173 73.2474 290.76C73.2474 291.357 73.3701 291.885 73.6154 292.344C73.8714 292.792 74.2181 293.139 74.6554 293.384C75.1034 293.629 75.6048 293.752 76.1594 293.752C76.6394 293.752 77.0768 293.651 77.4714 293.448C77.8661 293.245 78.1968 292.941 78.4634 292.536L79.6314 293.272C79.3008 293.859 78.8314 294.312 78.2234 294.632C77.6261 294.941 76.9434 295.096 76.1754 295.096ZM85.1271 295.096C84.2844 295.096 83.5271 294.909 82.8551 294.536C82.1831 294.163 81.6551 293.651 81.2711 293C80.8977 292.339 80.7111 291.592 80.7111 290.76C80.7111 289.928 80.8977 289.187 81.2711 288.536C81.6551 287.875 82.1831 287.363 82.8551 287C83.5271 286.627 84.2844 286.44 85.1271 286.44C85.9697 286.44 86.7217 286.627 87.3831 287C88.0551 287.363 88.5777 287.875 88.9511 288.536C89.3351 289.187 89.5271 289.928 89.5271 290.76C89.5271 291.592 89.3351 292.339 88.9511 293C88.5777 293.651 88.0551 294.163 87.3831 294.536C86.7217 294.909 85.9697 295.096 85.1271 295.096ZM85.1271 293.752C85.6711 293.752 86.1564 293.629 86.5831 293.384C87.0204 293.128 87.3617 292.776 87.6071 292.328C87.8524 291.869 87.9751 291.347 87.9751 290.76C87.9751 290.173 87.8524 289.656 87.6071 289.208C87.3617 288.749 87.0204 288.397 86.5831 288.152C86.1564 287.907 85.6711 287.784 85.1271 287.784C84.5831 287.784 84.0924 287.907 83.6551 288.152C83.2284 288.397 82.8871 288.749 82.6311 289.208C82.3857 289.656 82.2631 290.173 82.2631 290.76C82.2631 291.347 82.3857 291.869 82.6311 292.328C82.8871 292.776 83.2284 293.128 83.6551 293.384C84.0924 293.629 84.5831 293.752 85.1271 293.752ZM98.9209 286.52L95.2089 295H93.6409L89.9289 286.52H91.5289L94.4409 293.32L97.4169 286.52H98.9209ZM107.784 290.808C107.784 290.925 107.773 291.08 107.752 291.272H100.872C100.968 292.019 101.293 292.621 101.848 293.08C102.413 293.528 103.112 293.752 103.944 293.752C104.957 293.752 105.773 293.411 106.392 292.728L107.24 293.72C106.856 294.168 106.376 294.509 105.8 294.744C105.235 294.979 104.6 295.096 103.896 295.096C103 295.096 102.205 294.915 101.512 294.552C100.819 294.179 100.28 293.661 99.8961 293C99.5227 292.339 99.3361 291.592 99.3361 290.76C99.3361 289.939 99.5174 289.197 99.8801 288.536C100.253 287.875 100.76 287.363 101.4 287C102.051 286.627 102.781 286.44 103.592 286.44C104.403 286.44 105.123 286.627 105.752 287C106.392 287.363 106.888 287.875 107.24 288.536C107.603 289.197 107.784 289.955 107.784 290.808ZM103.592 287.736C102.856 287.736 102.237 287.96 101.736 288.408C101.245 288.856 100.957 289.443 100.872 290.168H106.312C106.227 289.453 105.933 288.872 105.432 288.424C104.941 287.965 104.328 287.736 103.592 287.736ZM111.389 287.944C111.656 287.453 112.05 287.08 112.573 286.824C113.096 286.568 113.73 286.44 114.477 286.44V287.928C114.392 287.917 114.274 287.912 114.125 287.912C113.293 287.912 112.637 288.163 112.157 288.664C111.688 289.155 111.453 289.859 111.453 290.776V295H109.917V286.52H111.389V287.944ZM123.864 286.44C125.038 286.44 125.934 286.728 126.552 287.304C127.182 287.88 127.496 288.739 127.496 289.88V295H126.04V293.88C125.784 294.275 125.416 294.579 124.936 294.792C124.467 294.995 123.907 295.096 123.256 295.096C122.307 295.096 121.544 294.867 120.968 294.408C120.403 293.949 120.12 293.347 120.12 292.6C120.12 291.853 120.392 291.256 120.936 290.808C121.48 290.349 122.344 290.12 123.528 290.12H125.96V289.816C125.96 289.155 125.768 288.648 125.384 288.296C125 287.944 124.435 287.768 123.688 287.768C123.187 287.768 122.696 287.853 122.216 288.024C121.736 288.184 121.331 288.403 121 288.68L120.36 287.528C120.798 287.176 121.32 286.909 121.928 286.728C122.536 286.536 123.182 286.44 123.864 286.44ZM123.512 293.912C124.099 293.912 124.606 293.784 125.032 293.528C125.459 293.261 125.768 292.888 125.96 292.408V291.224H123.592C122.291 291.224 121.64 291.661 121.64 292.536C121.64 292.963 121.806 293.299 122.136 293.544C122.467 293.789 122.926 293.912 123.512 293.912ZM134.867 286.44C135.944 286.44 136.797 286.755 137.427 287.384C138.067 288.003 138.387 288.915 138.387 290.12V295H136.851V290.296C136.851 289.475 136.653 288.856 136.259 288.44C135.864 288.024 135.299 287.816 134.563 287.816C133.731 287.816 133.075 288.061 132.595 288.552C132.115 289.032 131.875 289.725 131.875 290.632V295H130.339V286.52H131.811V287.8C132.12 287.363 132.536 287.027 133.059 286.792C133.592 286.557 134.195 286.44 134.867 286.44ZM149.276 283.128V295H147.804V293.656C147.463 294.125 147.031 294.483 146.508 294.728C145.986 294.973 145.41 295.096 144.78 295.096C143.959 295.096 143.223 294.915 142.572 294.552C141.922 294.189 141.41 293.683 141.036 293.032C140.674 292.371 140.492 291.613 140.492 290.76C140.492 289.907 140.674 289.155 141.036 288.504C141.41 287.853 141.922 287.347 142.572 286.984C143.223 286.621 143.959 286.44 144.78 286.44C145.388 286.44 145.948 286.557 146.46 286.792C146.972 287.016 147.399 287.352 147.74 287.8V283.128H149.276ZM144.908 293.752C145.442 293.752 145.927 293.629 146.364 293.384C146.802 293.128 147.143 292.776 147.388 292.328C147.634 291.869 147.756 291.347 147.756 290.76C147.756 290.173 147.634 289.656 147.388 289.208C147.143 288.749 146.802 288.397 146.364 288.152C145.927 287.907 145.442 287.784 144.908 287.784C144.364 287.784 143.874 287.907 143.436 288.152C143.01 288.397 142.668 288.749 142.412 289.208C142.167 289.656 142.044 290.173 142.044 290.76C142.044 291.347 142.167 291.869 142.412 292.328C142.668 292.776 143.01 293.128 143.436 293.384C143.874 293.629 144.364 293.752 144.908 293.752ZM73.2269 304.8H77.9469C79.1309 304.8 80.1815 305.035 81.0989 305.504C82.0162 305.973 82.7255 306.635 83.2269 307.488C83.7389 308.331 83.9949 309.301 83.9949 310.4C83.9949 311.499 83.7389 312.475 83.2269 313.328C82.7255 314.171 82.0162 314.827 81.0989 315.296C80.1815 315.765 79.1309 316 77.9469 316H73.2269V304.8ZM77.8509 314.608C78.7575 314.608 79.5522 314.432 80.2349 314.08C80.9282 313.728 81.4615 313.237 81.8349 312.608C82.2082 311.968 82.3949 311.232 82.3949 310.4C82.3949 309.568 82.2082 308.837 81.8349 308.208C81.4615 307.568 80.9282 307.072 80.2349 306.72C79.5522 306.368 78.7575 306.192 77.8509 306.192H74.8269V314.608H77.8509ZM86.2216 307.52H87.7576V316H86.2216V307.52ZM86.9896 305.888C86.691 305.888 86.4403 305.792 86.2376 305.6C86.0456 305.408 85.9496 305.173 85.9496 304.896C85.9496 304.619 86.0456 304.384 86.2376 304.192C86.4403 303.989 86.691 303.888 86.9896 303.888C87.2883 303.888 87.5336 303.984 87.7256 304.176C87.9283 304.357 88.0296 304.587 88.0296 304.864C88.0296 305.152 87.9283 305.397 87.7256 305.6C87.5336 305.792 87.2883 305.888 86.9896 305.888ZM95.2184 307.44C96.2957 307.44 97.149 307.755 97.7784 308.384C98.4184 309.003 98.7384 309.915 98.7384 311.12V316H97.2024V311.296C97.2024 310.475 97.005 309.856 96.6104 309.44C96.2157 309.024 95.6504 308.816 94.9144 308.816C94.0824 308.816 93.4264 309.061 92.9464 309.552C92.4664 310.032 92.2264 310.725 92.2264 311.632V316H90.6904V307.52H92.1624V308.8C92.4717 308.363 92.8877 308.027 93.4104 307.792C93.9437 307.557 94.5464 307.44 95.2184 307.44ZM109.292 311.808C109.292 311.925 109.281 312.08 109.26 312.272H102.38C102.476 313.019 102.801 313.621 103.356 314.08C103.921 314.528 104.62 314.752 105.452 314.752C106.465 314.752 107.281 314.411 107.9 313.728L108.748 314.72C108.364 315.168 107.884 315.509 107.308 315.744C106.743 315.979 106.108 316.096 105.404 316.096C104.508 316.096 103.713 315.915 103.02 315.552C102.327 315.179 101.788 314.661 101.404 314C101.031 313.339 100.844 312.592 100.844 311.76C100.844 310.939 101.025 310.197 101.388 309.536C101.761 308.875 102.268 308.363 102.908 308C103.559 307.627 104.289 307.44 105.1 307.44C105.911 307.44 106.631 307.627 107.26 308C107.9 308.363 108.396 308.875 108.748 309.536C109.111 310.197 109.292 310.955 109.292 311.808ZM105.1 308.736C104.364 308.736 103.745 308.96 103.244 309.408C102.753 309.856 102.465 310.443 102.38 311.168H107.82C107.735 310.453 107.441 309.872 106.94 309.424C106.449 308.965 105.836 308.736 105.1 308.736ZM112.897 308.944C113.163 308.453 113.558 308.08 114.081 307.824C114.603 307.568 115.238 307.44 115.985 307.44V308.928C115.899 308.917 115.782 308.912 115.633 308.912C114.801 308.912 114.145 309.163 113.665 309.664C113.195 310.155 112.961 310.859 112.961 311.776V316H111.425V307.52H112.897V308.944ZM120.372 316.096C119.679 316.096 119.012 316.005 118.372 315.824C117.732 315.632 117.231 315.392 116.868 315.104L117.508 313.888C117.882 314.155 118.335 314.368 118.868 314.528C119.402 314.688 119.94 314.768 120.484 314.768C121.828 314.768 122.5 314.384 122.5 313.616C122.5 313.36 122.41 313.157 122.228 313.008C122.047 312.859 121.818 312.752 121.54 312.688C121.274 312.613 120.89 312.533 120.388 312.448C119.706 312.341 119.146 312.219 118.708 312.08C118.282 311.941 117.914 311.707 117.604 311.376C117.295 311.045 117.14 310.581 117.14 309.984C117.14 309.216 117.46 308.603 118.1 308.144C118.74 307.675 119.599 307.44 120.676 307.44C121.242 307.44 121.807 307.509 122.372 307.648C122.938 307.787 123.402 307.973 123.764 308.208L123.108 309.424C122.415 308.976 121.599 308.752 120.66 308.752C120.01 308.752 119.514 308.859 119.172 309.072C118.831 309.285 118.66 309.568 118.66 309.92C118.66 310.197 118.756 310.416 118.948 310.576C119.14 310.736 119.375 310.853 119.652 310.928C119.94 311.003 120.34 311.088 120.852 311.184C121.535 311.301 122.084 311.429 122.5 311.568C122.927 311.696 123.29 311.92 123.588 312.24C123.887 312.56 124.036 313.008 124.036 313.584C124.036 314.352 123.706 314.965 123.044 315.424C122.394 315.872 121.503 316.096 120.372 316.096Z" fill="#333333"/>
<g clip-path="url(#clip3)">
<path d="M140.62 247.164C140.62 247.164 117.173 263.801 74.2295 271.247H140.62V247.164Z" fill="#F48120"/>
<path d="M62.3688 233.296H58.7881V245.871H62.3499C64.2438 245.871 65.6114 245.421 66.8119 244.419C68.2384 243.232 69.0822 241.443 69.0822 239.592C69.0825 235.881 66.3249 233.296 62.3688 233.296ZM65.2185 242.742C64.4519 243.438 63.4566 243.742 61.8804 243.742H61.2259V235.427H61.8804C63.4566 235.427 64.413 235.71 65.2185 236.443C66.0622 237.199 66.5696 238.369 66.5696 239.574C66.5696 240.781 66.0622 241.987 65.2185 242.742Z" fill="#231F20"/>
<path d="M72.6436 233.296H70.2041V245.871H72.6436V233.296Z" fill="#231F20"/>
<path d="M78.6083 238.122C77.1446 237.577 76.7148 237.218 76.7148 236.539C76.7148 235.746 77.4807 235.145 78.5319 235.145C79.2629 235.145 79.8633 235.446 80.4989 236.163L81.7752 234.482C80.7263 233.56 79.4714 233.088 78.1003 233.088C75.8876 233.088 74.1998 234.633 74.1998 236.691C74.1998 238.424 74.9857 239.311 77.2766 240.14C78.2317 240.478 78.7177 240.704 78.963 240.856C79.4504 241.176 79.6944 241.629 79.6944 242.157C79.6944 243.176 78.8889 243.93 77.8005 243.93C76.6369 243.93 75.6998 243.345 75.1383 242.253L73.5625 243.779C74.6865 245.438 76.0362 246.173 77.8922 246.173C80.4271 246.173 82.2053 244.479 82.2053 242.044C82.2053 240.046 81.3832 239.142 78.6083 238.122Z" fill="#231F20"/>
<path d="M82.9756 239.592C82.9756 243.288 85.8622 246.154 89.5766 246.154C90.6268 246.154 91.526 245.946 92.6351 245.421V242.534C91.6597 243.515 90.796 243.911 89.6903 243.911C87.2335 243.911 85.4899 242.12 85.4899 239.573C85.4899 237.159 87.2887 235.255 89.5769 235.255C90.7405 235.255 91.6211 235.672 92.6354 236.67V233.783C91.5646 233.237 90.6843 233.011 89.6345 233.011C85.9383 233.012 82.9756 235.936 82.9756 239.592Z" fill="#231F20"/>
<path d="M111.976 241.742L108.641 233.296H105.977L111.284 246.193H112.597L117.999 233.296H115.355L111.976 241.742Z" fill="#231F20"/>
<path d="M119.102 245.871H126.02V243.742H121.539V240.348H125.855V238.218H121.539V235.427H126.02V233.296H119.102V245.871Z" fill="#231F20"/>
<path d="M135.678 237.008C135.678 234.654 134.065 233.296 131.252 233.296H127.635V245.871H130.071V240.819H130.389L133.766 245.871H136.766L132.829 240.573C134.666 240.197 135.678 238.934 135.678 237.008ZM130.784 239.085H130.072V235.276H130.823C132.342 235.276 133.168 235.917 133.168 237.14C133.168 238.405 132.342 239.085 130.784 239.085Z" fill="#231F20"/>
<path d="M100.083 246.316C103.758 246.316 106.736 243.322 106.736 239.627C106.736 235.933 103.758 232.938 100.083 232.938C96.4092 232.938 93.4307 235.933 93.4307 239.627C93.4307 243.322 96.4092 246.316 100.083 246.316Z" fill="url(#paint7_linear)"/>
<path opacity="0.65" d="M100.083 246.316C103.758 246.316 106.736 243.322 106.736 239.627C106.736 235.933 103.758 232.938 100.083 232.938C96.4092 232.938 93.4307 235.933 93.4307 239.627C93.4307 243.322 96.4092 246.316 100.083 246.316Z" fill="url(#paint8_linear)"/>
<path d="M137.236 233.769C137.236 233.548 137.085 233.428 136.82 233.428H136.467V234.533H136.729V234.104L137.037 234.533H137.357L136.995 234.077C137.151 234.036 137.236 233.922 137.236 233.769ZM136.774 233.92H136.729V233.631H136.776C136.906 233.631 136.974 233.678 136.974 233.773C136.974 233.87 136.905 233.92 136.774 233.92Z" fill="#231F20"/>
<path d="M136.872 233.015C136.339 233.015 135.915 233.443 135.915 233.978C135.915 234.513 136.344 234.942 136.872 234.942C137.392 234.942 137.818 234.508 137.818 233.978C137.818 233.45 137.392 233.015 136.872 233.015ZM136.868 234.77C136.448 234.77 136.105 234.418 136.105 233.98C136.105 233.54 136.444 233.188 136.868 233.188C137.286 233.188 137.627 233.548 137.627 233.98C137.627 234.415 137.287 234.77 136.868 234.77Z" fill="#231F20"/>
</g>
<defs>
<linearGradient id="paint0_linear" x1="380.938" y1="298.703" x2="404.676" y2="298.703" gradientUnits="userSpaceOnUse">
<stop stop-color="#007940"/>
<stop offset="0.229" stop-color="#00873F"/>
<stop offset="0.743" stop-color="#40A737"/>
<stop offset="1" stop-color="#5CB531"/>
</linearGradient>
<linearGradient id="paint1_linear" x1="380.938" y1="295.058" x2="404.677" y2="295.058" gradientUnits="userSpaceOnUse">
<stop stop-color="#007940"/>
<stop offset="0.229" stop-color="#00873F"/>
<stop offset="0.743" stop-color="#40A737"/>
<stop offset="1" stop-color="#5CB531"/>
</linearGradient>
<linearGradient id="paint2_linear" x1="380.938" y1="291.093" x2="404.676" y2="291.093" gradientUnits="userSpaceOnUse">
<stop stop-color="#007940"/>
<stop offset="0.229" stop-color="#00873F"/>
<stop offset="0.743" stop-color="#40A737"/>
<stop offset="1" stop-color="#5CB531"/>
</linearGradient>
<linearGradient id="paint3_linear" x1="327.796" y1="295.058" x2="351.9" y2="295.058" gradientUnits="userSpaceOnUse">
<stop stop-color="#1F286F"/>
<stop offset="0.475" stop-color="#004E94"/>
<stop offset="0.826" stop-color="#0066B1"/>
<stop offset="1" stop-color="#006FBC"/>
</linearGradient>
<linearGradient id="paint4_linear" x1="354.24" y1="295.058" x2="377.652" y2="295.058" gradientUnits="userSpaceOnUse">
<stop stop-color="#6C2C2F"/>
<stop offset="0.173" stop-color="#882730"/>
<stop offset="0.573" stop-color="#BE1833"/>
<stop offset="0.859" stop-color="#DC0436"/>
<stop offset="1" stop-color="#E60039"/>
</linearGradient>
<linearGradient id="paint5_linear" x1="603.965" y1="244.988" x2="599.323" y2="237.759" gradientUnits="userSpaceOnUse">
<stop stop-color="#F89F20"/>
<stop offset="0.2502" stop-color="#F79A20"/>
<stop offset="0.5331" stop-color="#F68D20"/>
<stop offset="0.6196" stop-color="#F58720"/>
<stop offset="0.7232" stop-color="#F48120"/>
<stop offset="1" stop-color="#F37521"/>
</linearGradient>
<linearGradient id="paint6_linear" x1="603.238" y1="244.89" x2="596.447" y2="231.689" gradientUnits="userSpaceOnUse">
<stop stop-color="#F58720" stop-opacity="0"/>
<stop offset="0.3587" stop-color="#E16F27" stop-opacity="0.2704"/>
<stop offset="0.703" stop-color="#D4602C" stop-opacity="0.5299"/>
<stop offset="0.9816" stop-color="#D05B2E" stop-opacity="0.74"/>
</linearGradient>
<linearGradient id="paint7_linear" x1="103.489" y1="244.988" x2="98.8464" y2="237.759" gradientUnits="userSpaceOnUse">
<stop stop-color="#F89F20"/>
<stop offset="0.2502" stop-color="#F79A20"/>
<stop offset="0.5331" stop-color="#F68D20"/>
<stop offset="0.6196" stop-color="#F58720"/>
<stop offset="0.7232" stop-color="#F48120"/>
<stop offset="1" stop-color="#F37521"/>
</linearGradient>
<linearGradient id="paint8_linear" x1="102.761" y1="244.89" x2="95.97" y2="231.689" gradientUnits="userSpaceOnUse">
<stop stop-color="#F58720" stop-opacity="0"/>
<stop offset="0.3587" stop-color="#E16F27" stop-opacity="0.2704"/>
<stop offset="0.703" stop-color="#D4602C" stop-opacity="0.5299"/>
<stop offset="0.9816" stop-color="#D05B2E" stop-opacity="0.74"/>
</linearGradient>
<clipPath id="clip0">
<rect width="96" height="96" fill="white" transform="translate(552 24)"/>
</clipPath>
<clipPath id="clip1">
<rect width="80" height="80" fill="white" transform="translate(324 63)"/>
</clipPath>
<clipPath id="clip2">
<rect width="85" height="54" fill="white" transform="translate(556 217)"/>
</clipPath>
<clipPath id="clip3">
<rect width="85" height="54" fill="white" transform="translate(55.5234 217)"/>
</clipPath>
</defs>
</svg>
