<svg width="24" height="24" viewBox="0 0 24 24" fill="none" xmlns="http://www.w3.org/2000/svg">
<path d="M23.5861 19.8618H0.413812C0.185297 19.8618 0 19.6765 0 19.448V4.55151C0 4.32299 0.185297 4.1377 0.413812 4.1377H23.5862C23.8147 4.1377 24 4.32299 24 4.55151V19.448C24 19.6766 23.8147 19.8618 23.5861 19.8618Z" fill="#F5F5F5"/>
<path d="M24 5.3473H0V4.55151C0 4.32299 0.185297 4.1377 0.413812 4.1377H23.5862C23.8147 4.1377 24 4.32299 24 4.55151L24 5.3473Z" fill="#FF4B55"/>
<path d="M24 8.97607H0V10.1856H24V8.97607Z" fill="#FF4B55"/>
<path d="M24 6.55664H0V7.7662H24V6.55664Z" fill="#FF4B55"/>
<path d="M24 12.6046H0.413812C0.185297 12.6046 0 12.4193 0 12.1908V11.395H24V12.6046Z" fill="#FF4B55"/>
<path d="M24 16.2334H0V17.443H24V16.2334Z" fill="#FF4B55"/>
<path d="M23.5861 19.8619H0.413812C0.185297 19.8619 0 19.6766 0 19.4481V18.6523H24V19.4481C24 19.6767 23.8147 19.8619 23.5861 19.8619Z" fill="#FF4B55"/>
<path d="M24 13.8145H0V15.024H24V13.8145Z" fill="#FF4B55"/>
<path d="M10.7586 4.13818H0.413812C0.185297 4.13818 0 4.32343 0 4.55195V12.1912C0 12.4197 0.185297 12.605 0.413812 12.605H10.7586C10.9872 12.605 11.1724 12.4197 11.1724 12.1912V4.55195C11.1724 4.32343 10.9871 4.13818 10.7586 4.13818Z" fill="#41479B"/>
<path d="M1.16235 5.08771L1.25394 5.3624L1.54349 5.3646C1.58099 5.36493 1.5965 5.41274 1.56636 5.43501L1.33344 5.60704L1.42082 5.88309C1.43216 5.9188 1.39142 5.94843 1.36091 5.92659L1.12536 5.75826L0.889817 5.92663C0.859301 5.94843 0.818661 5.91885 0.829911 5.88313L0.917286 5.60709L0.684364 5.43506C0.654224 5.41274 0.669739 5.36498 0.707239 5.36465L0.996785 5.36245L1.08838 5.08776C1.10019 5.05213 1.15044 5.05213 1.16235 5.08771Z" fill="#F5F5F5"/>
<path d="M1.16235 6.52469L1.25394 6.79938L1.54349 6.80158C1.58099 6.80191 1.5965 6.84972 1.56636 6.87199L1.33344 7.04402L1.42082 7.32006C1.43216 7.35578 1.39142 7.38541 1.36091 7.36356L1.12536 7.19523L0.889817 7.36361C0.859301 7.38541 0.818661 7.35583 0.829911 7.32011L0.917286 7.04406L0.684364 6.87203C0.654224 6.84972 0.669739 6.80195 0.707239 6.80163L0.996785 6.79942L1.08838 6.52474C1.10019 6.48916 1.15044 6.48916 1.16235 6.52469Z" fill="#F5F5F5"/>
<path d="M1.16235 7.9617L1.25394 8.23639L1.54349 8.23859C1.58099 8.23892 1.5965 8.28673 1.56636 8.309L1.33344 8.48103L1.42082 8.75708C1.43216 8.7928 1.39142 8.82242 1.36091 8.80058L1.12536 8.63225L0.889817 8.80063C0.859301 8.82242 0.818661 8.79285 0.829911 8.75713L0.917286 8.48108L0.684364 8.30905C0.654224 8.28673 0.669739 8.23897 0.707239 8.23864L0.996785 8.23644L1.08838 7.96175C1.10019 7.92617 1.15044 7.92617 1.16235 7.9617Z" fill="#F5F5F5"/>
<path d="M1.16235 9.39826L1.25394 9.67295L1.54349 9.67515C1.58099 9.67548 1.5965 9.72329 1.56636 9.74556L1.33344 9.91759L1.42082 10.1936C1.43216 10.2294 1.39142 10.259 1.36091 10.2371L1.12536 10.0688L0.889817 10.2372C0.859301 10.259 0.818661 10.2294 0.829911 10.1937L0.917286 9.91763L0.684364 9.7456C0.654224 9.72329 0.669739 9.67552 0.707239 9.6752L0.996785 9.67299L1.08838 9.39831C1.10019 9.36268 1.15044 9.36268 1.16235 9.39826Z" fill="#F5F5F5"/>
<path d="M1.16235 10.8353L1.25394 11.11L1.54349 11.1122C1.58099 11.1125 1.5965 11.1603 1.56636 11.1826L1.33344 11.3546L1.42082 11.6307C1.43216 11.6664 1.39142 11.696 1.36091 11.6742L1.12536 11.5059L0.889817 11.6742C0.859301 11.696 0.818661 11.6665 0.829911 11.6307L0.917286 11.3547L0.684364 11.1827C0.654224 11.1603 0.669739 11.1126 0.707239 11.1122L0.996785 11.11L1.08838 10.8354C1.10019 10.7997 1.15044 10.7997 1.16235 10.8353Z" fill="#F5F5F5"/>
<path d="M2.27953 5.79227L2.37113 6.06696L2.66067 6.06916C2.69817 6.06949 2.71369 6.1173 2.68355 6.13957L2.45063 6.3116L2.538 6.58765C2.54935 6.62337 2.50861 6.65299 2.4781 6.63115L2.24255 6.46277L2.007 6.63115C1.97649 6.65294 1.93585 6.62337 1.9471 6.58765L2.03447 6.3116L1.80155 6.13957C1.77141 6.11726 1.78693 6.06949 1.82443 6.06916L2.11397 6.06696L2.20557 5.79227C2.21733 5.75674 2.26768 5.75674 2.27953 5.79227Z" fill="#F5F5F5"/>
<path d="M2.27953 7.22932L2.37113 7.504L2.66067 7.50621C2.69817 7.50654 2.71369 7.55435 2.68355 7.57661L2.45063 7.74864L2.538 8.02469C2.54935 8.06041 2.50861 8.09003 2.4781 8.06819L2.24255 7.89981L2.007 8.06819C1.97649 8.08998 1.93585 8.06045 1.9471 8.02469L2.03447 7.74864L1.80155 7.57661C1.77141 7.5543 1.78693 7.50654 1.82443 7.50621L2.11397 7.504L2.20557 7.22932C2.21733 7.19374 2.26768 7.19374 2.27953 7.22932Z" fill="#F5F5F5"/>
<path d="M2.27953 8.66584L2.37113 8.94053L2.66067 8.94273C2.69817 8.94306 2.71369 8.99087 2.68355 9.01314L2.45063 9.18517L2.538 9.46122C2.54935 9.49694 2.50861 9.52656 2.4781 9.50472L2.24255 9.33634L2.007 9.50472C1.97649 9.52651 1.93585 9.49694 1.9471 9.46122L2.03447 9.18517L1.80155 9.01314C1.77141 8.99083 1.78693 8.94306 1.82443 8.94273L2.11397 8.94053L2.20557 8.66584C2.21733 8.63027 2.26768 8.63027 2.27953 8.66584Z" fill="#F5F5F5"/>
<path d="M2.27953 10.1028L2.37113 10.3775L2.66067 10.3797C2.69817 10.38 2.71369 10.4279 2.68355 10.4501L2.45063 10.6221L2.538 10.8982C2.54935 10.9339 2.50861 10.9635 2.4781 10.9417L2.24255 10.7733L2.007 10.9417C1.97649 10.9635 1.93585 10.9339 1.9471 10.8982L2.03447 10.6221L1.80155 10.4501C1.77141 10.4278 1.78693 10.38 1.82443 10.3797L2.11397 10.3775L2.20557 10.1028C2.21733 10.0673 2.26768 10.0673 2.27953 10.1028Z" fill="#F5F5F5"/>
<path d="M3.39306 5.08772L3.48466 5.3624L3.7742 5.36461C3.8117 5.36494 3.82722 5.41275 3.79708 5.43501L3.56416 5.60704L3.65153 5.88309C3.66288 5.91881 3.62214 5.94843 3.59163 5.92659L3.35608 5.75821L3.12053 5.92659C3.09002 5.94839 3.04937 5.91881 3.06062 5.88309L3.148 5.60704L2.91508 5.43501C2.88494 5.4127 2.90045 5.36494 2.93795 5.36461L3.2275 5.3624L3.31909 5.08772C3.33091 5.05214 3.3812 5.05214 3.39306 5.08772Z" fill="#F5F5F5"/>
<path d="M3.39306 6.5247L3.48466 6.79938L3.7742 6.80159C3.8117 6.80191 3.82722 6.84973 3.79708 6.87199L3.56416 7.04402L3.65153 7.32007C3.66288 7.35579 3.62214 7.38541 3.59163 7.36357L3.35608 7.19519L3.12053 7.36357C3.09002 7.38536 3.04937 7.35579 3.06062 7.32007L3.148 7.04402L2.91508 6.87199C2.88494 6.84968 2.90045 6.80191 2.93795 6.80159L3.2275 6.79938L3.31909 6.5247C3.33091 6.48916 3.3812 6.48916 3.39306 6.5247Z" fill="#F5F5F5"/>
<path d="M3.39306 7.96171L3.48466 8.2364L3.7742 8.2386C3.8117 8.23893 3.82722 8.28674 3.79708 8.30901L3.56416 8.48104L3.65153 8.75709C3.66288 8.79281 3.62214 8.82243 3.59163 8.80059L3.35608 8.63221L3.12053 8.80059C3.09002 8.82239 3.04937 8.79281 3.06062 8.75709L3.148 8.48104L2.91508 8.30901C2.88494 8.28669 2.90045 8.23893 2.93795 8.2386L3.2275 8.2364L3.31909 7.96171C3.33091 7.92618 3.3812 7.92618 3.39306 7.96171Z" fill="#F5F5F5"/>
<path d="M3.39306 9.39827L3.48466 9.67295L3.7742 9.67516C3.8117 9.67548 3.82722 9.7233 3.79708 9.74556L3.56416 9.91759L3.65153 10.1936C3.66288 10.2294 3.62214 10.259 3.59163 10.2371L3.35608 10.0688L3.12053 10.2371C3.09002 10.2589 3.04937 10.2294 3.06062 10.1936L3.148 9.91759L2.91508 9.74556C2.88494 9.72325 2.90045 9.67548 2.93795 9.67516L3.2275 9.67295L3.31909 9.39827C3.33091 9.36269 3.3812 9.36269 3.39306 9.39827Z" fill="#F5F5F5"/>
<path d="M3.39306 10.8353L3.48466 11.11L3.7742 11.1122C3.8117 11.1125 3.82722 11.1603 3.79708 11.1826L3.56416 11.3546L3.65153 11.6307C3.66288 11.6664 3.62214 11.696 3.59163 11.6742L3.35608 11.5058L3.12053 11.6742C3.09002 11.696 3.04937 11.6664 3.06062 11.6307L3.148 11.3546L2.91508 11.1826C2.88494 11.1603 2.90045 11.1125 2.93795 11.1122L3.2275 11.11L3.31909 10.8353C3.33091 10.7997 3.3812 10.7997 3.39306 10.8353Z" fill="#F5F5F5"/>
<path d="M4.5061 5.79227L4.59769 6.06696L4.88724 6.06916C4.92474 6.06949 4.94025 6.1173 4.91011 6.13957L4.67719 6.3116L4.76457 6.58765C4.77591 6.62337 4.73518 6.65299 4.70466 6.63115L4.46911 6.46277L4.23357 6.63115C4.20305 6.65294 4.16241 6.62337 4.17366 6.58765L4.26104 6.3116L4.02811 6.13957C3.99797 6.11726 4.01349 6.06949 4.05099 6.06916L4.34054 6.06696L4.43213 5.79227C4.4439 5.75674 4.49424 5.75674 4.5061 5.79227Z" fill="#F5F5F5"/>
<path d="M4.5061 7.22932L4.59769 7.504L4.88724 7.50621C4.92474 7.50654 4.94025 7.55435 4.91011 7.57661L4.67719 7.74864L4.76457 8.02469C4.77591 8.06041 4.73518 8.09003 4.70466 8.06819L4.46911 7.89981L4.23357 8.06819C4.20305 8.08998 4.16241 8.06045 4.17366 8.02469L4.26104 7.74864L4.02811 7.57661C3.99797 7.5543 4.01349 7.50654 4.05099 7.50621L4.34054 7.504L4.43213 7.22932C4.4439 7.19374 4.49424 7.19374 4.5061 7.22932Z" fill="#F5F5F5"/>
<path d="M4.5061 8.66584L4.59769 8.94053L4.88724 8.94273C4.92474 8.94306 4.94025 8.99087 4.91011 9.01314L4.67719 9.18517L4.76457 9.46122C4.77591 9.49694 4.73518 9.52656 4.70466 9.50472L4.46911 9.33634L4.23357 9.50472C4.20305 9.52651 4.16241 9.49694 4.17366 9.46122L4.26104 9.18517L4.02811 9.01314C3.99797 8.99083 4.01349 8.94306 4.05099 8.94273L4.34054 8.94053L4.43213 8.66584C4.4439 8.63027 4.49424 8.63027 4.5061 8.66584Z" fill="#F5F5F5"/>
<path d="M4.5061 10.1028L4.59769 10.3775L4.88724 10.3797C4.92474 10.38 4.94025 10.4279 4.91011 10.4501L4.67719 10.6221L4.76457 10.8982C4.77591 10.9339 4.73518 10.9635 4.70466 10.9417L4.46911 10.7733L4.23357 10.9417C4.20305 10.9635 4.16241 10.9339 4.17366 10.8982L4.26104 10.6221L4.02811 10.4501C3.99797 10.4278 4.01349 10.38 4.05099 10.3797L4.34054 10.3775L4.43213 10.1028C4.4439 10.0673 4.49424 10.0673 4.5061 10.1028Z" fill="#F5F5F5"/>
<path d="M5.62333 5.08772L5.71493 5.3624L6.00447 5.36461C6.04197 5.36494 6.05749 5.41275 6.02735 5.43501L5.79443 5.60704L5.8818 5.88309C5.89314 5.91881 5.85241 5.94843 5.8219 5.92659L5.5863 5.75821L5.35076 5.92659C5.32024 5.94839 5.2796 5.91881 5.29085 5.88309L5.37822 5.60704L5.1453 5.43501C5.11516 5.4127 5.13068 5.36494 5.16818 5.36461L5.45772 5.3624L5.54932 5.08772C5.56118 5.05214 5.61147 5.05214 5.62333 5.08772Z" fill="#F5F5F5"/>
<path d="M5.62333 6.5247L5.71493 6.79938L6.00447 6.80159C6.04197 6.80191 6.05749 6.84973 6.02735 6.87199L5.79443 7.04402L5.8818 7.32007C5.89314 7.35579 5.85241 7.38541 5.8219 7.36357L5.5863 7.19519L5.35076 7.36357C5.32024 7.38536 5.2796 7.35579 5.29085 7.32007L5.37822 7.04402L5.1453 6.87199C5.11516 6.84968 5.13068 6.80191 5.16818 6.80159L5.45772 6.79938L5.54932 6.5247C5.56118 6.48916 5.61147 6.48916 5.62333 6.5247Z" fill="#F5F5F5"/>
<path d="M5.62333 7.96171L5.71493 8.2364L6.00447 8.2386C6.04197 8.23893 6.05749 8.28674 6.02735 8.30901L5.79443 8.48104L5.8818 8.75709C5.89314 8.79281 5.85241 8.82243 5.8219 8.80059L5.5863 8.63221L5.35076 8.80059C5.32024 8.82239 5.2796 8.79281 5.29085 8.75709L5.37822 8.48104L5.1453 8.30901C5.11516 8.28669 5.13068 8.23893 5.16818 8.2386L5.45772 8.2364L5.54932 7.96171C5.56118 7.92618 5.61147 7.92618 5.62333 7.96171Z" fill="#F5F5F5"/>
<path d="M5.62333 9.39827L5.71493 9.67295L6.00447 9.67516C6.04197 9.67548 6.05749 9.7233 6.02735 9.74556L5.79443 9.91759L5.8818 10.1936C5.89314 10.2294 5.85241 10.259 5.8219 10.2371L5.5863 10.0688L5.35076 10.2371C5.32024 10.2589 5.2796 10.2294 5.29085 10.1936L5.37822 9.91759L5.1453 9.74556C5.11516 9.72325 5.13068 9.67548 5.16818 9.67516L5.45772 9.67295L5.54932 9.39827C5.56118 9.36269 5.61147 9.36269 5.62333 9.39827Z" fill="#F5F5F5"/>
<path d="M5.62333 10.8353L5.71493 11.11L6.00447 11.1122C6.04197 11.1125 6.05749 11.1603 6.02735 11.1826L5.79443 11.3546L5.8818 11.6307C5.89314 11.6664 5.85241 11.696 5.8219 11.6742L5.5863 11.5058L5.35076 11.6742C5.32024 11.696 5.2796 11.6664 5.29085 11.6307L5.37822 11.3546L5.1453 11.1826C5.11516 11.1603 5.13068 11.1125 5.16818 11.1122L5.45772 11.11L5.54932 10.8353C5.56118 10.7997 5.61147 10.7997 5.62333 10.8353Z" fill="#F5F5F5"/>
<path d="M6.74048 5.79227L6.83207 6.06696L7.12162 6.06916C7.15912 6.06949 7.17463 6.1173 7.14449 6.13957L6.91157 6.3116L6.99894 6.58765C7.01029 6.62337 6.96955 6.65299 6.93904 6.63115L6.70349 6.46277L6.46794 6.63115C6.43743 6.65294 6.39679 6.62337 6.40804 6.58765L6.49541 6.3116L6.26249 6.13957C6.23235 6.11726 6.24786 6.06949 6.28536 6.06916L6.57491 6.06696L6.66651 5.79227C6.67837 5.75674 6.72862 5.75674 6.74048 5.79227Z" fill="#F5F5F5"/>
<path d="M6.74048 7.22932L6.83207 7.504L7.12162 7.50621C7.15912 7.50654 7.17463 7.55435 7.14449 7.57661L6.91157 7.74864L6.99894 8.02469C7.01029 8.06041 6.96955 8.09003 6.93904 8.06819L6.70349 7.89981L6.46794 8.06819C6.43743 8.08998 6.39679 8.06045 6.40804 8.02469L6.49541 7.74864L6.26249 7.57661C6.23235 7.5543 6.24786 7.50654 6.28536 7.50621L6.57491 7.504L6.66651 7.22932C6.67837 7.19374 6.72862 7.19374 6.74048 7.22932Z" fill="#F5F5F5"/>
<path d="M6.74048 8.66584L6.83207 8.94053L7.12162 8.94273C7.15912 8.94306 7.17463 8.99087 7.14449 9.01314L6.91157 9.18517L6.99894 9.46122C7.01029 9.49694 6.96955 9.52656 6.93904 9.50472L6.70349 9.33634L6.46794 9.50472C6.43743 9.52651 6.39679 9.49694 6.40804 9.46122L6.49541 9.18517L6.26249 9.01314C6.23235 8.99083 6.24786 8.94306 6.28536 8.94273L6.57491 8.94053L6.66651 8.66584C6.67837 8.63027 6.72862 8.63027 6.74048 8.66584Z" fill="#F5F5F5"/>
<path d="M6.74048 10.1028L6.83207 10.3775L7.12162 10.3797C7.15912 10.38 7.17463 10.4279 7.14449 10.4501L6.91157 10.6221L6.99894 10.8982C7.01029 10.9339 6.96955 10.9635 6.93904 10.9417L6.70349 10.7733L6.46794 10.9417C6.43743 10.9635 6.39679 10.9339 6.40804 10.8982L6.49541 10.6221L6.26249 10.4501C6.23235 10.4278 6.24786 10.38 6.28536 10.3797L6.57491 10.3775L6.66651 10.1028C6.67837 10.0673 6.72862 10.0673 6.74048 10.1028Z" fill="#F5F5F5"/>
<path d="M7.85424 5.08772L7.94584 5.3624L8.23539 5.36461C8.27289 5.36494 8.2884 5.41275 8.25826 5.43501L8.02534 5.60704L8.11271 5.88309C8.12406 5.91881 8.08332 5.94843 8.05281 5.92659L7.81726 5.75821L7.58171 5.92659C7.5512 5.94839 7.51056 5.91881 7.52181 5.88309L7.60918 5.60704L7.37626 5.43501C7.34612 5.4127 7.36163 5.36494 7.39913 5.36461L7.68868 5.3624L7.78028 5.08772C7.79204 5.05214 7.84239 5.05214 7.85424 5.08772Z" fill="#F5F5F5"/>
<path d="M7.85424 6.5247L7.94584 6.79938L8.23539 6.80159C8.27289 6.80191 8.2884 6.84973 8.25826 6.87199L8.02534 7.04402L8.11271 7.32007C8.12406 7.35579 8.08332 7.38541 8.05281 7.36357L7.81726 7.19519L7.58171 7.36357C7.5512 7.38536 7.51056 7.35579 7.52181 7.32007L7.60918 7.04402L7.37626 6.87199C7.34612 6.84968 7.36163 6.80191 7.39913 6.80159L7.68868 6.79938L7.78028 6.5247C7.79204 6.48916 7.84239 6.48916 7.85424 6.5247Z" fill="#F5F5F5"/>
<path d="M7.85424 7.96171L7.94584 8.2364L8.23539 8.2386C8.27289 8.23893 8.2884 8.28674 8.25826 8.30901L8.02534 8.48104L8.11271 8.75709C8.12406 8.79281 8.08332 8.82243 8.05281 8.80059L7.81726 8.63221L7.58171 8.80059C7.5512 8.82239 7.51056 8.79281 7.52181 8.75709L7.60918 8.48104L7.37626 8.30901C7.34612 8.28669 7.36163 8.23893 7.39913 8.2386L7.68868 8.2364L7.78028 7.96171C7.79204 7.92618 7.84239 7.92618 7.85424 7.96171Z" fill="#F5F5F5"/>
<path d="M7.85424 9.39827L7.94584 9.67295L8.23539 9.67516C8.27289 9.67548 8.2884 9.7233 8.25826 9.74556L8.02534 9.91759L8.11271 10.1936C8.12406 10.2294 8.08332 10.259 8.05281 10.2371L7.81726 10.0688L7.58171 10.2371C7.5512 10.2589 7.51056 10.2294 7.52181 10.1936L7.60918 9.91759L7.37626 9.74556C7.34612 9.72325 7.36163 9.67548 7.39913 9.67516L7.68868 9.67295L7.78028 9.39827C7.79204 9.36269 7.84239 9.36269 7.85424 9.39827Z" fill="#F5F5F5"/>
<path d="M7.85424 10.8353L7.94584 11.11L8.23539 11.1122C8.27289 11.1125 8.2884 11.1603 8.25826 11.1826L8.02534 11.3546L8.11271 11.6307C8.12406 11.6664 8.08332 11.696 8.05281 11.6742L7.81726 11.5058L7.58171 11.6742C7.5512 11.696 7.51056 11.6664 7.52181 11.6307L7.60918 11.3546L7.37626 11.1826C7.34612 11.1603 7.36163 11.1125 7.39913 11.1122L7.68868 11.11L7.78028 10.8353C7.79204 10.7997 7.84239 10.7997 7.85424 10.8353Z" fill="#F5F5F5"/>
<path d="M8.97094 5.79227L9.06253 6.06696L9.35208 6.06916C9.38958 6.06949 9.40509 6.1173 9.37495 6.13957L9.14203 6.3116L9.22941 6.58765C9.24075 6.62337 9.20002 6.65299 9.1695 6.63115L8.93396 6.46277L8.69841 6.63115C8.66789 6.65294 8.62725 6.62337 8.6385 6.58765L8.72588 6.3116L8.49296 6.13957C8.46282 6.11726 8.47833 6.06949 8.51583 6.06916L8.80538 6.06696L8.89697 5.79227C8.90878 5.75674 8.95913 5.75674 8.97094 5.79227Z" fill="#F5F5F5"/>
<path d="M8.97094 7.22932L9.06253 7.504L9.35208 7.50621C9.38958 7.50654 9.40509 7.55435 9.37495 7.57661L9.14203 7.74864L9.22941 8.02469C9.24075 8.06041 9.20002 8.09003 9.1695 8.06819L8.93396 7.89981L8.69841 8.06819C8.66789 8.08998 8.62725 8.06045 8.6385 8.02469L8.72588 7.74864L8.49296 7.57661C8.46282 7.5543 8.47833 7.50654 8.51583 7.50621L8.80538 7.504L8.89697 7.22932C8.90878 7.19374 8.95913 7.19374 8.97094 7.22932Z" fill="#F5F5F5"/>
<path d="M8.97094 8.66584L9.06253 8.94053L9.35208 8.94273C9.38958 8.94306 9.40509 8.99087 9.37495 9.01314L9.14203 9.18517L9.22941 9.46122C9.24075 9.49694 9.20002 9.52656 9.1695 9.50472L8.93396 9.33634L8.69841 9.50472C8.66789 9.52651 8.62725 9.49694 8.6385 9.46122L8.72588 9.18517L8.49296 9.01314C8.46282 8.99083 8.47833 8.94306 8.51583 8.94273L8.80538 8.94053L8.89697 8.66584C8.90878 8.63027 8.95913 8.63027 8.97094 8.66584Z" fill="#F5F5F5"/>
<path d="M8.97094 10.1028L9.06253 10.3775L9.35208 10.3797C9.38958 10.38 9.40509 10.4279 9.37495 10.4501L9.14203 10.6221L9.22941 10.8982C9.24075 10.9339 9.20002 10.9635 9.1695 10.9417L8.93396 10.7733L8.69841 10.9417C8.66789 10.9635 8.62725 10.9339 8.6385 10.8982L8.72588 10.6221L8.49296 10.4501C8.46282 10.4278 8.47833 10.38 8.51583 10.3797L8.80538 10.3775L8.89697 10.1028C8.90878 10.0673 8.95913 10.0673 8.97094 10.1028Z" fill="#F5F5F5"/>
<path d="M10.0845 5.08772L10.1761 5.3624L10.4656 5.36461C10.5031 5.36494 10.5186 5.41275 10.4885 5.43501L10.2556 5.60704L10.3429 5.88309C10.3543 5.91881 10.3135 5.94843 10.283 5.92659L10.0475 5.75821L9.81194 5.92659C9.78142 5.94839 9.74078 5.91881 9.75203 5.88309L9.83941 5.60704L9.60648 5.43501C9.57634 5.4127 9.59186 5.36494 9.62936 5.36461L9.91891 5.3624L10.0105 5.08772C10.0223 5.05214 10.0726 5.05214 10.0845 5.08772Z" fill="#F5F5F5"/>
<path d="M10.0845 6.5247L10.1761 6.79938L10.4656 6.80159C10.5031 6.80191 10.5186 6.84973 10.4885 6.87199L10.2556 7.04402L10.3429 7.32007C10.3543 7.35579 10.3135 7.38541 10.283 7.36357L10.0475 7.19519L9.81194 7.36357C9.78142 7.38536 9.74078 7.35579 9.75203 7.32007L9.83941 7.04402L9.60648 6.87199C9.57634 6.84968 9.59186 6.80191 9.62936 6.80159L9.91891 6.79938L10.0105 6.5247C10.0223 6.48916 10.0726 6.48916 10.0845 6.5247Z" fill="#F5F5F5"/>
<path d="M10.0845 7.96171L10.1761 8.2364L10.4656 8.2386C10.5031 8.23893 10.5186 8.28674 10.4885 8.30901L10.2556 8.48104L10.3429 8.75709C10.3543 8.79281 10.3135 8.82243 10.283 8.80059L10.0475 8.63221L9.81194 8.80059C9.78142 8.82239 9.74078 8.79281 9.75203 8.75709L9.83941 8.48104L9.60648 8.30901C9.57634 8.28669 9.59186 8.23893 9.62936 8.2386L9.91891 8.2364L10.0105 7.96171C10.0223 7.92618 10.0726 7.92618 10.0845 7.96171Z" fill="#F5F5F5"/>
<path d="M10.0845 9.39827L10.1761 9.67295L10.4656 9.67516C10.5031 9.67548 10.5186 9.7233 10.4885 9.74556L10.2556 9.91759L10.3429 10.1936C10.3543 10.2294 10.3135 10.259 10.283 10.2371L10.0475 10.0688L9.81194 10.2371C9.78142 10.2589 9.74078 10.2294 9.75203 10.1936L9.83941 9.91759L9.60648 9.74556C9.57634 9.72325 9.59186 9.67548 9.62936 9.67516L9.91891 9.67295L10.0105 9.39827C10.0223 9.36269 10.0726 9.36269 10.0845 9.39827Z" fill="#F5F5F5"/>
<path d="M10.0845 10.8353L10.1761 11.11L10.4656 11.1122C10.5031 11.1125 10.5186 11.1603 10.4885 11.1826L10.2556 11.3546L10.3429 11.6307C10.3543 11.6664 10.3135 11.696 10.283 11.6742L10.0475 11.5058L9.81194 11.6742C9.78142 11.696 9.74078 11.6664 9.75203 11.6307L9.83941 11.3546L9.60648 11.1826C9.57634 11.1603 9.59186 11.1125 9.62936 11.1122L9.91891 11.11L10.0105 10.8353C10.0223 10.7997 10.0726 10.7997 10.0845 10.8353Z" fill="#F5F5F5"/>
</svg>
