<svg width="751" height="742" viewBox="0 0 751 742" fill="none" xmlns="http://www.w3.org/2000/svg">
<path d="M517.399 137.643L-39.9998 72L-40 741C183.628 683.737 639.598 566.278 674.459 554.546C709.319 542.814 712.908 502.016 710.345 483.083L691.936 418.372C679.741 373.368 651.529 270.977 636.242 221.443C617.134 159.524 575.19 149.282 564.703 145.557C556.314 142.578 529.672 139.04 517.399 137.643Z" stroke="#797979"/>
<path d="M557.399 65.643L0.000183105 0L0 669C223.628 611.737 679.598 494.278 714.459 482.546C749.319 470.814 752.908 430.016 750.345 411.083L731.936 346.372C719.741 301.368 691.529 198.977 676.242 149.443C657.134 87.524 615.19 77.2818 604.703 73.5574C596.314 70.5779 569.672 67.0397 557.399 65.643Z" fill="#EFF1FF"/>
</svg>
