<svg width="100" height="100" viewBox="0 0 100 100" fill="none" xmlns="http://www.w3.org/2000/svg">
<path d="M100 16.6675H0V83.3327H100V16.6675Z" fill="#F0F0F0"/>
<path d="M100 16.6675H0V38.8892H100V16.6675Z" fill="#D80027"/>
<path d="M100 61.111H0V83.3326H100V61.111Z" fill="#0052B4"/>
<path d="M58.6957 39.8553H52.8984L53.8648 32.6088L57.7295 29.7102L61.5941 32.6088V38.4059L58.6957 39.8553Z" fill="#338AF3"/>
<path d="M41.3047 39.8553H47.102L46.1355 32.6088L42.2709 29.7102L38.4062 32.6088V38.4059L41.3047 39.8553Z" fill="#338AF3"/>
<path d="M53.8645 39.8553H46.1348V32.6088L49.9996 29.7102L53.8645 32.6088V39.8553Z" fill="#0052B4"/>
<path d="M38.4062 38.4059V54.3479C38.4062 58.144 40.24 61.5196 43.068 63.636L45.0969 63.1282L47.6572 65.7039C48.4143 65.8598 49.1977 65.942 50.0002 65.942C50.7984 65.942 51.5777 65.861 52.3311 65.7067L55.2537 63.2733L56.9324 63.6315C59.7594 61.5155 61.5941 58.143 61.5941 54.3481V38.4061L38.4062 38.4059Z" fill="#F0F0F0"/>
<path d="M43.0449 38.4064H38.4072V43.0441H43.0449V38.4064Z" fill="#D80027"/>
<path d="M52.3184 38.4064H47.6807V43.0441H52.3184V38.4064Z" fill="#D80027"/>
<path d="M61.5957 38.4064H56.958V43.0441H61.5957V38.4064Z" fill="#D80027"/>
<path d="M47.6816 43.0435H43.0439V47.6812H47.6816V43.0435Z" fill="#D80027"/>
<path d="M56.958 43.0435H52.3203V47.6812H56.958V43.0435Z" fill="#D80027"/>
<path d="M43.0449 47.6804H38.4072V52.3181H43.0449V47.6804Z" fill="#D80027"/>
<path d="M47.6816 52.3174H43.0439V56.9551H47.6816V52.3174Z" fill="#D80027"/>
<path d="M52.3184 47.6804H47.6807V52.3181H52.3184V47.6804Z" fill="#D80027"/>
<path d="M61.5957 47.6804H56.958V52.3181H61.5957V47.6804Z" fill="#D80027"/>
<path d="M56.958 52.3174H52.3203V56.9551H56.958V52.3174Z" fill="#D80027"/>
<path d="M52.3184 56.9563H47.6807V61.594H52.3184V56.9563Z" fill="#D80027"/>
<path d="M43.0443 56.9557H38.7061C39.1041 58.6795 39.8861 60.2572 40.9592 61.5934H43.0443V56.9557Z" fill="#D80027"/>
<path d="M56.958 61.5931H59.0434C60.1162 60.2568 60.8984 58.6793 61.2965 56.9554H56.958V61.5931Z" fill="#D80027"/>
<path d="M43.0439 61.593V63.6166C44.3928 64.6315 45.9689 65.3594 47.6816 65.7085V61.593H43.0439Z" fill="#D80027"/>
<path d="M52.3193 61.593V65.7085C54.032 65.3596 55.6082 64.6315 56.957 63.6166V61.593H52.3193Z" fill="#D80027"/>
</svg>
