<svg width="100" height="100" viewBox="0 0 100 100" fill="none" xmlns="http://www.w3.org/2000/svg">
<g clip-path="url(#clip0)">
<path d="M100 17H0V83.6674H100V17Z" fill="#FFDA44"/>
<path d="M33.3326 17H0V83.6674H33.3326V17Z" fill="#0052B4"/>
<path d="M100.001 17H66.668V83.6674H100.001V17Z" fill="#D80027"/>
<path d="M50 61.9266C50 56.6075 50 50.3325 50 50.3325H58.6957V54.6804C58.6957 55.4358 57.2463 58.2034 53.6693 60.4776C52.3143 61.3391 50.9119 61.6161 50 61.9266Z" fill="#D80027"/>
<path d="M50.0004 41.637H41.3047V50.3327H50.0004V41.637Z" fill="#D80027"/>
<path d="M54.3482 38.7385C54.3482 37.1377 53.0504 35.8401 51.4498 35.8401C50.9211 35.8401 50.4271 35.9838 50.0004 36.2309C49.5736 35.9836 49.0797 35.8401 48.551 35.8401C46.9504 35.8401 45.6525 37.1377 45.6525 38.7385H38.4062V53.2311C38.4062 58.6264 42.691 61.7465 46.0508 63.3639C45.7992 63.7932 45.6525 64.2916 45.6525 64.8254C45.6525 66.4262 46.9504 67.7239 48.551 67.7239C49.0797 67.7239 49.5736 67.5801 50.0004 67.333C50.4271 67.5803 50.9211 67.7239 51.4498 67.7239C53.0504 67.7239 54.3482 66.4262 54.3482 64.8254C54.3482 64.2916 54.2016 63.7934 53.9498 63.3639C57.3098 61.7465 61.5945 58.6262 61.5945 53.2311V38.7385H54.3482ZM57.2467 53.2313C57.2467 53.9868 57.2467 56.285 53.6697 58.5592C52.315 59.4207 50.9123 59.9791 50.0004 60.2899C49.0885 59.9791 47.6861 59.4207 46.3311 58.5592C42.7541 56.285 42.7541 53.9868 42.7541 53.2315V43.0868H57.2469V53.2315H57.2467V53.2313Z" fill="#FF9811"/>
</g>
<defs>
<clipPath id="clip0">
<rect width="100" height="100" fill="white"/>
</clipPath>
</defs>
</svg>
