<svg width="100" height="100" viewBox="0 0 100 100" fill="none" xmlns="http://www.w3.org/2000/svg">
<g clip-path="url(#clip0)">
<path d="M99.9998 16.7039H0.108398V83.2966H99.9998V16.7039Z" fill="#6DA544"/>
<path d="M0 61.5816H99.8914V16.7031H0" fill="#A2001D"/>
<path d="M19.5439 61.5816V58.6863V16.7031H0V83.2973H99.8914H19.5439V61.5816Z" fill="#F0F0F0"/>
<path d="M13.3928 47.5872L9.77344 41.0209L13.3928 34.5579L17.0117 41.0209L13.3928 47.5872Z" fill="#A2001D"/>
<path d="M6.15332 47.5872L2.53418 41.0209L6.15332 34.5579L9.77266 41.0209L6.15332 47.5872Z" fill="#A2001D"/>
<path d="M13.3928 65.4421L9.77344 58.8761L13.3928 52.4128L17.0117 58.8761L13.3928 65.4421Z" fill="#A2001D"/>
<path d="M6.15332 65.4421L2.53418 58.8761L6.15332 52.4128L9.77266 58.8761L6.15332 65.4421Z" fill="#A2001D"/>
<path d="M13.3928 83.2973L9.77344 76.7311L13.3928 70.2678L17.0117 76.7311L13.3928 83.2973Z" fill="#A2001D"/>
<path d="M6.15332 83.2973L2.53418 76.7311L6.15332 70.2678L9.77266 76.7311L6.15332 83.2973Z" fill="#A2001D"/>
<path d="M13.3928 29.7323L9.77344 23.1661L13.3928 16.7026L17.0117 23.1661L13.3928 29.7323Z" fill="#A2001D"/>
<path d="M6.15332 29.7323L2.53418 23.1661L6.15332 16.7026L9.77266 23.1661L6.15332 29.7323Z" fill="#A2001D"/>
</g>
<defs>
<clipPath id="clip0">
<rect width="100" height="100" fill="white"/>
</clipPath>
</defs>
</svg>
