<svg width="100" height="100" viewBox="0 0 100 100" fill="none" xmlns="http://www.w3.org/2000/svg">
<path d="M100 16.6667H0V83.3341H100V16.6667Z" fill="#0052B4"/>
<path d="M19.5127 16.6658H86.1793V83.3326" fill="#FFDA44"/>
<path d="M7.14062 19.6572L10.0396 17.5465L12.9434 19.6547L11.9709 16.666H8.11016L7.14062 19.6572Z" fill="#F0F0F0"/>
<path d="M17.252 20.2406L16.142 16.8281L15.0342 20.2406L11.4473 20.243L14.351 22.3516L13.2453 25.7619L16.1443 23.6514L19.0479 25.7598L17.9377 22.3469L20.8389 20.2385L17.252 20.2406Z" fill="#F0F0F0"/>
<path d="M23.3578 26.3458L22.2477 22.9329L21.1397 26.3458L17.5527 26.3479L20.4564 28.4563L19.3508 31.8668L22.25 29.7561L25.1535 31.8647L24.0432 28.4518L26.9447 26.3436L23.3578 26.3458Z" fill="#F0F0F0"/>
<path d="M29.4619 32.4503L28.352 29.0376L27.2439 32.4503L23.6572 32.4524L26.5607 34.561L25.4551 37.9714L28.3541 35.8608L31.2576 37.9692L30.1477 34.5563L33.049 32.4481L29.4619 32.4503Z" fill="#F0F0F0"/>
<path d="M35.5666 38.5552L34.4566 35.1423L33.3488 38.5552L29.7617 38.5574L32.6652 40.6658L31.5598 44.0763L34.4588 41.9656L37.3623 44.0742L36.2521 40.6615L39.1535 38.5531L35.5666 38.5552Z" fill="#F0F0F0"/>
<path d="M41.6719 44.6601L40.5619 41.2476L39.4541 44.6601L35.8672 44.6624L38.7707 46.7708L37.6652 50.1814L40.5641 48.0708L43.4676 50.179L42.3576 46.7663L45.259 44.6579L41.6719 44.6601Z" fill="#F0F0F0"/>
<path d="M47.7766 50.7647L46.6666 47.3521L45.5588 50.7647L41.9717 50.7671L44.8754 52.8755L43.7697 56.286L46.6689 54.1753L49.5725 56.2835L48.4621 52.871L51.3635 50.7628L47.7766 50.7647Z" fill="#F0F0F0"/>
<path d="M53.8809 56.8697L52.7711 53.457L51.6631 56.8697L48.0762 56.8719L50.9799 58.9805L49.8742 62.3908L52.7732 60.2803L55.6768 62.3887L54.5668 58.9758L57.4678 56.8676L53.8809 56.8697Z" fill="#F0F0F0"/>
<path d="M59.9865 62.9747L58.8766 59.5618L57.7684 62.9747L54.1816 62.9768L57.0852 65.0852L55.9795 68.4958L58.8787 66.385L61.7822 68.4936L60.6721 65.0807L63.5734 62.9725L59.9865 62.9747Z" fill="#F0F0F0"/>
<path d="M66.0908 69.0793L64.9809 65.6667L63.873 69.0793L60.2861 69.0816L63.1897 71.19L62.084 74.6005L64.983 72.4898L67.8865 74.5982L66.7766 71.1857L69.6779 69.0771L66.0908 69.0793Z" fill="#F0F0F0"/>
<path d="M72.1955 75.1842L71.0855 71.7715L69.9777 75.1842L66.3906 75.1865L69.2941 77.2947L68.1887 80.7055L71.0877 78.5947L73.9912 80.7031L72.8811 77.2904L75.7824 75.182L72.1955 75.1842Z" fill="#F0F0F0"/>
<path d="M77.1908 77.8762L76.083 81.2887L72.4961 81.2911L75.3074 83.3327H79.0727L81.8879 81.2866L78.3008 81.2887L77.1908 77.8762Z" fill="#F0F0F0"/>
</svg>
