<svg width="100" height="100" viewBox="0 0 100 100" fill="none" xmlns="http://www.w3.org/2000/svg">
<path d="M100 16.6675H0V83.3327H100V16.6675Z" fill="#D80027"/>
<path d="M100 16.6675H0V38.8892H100V16.6675Z" fill="#338AF3"/>
<path d="M100 61.1111H0V83.3328H100V61.1111Z" fill="#6DA544"/>
<path d="M50.625 58.125C46.1377 58.125 42.5 54.4873 42.5 50C42.5 45.5127 46.1377 41.875 50.625 41.875C52.0242 41.875 53.3406 42.2287 54.49 42.8516C52.6869 41.0885 50.2211 40 47.5 40C41.9771 40 37.5 44.4771 37.5 50C37.5 55.5228 41.9771 60 47.5 60C50.2211 60 52.6869 58.9115 54.49 57.1484C53.3406 57.7713 52.0242 58.125 50.625 58.125Z" fill="#F0F0F0"/>
<path d="M56.875 44.375L57.9512 47.4018L60.8525 46.0225L59.4732 48.9236L62.5 50L59.4732 51.0764L60.8525 53.9775L57.9512 52.5983L56.875 55.625L55.7988 52.5983L52.8975 53.9775L54.2768 51.0764L51.25 50L54.2768 48.9236L52.8975 46.0225L55.7988 47.4018L56.875 44.375Z" fill="#F0F0F0"/>
</svg>
