<svg width="65" height="65" viewBox="0 0 65 65" fill="none" xmlns="http://www.w3.org/2000/svg">
<circle cx="32.5" cy="32.5" r="32.5" fill="#F1FFF3"/>
<circle r="3.41067" transform="matrix(-1 0 0 1 32.3471 19.3814)" fill="#6ED67A"/>
<path d="M40.4388 14.6705C40.2764 14.9953 39.7892 18.2436 37.6778 21.8167C35.9888 24.675 33.5093 25.3897 32.4806 25.3898C30.2068 25.3898 28.7452 23.7657 27.2835 21.8167C26.1141 20.2574 24.9556 16.4029 24.5225 14.6705C24.4142 14.3998 24.0352 13.8909 23.3856 14.0209C22.0863 14.3457 22.2487 14.9953 22.7359 16.6195C23.7104 20.8422 25.6594 23.7656 26.6339 25.2273C27.6083 26.6891 31.019 30.2621 32.4807 31.5614C34.1048 30.0997 36.541 27.5011 38.0028 25.7146C39.4645 23.928 40.2765 21.9791 41.0886 20.1925C41.9007 18.406 42.3878 15.9698 42.5502 15.3202C42.7126 14.6705 42.2253 14.0209 41.7381 14.0209C40.7636 14.0209 40.6012 14.3457 40.4388 14.6705Z" fill="#6ED67A"/>
<circle cx="32.3471" cy="46.0188" r="3.41067" transform="rotate(180 32.3471 46.0188)" fill="#6ED67A"/>
<path d="M40.4388 50.7265C40.2764 50.4016 39.7892 47.1534 37.6778 43.5803C35.9888 40.722 33.5093 40.0073 32.4806 40.0072C30.2068 40.0072 28.7452 41.6313 27.2835 43.5803C26.1141 45.1395 24.9556 48.9941 24.5225 50.7265C24.4142 50.9972 24.0352 51.506 23.3856 51.3761C22.0863 51.0513 22.2487 50.4016 22.7359 48.7775C23.7104 44.5548 25.6594 41.6313 26.6339 40.1696C27.6083 38.7079 31.019 35.1348 32.4807 33.8355C34.1048 35.2973 36.541 37.8959 38.0028 39.6824C39.4645 41.4689 40.2765 43.4179 41.0886 45.2044C41.9007 46.991 42.3878 49.4272 42.5502 50.0768C42.7126 50.7265 42.2253 51.3761 41.7381 51.3761C40.7636 51.3761 40.6012 51.0513 40.4388 50.7265Z" fill="#6ED67A"/>
<circle cx="46.6206" cy="32.698" r="3.41067" transform="rotate(90 46.6206 32.698)" fill="#6ED67A"/>
<path d="M51.3295 24.6078C51.0047 24.7702 47.7564 25.2575 44.1833 27.3688C41.325 29.0579 40.6103 31.5374 40.6102 32.5661C40.6103 34.8398 42.2343 36.3014 44.1833 37.7631C45.7426 38.9325 49.5971 40.091 51.3295 40.5241C51.6002 40.6324 52.1091 41.0114 51.9791 41.661C51.6543 42.9603 51.0047 42.7979 49.3805 42.3107C45.1578 41.3362 42.2344 39.3873 40.7727 38.4128C39.3109 37.4383 35.7379 34.0276 34.4386 32.5659C35.9003 30.9418 38.4989 28.5056 40.2854 27.0439C42.072 25.5822 44.0209 24.7701 45.8075 23.958C47.594 23.146 50.0302 22.6589 50.6798 22.4965C51.3295 22.334 51.9791 22.8213 51.9791 23.3085C51.9791 24.283 51.6543 24.4454 51.3295 24.6078Z" fill="#6ED67A"/>
<circle r="3.41067" transform="matrix(-4.37114e-08 1 1 4.37114e-08 18.3794 32.698)" fill="#6ED67A"/>
<path d="M13.6705 24.6078C13.9953 24.7702 17.2436 25.2575 20.8167 27.3688C23.675 29.0579 24.3897 31.5374 24.3898 32.5661C24.3897 34.8398 22.7657 36.3014 20.8167 37.7631C19.2574 38.9325 15.4029 40.091 13.6705 40.5241C13.3998 40.6324 12.8909 41.0114 13.0209 41.661C13.3457 42.9603 13.9953 42.7979 15.6195 42.3107C19.8422 41.3362 22.7656 39.3873 24.2273 38.4128C25.6891 37.4383 29.2621 34.0276 30.5614 32.5659C29.0997 30.9418 26.5011 28.5056 24.7146 27.0439C22.928 25.5822 20.9791 24.7701 19.1925 23.958C17.406 23.146 14.9698 22.6589 14.3202 22.4965C13.6705 22.334 13.0209 22.8213 13.0209 23.3085C13.0209 24.283 13.3457 24.4454 13.6705 24.6078Z" fill="#6ED67A"/>
</svg>
