<svg width="751" height="742" viewBox="0 0 751 742" fill="none" xmlns="http://www.w3.org/2000/svg">
<path d="M233.601 137.643L791 72L791 741C567.372 683.737 111.402 566.278 76.5412 554.546C41.6805 542.814 38.0919 502.016 40.6552 483.083L59.0643 418.372C71.2593 373.368 99.471 270.977 114.758 221.443C133.866 159.524 175.81 149.282 186.297 145.557C194.686 142.578 221.328 139.04 233.601 137.643Z" stroke="#797979"/>
<path d="M193.601 65.643L751 0L751 669C527.372 611.737 71.402 494.278 36.5412 482.546C1.68051 470.814 -1.9081 430.016 0.655194 411.083L19.0643 346.372C31.2593 301.368 59.471 198.977 74.7576 149.443C93.8657 87.524 135.81 77.2818 146.297 73.5574C154.686 70.5779 181.328 67.0397 193.601 65.643Z" fill="#EFF1FF"/>
</svg>
