<svg width="57" height="43" viewBox="0 0 57 43" fill="none" xmlns="http://www.w3.org/2000/svg">
<g clip-path="url(#clip0)">
<path d="M55.8403 42.3964V42.5083H55.9467C55.9702 42.5083 55.9904 42.5028 56.0049 42.4941C56.0184 42.4854 56.0262 42.4702 56.0262 42.4518C56.0262 42.4333 56.0184 42.4192 56.0049 42.4105C55.9904 42.4007 55.9702 42.3964 55.9467 42.3964H55.8403ZM55.9478 42.3182C56.0027 42.3182 56.0453 42.3301 56.0755 42.354C56.1057 42.3779 56.1203 42.4105 56.1203 42.4518C56.1203 42.4865 56.1091 42.5148 56.0845 42.5376C56.0609 42.5593 56.0273 42.5734 55.9825 42.5788L56.1237 42.7363H56.0139L55.8829 42.5799H55.8403V42.7363H55.7485V42.3182H55.9478ZM55.9198 42.8808C55.9702 42.8808 56.0173 42.871 56.0598 42.8525C56.1035 42.8341 56.1416 42.8091 56.174 42.7776C56.2065 42.7461 56.2323 42.7092 56.2513 42.6657C56.2692 42.6234 56.2793 42.5778 56.2793 42.5289C56.2793 42.48 56.2692 42.4344 56.2513 42.392C56.2323 42.3497 56.2065 42.3117 56.174 42.2802C56.1416 42.2487 56.1035 42.2237 56.0598 42.2052C56.0173 42.1879 55.9702 42.1792 55.9198 42.1792C55.8694 42.1792 55.8213 42.1879 55.7776 42.2052C55.7328 42.2237 55.6936 42.2487 55.6611 42.2802C55.6286 42.3117 55.6029 42.3497 55.585 42.392C55.5659 42.4344 55.557 42.48 55.557 42.5289C55.557 42.5778 55.5659 42.6234 55.585 42.6657C55.6029 42.7092 55.6286 42.7461 55.6611 42.7776C55.6936 42.8091 55.7328 42.8341 55.7776 42.8525C55.8213 42.871 55.8694 42.8808 55.9198 42.8808ZM55.9198 42.0782C55.9859 42.0782 56.0464 42.0901 56.1046 42.114C56.1617 42.1368 56.211 42.1694 56.2547 42.2107C56.2972 42.2508 56.3308 42.2986 56.3555 42.354C56.3801 42.4083 56.3924 42.467 56.3924 42.5289C56.3924 42.5908 56.3801 42.6494 56.3555 42.7037C56.3308 42.7581 56.2972 42.8058 56.2547 42.8471C56.211 42.8873 56.1617 42.9199 56.1046 42.9438C56.0464 42.9677 55.9859 42.9796 55.9198 42.9796C55.8526 42.9796 55.791 42.9677 55.7328 42.9438C55.6746 42.9199 55.6242 42.8873 55.5816 42.8471C55.539 42.8058 55.5054 42.7581 55.4808 42.7037C55.4562 42.6494 55.4438 42.5908 55.4438 42.5289C55.4438 42.467 55.4562 42.4083 55.4808 42.354C55.5054 42.2986 55.539 42.2508 55.5816 42.2107C55.6242 42.1694 55.6746 42.1368 55.7328 42.114C55.791 42.0901 55.8526 42.0782 55.9198 42.0782ZM12.2857 40.4675C12.2857 39.6703 12.8244 39.0154 13.7047 39.0154C14.5458 39.0154 15.1136 39.6421 15.1136 40.4675C15.1136 41.2929 14.5458 41.9196 13.7047 41.9196C12.8244 41.9196 12.2857 41.2647 12.2857 40.4675ZM16.0722 40.4675V38.1997H15.0553V38.7504C14.7328 38.342 14.2434 38.0857 13.5781 38.0857C12.2667 38.0857 11.2386 39.0827 11.2386 40.4675C11.2386 41.8533 12.2667 42.8493 13.5781 42.8493C14.2434 42.8493 14.7328 42.593 15.0553 42.1846V42.7352H16.0722V40.4675ZM50.4366 40.4675C50.4366 39.6703 50.9753 39.0154 51.8556 39.0154C52.6978 39.0154 53.2644 39.6421 53.2644 40.4675C53.2644 41.2929 52.6978 41.9196 51.8556 41.9196C50.9753 41.9196 50.4366 41.2647 50.4366 40.4675ZM54.2242 40.4675V36.3784H53.2062V38.7504C52.8837 38.342 52.3942 38.0857 51.729 38.0857C50.4175 38.0857 49.3894 39.0827 49.3894 40.4675C49.3894 41.8533 50.4175 42.8493 51.729 42.8493C52.3942 42.8493 52.8837 42.593 53.2062 42.1846V42.7352H54.2242V40.4675ZM28.6951 38.9687C29.3503 38.9687 29.7714 39.3673 29.8789 40.0689H27.452C27.5606 39.414 27.9705 38.9687 28.6951 38.9687ZM28.7153 38.0857C27.3445 38.0857 26.3858 39.0534 26.3858 40.4675C26.3858 41.9098 27.3837 42.8493 28.7836 42.8493C29.488 42.8493 30.1331 42.6788 30.7009 42.2139L30.2026 41.483C29.8106 41.786 29.3111 41.9576 28.8418 41.9576C28.1867 41.9576 27.5897 41.6633 27.443 40.8465H30.916C30.9261 40.7238 30.9361 40.6 30.9361 40.4675C30.9261 39.0534 30.0256 38.0857 28.7153 38.0857ZM40.9943 40.4675C40.9943 39.6703 41.533 39.0154 42.4133 39.0154C43.2544 39.0154 43.8222 39.6421 43.8222 40.4675C43.8222 41.2929 43.2544 41.9196 42.4133 41.9196C41.533 41.9196 40.9943 41.2647 40.9943 40.4675ZM44.7809 40.4675V38.1997H43.764V38.7504C43.4403 38.342 42.952 38.0857 42.2868 38.0857C40.9753 38.0857 39.9472 39.0827 39.9472 40.4675C39.9472 41.8533 40.9753 42.8493 42.2868 42.8493C42.952 42.8493 43.4403 42.593 43.764 42.1846V42.7352H44.7809V40.4675ZM35.2513 40.4675C35.2513 41.8436 36.2391 42.8493 37.7465 42.8493C38.451 42.8493 38.9202 42.6972 39.4287 42.3084L38.9404 41.5112C38.5585 41.7773 38.1575 41.9196 37.7163 41.9196C36.9043 41.9098 36.3074 41.3407 36.3074 40.4675C36.3074 39.5943 36.9043 39.0252 37.7163 39.0154C38.1575 39.0154 38.5585 39.1577 38.9404 39.4238L39.4287 38.6266C38.9202 38.2377 38.451 38.0857 37.7465 38.0857C36.2391 38.0857 35.2513 39.0914 35.2513 40.4675ZM48.3624 38.0857C47.7756 38.0857 47.3937 38.3518 47.1294 38.7504V38.1997H46.1214V42.7352H47.1395V40.1927C47.1395 39.4422 47.4721 39.0252 48.1373 39.0252C48.3434 39.0252 48.5584 39.0534 48.7735 39.1392L49.0871 38.2095C48.8619 38.1237 48.5685 38.0857 48.3624 38.0857ZM21.1019 38.5603C20.6125 38.2475 19.9383 38.0857 19.1946 38.0857C18.0097 38.0857 17.2471 38.6363 17.2471 39.5378C17.2471 40.2774 17.8149 40.7336 18.8609 40.8759L19.3414 40.9421C19.8991 41.0181 20.1623 41.1604 20.1623 41.4167C20.1623 41.7675 19.7905 41.9674 19.0961 41.9674C18.3917 41.9674 17.8832 41.7491 17.5405 41.4928L17.0612 42.2606C17.6189 42.6592 18.3233 42.8493 19.086 42.8493C20.4367 42.8493 21.2195 42.2324 21.2195 41.3689C21.2195 40.5718 20.6035 40.1547 19.5855 40.0124L19.1062 39.9451C18.666 39.8886 18.3133 39.8039 18.3133 39.4998C18.3133 39.1674 18.6459 38.9687 19.2036 38.9687C19.8005 38.9687 20.3784 39.187 20.6618 39.3575L21.1019 38.5603ZM34.2232 38.0857C33.6363 38.0857 33.2544 38.3518 32.9912 38.7504V38.1997H31.9833V42.7352H33.0002V40.1927C33.0002 39.4422 33.3328 39.0252 33.9981 39.0252C34.2041 39.0252 34.4192 39.0534 34.6342 39.1392L34.9478 38.2095C34.7227 38.1237 34.4292 38.0857 34.2232 38.0857ZM25.5447 38.1997H23.8816V36.8237H22.8535V38.1997H21.9049V39.1012H22.8535V41.1702C22.8535 42.2226 23.2746 42.8493 24.4774 42.8493C24.9187 42.8493 25.4271 42.7168 25.7497 42.4985L25.4563 41.6535C25.1527 41.824 24.8201 41.9098 24.5558 41.9098C24.0474 41.9098 23.8816 41.6057 23.8816 41.1506V39.1012H25.5447V38.1997ZM10.3393 42.7352V39.8886C10.3393 38.8166 9.63481 38.0955 8.49919 38.0857C7.90226 38.0759 7.28629 38.2562 6.85512 38.8927C6.53257 38.3898 6.02412 38.0857 5.30959 38.0857C4.8101 38.0857 4.3218 38.228 3.9399 38.7591V38.1997H2.92188V42.7352H3.94886V40.2209C3.94886 39.4335 4.39908 39.0154 5.09456 39.0154C5.76989 39.0154 6.11147 39.4422 6.11147 40.2112V42.7352H7.13958V40.2209C7.13958 39.4335 7.60884 39.0154 8.28416 39.0154C8.97853 39.0154 9.31115 39.4422 9.31115 40.2112V42.7352H10.3393Z" fill="#231F20"/>
<path d="M56.4673 27.6516V26.9891H56.2893L56.0832 27.4442L55.8782 26.9891H55.699V27.6516H55.8256V27.152L56.0182 27.5832H56.1493L56.3419 27.1509V27.6516H56.4673ZM55.3373 27.6516V27.102H55.5658V26.9902H54.9834V27.102H55.2119V27.6516H55.3373Z" fill="#F79410"/>
<path d="M36.2189 30.5015H20.8066V3.64038H36.2189V30.5015Z" fill="#FF5F00"/>
<path d="M21.7942 17.0688C21.7942 11.6198 24.4249 6.7661 28.5217 3.63816C25.5258 1.35086 21.7449 -0.0143547 17.6358 -0.0143547C7.90798 -0.0143547 0.0224609 7.63389 0.0224609 17.0688C0.0224609 26.5036 7.90798 34.1519 17.6358 34.1519C21.7449 34.1519 25.5258 32.7866 28.5217 30.4993C24.4249 27.3714 21.7942 22.5177 21.7942 17.0688Z" fill="#EB001B"/>
<path d="M57.0052 17.0688C57.0052 26.5036 49.1197 34.1519 39.3919 34.1519C35.2828 34.1519 31.5019 32.7866 28.5049 30.4993C32.6028 27.3714 35.2335 22.5177 35.2335 17.0688C35.2335 11.6198 32.6028 6.7661 28.5049 3.63816C31.5019 1.35086 35.2828 -0.0143547 39.3919 -0.0143547C49.1197 -0.0143547 57.0052 7.63389 57.0052 17.0688Z" fill="#F79E1B"/>
</g>
<defs>
<clipPath id="clip0">
<rect width="57" height="43" fill="white"/>
</clipPath>
</defs>
</svg>
