<svg width="91" height="25" viewBox="0 0 91 25" fill="none" xmlns="http://www.w3.org/2000/svg">
<path d="M60.8236 0H53.8839C53.4757 0 53.0675 0.408216 52.8634 0.816433L50.0059 18.778C50.0059 19.1862 50.21 19.3903 50.6182 19.3903H54.2921C54.7004 19.3903 54.9045 19.1862 54.9045 18.778L55.7209 13.6753C55.7209 13.267 56.1291 12.8588 56.7414 12.8588H58.9866C63.6811 12.8588 66.3345 10.6136 66.9469 6.12325C67.3551 4.28628 66.9469 2.65341 66.1304 1.63287C64.9058 0.612328 63.0688 0 60.8236 0ZM61.64 6.73558C61.2318 9.18488 59.3948 9.18488 57.5579 9.18488H56.3332L57.1497 4.49039C57.1497 4.28628 57.3538 4.08217 57.762 4.08217H58.1702C59.3948 4.08217 60.6195 4.08217 61.2318 4.8986C61.64 5.10271 61.64 5.71504 61.64 6.73558Z" fill="#139AD6"/>
<path d="M10.8178 0H3.87806C3.46984 0 3.06163 0.408216 2.85752 0.816433L0 18.778C0 19.1862 0.204111 19.3903 0.612328 19.3903H3.87806C4.28628 19.3903 4.69449 18.9821 4.8986 18.5739L5.71504 13.6753C5.71504 13.267 6.12326 12.8588 6.73558 12.8588H8.98077C13.6753 12.8588 16.3287 10.6136 16.941 6.12325C17.3492 4.28628 16.941 2.65341 16.1246 1.63287C14.8999 0.612328 13.2671 0 10.8178 0ZM11.6342 6.73558C11.226 9.18488 9.38899 9.18488 7.55202 9.18488H6.53147L7.34791 4.49039C7.34791 4.28628 7.55201 4.08217 7.96023 4.08217H8.36845C9.5931 4.08217 10.8177 4.08217 11.4301 4.8986C11.6342 5.10271 11.8383 5.71504 11.6342 6.73558Z" fill="#263B80"/>
<path d="M31.8403 6.53114H28.5746C28.3705 6.53114 27.9623 6.73525 27.9623 6.93936L27.7581 7.9599L27.554 7.55169C26.7376 6.53114 25.3088 6.12292 23.676 6.12292C20.002 6.12292 16.7363 8.98045 16.124 12.8585C15.7157 14.8996 16.3281 16.7366 17.3486 17.9612C18.3692 19.1859 19.7979 19.5941 21.6349 19.5941C24.6965 19.5941 26.3294 17.7571 26.3294 17.7571L26.1253 18.7776C26.1253 19.1859 26.3294 19.39 26.7376 19.39H29.7992C30.2074 19.39 30.6157 18.9818 30.8198 18.5735L32.6568 7.14347C32.4526 6.93936 32.0444 6.53114 31.8403 6.53114ZM27.1458 13.0626C26.7376 14.8996 25.3088 16.3284 23.2678 16.3284C22.2472 16.3284 21.4308 15.9201 21.0226 15.5119C20.6143 14.8996 20.4102 14.0832 20.4102 13.0626C20.6143 11.2256 22.2472 9.79688 24.0842 9.79688C25.1047 9.79688 25.7171 10.2051 26.3294 10.6133C26.9417 11.2256 27.1458 12.2462 27.1458 13.0626Z" fill="#263B80"/>
<path d="M81.643 6.53127H78.3773C78.1732 6.53127 77.765 6.73537 77.765 6.93948L77.5609 7.96002L77.3568 7.55181C76.5403 6.53127 75.1116 6.12305 73.4787 6.12305C69.8048 6.12305 66.539 8.98057 65.9267 12.8586C65.5185 14.8997 66.1308 16.7367 67.1513 17.9613C68.1719 19.186 69.6006 19.5942 71.4376 19.5942C74.4993 19.5942 76.1321 17.7572 76.1321 17.7572L75.928 18.7778C75.928 19.186 76.1321 19.3901 76.5403 19.3901H79.602C80.0102 19.3901 80.4184 18.9819 80.6225 18.5737L82.4595 7.14359C82.2554 6.93948 82.0513 6.53127 81.643 6.53127ZM76.9485 13.0627C76.5403 14.8997 75.1116 16.3285 73.0705 16.3285C72.0499 16.3285 71.2335 15.9203 70.8253 15.512C70.4171 14.8997 70.213 14.0833 70.213 13.0627C70.4171 11.2258 72.0499 9.797 73.8869 9.797C74.9075 9.797 75.5198 10.2052 76.1321 10.6134C76.9486 11.2258 77.1527 12.2463 76.9485 13.0627Z" fill="#139AD6"/>
<path d="M49.5972 6.53149H46.1274C45.7191 6.53149 45.515 6.7356 45.3109 6.93971L40.8205 13.8794L38.7795 7.34793C38.5754 6.93971 38.3712 6.7356 37.7589 6.7356H34.4932C34.085 6.7356 33.8809 7.14382 33.8809 7.55204L37.5548 18.3698L34.085 23.2684C33.8809 23.6766 34.085 24.2889 34.4932 24.2889H37.7589C38.1671 24.2889 38.3712 24.0848 38.5754 23.8807L49.8013 7.75615C50.4136 7.14382 50.0054 6.53149 49.5972 6.53149Z" fill="#263B80"/>
<path d="M85.5216 0.61207L82.6641 18.9818C82.6641 19.3901 82.8682 19.5942 83.2764 19.5942H86.1339C86.5421 19.5942 86.9503 19.1859 87.1544 18.7777L90.012 0.816176C90.012 0.407959 89.8079 0.203852 89.3996 0.203852H86.1339C85.9298 -0.00025671 85.7257 0.203853 85.5216 0.61207Z" fill="#139AD6"/>
</svg>
