<svg width="117" height="94" viewBox="0 0 117 94" fill="none" xmlns="http://www.w3.org/2000/svg">
<g filter="url(#filter0_ddii)">
<path d="M2.56 44C2.28267 44 2.02267 43.896 1.78 43.688C1.572 43.4453 1.468 43.1853 1.468 42.908C1.468 42.7 1.48533 42.544 1.52 42.44L13.74 9.056C13.844 8.64 14.0693 8.29333 14.416 8.016C14.7627 7.73866 15.2133 7.6 15.768 7.6H23.464C24.0187 7.6 24.4693 7.73866 24.816 8.016C25.1627 8.29333 25.388 8.64 25.492 9.056L37.66 42.44L37.764 42.908C37.764 43.1853 37.6427 43.4453 37.4 43.688C37.192 43.896 36.932 44 36.62 44H30.224C29.392 44 28.8373 43.636 28.56 42.908L26.532 37.604H12.648L10.672 42.908C10.3947 43.636 9.82267 44 8.956 44H2.56ZM24.452 30.116L19.616 16.388L14.78 30.116H24.452ZM43.6827 44C43.336 44 43.024 43.8787 42.7467 43.636C42.504 43.3587 42.3827 43.0467 42.3827 42.7V8.9C42.3827 8.51866 42.504 8.20666 42.7467 7.964C43.024 7.72133 43.336 7.6 43.6827 7.6H58.2427C62.68 7.6 66.164 8.62266 68.6947 10.668C71.26 12.7133 72.5427 15.6947 72.5427 19.612C72.5427 23.4947 71.2773 26.424 68.7467 28.4C66.216 30.3413 62.7147 31.312 58.2427 31.312H52.0547V42.7C52.0547 43.0813 51.916 43.3933 51.6387 43.636C51.396 43.8787 51.084 44 50.7027 44H43.6827ZM57.9827 24.136C59.508 24.136 60.704 23.7547 61.5707 22.992C62.4373 22.1947 62.8707 21.0333 62.8707 19.508C62.8707 18.0867 62.4547 16.96 61.6227 16.128C60.8253 15.2613 59.612 14.828 57.9827 14.828H51.8987V24.136H57.9827ZM91.6153 44.52C88.3219 44.52 85.4966 44.0347 83.1393 43.064C80.7819 42.0933 78.9966 40.828 77.7833 39.268C76.6046 37.6733 75.9806 35.94 75.9113 34.068C75.9113 33.7907 76.0153 33.548 76.2233 33.34C76.4659 33.0973 76.7433 32.976 77.0553 32.976H83.6073C84.0233 32.976 84.3526 33.0627 84.5953 33.236C84.8726 33.3747 85.1499 33.6 85.4273 33.912C85.8779 34.8133 86.6059 35.5587 87.6113 36.148C88.6166 36.7373 89.9513 37.032 91.6153 37.032C93.5913 37.032 95.0993 36.72 96.1393 36.096C97.1793 35.472 97.6993 34.6227 97.6993 33.548C97.6993 32.7853 97.4219 32.1613 96.8673 31.676C96.3473 31.1907 95.5153 30.7573 94.3713 30.376C93.2273 29.9947 91.5286 29.5613 89.2753 29.076C85.1153 28.2093 81.9953 26.944 79.9153 25.28C77.8699 23.5813 76.8473 21.172 76.8473 18.052C76.8473 15.9373 77.4366 14.048 78.6153 12.384C79.7939 10.72 81.4753 9.42 83.6593 8.484C85.8433 7.548 88.3913 7.08 91.3033 7.08C94.3193 7.08 96.9366 7.6 99.1553 8.64C101.374 9.68 103.055 10.9973 104.199 12.592C105.378 14.152 106.002 15.6947 106.071 17.22C106.071 17.532 105.967 17.792 105.759 18C105.551 18.208 105.291 18.312 104.979 18.312H98.1153C97.6993 18.312 97.3526 18.2427 97.0753 18.104C96.8326 17.9653 96.6073 17.74 96.3993 17.428C96.1913 16.6307 95.6193 15.9547 94.6833 15.4C93.7819 14.8453 92.6553 14.568 91.3033 14.568C89.7433 14.568 88.5473 14.8453 87.7153 15.4C86.8833 15.9547 86.4673 16.7693 86.4673 17.844C86.4673 18.572 86.6926 19.1787 87.1433 19.664C87.6286 20.1493 88.3913 20.6 89.4313 21.016C90.5059 21.3973 92.0313 21.796 94.0073 22.212C97.2313 22.8013 99.7966 23.5467 101.703 24.448C103.645 25.3147 105.066 26.4587 105.967 27.88C106.869 29.2667 107.319 31.0173 107.319 33.132C107.319 35.4547 106.643 37.4827 105.291 39.216C103.974 40.9147 102.119 42.232 99.7273 43.168C97.37 44.0693 94.666 44.52 91.6153 44.52Z" fill="url(#paint0_linear)"/>
</g>
<path d="M12.039 69L10.576 65.238H4.61L3.185 69H1.19L6.548 55.529H8.695L14.053 69H12.039ZM7.574 57.467L5.275 63.509H9.911L7.574 57.467ZM17.554 69H15.768V55.244H17.554V69ZM22.3783 69H20.5923V55.244H22.3783V69ZM27.1835 72.61H25.4165V59.861H27.1455V61.286C27.4115 60.8047 27.8105 60.412 28.3425 60.108C28.8745 59.804 29.4952 59.652 30.2045 59.652C31.5218 59.652 32.5478 60.1017 33.2825 61.001C34.0298 61.9003 34.4035 63.0403 34.4035 64.421C34.4035 65.8143 34.0172 66.967 33.2445 67.879C32.4845 68.791 31.4522 69.247 30.1475 69.247C29.4762 69.247 28.8808 69.1077 28.3615 68.829C27.8422 68.5503 27.4495 68.1957 27.1835 67.765V72.61ZM32.5795 64.421C32.5795 63.4963 32.3325 62.7363 31.8385 62.141C31.3572 61.533 30.7048 61.229 29.8815 61.229C29.0708 61.229 28.4122 61.533 27.9055 62.141C27.4115 62.7363 27.1645 63.4963 27.1645 64.421C27.1645 65.371 27.4115 66.15 27.9055 66.758C28.4122 67.3533 29.0708 67.651 29.8815 67.651C30.6922 67.651 31.3445 67.3533 31.8385 66.758C32.3325 66.15 32.5795 65.371 32.5795 64.421ZM36.1092 66.549C36.1092 65.7637 36.3625 65.1367 36.8692 64.668C37.3758 64.1867 38.0472 63.889 38.8832 63.775L41.3532 63.414C41.8218 63.3507 42.0562 63.1227 42.0562 62.73C42.0562 62.2487 41.8915 61.856 41.5622 61.552C41.2328 61.248 40.7388 61.096 40.0802 61.096C39.4722 61.096 38.9908 61.267 38.6362 61.609C38.2815 61.9383 38.0725 62.3817 38.0092 62.939L36.2992 62.54C36.3878 61.666 36.7868 60.9567 37.4962 60.412C38.2055 59.8547 39.0542 59.576 40.0422 59.576C41.3342 59.576 42.2905 59.8927 42.9112 60.526C43.5318 61.1467 43.8422 61.9447 43.8422 62.92V67.499C43.8422 68.0437 43.8802 68.544 43.9562 69H42.2082C42.1448 68.62 42.1132 68.2083 42.1132 67.765C41.8598 68.1703 41.4862 68.525 40.9922 68.829C40.5108 69.133 39.9028 69.285 39.1682 69.285C38.2688 69.285 37.5342 69.019 36.9642 68.487C36.3942 67.9423 36.1092 67.2963 36.1092 66.549ZM39.4152 67.784C40.2132 67.784 40.8528 67.5687 41.3342 67.138C41.8155 66.7073 42.0562 66.0233 42.0562 65.086V64.668L39.2632 65.086C38.8578 65.1493 38.5348 65.295 38.2942 65.523C38.0535 65.751 37.9332 66.0613 37.9332 66.454C37.9332 66.8087 38.0662 67.119 38.3322 67.385C38.6108 67.651 38.9718 67.784 39.4152 67.784ZM48.7189 72.819H46.7619L49.0419 67.993L45.1089 59.861H47.1609L50.0109 66.169L52.7469 59.861H54.6659L48.7189 72.819ZM58.1513 69H56.3843V59.861H58.0943V61.077C58.3729 60.5957 58.7656 60.2283 59.2723 59.975C59.7789 59.7217 60.3109 59.595 60.8683 59.595C61.4636 59.595 62.0083 59.7407 62.5023 60.032C62.9963 60.3233 63.3636 60.754 63.6043 61.324C64.2376 60.1713 65.2573 59.595 66.6633 59.595C67.5373 59.595 68.2783 59.8927 68.8863 60.488C69.5069 61.0833 69.8173 61.9447 69.8173 63.072V69H68.0503V63.262C68.0503 62.6287 67.8856 62.122 67.5563 61.742C67.2396 61.362 66.7583 61.172 66.1123 61.172C65.4916 61.172 64.9849 61.3937 64.5923 61.837C64.1996 62.2677 64.0033 62.8123 64.0033 63.471V69H62.2173V63.262C62.2173 62.6287 62.0526 62.122 61.7233 61.742C61.4066 61.362 60.9253 61.172 60.2793 61.172C59.6459 61.172 59.1329 61.3873 58.7403 61.818C58.3476 62.2487 58.1513 62.806 58.1513 63.49V69ZM73.8343 63.49H78.8313C78.8059 62.806 78.5779 62.2487 78.1473 61.818C77.7166 61.3747 77.1086 61.153 76.3233 61.153C75.6139 61.153 75.0313 61.3873 74.5753 61.856C74.1193 62.312 73.8723 62.8567 73.8343 63.49ZM79.0973 65.865L80.6363 66.397C80.3703 67.2457 79.8763 67.9423 79.1543 68.487C78.4323 69.019 77.5583 69.285 76.5323 69.285C75.2529 69.285 74.1636 68.848 73.2643 67.974C72.3776 67.0873 71.9343 65.8967 71.9343 64.402C71.9343 63.0087 72.3649 61.856 73.2263 60.944C74.0876 60.032 75.1136 59.576 76.3043 59.576C77.6849 59.576 78.7616 60.013 79.5343 60.887C80.3069 61.7483 80.6933 62.9073 80.6933 64.364C80.6933 64.592 80.6806 64.782 80.6553 64.934H73.7773C73.7899 65.7447 74.0559 66.4097 74.5753 66.929C75.1073 67.4483 75.7596 67.708 76.5323 67.708C77.8369 67.708 78.6919 67.0937 79.0973 65.865ZM84.7591 63.718V69H82.9731V59.861H84.7211V61.172C85.3291 60.1207 86.2665 59.595 87.5331 59.595C88.5845 59.595 89.3888 59.9307 89.9461 60.602C90.5161 61.2733 90.8011 62.141 90.8011 63.205V69H89.0151V63.509C89.0151 61.9763 88.3058 61.21 86.8871 61.21C86.2158 61.21 85.6901 61.4507 85.3101 61.932C84.9428 62.4007 84.7591 62.996 84.7591 63.718ZM96.0361 56.973V59.861H98.0121V61.476H96.0361V66.226C96.0361 66.6567 96.1311 66.9733 96.3211 67.176C96.5237 67.3787 96.8531 67.48 97.3091 67.48C97.5751 67.48 97.8094 67.4547 98.0121 67.404V68.924C97.7081 69.038 97.3027 69.095 96.7961 69.095C96.0107 69.095 95.3901 68.867 94.9341 68.411C94.4781 67.955 94.2501 67.3153 94.2501 66.492V61.476H92.5021V59.861H92.9961C93.4647 59.861 93.8131 59.7343 94.0411 59.481C94.2817 59.215 94.4021 58.873 94.4021 58.455V56.973H96.0361ZM99.6338 66.625L101.249 66.055C101.312 66.549 101.527 66.9607 101.895 67.29C102.262 67.6067 102.756 67.765 103.377 67.765C103.858 67.765 104.238 67.651 104.517 67.423C104.795 67.1823 104.935 66.891 104.935 66.549C104.935 65.941 104.542 65.5483 103.757 65.371L102.199 65.029C101.489 64.877 100.932 64.573 100.527 64.117C100.121 63.661 99.9188 63.11 99.9188 62.464C99.9188 61.6787 100.235 61.001 100.869 60.431C101.515 59.861 102.281 59.576 103.168 59.576C103.75 59.576 104.27 59.6647 104.726 59.842C105.182 60.0067 105.536 60.2283 105.79 60.507C106.043 60.7857 106.233 61.0453 106.36 61.286C106.486 61.5267 106.581 61.7737 106.645 62.027L105.068 62.616C105.042 62.464 104.998 62.3183 104.935 62.179C104.871 62.027 104.77 61.8623 104.631 61.685C104.504 61.5077 104.314 61.3683 104.061 61.267C103.807 61.153 103.51 61.096 103.168 61.096C102.724 61.096 102.357 61.2163 102.066 61.457C101.787 61.6977 101.648 61.9827 101.648 62.312C101.648 62.8947 101.996 63.262 102.693 63.414L104.175 63.737C104.985 63.9143 105.606 64.2437 106.037 64.725C106.48 65.1937 106.702 65.77 106.702 66.454C106.702 67.176 106.404 67.8283 105.809 68.411C105.226 68.9937 104.409 69.285 103.358 69.285C102.23 69.285 101.35 69.0063 100.717 68.449C100.083 67.879 99.7224 67.271 99.6338 66.625ZM11.298 79.588L9.626 80.177C9.53733 79.5943 9.25233 79.0687 8.771 78.6C8.28967 78.1187 7.62467 77.878 6.776 77.878C6.02867 77.878 5.408 78.0933 4.914 78.524C4.42 78.9547 4.173 79.4867 4.173 80.12C4.173 80.614 4.31867 81.032 4.61 81.374C4.914 81.716 5.34467 81.9503 5.902 82.077L7.916 82.514C9.03067 82.7547 9.892 83.2107 10.5 83.882C11.108 84.5407 11.412 85.345 11.412 86.295C11.412 87.3843 10.9813 88.3217 10.12 89.107C9.25867 89.8923 8.13767 90.285 6.757 90.285C5.24967 90.285 4.06533 89.8923 3.204 89.107C2.35533 88.309 1.86133 87.3653 1.722 86.276L3.508 85.706C3.584 86.5167 3.90067 87.2007 4.458 87.758C5.01533 88.3153 5.77533 88.594 6.738 88.594C7.62467 88.594 8.30867 88.3913 8.79 87.986C9.27133 87.5807 9.512 87.0677 9.512 86.447C9.512 85.9403 9.341 85.5033 8.999 85.136C8.657 84.756 8.15667 84.4963 7.498 84.357L5.579 83.939C4.57833 83.7237 3.78033 83.2993 3.185 82.666C2.58967 82.0327 2.292 81.2283 2.292 80.253C2.292 79.189 2.72267 78.258 3.584 77.46C4.458 76.6493 5.50933 76.244 6.738 76.244C8.11867 76.244 9.17633 76.5797 9.911 77.251C10.6457 77.9223 11.108 78.7013 11.298 79.588ZM15.4781 87.834C16.0355 88.404 16.7131 88.689 17.5111 88.689C18.3091 88.689 18.9805 88.404 19.5251 87.834C20.0825 87.2513 20.3611 86.447 20.3611 85.421C20.3611 84.4077 20.0825 83.616 19.5251 83.046C18.9805 82.4633 18.3091 82.172 17.5111 82.172C16.7131 82.172 16.0355 82.4633 15.4781 83.046C14.9335 83.616 14.6611 84.4077 14.6611 85.421C14.6611 86.447 14.9335 87.2513 15.4781 87.834ZM14.1481 81.963C15.0348 81.0383 16.1558 80.576 17.5111 80.576C18.8665 80.576 19.9811 81.0383 20.8551 81.963C21.7418 82.875 22.1851 84.0277 22.1851 85.421C22.1851 86.827 21.7481 87.9923 20.8741 88.917C20.0001 89.829 18.8791 90.285 17.5111 90.285C16.1431 90.285 15.0221 89.829 14.1481 88.917C13.2741 87.9923 12.8371 86.827 12.8371 85.421C12.8371 84.0277 13.2741 82.875 14.1481 81.963ZM26.2562 90H24.4702V76.244H26.2562V90ZM35.2246 88.898C34.984 89.354 34.6166 89.7023 34.1226 89.943C33.6286 90.171 33.0966 90.285 32.5266 90.285C31.488 90.285 30.6583 89.943 30.0376 89.259C29.417 88.5623 29.1066 87.682 29.1066 86.618V80.861H30.8926V86.352C30.8926 87.036 31.0573 87.5997 31.3866 88.043C31.7286 88.4863 32.2543 88.708 32.9636 88.708C33.673 88.708 34.2113 88.499 34.5786 88.081C34.946 87.6503 35.1296 87.0803 35.1296 86.371V80.861H36.9156V88.309C36.9156 88.9043 36.9473 89.468 37.0106 90H35.3006C35.25 89.7213 35.2246 89.354 35.2246 88.898ZM42.3574 77.973V80.861H44.3334V82.476H42.3574V87.226C42.3574 87.6567 42.4524 87.9733 42.6424 88.176C42.845 88.3787 43.1744 88.48 43.6304 88.48C43.8964 88.48 44.1307 88.4547 44.3334 88.404V89.924C44.0294 90.038 43.624 90.095 43.1174 90.095C42.332 90.095 41.7114 89.867 41.2554 89.411C40.7994 88.955 40.5714 88.3153 40.5714 87.492V82.476H38.8234V80.861H39.3174C39.786 80.861 40.1344 80.7343 40.3624 80.481C40.603 80.215 40.7234 79.873 40.7234 79.455V77.973H42.3574ZM48.4843 90H46.7173V80.861H48.4843V90ZM46.6793 78.315C46.4386 78.0617 46.3183 77.7577 46.3183 77.403C46.3183 77.0483 46.4386 76.7443 46.6793 76.491C46.9326 76.2377 47.2366 76.111 47.5913 76.111C47.9459 76.111 48.2499 76.2377 48.5033 76.491C48.7566 76.7317 48.8833 77.0357 48.8833 77.403C48.8833 77.7577 48.7566 78.0617 48.5033 78.315C48.2499 78.5557 47.9459 78.676 47.5913 78.676C47.2366 78.676 46.9326 78.5557 46.6793 78.315ZM53.4039 87.834C53.9613 88.404 54.6389 88.689 55.4369 88.689C56.2349 88.689 56.9063 88.404 57.4509 87.834C58.0083 87.2513 58.2869 86.447 58.2869 85.421C58.2869 84.4077 58.0083 83.616 57.4509 83.046C56.9063 82.4633 56.2349 82.172 55.4369 82.172C54.6389 82.172 53.9613 82.4633 53.4039 83.046C52.8593 83.616 52.5869 84.4077 52.5869 85.421C52.5869 86.447 52.8593 87.2513 53.4039 87.834ZM52.0739 81.963C52.9606 81.0383 54.0816 80.576 55.4369 80.576C56.7923 80.576 57.9069 81.0383 58.7809 81.963C59.6676 82.875 60.1109 84.0277 60.1109 85.421C60.1109 86.827 59.6739 87.9923 58.7999 88.917C57.9259 89.829 56.8049 90.285 55.4369 90.285C54.0689 90.285 52.9479 89.829 52.0739 88.917C51.1999 87.9923 50.7629 86.827 50.7629 85.421C50.7629 84.0277 51.1999 82.875 52.0739 81.963ZM64.182 84.718V90H62.396V80.861H64.144V82.172C64.752 81.1207 65.6893 80.595 66.956 80.595C68.0073 80.595 68.8116 80.9307 69.369 81.602C69.939 82.2733 70.224 83.141 70.224 84.205V90H68.438V84.509C68.438 82.9763 67.7286 82.21 66.31 82.21C65.6386 82.21 65.113 82.4507 64.733 82.932C64.3656 83.4007 64.182 83.996 64.182 84.718ZM72.2099 87.625L73.8249 87.055C73.8883 87.549 74.1036 87.9607 74.4709 88.29C74.8383 88.6067 75.3323 88.765 75.9529 88.765C76.4343 88.765 76.8143 88.651 77.0929 88.423C77.3716 88.1823 77.5109 87.891 77.5109 87.549C77.5109 86.941 77.1183 86.5483 76.3329 86.371L74.7749 86.029C74.0656 85.877 73.5083 85.573 73.1029 85.117C72.6976 84.661 72.4949 84.11 72.4949 83.464C72.4949 82.6787 72.8116 82.001 73.4449 81.431C74.0909 80.861 74.8573 80.576 75.7439 80.576C76.3266 80.576 76.8459 80.6647 77.3019 80.842C77.7579 81.0067 78.1126 81.2283 78.3659 81.507C78.6193 81.7857 78.8093 82.0453 78.9359 82.286C79.0626 82.5267 79.1576 82.7737 79.2209 83.027L77.6439 83.616C77.6186 83.464 77.5743 83.3183 77.5109 83.179C77.4476 83.027 77.3463 82.8623 77.2069 82.685C77.0803 82.5077 76.8903 82.3683 76.6369 82.267C76.3836 82.153 76.0859 82.096 75.7439 82.096C75.3006 82.096 74.9333 82.2163 74.6419 82.457C74.3633 82.6977 74.2239 82.9827 74.2239 83.312C74.2239 83.8947 74.5723 84.262 75.2689 84.414L76.7509 84.737C77.5616 84.9143 78.1823 85.2437 78.6129 85.725C79.0563 86.1937 79.2779 86.77 79.2779 87.454C79.2779 88.176 78.9803 88.8283 78.3849 89.411C77.8023 89.9937 76.9853 90.285 75.9339 90.285C74.8066 90.285 73.9263 90.0063 73.2929 89.449C72.6596 88.879 72.2986 88.271 72.2099 87.625Z" fill="white"/>
<defs>
<filter id="filter0_ddii" x="0.46875" y="4.08008" width="115.851" height="47.44" filterUnits="userSpaceOnUse" color-interpolation-filters="sRGB">
<feFlood flood-opacity="0" result="BackgroundImageFix"/>
<feColorMatrix in="SourceAlpha" type="matrix" values="0 0 0 0 0 0 0 0 0 0 0 0 0 0 0 0 0 0 127 0"/>
<feOffset dx="4" dy="2"/>
<feGaussianBlur stdDeviation="2.5"/>
<feColorMatrix type="matrix" values="0 0 0 0 0 0 0 0 0 0 0 0 0 0 0 0 0 0 0.1 0"/>
<feBlend mode="normal" in2="BackgroundImageFix" result="effect1_dropShadow"/>
<feColorMatrix in="SourceAlpha" type="matrix" values="0 0 0 0 0 0 0 0 0 0 0 0 0 0 0 0 0 0 127 0"/>
<feOffset dx="1" dy="2"/>
<feGaussianBlur stdDeviation="1"/>
<feColorMatrix type="matrix" values="0 0 0 0 0 0 0 0 0 0 0 0 0 0 0 0 0 0 0.1 0"/>
<feBlend mode="normal" in2="effect1_dropShadow" result="effect2_dropShadow"/>
<feBlend mode="normal" in="SourceGraphic" in2="effect2_dropShadow" result="shape"/>
<feColorMatrix in="SourceAlpha" type="matrix" values="0 0 0 0 0 0 0 0 0 0 0 0 0 0 0 0 0 0 127 0" result="hardAlpha"/>
<feOffset dx="1" dy="1"/>
<feGaussianBlur stdDeviation="1"/>
<feComposite in2="hardAlpha" operator="arithmetic" k2="-1" k3="1"/>
<feColorMatrix type="matrix" values="0 0 0 0 0.579167 0 0 0 0 1 0 0 0 0 0.842187 0 0 0 1 0"/>
<feBlend mode="normal" in2="shape" result="effect3_innerShadow"/>
<feColorMatrix in="SourceAlpha" type="matrix" values="0 0 0 0 0 0 0 0 0 0 0 0 0 0 0 0 0 0 127 0" result="hardAlpha"/>
<feOffset dx="-1" dy="-1"/>
<feGaussianBlur stdDeviation="1"/>
<feComposite in2="hardAlpha" operator="arithmetic" k2="-1" k3="1"/>
<feColorMatrix type="matrix" values="0 0 0 0 0.135556 0 0 0 0 0.508333 0 0 0 0 0.367005 0 0 0 1 0"/>
<feBlend mode="normal" in2="effect3_innerShadow" result="effect4_innerShadow"/>
</filter>
<linearGradient id="paint0_linear" x1="55" y1="0" x2="55" y2="52" gradientUnits="userSpaceOnUse">
<stop stop-color="#60E975"/>
<stop offset="1" stop-color="#7CE58C"/>
</linearGradient>
</defs>
</svg>
