<svg width="34" height="34" viewBox="0 0 34 34" fill="none" xmlns="http://www.w3.org/2000/svg">
<path d="M31.8747 8.05678C30.7181 9.71276 29.2749 11.1489 27.6133 12.2974L27.6133 12.2974C27.5082 15.2021 26.6603 18.0314 25.1506 20.5152C23.6408 22.999 21.5196 25.0544 18.9895 26.4851C16.4594 27.9158 13.6048 28.6741 10.6982 28.6876C7.7916 28.7012 4.93005 27.9695 2.38672 26.5624L2.38758 26.5608C5.70875 26.5148 8.94289 25.4921 11.6867 23.6203L11.6866 23.6204C8.74946 21.6186 6.51244 18.7477 5.28916 15.4104C4.06588 12.073 3.91769 8.43655 4.86535 5.01074L4.8653 5.01078C6.2226 7.10105 8.02295 8.86729 10.1388 10.1844C12.2547 11.5014 14.6343 12.3371 17.109 12.6322L17.1087 12.6322C16.8481 11.3899 17.0408 10.0953 17.652 8.9828C18.2631 7.87027 19.2524 7.01328 20.4407 6.56693C21.629 6.12058 22.9378 6.11436 24.1303 6.5494C25.3228 6.98444 26.3201 7.83199 26.9419 8.93867L26.9419 8.93925C28.6206 8.88916 30.2828 8.5918 31.8747 8.05678" stroke="#5D51C7" stroke-width="1.7" stroke-linecap="round" stroke-linejoin="round"/>
</svg>
