<svg width="37" height="37" viewBox="0 0 37 37" fill="none" xmlns="http://www.w3.org/2000/svg">
<path fill-rule="evenodd" clip-rule="evenodd" d="M31.6092 5.37701C28.131 1.91143 23.5053 0.00203247 18.5774 0C8.42289 0 0.158614 8.22451 0.15453 18.3331C0.153168 21.5645 1.00138 24.7189 2.61362 27.4993L0 37L9.76623 34.4504C12.4572 35.9113 15.4868 36.6811 18.5699 36.682H18.5776C28.731 36.682 36.9961 28.4568 37 18.3478C37.002 13.4486 35.0876 8.84238 31.6092 5.37701ZM18.5774 33.5857H18.571C15.8235 33.5845 13.1289 32.8497 10.7776 31.4615L10.2187 31.1311L4.42327 32.6442L5.97016 27.0208L5.60596 26.4443C4.07314 24.0179 3.26373 21.2136 3.26509 18.3342C3.26827 9.93223 10.1375 3.09658 18.5835 3.09658C22.6734 3.09794 26.5181 4.68507 29.409 7.56553C32.2999 10.446 33.891 14.2747 33.8897 18.3467C33.886 26.7493 27.0173 33.5857 18.5774 33.5857ZM26.9764 22.1724C26.5163 21.943 24.253 20.8351 23.8309 20.682C23.4093 20.5291 23.1021 20.453 22.7955 20.9114C22.4885 21.3698 21.6065 22.4019 21.3378 22.7074C21.0691 23.0132 20.8009 23.0516 20.3405 22.8222C19.8801 22.5929 18.397 22.109 16.6386 20.5483C15.2703 19.3335 14.3465 17.8333 14.0779 17.3749C13.8096 16.916 14.0756 16.692 14.2798 16.44C14.7781 15.8241 15.2771 15.1785 15.4305 14.8729C15.5841 14.5672 15.5072 14.2996 15.3919 14.0703C15.2771 13.8411 14.3565 11.5862 13.973 10.6687C13.5991 9.77573 13.2199 9.89633 12.9372 9.88232C12.6689 9.869 12.3619 9.86629 12.0549 9.86629C11.7481 9.86629 11.2494 9.98079 10.8273 10.4397C10.4055 10.8983 9.21642 12.0065 9.21642 14.2614C9.21642 16.5163 10.8659 18.6947 11.096 19.0004C11.3261 19.3062 14.342 23.9335 18.9595 25.9176C20.0578 26.3901 20.9151 26.6717 21.5838 26.8828C22.6866 27.2315 23.6898 27.1823 24.4831 27.0644C25.3676 26.9327 27.2063 25.956 27.5903 24.886C27.9737 23.8158 27.9737 22.8987 27.8585 22.7074C27.7436 22.5164 27.4366 22.4019 26.9764 22.1724Z" fill="white"/>
</svg>
