<svg width="120" height="28" viewBox="0 0 120 28" fill="none" xmlns="http://www.w3.org/2000/svg">
<g clip-path="url(#clip0)">
<path d="M38.7386 7.46773C39.4219 7.71182 39.9571 8.09535 40.3443 8.61841C40.7315 9.1298 40.9251 9.75162 40.9251 10.4839C40.9251 11.5532 40.5038 12.3784 39.661 12.9596C38.8183 13.5407 37.5998 13.8313 36.0055 13.8313H29.5483V1.6272H35.6638C37.1898 1.6272 38.3514 1.91777 39.1486 2.49892C39.9458 3.06844 40.3443 3.84137 40.3443 4.81769C40.3443 5.39884 40.202 5.92187 39.9173 6.38679C39.6439 6.84009 39.2511 7.20036 38.7386 7.46773ZM32.8965 4.12032V6.47396H35.2196C36.3584 6.47396 36.9279 6.07878 36.9279 5.28842C36.9279 4.50969 36.3584 4.12032 35.2196 4.12032H32.8965ZM35.7321 11.3381C36.9165 11.3381 37.5087 10.9256 37.5087 10.1004C37.5087 9.27512 36.9165 8.8625 35.7321 8.8625H32.8965V11.3381H35.7321Z" fill="#576FFF"/>
<path d="M47.1695 13.9882C46.1787 13.9882 45.2848 13.7789 44.4876 13.3605C43.6905 12.942 43.0641 12.3609 42.6086 11.617C42.1644 10.8732 41.9424 10.0305 41.9424 9.08904C41.9424 8.15924 42.1644 7.32233 42.6086 6.5785C43.0641 5.83463 43.6848 5.25929 44.4705 4.85249C45.2677 4.43406 46.1674 4.22485 47.1695 4.22485C48.1717 4.22485 49.0714 4.43406 49.8685 4.85249C50.6657 5.25929 51.2863 5.83463 51.7305 6.5785C52.1746 7.31073 52.3967 8.14757 52.3967 9.08904C52.3967 10.0305 52.1746 10.8732 51.7305 11.617C51.2863 12.3609 50.6657 12.942 49.8685 13.3605C49.0714 13.7789 48.1717 13.9882 47.1695 13.9882ZM47.1695 11.3555C47.7389 11.3555 48.2058 11.1579 48.5702 10.7628C48.9347 10.356 49.1169 9.79803 49.1169 9.08904C49.1169 8.39165 48.9347 7.84539 48.5702 7.45025C48.2058 7.05504 47.7389 6.85745 47.1695 6.85745C46.6001 6.85745 46.1332 7.05504 45.7688 7.45025C45.4043 7.84539 45.2222 8.39165 45.2222 9.08904C45.2222 9.79803 45.4043 10.356 45.7688 10.7628C46.1332 11.1579 46.6001 11.3555 47.1695 11.3555Z" fill="#576FFF"/>
<path d="M61.8628 11.3554V13.8311H53.3218V11.8784L57.6094 6.83984H53.4413V4.38159H61.692V6.31681L57.4044 11.3554H61.8628Z" fill="#576FFF"/>
<path d="M69.322 4.22499C70.4721 4.22499 71.3949 4.57368 72.089 5.27106C72.7956 5.96843 73.1486 7.02031 73.1486 8.42668V13.8314H69.9028V8.96714C69.9028 7.67701 69.396 7.03193 68.3824 7.03193C67.8245 7.03193 67.3746 7.21791 67.033 7.58984C66.7027 7.96178 66.5376 8.51964 66.5376 9.26351V13.8314H63.292V0.89502H66.5376V5.25362C66.8907 4.91656 67.3063 4.66085 67.7846 4.48651C68.2629 4.31217 68.7754 4.22499 69.322 4.22499Z" fill="#576FFF"/>
<path d="M84.7835 9.12392C84.7835 9.1472 84.7666 9.42029 84.7322 9.94335H78.0017C78.1386 10.4315 78.4003 10.8093 78.7877 11.0766C79.1863 11.3323 79.6817 11.4601 80.274 11.4601C80.7182 11.4601 81.0993 11.3962 81.4186 11.2684C81.7484 11.1405 82.0789 10.9313 82.4094 10.6407L84.1175 12.4539C83.2179 13.4767 81.9021 13.9882 80.1715 13.9882C79.0894 13.9882 78.1386 13.7789 77.3189 13.3605C76.4986 12.942 75.8607 12.3609 75.4052 11.617C74.961 10.8732 74.7393 10.0305 74.7393 9.08904C74.7393 8.15924 74.9554 7.32821 75.3884 6.59593C75.8326 5.85206 76.4417 5.27092 77.2164 4.85249C77.9905 4.43406 78.8621 4.22485 79.8298 4.22485C80.7519 4.22485 81.5891 4.42245 82.3407 4.81762C83.0922 5.20118 83.6845 5.76489 84.1175 6.50876C84.5617 7.24097 84.7835 8.11276 84.7835 9.12392ZM79.8466 6.5785C79.3456 6.5785 78.9245 6.72379 78.5828 7.01436C78.2522 7.30493 78.0417 7.70014 77.9505 8.19992H81.7428C81.6515 7.70014 81.4354 7.30493 81.0936 7.01436C80.7638 6.72379 80.3477 6.5785 79.8466 6.5785Z" fill="#576FFF"/>
<path d="M92.3093 4.22485C93.4594 4.22485 94.3822 4.57354 95.077 5.27092C95.7829 5.96829 96.1359 7.02017 96.1359 8.42654V13.8312H92.8903V8.967C92.8903 7.67686 92.3836 7.03179 91.3703 7.03179C90.8117 7.03179 90.3619 7.21777 90.0201 7.5897C89.6903 7.96164 89.5254 8.5195 89.5254 9.26337V13.8312H86.2798V4.38176H89.371V5.41039C89.7359 5.02684 90.1682 4.73626 90.6693 4.53867C91.171 4.32946 91.717 4.22485 92.3093 4.22485Z" fill="#576FFF"/>
<path d="M102.376 10.5188L101.419 11.5126V13.8314H98.1738V0.89502H101.419V7.67701L104.733 4.3819H108.577L104.733 8.42668L108.902 13.8314H104.972L102.376 10.5188Z" fill="#576FFF"/>
<path d="M114.114 13.9882C113.123 13.9882 112.229 13.7789 111.431 13.3605C110.634 12.942 110.008 12.3609 109.553 11.617C109.109 10.8732 108.886 10.0305 108.886 9.08904C108.886 8.15924 109.109 7.32233 109.553 6.5785C110.008 5.83463 110.629 5.25929 111.415 4.85249C112.212 4.43406 113.111 4.22485 114.114 4.22485C115.116 4.22485 116.015 4.43406 116.813 4.85249C117.61 5.25929 118.231 5.83463 118.675 6.5785C119.119 7.31073 119.341 8.14757 119.341 9.08904C119.341 10.0305 119.119 10.8732 118.675 11.617C118.231 12.3609 117.61 12.942 116.813 13.3605C116.015 13.7789 115.116 13.9882 114.114 13.9882ZM114.114 11.3555C114.683 11.3555 115.15 11.1579 115.514 10.7628C115.879 10.356 116.061 9.79803 116.061 9.08904C116.061 8.39165 115.879 7.84539 115.514 7.45025C115.15 7.05504 114.683 6.85745 114.114 6.85745C113.544 6.85745 113.077 7.05504 112.713 7.45025C112.349 7.84539 112.166 8.39165 112.166 9.08904C112.166 9.79803 112.349 10.356 112.713 10.7628C113.077 11.1579 113.544 11.3555 114.114 11.3555Z" fill="#576FFF"/>
<path d="M34.5861 16.8359V24.4802H33.8997V23.4087C33.6844 23.7728 33.3984 24.0509 33.0418 24.2432C32.6918 24.4355 32.2948 24.5317 31.8507 24.5317C31.3527 24.5317 30.9018 24.4149 30.4981 24.1814C30.0943 23.9479 29.7781 23.6217 29.5492 23.2027C29.3204 22.7837 29.2061 22.3064 29.2061 21.7707C29.2061 21.235 29.3204 20.7577 29.5492 20.3387C29.7781 19.9198 30.0943 19.597 30.4981 19.3703C30.9018 19.1368 31.3527 19.0201 31.8507 19.0201C32.2814 19.0201 32.6683 19.1127 33.0115 19.2982C33.3614 19.4767 33.6474 19.7412 33.8695 20.0915V16.8359H34.5861ZM31.9112 23.8826C32.2814 23.8826 32.6145 23.7968 32.9105 23.6251C33.2134 23.4465 33.4489 23.1959 33.6171 22.8731C33.7921 22.5503 33.8795 22.1828 33.8795 21.7707C33.8795 21.3586 33.7921 20.9912 33.6171 20.6684C33.4489 20.3456 33.2134 20.0983 32.9105 19.9266C32.6145 19.748 32.2814 19.6588 31.9112 19.6588C31.5344 19.6588 31.1945 19.748 30.8917 19.9266C30.5957 20.0983 30.3601 20.3456 30.1851 20.6684C30.0169 20.9912 29.9328 21.3586 29.9328 21.7707C29.9328 22.1828 30.0169 22.5503 30.1851 22.8731C30.3601 23.1959 30.5957 23.4465 30.8917 23.6251C31.1945 23.7968 31.5344 23.8826 31.9112 23.8826Z" fill="#576FFF"/>
<path d="M41.2049 21.9973H36.7635C36.8039 22.5605 37.0159 23.0172 37.3994 23.3675C37.783 23.7109 38.2676 23.8826 38.853 23.8826C39.1827 23.8826 39.4855 23.8242 39.7615 23.7075C40.0374 23.5839 40.2763 23.4052 40.4782 23.1718L40.8819 23.6457C40.6464 23.9341 40.3503 24.1539 39.9936 24.305C39.6437 24.4561 39.2568 24.5316 38.8328 24.5316C38.2877 24.5316 37.8032 24.4149 37.3793 24.1813C36.962 23.941 36.6357 23.6113 36.4001 23.1924C36.1646 22.7734 36.0469 22.2995 36.0469 21.7707C36.0469 21.2418 36.1579 20.7679 36.38 20.349C36.6088 19.93 36.9183 19.6037 37.3086 19.3703C37.7057 19.1368 38.1498 19.02 38.6411 19.02C39.1323 19.02 39.5731 19.1368 39.9634 19.3703C40.3537 19.6037 40.6599 19.93 40.8819 20.349C41.104 20.761 41.215 21.2349 41.215 21.7707L41.2049 21.9973ZM38.6411 19.6484C38.1296 19.6484 37.6989 19.8167 37.349 20.1532C37.0058 20.4829 36.8107 20.9156 36.7635 21.4513H40.5286C40.4815 20.9156 40.283 20.4829 39.933 20.1532C39.5899 19.8167 39.1592 19.6484 38.6411 19.6484Z" fill="#576FFF"/>
<path d="M44.0971 24.5316C43.6664 24.5316 43.2526 24.4698 42.8555 24.3462C42.4652 24.2157 42.159 24.0543 41.937 23.862L42.26 23.2851C42.4821 23.4636 42.7614 23.6113 43.0978 23.728C43.4343 23.838 43.7842 23.8929 44.1476 23.8929C44.6321 23.8929 44.9887 23.8174 45.2176 23.6662C45.4531 23.5083 45.5708 23.2885 45.5708 23.0069C45.5708 22.8078 45.5069 22.6532 45.3791 22.5433C45.2512 22.4266 45.0897 22.3407 44.8946 22.2858C44.6994 22.224 44.4403 22.1656 44.1173 22.1106C43.6866 22.0282 43.34 21.9458 43.0776 21.8634C42.8152 21.7741 42.5897 21.6264 42.4013 21.4204C42.2196 21.2143 42.1288 20.9293 42.1288 20.5653C42.1288 20.112 42.3139 19.7411 42.684 19.4527C43.0541 19.1642 43.5689 19.02 44.2283 19.02C44.5715 19.02 44.9147 19.0681 45.2579 19.1642C45.6012 19.2535 45.8838 19.3737 46.1059 19.5248L45.7929 20.112C45.3555 19.8029 44.834 19.6484 44.2283 19.6484C43.7708 19.6484 43.4242 19.7308 43.1887 19.8957C42.9598 20.0605 42.8454 20.2768 42.8454 20.5447C42.8454 20.7508 42.9094 20.9156 43.0372 21.0392C43.1718 21.1628 43.3367 21.2556 43.5318 21.3174C43.727 21.3723 43.9962 21.4307 44.3394 21.4925C44.7633 21.5749 45.1031 21.6574 45.3588 21.7397C45.6146 21.8222 45.8333 21.963 46.015 22.1622C46.1967 22.3613 46.2875 22.636 46.2875 22.9863C46.2875 23.4602 46.0924 23.838 45.7021 24.1195C45.3185 24.3943 44.7835 24.5316 44.0971 24.5316Z" fill="#576FFF"/>
<path d="M47.6122 19.0612H48.3289V24.4802H47.6122V19.0612ZM47.9756 17.8765C47.8275 17.8765 47.703 17.825 47.6021 17.722C47.5011 17.6189 47.4507 17.4953 47.4507 17.351C47.4507 17.2137 47.5011 17.0935 47.6021 16.9905C47.703 16.8875 47.8275 16.8359 47.9756 16.8359C48.1237 16.8359 48.2482 16.8875 48.3491 16.9905C48.45 17.0867 48.5005 17.2034 48.5005 17.3408C48.5005 17.4919 48.45 17.6189 48.3491 17.722C48.2482 17.825 48.1237 17.8765 47.9756 17.8765Z" fill="#576FFF"/>
<path d="M55.2389 19.0612V23.8208C55.2389 24.7411 55.0168 25.4211 54.5726 25.8606C54.1352 26.307 53.4724 26.5303 52.5842 26.5303C52.0929 26.5303 51.6252 26.4547 51.1811 26.3036C50.7437 26.1594 50.387 25.9568 50.1111 25.6958L50.4745 25.1394C50.7302 25.373 51.0397 25.555 51.4031 25.6855C51.7733 25.816 52.1602 25.8812 52.5639 25.8812C53.2369 25.8812 53.7315 25.7198 54.0477 25.397C54.364 25.0811 54.5222 24.5866 54.5222 23.9135V23.2232C54.3001 23.5667 54.0074 23.8277 53.644 24.0062C53.2874 24.1848 52.8903 24.2741 52.4529 24.2741C51.955 24.2741 51.5007 24.1642 51.0902 23.9444C50.6865 23.7177 50.3668 23.4052 50.1313 23.0069C49.9025 22.6017 49.7881 22.145 49.7881 21.6367C49.7881 21.1285 49.9025 20.6752 50.1313 20.2768C50.3668 19.8785 50.6865 19.5694 51.0902 19.3496C51.494 19.1299 51.9482 19.02 52.4529 19.02C52.9038 19.02 53.3109 19.1127 53.6743 19.2981C54.0377 19.4836 54.3304 19.7514 54.5524 20.1017V19.0612H55.2389ZM52.5236 23.6251C52.9072 23.6251 53.2537 23.5426 53.5632 23.3778C53.8728 23.2061 54.1117 22.9691 54.2799 22.667C54.4549 22.3648 54.5424 22.0214 54.5424 21.6367C54.5424 21.2521 54.4549 20.9121 54.2799 20.6168C54.1117 20.3146 53.8728 20.0811 53.5632 19.9163C53.2604 19.7446 52.9138 19.6587 52.5236 19.6587C52.14 19.6587 51.7934 19.7411 51.4839 19.906C51.1811 20.0708 50.9422 20.3044 50.7672 20.6065C50.599 20.9087 50.5149 21.2521 50.5149 21.6367C50.5149 22.0214 50.599 22.3648 50.7672 22.667C50.9422 22.9691 51.1811 23.2061 51.4839 23.3778C51.7934 23.5426 52.14 23.6251 52.5236 23.6251Z" fill="#576FFF"/>
<path d="M59.9484 19.02C60.6145 19.02 61.1428 19.2191 61.5331 19.6175C61.9301 20.009 62.1286 20.5825 62.1286 21.3379V24.4801H61.4119V21.4101C61.4119 20.8469 61.274 20.4177 60.9981 20.1223C60.7222 19.827 60.3286 19.6793 59.8171 19.6793C59.2451 19.6793 58.7909 19.8545 58.4544 20.2047C58.1247 20.5482 57.9598 21.0254 57.9598 21.6367V24.4801H57.2432V19.0612H57.9296V20.0605C58.1247 19.7308 58.3938 19.4767 58.7371 19.2981C59.087 19.1127 59.4907 19.02 59.9484 19.02Z" fill="#576FFF"/>
<path d="M69.4513 19.02C69.9493 19.02 70.3998 19.1368 70.804 19.3703C71.2076 19.5969 71.524 19.9197 71.7528 20.3387C71.9816 20.7576 72.096 21.2349 72.096 21.7707C72.096 22.3132 71.9816 22.794 71.7528 23.2129C71.524 23.6319 71.2076 23.9582 70.804 24.1917C70.4069 24.4183 69.956 24.5316 69.4513 24.5316C69.0206 24.5316 68.6304 24.4423 68.2804 24.2638C67.9372 24.0783 67.6546 23.8105 67.4325 23.4602V26.4788H66.7158V19.0612H67.4022V20.1326C67.6176 19.7755 67.9002 19.5007 68.2501 19.3084C68.6068 19.1161 69.0072 19.02 69.4513 19.02ZM69.4008 23.8826C69.7709 23.8826 70.1074 23.7967 70.4104 23.6251C70.7128 23.4465 70.9486 23.1958 71.117 22.873C71.2918 22.5502 71.3795 22.1827 71.3795 21.7707C71.3795 21.3586 71.2918 20.9946 71.117 20.6786C70.9486 20.3558 70.7128 20.1052 70.4104 19.9265C70.1074 19.748 69.7709 19.6587 69.4008 19.6587C69.024 19.6587 68.6842 19.748 68.3813 19.9265C68.0852 20.1052 67.8497 20.3558 67.6748 20.6786C67.5065 20.9946 67.4224 21.3586 67.4224 21.7707C67.4224 22.1827 67.5065 22.5502 67.6748 22.873C67.8497 23.1958 68.0852 23.4465 68.3813 23.6251C68.6842 23.7967 69.024 23.8826 69.4008 23.8826Z" fill="#576FFF"/>
<path d="M74.2434 20.1223C74.4119 19.7583 74.6603 19.4836 74.9901 19.2981C75.327 19.1127 75.741 19.02 76.2322 19.02V19.7308L76.0603 19.7206C75.5017 19.7206 75.0645 19.8957 74.748 20.2459C74.4315 20.5962 74.2736 21.0873 74.2736 21.7192V24.4801H73.5571V19.0612H74.2434V20.1223Z" fill="#576FFF"/>
<path d="M79.6506 24.5316C79.139 24.5316 78.6779 24.4149 78.2674 24.1813C77.8569 23.941 77.5341 23.6113 77.299 23.1924C77.0632 22.7734 76.9453 22.2995 76.9453 21.7707C76.9453 21.2418 77.0632 20.7679 77.299 20.349C77.5341 19.93 77.8569 19.6037 78.2674 19.3703C78.6779 19.1368 79.139 19.02 79.6506 19.02C80.1621 19.02 80.6232 19.1368 81.0337 19.3703C81.4442 19.6037 81.7635 19.93 81.9923 20.349C82.2281 20.7679 82.346 21.2418 82.346 21.7707C82.346 22.2995 82.2281 22.7734 81.9923 23.1924C81.7635 23.6113 81.4442 23.941 81.0337 24.1813C80.6232 24.4149 80.1621 24.5316 79.6506 24.5316ZM79.6506 23.8826C80.0274 23.8826 80.3635 23.7967 80.6597 23.6251C80.9628 23.4465 81.1986 23.1958 81.3664 22.873C81.5348 22.5502 81.619 22.1827 81.619 21.7707C81.619 21.3586 81.5348 20.9911 81.3664 20.6683C81.1986 20.3455 80.9628 20.0983 80.6597 19.9265C80.3635 19.748 80.0274 19.6587 79.6506 19.6587C79.2737 19.6587 78.9341 19.748 78.6309 19.9265C78.3348 20.0983 78.0997 20.3455 77.9243 20.6683C77.7565 20.9911 77.6723 21.3586 77.6723 21.7707C77.6723 22.1827 77.7565 22.5502 77.9243 22.873C78.0997 23.1958 78.3348 23.4465 78.6309 23.6251C78.9341 23.7967 79.2737 23.8826 79.6506 23.8826Z" fill="#576FFF"/>
<path d="M90.4301 19.02C91.0968 19.02 91.6182 19.2157 91.995 19.6072C92.3789 19.9987 92.5705 20.5756 92.5705 21.3379V24.4801H91.854V21.4101C91.854 20.8469 91.7192 20.4177 91.4498 20.1223C91.1873 19.827 90.814 19.6793 90.3298 19.6793C89.7775 19.6793 89.3438 19.8545 89.0273 20.2047C88.7108 20.5482 88.5529 21.0254 88.5529 21.6367V24.4801H87.8364V21.4101C87.8364 20.8469 87.7017 20.4177 87.4322 20.1223C87.1698 19.827 86.7929 19.6793 86.3017 19.6793C85.7572 19.6793 85.3228 19.8545 85 20.2047C84.6835 20.5482 84.5256 21.0254 84.5256 21.6367V24.4801H83.8091V19.0612H84.4954V20.0502C84.6835 19.7206 84.9459 19.4664 85.2828 19.2878C85.6189 19.1093 86.0056 19.02 86.4435 19.02C86.8877 19.02 87.2708 19.1161 87.5943 19.3084C87.9235 19.5007 88.1691 19.7858 88.3312 20.1635C88.5263 19.8064 88.8056 19.5283 89.1684 19.3291C89.5389 19.123 89.9593 19.02 90.4301 19.02Z" fill="#576FFF"/>
<path d="M96.7038 24.5316C96.1922 24.5316 95.7312 24.4149 95.3206 24.1813C94.9108 23.941 94.5873 23.6113 94.3522 23.1924C94.1164 22.7734 93.9985 22.2995 93.9985 21.7707C93.9985 21.2418 94.1164 20.7679 94.3522 20.349C94.5873 19.93 94.9108 19.6037 95.3206 19.3703C95.7312 19.1368 96.1922 19.02 96.7038 19.02C97.2154 19.02 97.6764 19.1368 98.087 19.3703C98.4975 19.6037 98.8168 19.93 99.0455 20.349C99.2813 20.7679 99.3992 21.2418 99.3992 21.7707C99.3992 22.2995 99.2813 22.7734 99.0455 23.1924C98.8168 23.6113 98.4975 23.941 98.087 24.1813C97.6764 24.4149 97.2154 24.5316 96.7038 24.5316ZM96.7038 23.8826C97.0806 23.8826 97.4175 23.7967 97.7129 23.6251C98.0161 23.4465 98.2519 23.1958 98.4196 22.873C98.588 22.5502 98.6722 22.1827 98.6722 21.7707C98.6722 21.3586 98.588 20.9911 98.4196 20.6683C98.2519 20.3455 98.0161 20.0983 97.7129 19.9265C97.4175 19.748 97.0806 19.6587 96.7038 19.6587C96.327 19.6587 95.9873 19.748 95.6842 19.9265C95.388 20.0983 95.1529 20.3455 94.9775 20.6683C94.8098 20.9911 94.7255 21.3586 94.7255 21.7707C94.7255 22.1827 94.8098 22.5502 94.9775 22.873C95.1529 23.1958 95.388 23.4465 95.6842 23.6251C95.9873 23.7967 96.327 23.8826 96.7038 23.8826Z" fill="#576FFF"/>
<path d="M103.659 24.1505C103.524 24.2741 103.355 24.3702 103.154 24.4389C102.959 24.5007 102.753 24.5317 102.538 24.5317C102.04 24.5317 101.656 24.3943 101.388 24.1196C101.118 23.8449 100.983 23.4568 100.983 22.9554V19.6793H100.035V19.0612H100.983V17.8765H101.7V19.0612H103.315V19.6793H101.7V22.9142C101.7 23.237 101.778 23.4843 101.932 23.656C102.094 23.8208 102.322 23.9033 102.619 23.9033C102.767 23.9033 102.908 23.8792 103.043 23.8311C103.184 23.783 103.306 23.7144 103.406 23.6251L103.659 24.1505Z" fill="#576FFF"/>
<path d="M104.963 19.0612H105.679V24.4802H104.963V19.0612ZM105.326 17.8765C105.178 17.8765 105.054 17.825 104.953 17.722C104.852 17.6189 104.801 17.4953 104.801 17.351C104.801 17.2137 104.852 17.0935 104.953 16.9905C105.054 16.8875 105.178 16.8359 105.326 16.8359C105.474 16.8359 105.598 16.8875 105.7 16.9905C105.801 17.0867 105.851 17.2034 105.851 17.3408C105.851 17.4919 105.801 17.6189 105.7 17.722C105.598 17.825 105.474 17.8765 105.326 17.8765Z" fill="#576FFF"/>
<path d="M109.844 24.5316C109.333 24.5316 108.872 24.4149 108.461 24.1813C108.051 23.941 107.728 23.6113 107.492 23.1924C107.256 22.7734 107.139 22.2995 107.139 21.7707C107.139 21.2418 107.256 20.7679 107.492 20.349C107.728 19.93 108.051 19.6037 108.461 19.3703C108.872 19.1368 109.333 19.02 109.844 19.02C110.355 19.02 110.816 19.1368 111.227 19.3703C111.637 19.6037 111.957 19.93 112.186 20.349C112.421 20.7679 112.539 21.2418 112.539 21.7707C112.539 22.2995 112.421 22.7734 112.186 23.1924C111.957 23.6113 111.637 23.941 111.227 24.1813C110.816 24.4149 110.355 24.5316 109.844 24.5316ZM109.844 23.8826C110.221 23.8826 110.557 23.7967 110.854 23.6251C111.156 23.4465 111.392 23.1958 111.56 22.873C111.729 22.5502 111.812 22.1827 111.812 21.7707C111.812 21.3586 111.729 20.9911 111.56 20.6683C111.392 20.3455 111.156 20.0983 110.854 19.9265C110.557 19.748 110.221 19.6587 109.844 19.6587C109.468 19.6587 109.127 19.748 108.825 19.9265C108.529 20.0983 108.293 20.3455 108.118 20.6683C107.95 20.9911 107.865 21.3586 107.865 21.7707C107.865 22.1827 107.95 22.5502 108.118 22.873C108.293 23.1958 108.529 23.4465 108.825 23.6251C109.127 23.7967 109.468 23.8826 109.844 23.8826Z" fill="#576FFF"/>
<path d="M116.707 19.02C117.373 19.02 117.902 19.2191 118.292 19.6175C118.689 20.009 118.888 20.5825 118.888 21.3379V24.4801H118.171V21.4101C118.171 20.8469 118.033 20.4177 117.757 20.1223C117.481 19.827 117.088 19.6793 116.576 19.6793C116.004 19.6793 115.55 19.8545 115.213 20.2047C114.883 20.5482 114.718 21.0254 114.718 21.6367V24.4801H114.002V19.0612H114.688V20.0605C114.883 19.7308 115.153 19.4767 115.496 19.2981C115.846 19.1127 116.25 19.02 116.707 19.02Z" fill="#576FFF"/>
<path fill-rule="evenodd" clip-rule="evenodd" d="M0 0H11.1495C15.6858 0 19.3631 3.75314 19.3631 8.3829C19.3631 8.71472 19.3441 9.04211 19.3074 9.36384C21.594 11.1919 23.0634 14.0358 23.0634 17.2301C23.0634 22.7454 18.6827 27.2165 13.2787 27.2165H0V14.0169H11.1495C13.4126 14.0169 15.3577 12.6269 16.2098 10.6379C15.3164 10.2234 14.324 9.99261 13.2787 9.99261H0V0ZM16.6454 7.85053C16.3826 4.98864 14.0223 2.74889 11.1495 2.74889H2.69335V7.24367H13.2787C14.4618 7.24367 15.5956 7.45796 16.6454 7.85053ZM18.4337 12.26C17.0625 14.938 14.3152 16.7658 11.1495 16.7658H2.69335V24.4676H13.2787C17.1952 24.4676 20.37 21.2273 20.37 17.2301C20.37 15.3056 19.634 13.5565 18.4337 12.26Z" fill="#576FFF"/>
</g>
<defs>
<clipPath id="clip0">
<rect width="120" height="27.2165" fill="white"/>
</clipPath>
</defs>
</svg>
