<svg width="24" height="24" viewBox="0 0 24 24" fill="none" xmlns="http://www.w3.org/2000/svg">
<path d="M12 1C7.45012 1 3.75 4.70012 3.75 9.25C3.75 14.9686 11.197 22.4816 11.5132 22.7992C11.648 22.9326 11.824 23 12 23C12.176 23 12.352 22.9326 12.4867 22.7992C12.803 22.4816 20.25 14.9686 20.25 9.25C20.25 4.70012 16.5499 1 12 1ZM12 21.3184C10.3583 19.5611 5.125 13.6184 5.125 9.25C5.125 5.45913 8.20913 2.375 12 2.375C15.7909 2.375 18.875 5.45913 18.875 9.25C18.875 13.6143 13.6418 19.5611 12 21.3184Z" fill="#EDCF73"/>
<path d="M12 5.125C9.72575 5.125 7.875 6.97575 7.875 9.25C7.875 11.5243 9.72575 13.375 12 13.375C14.2743 13.375 16.125 11.5243 16.125 9.25C16.125 6.97575 14.2743 5.125 12 5.125ZM12 12C10.4834 12 9.25 10.7666 9.25 9.25C9.25 7.73337 10.4834 6.5 12 6.5C13.5166 6.5 14.75 7.73337 14.75 9.25C14.75 10.7666 13.5166 12 12 12Z" fill="#EDCF73"/>
</svg>
