<svg width="31" height="31" viewBox="0 0 31 31" fill="none" xmlns="http://www.w3.org/2000/svg">
<path d="M17.217 29.1765H13.101C12.4135 29.1765 11.8542 28.6012 11.8542 27.8939V18.3432H9.45282C8.76532 18.3432 8.20605 17.7677 8.20605 17.0606V12.9681C8.20605 12.2608 8.76532 11.6855 9.45282 11.6855H11.8542V9.63614C11.8542 7.60411 12.4744 5.87528 13.6477 4.63686C14.8262 3.39279 16.4732 2.73535 18.4106 2.73535L21.5497 2.7406C22.236 2.74181 22.7943 3.31714 22.7943 4.0232V7.82299C22.7943 8.53025 22.2352 9.10559 21.5479 9.10559L19.4344 9.10639C18.7898 9.10639 18.6257 9.23933 18.5906 9.28008C18.5328 9.34766 18.4639 9.5387 18.4639 10.0662V11.6853H21.3891C21.6093 11.6853 21.8226 11.7412 22.006 11.8465C22.4015 12.0738 22.6474 12.5037 22.6474 12.9683L22.6458 17.0608C22.6458 17.7677 22.0866 18.343 21.3991 18.343H18.4639V27.8939C18.4639 28.6012 17.9045 29.1765 17.217 29.1765ZM13.361 27.6264H16.957V17.6493C16.957 17.177 17.3305 16.7929 17.7894 16.7929H21.1391L21.1404 13.2356H17.7892C17.3303 13.2356 16.957 12.8515 16.957 12.3793V10.0662C16.957 9.46063 17.0168 8.77192 17.4611 8.25429C17.998 7.62852 18.8442 7.5563 19.434 7.5563L21.2875 7.55549V4.29029L18.4094 4.28545C15.2958 4.28545 13.361 6.33583 13.361 9.63614V12.3793C13.361 12.8513 12.9876 13.2356 12.5288 13.2356H9.71284V16.7929H12.5288C12.9876 16.7929 13.361 17.177 13.361 17.6493V27.6264ZM21.5467 4.29069H21.5469H21.5467Z" fill="#5C51C8"/>
</svg>
