<svg width="34" height="34" viewBox="0 0 34 34" fill="none" xmlns="http://www.w3.org/2000/svg">
<path d="M27.625 5.3125H6.375C5.7882 5.3125 5.3125 5.7882 5.3125 6.375V27.625C5.3125 28.2118 5.7882 28.6875 6.375 28.6875H27.625C28.2118 28.6875 28.6875 28.2118 28.6875 27.625V6.375C28.6875 5.7882 28.2118 5.3125 27.625 5.3125Z" stroke="#5C51C8" stroke-width="1.7" stroke-linecap="round" stroke-linejoin="round"/>
<path d="M15.9375 14.875V23.375" stroke="#5C51C8" stroke-width="1.7" stroke-linecap="round" stroke-linejoin="round"/>
<path d="M11.6875 14.875V23.375" stroke="#5C51C8" stroke-width="1.7" stroke-linecap="round" stroke-linejoin="round"/>
<path d="M15.9375 18.5938C15.9375 17.6075 16.3293 16.6616 17.0267 15.9642C17.7241 15.2668 18.67 14.875 19.6562 14.875C20.6425 14.875 21.5884 15.2668 22.2858 15.9642C22.9832 16.6616 23.375 17.6075 23.375 18.5938V23.375" stroke="#5C51C8" stroke-width="1.7" stroke-linecap="round" stroke-linejoin="round"/>
<path d="M11.6875 12.2188C12.5677 12.2188 13.2812 11.5052 13.2812 10.625C13.2812 9.7448 12.5677 9.03125 11.6875 9.03125C10.8073 9.03125 10.0938 9.7448 10.0938 10.625C10.0938 11.5052 10.8073 12.2188 11.6875 12.2188Z" fill="#5C51C8"/>
</svg>
