<svg width="204" height="61" viewBox="0 0 204 61" fill="none" xmlns="http://www.w3.org/2000/svg">
<g filter="url(#filter0_d)">
<path d="M63.78 27C63.6413 27 63.5113 26.948 63.39 26.844C63.286 26.7227 63.234 26.5927 63.234 26.454C63.234 26.35 63.2427 26.272 63.26 26.22L69.37 9.528C69.422 9.32 69.5347 9.14667 69.708 9.008C69.8813 8.86933 70.1067 8.8 70.384 8.8H74.232C74.5093 8.8 74.7347 8.86933 74.908 9.008C75.0813 9.14667 75.194 9.32 75.246 9.528L81.33 26.22L81.382 26.454C81.382 26.5927 81.3213 26.7227 81.2 26.844C81.096 26.948 80.966 27 80.81 27H77.612C77.196 27 76.9187 26.818 76.78 26.454L75.766 23.802H68.824L67.836 26.454C67.6973 26.818 67.4113 27 66.978 27H63.78ZM74.726 20.058L72.308 13.194L69.89 20.058H74.726ZM84.0553 27C83.882 27 83.726 26.9393 83.5873 26.818C83.466 26.6793 83.4053 26.5233 83.4053 26.35V9.19C83.4053 8.99933 83.466 8.84333 83.5873 8.722C83.726 8.60067 83.882 8.54 84.0553 8.54H87.1233C87.314 8.54 87.47 8.60067 87.5913 8.722C87.7127 8.84333 87.7733 8.99933 87.7733 9.19V26.35C87.7733 26.5407 87.7127 26.6967 87.5913 26.818C87.47 26.9393 87.314 27 87.1233 27H84.0553ZM91.7548 27C91.5814 27 91.4254 26.9393 91.2868 26.818C91.1654 26.6793 91.1048 26.5233 91.1048 26.35V9.19C91.1048 8.99933 91.1654 8.84333 91.2868 8.722C91.4254 8.60067 91.5814 8.54 91.7548 8.54H94.8228C95.0134 8.54 95.1694 8.60067 95.2908 8.722C95.4121 8.84333 95.4728 8.99933 95.4728 9.19V26.35C95.4728 26.5407 95.4121 26.6967 95.2908 26.818C95.1694 26.9393 95.0134 27 94.8228 27H91.7548ZM65.47 48C65.2967 48 65.1407 47.9393 65.002 47.818C64.8807 47.6793 64.82 47.5233 64.82 47.35V30.45C64.82 30.2593 64.8807 30.1033 65.002 29.982C65.1407 29.8607 65.2967 29.8 65.47 29.8H72.75C74.9687 29.8 76.7107 30.3113 77.976 31.334C79.2587 32.3567 79.9 33.8473 79.9 35.806C79.9 37.7473 79.2673 39.212 78.002 40.2C76.7367 41.1707 74.986 41.656 72.75 41.656H69.656V47.35C69.656 47.5407 69.5867 47.6967 69.448 47.818C69.3267 47.9393 69.1707 48 68.98 48H65.47ZM72.62 38.068C73.3827 38.068 73.9807 37.8773 74.414 37.496C74.8473 37.0973 75.064 36.5167 75.064 35.754C75.064 35.0433 74.856 34.48 74.44 34.064C74.0413 33.6307 73.4347 33.414 72.62 33.414H69.578V38.068H72.62ZM86.1156 48.26C85.197 48.26 84.3563 48.0867 83.5936 47.74C82.8483 47.376 82.259 46.8907 81.8256 46.284C81.4096 45.66 81.2016 44.9753 81.2016 44.23C81.2016 43.034 81.687 42.072 82.6576 41.344C83.6456 40.616 84.9976 40.1133 86.7136 39.836L89.9636 39.342V38.978C89.9636 38.3193 89.825 37.834 89.5476 37.522C89.2703 37.21 88.8023 37.054 88.1436 37.054C87.745 37.054 87.4156 37.1233 87.1556 37.262C86.8956 37.4007 86.627 37.5913 86.3496 37.834C86.107 38.042 85.925 38.1807 85.8036 38.25C85.7516 38.3887 85.6563 38.458 85.5176 38.458H82.6836C82.5103 38.458 82.363 38.406 82.2416 38.302C82.1376 38.1807 82.0943 38.042 82.1116 37.886C82.129 37.418 82.3543 36.898 82.7876 36.326C83.2383 35.754 83.9143 35.26 84.8156 34.844C85.7343 34.428 86.861 34.22 88.1956 34.22C90.3276 34.22 91.905 34.6967 92.9276 35.65C93.9503 36.586 94.4616 37.8513 94.4616 39.446V47.35C94.4616 47.5233 94.401 47.6793 94.2796 47.818C94.1583 47.9393 94.0023 48 93.8116 48H90.7956C90.6223 48 90.4663 47.9393 90.3276 47.818C90.2063 47.6793 90.1456 47.5233 90.1456 47.35V46.44C89.7643 46.9773 89.227 47.4193 88.5336 47.766C87.8576 48.0953 87.0516 48.26 86.1156 48.26ZM87.3376 45.296C88.135 45.296 88.7763 45.036 89.2616 44.516C89.7643 43.996 90.0156 43.2333 90.0156 42.228V41.864L87.8056 42.254C86.2456 42.5313 85.4656 43.0773 85.4656 43.892C85.4656 44.3253 85.6476 44.672 86.0116 44.932C86.3756 45.1747 86.8176 45.296 87.3376 45.296ZM99.7459 52.94C99.5899 52.94 99.4599 52.888 99.3559 52.784C99.2519 52.68 99.1999 52.55 99.1999 52.394C99.1999 52.2727 99.2259 52.16 99.2779 52.056L101.306 47.168L96.3139 35.364C96.2619 35.2253 96.2359 35.1213 96.2359 35.052C96.2706 34.896 96.3399 34.766 96.4439 34.662C96.5479 34.5407 96.6779 34.48 96.8339 34.48H99.7979C100.162 34.48 100.413 34.662 100.552 35.026L103.516 42.592L106.558 35.026C106.731 34.662 106.991 34.48 107.338 34.48H110.25C110.406 34.48 110.536 34.5407 110.64 34.662C110.761 34.766 110.822 34.8873 110.822 35.026C110.822 35.0953 110.796 35.208 110.744 35.364L103.386 52.394C103.247 52.758 102.987 52.94 102.606 52.94H99.7459ZM113.648 48C113.457 48 113.301 47.9393 113.18 47.818C113.058 47.6967 112.998 47.5407 112.998 47.35V35.13C112.998 34.9393 113.058 34.7833 113.18 34.662C113.301 34.5407 113.457 34.48 113.648 34.48H116.482C116.672 34.48 116.828 34.5407 116.95 34.662C117.071 34.7833 117.132 34.9393 117.132 35.13V36.014C117.53 35.494 118.059 35.0693 118.718 34.74C119.394 34.3933 120.148 34.22 120.98 34.22C122.886 34.22 124.204 34.9653 124.932 36.456C125.348 35.7973 125.928 35.26 126.674 34.844C127.419 34.428 128.216 34.22 129.066 34.22C130.487 34.22 131.64 34.7053 132.524 35.676C133.425 36.6293 133.876 38.0593 133.876 39.966V47.35C133.876 47.5233 133.815 47.6793 133.694 47.818C133.572 47.9393 133.416 48 133.226 48H130.21C130.019 48 129.854 47.9393 129.716 47.818C129.594 47.6967 129.534 47.5407 129.534 47.35V40.148C129.534 39.2813 129.352 38.6573 128.988 38.276C128.641 37.8947 128.164 37.704 127.558 37.704C127.003 37.704 126.544 37.9033 126.18 38.302C125.816 38.6833 125.634 39.2987 125.634 40.148V47.35C125.634 47.5233 125.573 47.6793 125.452 47.818C125.33 47.9393 125.174 48 124.984 48H121.968C121.777 48 121.621 47.9393 121.5 47.818C121.378 47.6967 121.318 47.5407 121.318 47.35V40.148C121.318 39.2987 121.127 38.6833 120.746 38.302C120.382 37.9033 119.914 37.704 119.342 37.704C118.787 37.704 118.319 37.9033 117.938 38.302C117.574 38.6833 117.392 39.29 117.392 40.122V47.35C117.392 47.5233 117.331 47.6793 117.21 47.818C117.088 47.9393 116.932 48 116.742 48H113.648ZM143.314 48.26C141.234 48.26 139.596 47.6967 138.4 46.57C137.204 45.4433 136.58 43.8053 136.528 41.656V40.746C136.597 38.7007 137.23 37.106 138.426 35.962C139.639 34.8007 141.26 34.22 143.288 34.22C144.761 34.22 146.001 34.5233 147.006 35.13C148.029 35.7193 148.791 36.534 149.294 37.574C149.814 38.614 150.074 39.81 150.074 41.162V41.786C150.074 41.9593 150.013 42.1153 149.892 42.254C149.771 42.3753 149.615 42.436 149.424 42.436H141.104V42.618C141.139 43.4327 141.338 44.0913 141.702 44.594C142.066 45.0967 142.595 45.348 143.288 45.348C143.721 45.348 144.077 45.2613 144.354 45.088C144.631 44.8973 144.883 44.672 145.108 44.412C145.264 44.2213 145.385 44.1087 145.472 44.074C145.576 44.022 145.732 43.996 145.94 43.996H149.164C149.32 43.996 149.45 44.048 149.554 44.152C149.675 44.2387 149.736 44.36 149.736 44.516C149.736 44.9667 149.476 45.4867 148.956 46.076C148.453 46.6653 147.717 47.1767 146.746 47.61C145.775 48.0433 144.631 48.26 143.314 48.26ZM145.498 39.862V39.81C145.498 38.9607 145.299 38.2933 144.9 37.808C144.519 37.3053 143.981 37.054 143.288 37.054C142.612 37.054 142.075 37.3053 141.676 37.808C141.295 38.2933 141.104 38.9607 141.104 39.81V39.862H145.498ZM153.422 48C153.231 48 153.075 47.9393 152.954 47.818C152.832 47.6967 152.772 47.5407 152.772 47.35V35.13C152.772 34.9393 152.832 34.7833 152.954 34.662C153.075 34.5407 153.231 34.48 153.422 34.48H156.412C156.602 34.48 156.758 34.5407 156.88 34.662C157.018 34.7833 157.088 34.9393 157.088 35.13V36.118C157.556 35.546 158.154 35.0867 158.882 34.74C159.627 34.3933 160.468 34.22 161.404 34.22C162.929 34.22 164.168 34.74 165.122 35.78C166.075 36.8027 166.552 38.2413 166.552 40.096V47.35C166.552 47.5233 166.491 47.6793 166.37 47.818C166.248 47.9393 166.092 48 165.902 48H162.626C162.452 48 162.296 47.9393 162.158 47.818C162.036 47.6793 161.976 47.5233 161.976 47.35V40.252C161.976 39.4373 161.776 38.8133 161.378 38.38C160.979 37.9293 160.407 37.704 159.662 37.704C158.934 37.704 158.362 37.9293 157.946 38.38C157.53 38.8133 157.322 39.4373 157.322 40.252V47.35C157.322 47.5233 157.261 47.6793 157.14 47.818C157.018 47.9393 156.862 48 156.672 48H153.422ZM176.502 48C172.914 48 171.12 46.2927 171.12 42.878V37.886H169.092C168.902 37.886 168.737 37.8253 168.598 37.704C168.477 37.5827 168.416 37.4267 168.416 37.236V35.13C168.416 34.9393 168.477 34.7833 168.598 34.662C168.737 34.5407 168.902 34.48 169.092 34.48H171.12V30.19C171.12 29.9993 171.181 29.8433 171.302 29.722C171.441 29.6007 171.597 29.54 171.77 29.54H174.786C174.977 29.54 175.133 29.6007 175.254 29.722C175.376 29.8433 175.436 29.9993 175.436 30.19V34.48H178.686C178.877 34.48 179.033 34.5407 179.154 34.662C179.293 34.7833 179.362 34.9393 179.362 35.13V37.236C179.362 37.4267 179.293 37.5827 179.154 37.704C179.033 37.8253 178.877 37.886 178.686 37.886H175.436V42.514C175.436 43.7967 175.93 44.438 176.918 44.438H178.92C179.111 44.438 179.267 44.4987 179.388 44.62C179.51 44.7413 179.57 44.8973 179.57 45.088V47.35C179.57 47.5233 179.51 47.6793 179.388 47.818C179.267 47.9393 179.111 48 178.92 48H176.502ZM187.547 48.26C186.143 48.26 184.964 48.0607 184.011 47.662C183.075 47.2633 182.382 46.7867 181.931 46.232C181.48 45.6773 181.255 45.1833 181.255 44.75C181.255 44.5767 181.316 44.438 181.437 44.334C181.576 44.2127 181.723 44.152 181.879 44.152H184.843C184.947 44.152 185.042 44.1953 185.129 44.282C185.337 44.4207 185.493 44.5333 185.597 44.62C185.978 44.8973 186.308 45.1053 186.585 45.244C186.88 45.3653 187.235 45.426 187.651 45.426C188.154 45.426 188.561 45.3307 188.873 45.14C189.202 44.932 189.367 44.646 189.367 44.282C189.367 43.9873 189.28 43.7533 189.107 43.58C188.951 43.4067 188.639 43.242 188.171 43.086C187.703 42.9127 186.992 42.7307 186.039 42.54C184.6 42.2453 183.491 41.7687 182.711 41.11C181.948 40.434 181.567 39.5327 181.567 38.406C181.567 37.6953 181.792 37.0193 182.243 36.378C182.694 35.7367 183.361 35.2167 184.245 34.818C185.146 34.4193 186.212 34.22 187.443 34.22C188.674 34.22 189.748 34.4107 190.667 34.792C191.586 35.1733 192.279 35.6413 192.747 36.196C193.232 36.7333 193.475 37.2273 193.475 37.678C193.475 37.834 193.414 37.9727 193.293 38.094C193.189 38.2153 193.059 38.276 192.903 38.276H190.199C190.06 38.276 189.93 38.2327 189.809 38.146C189.584 38.0247 189.384 37.8947 189.211 37.756C188.916 37.5307 188.639 37.3573 188.379 37.236C188.119 37.1147 187.798 37.054 187.417 37.054C186.966 37.054 186.602 37.158 186.325 37.366C186.065 37.574 185.935 37.8427 185.935 38.172C185.935 38.432 186.004 38.6487 186.143 38.822C186.299 38.9953 186.611 39.1687 187.079 39.342C187.564 39.498 188.275 39.6627 189.211 39.836C190.892 40.1307 192.114 40.6507 192.877 41.396C193.657 42.1413 194.047 43.0167 194.047 44.022C194.047 45.3047 193.475 46.336 192.331 47.116C191.187 47.8787 189.592 48.26 187.547 48.26Z" fill="#576FFF"/>
<path d="M63.39 26.844L63.0104 27.1694L63.0354 27.1986L63.0646 27.2236L63.39 26.844ZM63.26 26.22L62.7905 26.0481L62.788 26.055L62.7857 26.0619L63.26 26.22ZM69.37 9.528L69.8395 9.69987L69.8486 9.67498L69.8551 9.64927L69.37 9.528ZM69.708 9.008L70.0203 9.39843L70.0203 9.39843L69.708 9.008ZM74.908 9.008L75.2203 8.61757L75.2203 8.61756L74.908 9.008ZM75.246 9.528L74.7609 9.64927L74.7673 9.67464L74.7762 9.69922L75.246 9.528ZM81.33 26.22L81.8181 26.1115L81.811 26.0796L81.7998 26.0488L81.33 26.22ZM81.382 26.454H81.882V26.3991L81.8701 26.3455L81.382 26.454ZM81.2 26.844L81.5536 27.1976L81.5536 27.1976L81.2 26.844ZM76.78 26.454L77.2472 26.276L77.247 26.2754L76.78 26.454ZM75.766 23.802L76.233 23.6234L76.1101 23.302H75.766V23.802ZM68.824 23.802V23.302H68.4767L68.3555 23.6274L68.824 23.802ZM67.836 26.454L68.3033 26.632L68.3045 26.6286L67.836 26.454ZM74.726 20.058V20.558H75.4323L75.1976 19.8919L74.726 20.058ZM72.308 13.194L72.7796 13.0279L72.308 11.6892L71.8364 13.0279L72.308 13.194ZM69.89 20.058L69.4184 19.8919L69.1837 20.558H69.89V20.058ZM63.78 26.5C63.7786 26.5 63.7607 26.5032 63.7154 26.4644L63.0646 27.2236C63.2619 27.3928 63.504 27.5 63.78 27.5V26.5ZM63.7696 26.5186C63.7308 26.4733 63.734 26.4554 63.734 26.454H62.734C62.734 26.73 62.8412 26.9721 63.0104 27.1694L63.7696 26.5186ZM63.734 26.454C63.734 26.4149 63.7357 26.3886 63.7374 26.3727C63.7383 26.3651 63.739 26.3617 63.7389 26.3619C63.7389 26.362 63.7378 26.3679 63.7343 26.3781L62.7857 26.0619C62.7423 26.1921 62.734 26.3354 62.734 26.454H63.734ZM63.7295 26.3919L69.8395 9.69987L68.9005 9.35613L62.7905 26.0481L63.7295 26.3919ZM69.8551 9.64927C69.8795 9.55144 69.9293 9.47131 70.0203 9.39843L69.3957 8.61756C69.1401 8.82203 68.9645 9.08855 68.8849 9.40673L69.8551 9.64927ZM70.0203 9.39843C70.0848 9.34689 70.1912 9.3 70.384 9.3V8.3C70.0221 8.3 69.6779 8.39177 69.3957 8.61757L70.0203 9.39843ZM70.384 9.3H74.232V8.3H70.384V9.3ZM74.232 9.3C74.4248 9.3 74.5312 9.34689 74.5957 9.39843L75.2203 8.61756C74.9381 8.39177 74.5939 8.3 74.232 8.3V9.3ZM74.5957 9.39843C74.6867 9.47131 74.7365 9.55144 74.7609 9.64927L75.7311 9.40673C75.6515 9.08855 75.4759 8.82203 75.2203 8.61757L74.5957 9.39843ZM74.7762 9.69922L80.8602 26.3912L81.7998 26.0488L75.7158 9.35677L74.7762 9.69922ZM80.8419 26.3285L80.8939 26.5625L81.8701 26.3455L81.8181 26.1115L80.8419 26.3285ZM80.882 26.454C80.882 26.4519 80.8823 26.4491 80.8829 26.4462C80.8835 26.4435 80.8841 26.4426 80.8834 26.4441C80.882 26.447 80.8738 26.4631 80.8464 26.4904L81.5536 27.1976C81.7451 27.006 81.882 26.7553 81.882 26.454H80.882ZM80.8464 26.4904C80.8427 26.4942 80.8404 26.4958 80.8398 26.4962C80.8392 26.4966 80.839 26.4967 80.8388 26.4968C80.8385 26.4969 80.8368 26.4976 80.8327 26.4983C80.8285 26.4991 80.8212 26.5 80.81 26.5V27.5C81.0897 27.5 81.3497 27.4015 81.5536 27.1976L80.8464 26.4904ZM80.81 26.5H77.612V27.5H80.81V26.5ZM77.612 26.5C77.4767 26.5 77.405 26.4709 77.3663 26.4455C77.3302 26.4218 77.2859 26.3773 77.2472 26.276L76.3128 26.632C76.4128 26.8946 76.5765 27.1232 76.8177 27.2815C77.0563 27.4381 77.3313 27.5 77.612 27.5V26.5ZM77.247 26.2754L76.233 23.6234L75.299 23.9806L76.313 26.6326L77.247 26.2754ZM75.766 23.302H68.824V24.302H75.766V23.302ZM68.3555 23.6274L67.3675 26.2794L68.3045 26.6286L69.2925 23.9766L68.3555 23.6274ZM67.3688 26.276C67.3318 26.3731 67.2881 26.4168 67.2491 26.4417C67.2058 26.4692 67.1258 26.5 66.978 26.5V27.5C67.2636 27.5 67.5432 27.4398 67.7859 27.2853C68.0329 27.1282 68.2015 26.8989 68.3032 26.632L67.3688 26.276ZM66.978 26.5H63.78V27.5H66.978V26.5ZM75.1976 19.8919L72.7796 13.0279L71.8364 13.3601L74.2544 20.2241L75.1976 19.8919ZM71.8364 13.0279L69.4184 19.8919L70.3616 20.2241L72.7796 13.3601L71.8364 13.0279ZM69.89 20.558H74.726V19.558H69.89V20.558ZM83.5873 26.818L83.211 27.1473L83.233 27.1723L83.2581 27.1943L83.5873 26.818ZM83.5873 8.722L83.2581 8.34571L83.2455 8.35667L83.2338 8.36845L83.5873 8.722ZM87.5913 8.722L87.2378 9.07555L87.2378 9.07555L87.5913 8.722ZM84.0553 26.5C84.0112 26.5 83.9703 26.4888 83.9166 26.4417L83.2581 27.1943C83.4816 27.3899 83.7528 27.5 84.0553 27.5V26.5ZM83.9636 26.4887C83.9166 26.435 83.9053 26.3942 83.9053 26.35H82.9053C82.9053 26.6525 83.0154 26.9237 83.211 27.1473L83.9636 26.4887ZM83.9053 26.35V9.19H82.9053V26.35H83.9053ZM83.9053 9.19C83.9053 9.11579 83.9242 9.09228 83.9409 9.07555L83.2338 8.36845C83.0078 8.59438 82.9053 8.88287 82.9053 9.19H83.9053ZM83.9166 9.09829C83.9703 9.05124 84.0112 9.04 84.0553 9.04V8.04C83.7528 8.04 83.4816 8.15009 83.2581 8.34571L83.9166 9.09829ZM84.0553 9.04H87.1233V8.04H84.0553V9.04ZM87.1233 9.04C87.1975 9.04 87.221 9.05882 87.2378 9.07555L87.9449 8.36845C87.7189 8.14251 87.4305 8.04 87.1233 8.04V9.04ZM87.2378 9.07555C87.2545 9.09228 87.2733 9.11579 87.2733 9.19H88.2733C88.2733 8.88287 88.1708 8.59438 87.9449 8.36845L87.2378 9.07555ZM87.2733 9.19V26.35H88.2733V9.19H87.2733ZM87.2733 26.35C87.2733 26.4242 87.2545 26.4477 87.2378 26.4644L87.9449 27.1716C88.1708 26.9456 88.2733 26.6571 88.2733 26.35H87.2733ZM87.2378 26.4644C87.221 26.4812 87.1975 26.5 87.1233 26.5V27.5C87.4305 27.5 87.7189 27.3975 87.9449 27.1716L87.2378 26.4644ZM87.1233 26.5H84.0553V27.5H87.1233V26.5ZM91.2868 26.818L90.9105 27.1473L90.9324 27.1723L90.9575 27.1943L91.2868 26.818ZM91.2868 8.722L90.9575 8.34571L90.945 8.35667L90.9332 8.36845L91.2868 8.722ZM95.2908 8.722L94.9372 9.07555L94.9372 9.07555L95.2908 8.722ZM91.7548 26.5C91.7106 26.5 91.6698 26.4888 91.616 26.4417L90.9575 27.1943C91.1811 27.3899 91.4523 27.5 91.7548 27.5V26.5ZM91.6631 26.4887C91.616 26.435 91.6048 26.3942 91.6048 26.35H90.6048C90.6048 26.6525 90.7149 26.9237 90.9105 27.1473L91.6631 26.4887ZM91.6048 26.35V9.19H90.6048V26.35H91.6048ZM91.6048 9.19C91.6048 9.11579 91.6236 9.09228 91.6403 9.07555L90.9332 8.36845C90.7073 8.59438 90.6048 8.88287 90.6048 9.19H91.6048ZM91.616 9.09829C91.6698 9.05124 91.7106 9.04 91.7548 9.04V8.04C91.4523 8.04 91.1811 8.15009 90.9575 8.34571L91.616 9.09829ZM91.7548 9.04H94.8228V8.04H91.7548V9.04ZM94.8228 9.04C94.897 9.04 94.9205 9.05882 94.9372 9.07555L95.6443 8.36845C95.4184 8.14251 95.1299 8.04 94.8228 8.04V9.04ZM94.9372 9.07555C94.954 9.09228 94.9728 9.11579 94.9728 9.19H95.9728C95.9728 8.88287 95.8703 8.59438 95.6443 8.36845L94.9372 9.07555ZM94.9728 9.19V26.35H95.9728V9.19H94.9728ZM94.9728 26.35C94.9728 26.4242 94.954 26.4477 94.9372 26.4644L95.6443 27.1716C95.8703 26.9456 95.9728 26.6571 95.9728 26.35H94.9728ZM94.9372 26.4644C94.9205 26.4812 94.897 26.5 94.8228 26.5V27.5C95.1299 27.5 95.4184 27.3975 95.6443 27.1716L94.9372 26.4644ZM94.8228 26.5H91.7548V27.5H94.8228V26.5ZM65.002 47.818L64.6257 48.1473L64.6477 48.1723L64.6727 48.1943L65.002 47.818ZM65.002 29.982L64.6727 29.6057L64.6602 29.6167L64.6484 29.6284L65.002 29.982ZM77.976 31.334L77.6617 31.7229L77.6643 31.7249L77.976 31.334ZM78.002 40.2L78.3063 40.5967L78.3097 40.5941L78.002 40.2ZM69.656 41.656V41.156H69.156V41.656H69.656ZM69.448 47.818L69.1187 47.4417L69.1062 47.4527L69.0944 47.4644L69.448 47.818ZM74.414 37.496L74.7444 37.8714L74.7525 37.864L74.414 37.496ZM74.44 34.064L74.072 34.4025L74.0791 34.4102L74.0864 34.4176L74.44 34.064ZM69.578 33.414V32.914H69.078V33.414H69.578ZM69.578 38.068H69.078V38.568H69.578V38.068ZM65.47 47.5C65.4258 47.5 65.385 47.4888 65.3313 47.4417L64.6727 48.1943C64.8963 48.3899 65.1675 48.5 65.47 48.5V47.5ZM65.3783 47.4887C65.3312 47.435 65.32 47.3942 65.32 47.35H64.32C64.32 47.6525 64.4301 47.9237 64.6257 48.1473L65.3783 47.4887ZM65.32 47.35V30.45H64.32V47.35H65.32ZM65.32 30.45C65.32 30.3758 65.3388 30.3523 65.3556 30.3356L64.6484 29.6284C64.4225 29.8544 64.32 30.1429 64.32 30.45H65.32ZM65.3313 30.3583C65.385 30.3112 65.4258 30.3 65.47 30.3V29.3C65.1675 29.3 64.8963 29.4101 64.6727 29.6057L65.3313 30.3583ZM65.47 30.3H72.75V29.3H65.47V30.3ZM72.75 30.3C74.8956 30.3 76.5129 30.7944 77.6617 31.7229L78.2903 30.9451C76.9084 29.8283 75.0417 29.3 72.75 29.3V30.3ZM77.6643 31.7249C78.8044 32.634 79.4 33.9666 79.4 35.806H80.4C80.4 33.728 79.7129 32.0793 78.2877 30.9431L77.6643 31.7249ZM79.4 35.806C79.4 37.6292 78.8125 38.9327 77.6943 39.8059L78.3097 40.5941C79.7221 39.4913 80.4 37.8654 80.4 35.806H79.4ZM77.6977 39.8033C76.5487 40.6847 74.9192 41.156 72.75 41.156V42.156C75.0528 42.156 76.9247 41.6566 78.3063 40.5967L77.6977 39.8033ZM72.75 41.156H69.656V42.156H72.75V41.156ZM69.156 41.656V47.35H70.156V41.656H69.156ZM69.156 47.35C69.156 47.4022 69.1447 47.419 69.1187 47.4417L69.7773 48.1943C70.0287 47.9743 70.156 47.6791 70.156 47.35H69.156ZM69.0944 47.4644C69.0777 47.4812 69.0542 47.5 68.98 47.5V48.5C69.2871 48.5 69.5756 48.3975 69.8016 48.1716L69.0944 47.4644ZM68.98 47.5H65.47V48.5H68.98V47.5ZM72.62 38.568C73.4645 38.568 74.1937 38.3559 74.7443 37.8714L74.0837 37.1206C73.7676 37.3988 73.3008 37.568 72.62 37.568V38.568ZM74.7525 37.864C75.317 37.3446 75.564 36.6128 75.564 35.754H74.564C74.564 36.4205 74.3776 36.85 74.0755 37.128L74.7525 37.864ZM75.564 35.754C75.564 34.9402 75.3223 34.2392 74.7936 33.7104L74.0864 34.4176C74.3897 34.7208 74.564 35.1465 74.564 35.754H75.564ZM74.808 33.7255C74.2827 33.1545 73.5191 32.914 72.62 32.914V33.914C73.3502 33.914 73.8 34.1068 74.072 34.4025L74.808 33.7255ZM72.62 32.914H69.578V33.914H72.62V32.914ZM69.078 33.414V38.068H70.078V33.414H69.078ZM69.578 38.568H72.62V37.568H69.578V38.568ZM83.5936 47.74L83.3741 48.1895L83.3867 48.1952L83.5936 47.74ZM81.8256 46.284L81.4096 46.5614L81.4141 46.5681L81.4188 46.5746L81.8256 46.284ZM82.6576 41.344L82.361 40.9415L82.3576 40.944L82.6576 41.344ZM86.7136 39.836L86.6385 39.3417L86.6339 39.3424L86.7136 39.836ZM89.9636 39.342L90.0388 39.8363L90.4636 39.7717V39.342H89.9636ZM89.5476 37.522L89.1739 37.8542L89.5476 37.522ZM87.1556 37.262L87.3909 37.7032H87.3909L87.1556 37.262ZM86.3496 37.834L86.675 38.2136L86.6789 38.2103L86.3496 37.834ZM85.8036 38.25L85.5556 37.8159L85.3988 37.9054L85.3355 38.0744L85.8036 38.25ZM82.2416 38.302L81.862 38.6274L81.887 38.6566L81.9162 38.6816L82.2416 38.302ZM82.1116 37.886L82.6086 37.9412L82.6106 37.9229L82.6113 37.9045L82.1116 37.886ZM82.7876 36.326L82.3948 36.0165L82.3891 36.0241L82.7876 36.326ZM84.8156 34.844L84.6094 34.3885L84.6061 34.39L84.8156 34.844ZM92.9276 35.65L92.5867 36.0157L92.59 36.0188L92.9276 35.65ZM94.2796 47.818L94.6332 48.1716L94.645 48.1598L94.6559 48.1473L94.2796 47.818ZM90.3276 47.818L89.9513 48.1473L89.9733 48.1723L89.9984 48.1943L90.3276 47.818ZM90.1456 46.44H90.6456V44.8715L89.7379 46.1506L90.1456 46.44ZM88.5336 47.766L88.7526 48.2155L88.7572 48.2132L88.5336 47.766ZM89.2616 44.516L88.9021 44.1684L88.8961 44.1748L89.2616 44.516ZM90.0156 41.864H90.5156V41.268L89.9287 41.3716L90.0156 41.864ZM87.8056 42.254L87.7187 41.7616L87.7181 41.7617L87.8056 42.254ZM86.0116 44.932L85.721 45.3389L85.7276 45.3436L85.7343 45.348L86.0116 44.932ZM86.1156 47.76C85.2614 47.76 84.4922 47.5992 83.8005 47.2848L83.3867 48.1952C84.2204 48.5741 85.1325 48.76 86.1156 48.76V47.76ZM83.813 47.2907C83.1338 46.959 82.6123 46.525 82.2325 45.9934L81.4188 46.5746C81.9057 47.2563 82.5627 47.793 83.3742 48.1893L83.813 47.2907ZM82.2416 46.0066C81.88 45.4642 81.7016 44.876 81.7016 44.23H80.7016C80.7016 45.0747 80.9392 45.8558 81.4096 46.5614L82.2416 46.0066ZM81.7016 44.23C81.7016 43.194 82.1107 42.3792 82.9576 41.744L82.3576 40.944C81.2632 41.7648 80.7016 42.874 80.7016 44.23H81.7016ZM82.9542 41.7465C83.8572 41.0812 85.1252 40.5992 86.7934 40.3296L86.6339 39.3424C84.87 39.6275 83.4341 40.1508 82.361 40.9415L82.9542 41.7465ZM86.7888 40.3303L90.0388 39.8363L89.8885 38.8477L86.6385 39.3417L86.7888 40.3303ZM90.4636 39.342V38.978H89.4636V39.342H90.4636ZM90.4636 38.978C90.4636 38.2642 90.3158 37.6335 89.9213 37.1898L89.1739 37.8542C89.3342 38.0345 89.4636 38.3744 89.4636 38.978H90.4636ZM89.9213 37.1898C89.5059 36.7225 88.8637 36.554 88.1436 36.554V37.554C88.7409 37.554 89.0347 37.6975 89.1739 37.8542L89.9213 37.1898ZM88.1436 36.554C87.6906 36.554 87.2738 36.6323 86.9203 36.8208L87.3909 37.7032C87.5575 37.6143 87.7993 37.554 88.1436 37.554V36.554ZM86.9203 36.8208C86.6195 36.9813 86.3196 37.1959 86.0204 37.4577L86.6789 38.2103C86.9343 37.9868 87.1718 37.8201 87.3909 37.7032L86.9203 36.8208ZM86.0242 37.4544C85.783 37.6612 85.6321 37.7722 85.5556 37.8159L86.0517 38.6841C86.2179 38.5892 86.431 38.4228 86.675 38.2136L86.0242 37.4544ZM85.3355 38.0744C85.335 38.0756 85.3494 38.0377 85.399 38.0016C85.4512 37.9637 85.5005 37.958 85.5176 37.958V38.958C85.6734 38.958 85.8398 38.9176 85.9872 38.8104C86.1321 38.705 86.2202 38.5631 86.2718 38.4256L85.3355 38.0744ZM85.5176 37.958H82.6836V38.958H85.5176V37.958ZM82.6836 37.958C82.6188 37.958 82.5898 37.9419 82.567 37.9224L81.9162 38.6816C82.1361 38.8701 82.4018 38.958 82.6836 38.958V37.958ZM82.6213 37.9766C82.6148 37.969 82.6115 37.9639 82.61 37.9612C82.6092 37.9599 82.6088 37.959 82.6086 37.9586C82.6084 37.9581 82.6084 37.9579 82.6084 37.9579C82.6084 37.9578 82.6083 37.9578 82.6083 37.9576C82.6083 37.9574 82.6082 37.9568 82.6081 37.9558C82.6079 37.9539 82.6077 37.9493 82.6086 37.9412L81.6147 37.8308C81.5817 38.1272 81.6697 38.4031 81.862 38.6274L82.6213 37.9766ZM82.6113 37.9045C82.6233 37.5805 82.784 37.1588 83.1862 36.6279L82.3891 36.0241C81.9246 36.6372 81.6346 37.2555 81.612 37.8675L82.6113 37.9045ZM83.1804 36.6354C83.5678 36.1437 84.1707 35.6923 85.0252 35.298L84.6061 34.39C83.6579 34.8277 82.9088 35.3643 82.3949 36.0166L83.1804 36.6354ZM85.0219 35.2995C85.8584 34.9207 86.9102 34.72 88.1956 34.72V33.72C86.8117 33.72 85.6102 33.9353 84.6094 34.3885L85.0219 35.2995ZM88.1956 34.72C90.2656 34.72 91.6949 35.1844 92.5867 36.0157L93.2686 35.2843C92.115 34.2089 90.3896 33.72 88.1956 33.72V34.72ZM92.59 36.0188C93.4933 36.8455 93.9616 37.9684 93.9616 39.446H94.9616C94.9616 37.7342 94.4073 36.3265 93.2652 35.2812L92.59 36.0188ZM93.9616 39.446V47.35H94.9616V39.446H93.9616ZM93.9616 47.35C93.9616 47.3942 93.9504 47.435 93.9033 47.4887L94.6559 48.1473C94.8515 47.9237 94.9616 47.6525 94.9616 47.35H93.9616ZM93.9261 47.4644C93.9093 47.4812 93.8858 47.5 93.8116 47.5V48.5C94.1188 48.5 94.4072 48.3975 94.6332 48.1716L93.9261 47.4644ZM93.8116 47.5H90.7956V48.5H93.8116V47.5ZM90.7956 47.5C90.7515 47.5 90.7106 47.4888 90.6569 47.4417L89.9984 48.1943C90.2219 48.3899 90.4931 48.5 90.7956 48.5V47.5ZM90.7039 47.4887C90.6569 47.435 90.6456 47.3942 90.6456 47.35H89.6456C89.6456 47.6525 89.7557 47.9237 89.9513 48.1473L90.7039 47.4887ZM90.6456 47.35V46.44H89.6456V47.35H90.6456ZM89.7379 46.1506C89.4118 46.6101 88.9429 47.0023 88.31 47.3188L88.7572 48.2132C89.511 47.8363 90.1168 47.3445 90.5534 46.7294L89.7379 46.1506ZM88.3146 47.3165C87.7215 47.6055 86.9939 47.76 86.1156 47.76V48.76C87.1094 48.76 87.9938 48.5852 88.7526 48.2155L88.3146 47.3165ZM87.3376 45.796C88.255 45.796 89.0353 45.4913 89.6272 44.8572L88.8961 44.1748C88.5173 44.5807 88.0149 44.796 87.3376 44.796V45.796ZM89.6211 44.8635C90.2441 44.219 90.5156 43.3118 90.5156 42.228H89.5156C89.5156 43.1549 89.2844 43.773 88.9021 44.1685L89.6211 44.8635ZM90.5156 42.228V41.864H89.5156V42.228H90.5156ZM89.9287 41.3716L87.7187 41.7616L87.8925 42.7464L90.1025 42.3564L89.9287 41.3716ZM87.7181 41.7617C86.908 41.9057 86.2404 42.1283 85.7639 42.4619C85.2661 42.8103 84.9656 43.2923 84.9656 43.892H85.9656C85.9656 43.6771 86.0551 43.4787 86.3374 43.2811C86.6408 43.0687 87.1432 42.8796 87.8931 42.7463L87.7181 41.7617ZM84.9656 43.892C84.9656 44.4929 85.2306 44.9886 85.721 45.3389L86.3022 44.5251C86.0646 44.3554 85.9656 44.1578 85.9656 43.892H84.9656ZM85.7343 45.348C86.1949 45.6551 86.7379 45.796 87.3376 45.796V44.796C86.8974 44.796 86.5564 44.6942 86.289 44.516L85.7343 45.348ZM99.3559 52.784L99.0024 53.1376L99.3559 52.784ZM99.2779 52.056L99.7251 52.2796L99.733 52.2639L99.7397 52.2476L99.2779 52.056ZM101.306 47.168L101.768 47.3596L101.848 47.1662L101.766 46.9732L101.306 47.168ZM96.3139 35.364L95.8458 35.5396L95.8494 35.5492L95.8534 35.5588L96.3139 35.364ZM96.2359 35.052L95.7478 34.9435L95.7359 34.9971V35.052H96.2359ZM96.4439 34.662L96.7975 35.0156L96.8111 35.002L96.8236 34.9874L96.4439 34.662ZM100.552 35.026L100.085 35.204L100.086 35.2084L100.552 35.026ZM103.516 42.592L103.05 42.7744L103.51 43.9474L103.98 42.7785L103.516 42.592ZM106.558 35.026L106.106 34.811L106.1 34.8251L106.094 34.8395L106.558 35.026ZM110.64 34.662L110.26 34.9874L110.285 35.0166L110.315 35.0416L110.64 34.662ZM110.744 35.364L111.203 35.5623L111.211 35.5425L111.218 35.5221L110.744 35.364ZM103.386 52.394L102.927 52.1957L102.923 52.2058L102.919 52.216L103.386 52.394ZM99.7459 52.44C99.7347 52.44 99.7274 52.4391 99.7232 52.4383C99.7192 52.4376 99.7174 52.4369 99.7171 52.4368C99.7169 52.4367 99.7167 52.4366 99.7161 52.4362C99.7155 52.4358 99.7133 52.4342 99.7095 52.4304L99.0024 53.1376C99.2063 53.3414 99.4662 53.44 99.7459 53.44V52.44ZM99.7095 52.4304C99.7057 52.4267 99.7041 52.4244 99.7037 52.4238C99.7033 52.4232 99.7033 52.423 99.7032 52.4228C99.7031 52.4225 99.7023 52.4208 99.7016 52.4167C99.7008 52.4125 99.6999 52.4052 99.6999 52.394H98.6999C98.6999 52.6737 98.7985 52.9337 99.0024 53.1376L99.7095 52.4304ZM99.6999 52.394C99.6999 52.3468 99.7094 52.3111 99.7251 52.2796L98.8307 51.8324C98.7425 52.0089 98.6999 52.1985 98.6999 52.394H99.6999ZM99.7397 52.2476L101.768 47.3596L100.844 46.9764L98.8161 51.8644L99.7397 52.2476ZM101.766 46.9732L96.7744 35.1692L95.8534 35.5588L100.845 47.3628L101.766 46.9732ZM96.7821 35.1884C96.7604 35.1307 96.7475 35.0889 96.7405 35.0607C96.7326 35.0293 96.7359 35.03 96.7359 35.052H95.7359C95.7359 35.2177 95.7911 35.3939 95.8458 35.5396L96.7821 35.1884ZM96.724 35.1605C96.7399 35.0889 96.7665 35.0465 96.7975 35.0156L96.0904 34.3084C95.9133 34.4855 95.8013 34.7031 95.7478 34.9435L96.724 35.1605ZM96.8236 34.9874C96.8294 34.9806 96.833 34.9777 96.8338 34.9771C96.8344 34.9765 96.8334 34.9774 96.8309 34.9786C96.8283 34.9798 96.8262 34.9803 96.8256 34.9805C96.825 34.9806 96.8275 34.98 96.8339 34.98V33.98C96.5279 33.98 96.2606 34.1076 96.0643 34.3366L96.8236 34.9874ZM96.8339 34.98H99.7979V33.98H96.8339V34.98ZM99.7979 34.98C99.8934 34.98 99.9399 35.0024 99.9662 35.0215C99.995 35.0424 100.041 35.0898 100.085 35.204L101.019 34.848C100.924 34.5982 100.775 34.3726 100.553 34.2115C100.328 34.0486 100.066 33.98 99.7979 33.98V34.98ZM100.086 35.2084L103.05 42.7744L103.981 42.4096L101.017 34.8436L100.086 35.2084ZM103.98 42.7785L107.022 35.2125L106.094 34.8395L103.052 42.4055L103.98 42.7785ZM107.009 35.241C107.069 35.1163 107.127 35.0559 107.17 35.0261C107.208 34.9994 107.257 34.98 107.338 34.98V33.98C107.072 33.98 106.818 34.0516 106.596 34.2069C106.379 34.3591 106.22 34.5717 106.106 34.811L107.009 35.241ZM107.338 34.98H110.25V33.98H107.338V34.98ZM110.25 34.98C110.256 34.98 110.259 34.9806 110.258 34.9805C110.258 34.9803 110.256 34.9798 110.253 34.9786C110.25 34.9774 110.249 34.9765 110.25 34.9771C110.251 34.9777 110.254 34.9806 110.26 34.9874L111.02 34.3366C110.823 34.1076 110.556 33.98 110.25 33.98V34.98ZM110.315 35.0416C110.333 35.0579 110.333 35.0632 110.329 35.0546C110.327 35.0505 110.325 35.0451 110.324 35.0389C110.322 35.0327 110.322 35.0281 110.322 35.026H111.322C111.322 34.7183 111.179 34.4653 110.965 34.2824L110.315 35.0416ZM110.322 35.026C110.322 35.0061 110.325 35.0096 110.315 35.0501C110.307 35.0861 110.292 35.1372 110.27 35.2059L111.218 35.5221C111.27 35.3659 111.322 35.1845 111.322 35.026H110.322ZM110.285 35.1657L102.927 52.1957L103.845 52.5923L111.203 35.5623L110.285 35.1657ZM102.919 52.216C102.877 52.3259 102.831 52.3722 102.8 52.3939C102.77 52.415 102.715 52.44 102.606 52.44V53.44C102.878 53.44 103.144 53.374 103.374 53.2131C103.603 53.0528 103.756 52.8261 103.853 52.572L102.919 52.216ZM102.606 52.44H99.7459V53.44H102.606V52.44ZM113.18 47.818L112.826 48.1716L113.18 47.818ZM113.18 34.662L113.533 35.0156V35.0156L113.18 34.662ZM116.95 34.662L116.596 35.0156V35.0156L116.95 34.662ZM117.132 36.014H116.632V37.488L117.528 36.3182L117.132 36.014ZM118.718 34.74L118.941 35.1872L118.946 35.1849L118.718 34.74ZM124.932 36.456L124.482 36.6754L124.876 37.4809L125.354 36.723L124.932 36.456ZM126.674 34.844L126.43 34.4074L126.674 34.844ZM132.524 35.676L132.154 36.0127L132.16 36.0195L132.524 35.676ZM133.694 47.818L134.047 48.1716L134.059 48.1598L134.07 48.1473L133.694 47.818ZM129.716 47.818L129.362 48.1716L129.374 48.1833L129.386 48.1943L129.716 47.818ZM128.988 38.276L128.618 38.6124L128.626 38.6212L128.988 38.276ZM126.18 38.302L126.541 38.6473L126.549 38.6391L126.18 38.302ZM125.452 47.818L125.805 48.1716L125.817 48.1598L125.828 48.1473L125.452 47.818ZM120.746 38.302L120.376 38.6391L120.384 38.6475L120.392 38.6556L120.746 38.302ZM117.938 38.302L117.576 37.9564L117.576 37.9568L117.938 38.302ZM117.21 47.818L117.563 48.1716L117.575 48.1598L117.586 48.1473L117.21 47.818ZM113.648 47.5C113.573 47.5 113.55 47.4812 113.533 47.4644L112.826 48.1716C113.052 48.3975 113.34 48.5 113.648 48.5V47.5ZM113.533 47.4644C113.516 47.4477 113.498 47.4242 113.498 47.35H112.498C112.498 47.6571 112.6 47.9456 112.826 48.1716L113.533 47.4644ZM113.498 47.35V35.13H112.498V47.35H113.498ZM113.498 35.13C113.498 35.0558 113.516 35.0323 113.533 35.0156L112.826 34.3084C112.6 34.5344 112.498 34.8229 112.498 35.13H113.498ZM113.533 35.0156C113.55 34.9988 113.573 34.98 113.648 34.98V33.98C113.34 33.98 113.052 34.0825 112.826 34.3084L113.533 35.0156ZM113.648 34.98H116.482V33.98H113.648V34.98ZM116.482 34.98C116.556 34.98 116.579 34.9988 116.596 35.0156L117.303 34.3084C117.077 34.0825 116.789 33.98 116.482 33.98V34.98ZM116.596 35.0156C116.613 35.0323 116.632 35.0558 116.632 35.13H117.632C117.632 34.8229 117.529 34.5344 117.303 34.3084L116.596 35.0156ZM116.632 35.13V36.014H117.632V35.13H116.632ZM117.528 36.3182C117.875 35.8655 118.342 35.4869 118.941 35.1872L118.494 34.2928C117.776 34.6518 117.185 35.1225 116.735 35.7098L117.528 36.3182ZM118.946 35.1849C119.545 34.8778 120.219 34.72 120.98 34.72V33.72C120.076 33.72 119.243 33.9089 118.489 34.2951L118.946 35.1849ZM120.98 34.72C121.869 34.72 122.585 34.8937 123.151 35.2142C123.714 35.5323 124.158 36.0117 124.482 36.6754L125.381 36.2366C124.977 35.4096 124.399 34.771 123.644 34.3438C122.893 33.919 121.997 33.72 120.98 33.72V34.72ZM125.354 36.723C125.722 36.1415 126.238 35.6599 126.917 35.2806L126.43 34.4074C125.619 34.8601 124.974 35.4531 124.509 36.189L125.354 36.723ZM126.917 35.2806C127.589 34.906 128.302 34.72 129.066 34.72V33.72C128.131 33.72 127.249 33.95 126.43 34.4074L126.917 35.2806ZM129.066 34.72C130.359 34.72 131.373 35.1553 132.154 36.0127L132.893 35.3393C131.906 34.2554 130.615 33.72 129.066 33.72V34.72ZM132.16 36.0195C132.941 36.8453 133.376 38.1296 133.376 39.966H134.376C134.376 37.989 133.909 36.4134 132.887 35.3325L132.16 36.0195ZM133.376 39.966V47.35H134.376V39.966H133.376ZM133.376 47.35C133.376 47.3942 133.364 47.435 133.317 47.4887L134.07 48.1473C134.266 47.9237 134.376 47.6525 134.376 47.35H133.376ZM133.34 47.4644C133.323 47.4812 133.3 47.5 133.226 47.5V48.5C133.533 48.5 133.821 48.3975 134.047 48.1716L133.34 47.4644ZM133.226 47.5H130.21V48.5H133.226V47.5ZM130.21 47.5C130.135 47.5 130.089 47.4803 130.045 47.4417L129.386 48.1943C129.62 48.3984 129.902 48.5 130.21 48.5V47.5ZM130.069 47.4644C130.052 47.4477 130.034 47.4242 130.034 47.35H129.034C129.034 47.6571 129.136 47.9456 129.362 48.1716L130.069 47.4644ZM130.034 47.35V40.148H129.034V47.35H130.034ZM130.034 40.148C130.034 39.231 129.844 38.4494 129.349 37.9308L128.626 38.6212C128.859 38.8652 129.034 39.3317 129.034 40.148H130.034ZM129.358 37.9397C128.899 37.4355 128.278 37.204 127.558 37.204V38.204C128.051 38.204 128.383 38.3539 128.618 38.6123L129.358 37.9397ZM127.558 37.204C126.867 37.204 126.272 37.4593 125.81 37.9649L126.549 38.6391C126.815 38.3474 127.139 38.204 127.558 38.204V37.204ZM125.818 37.9568C125.324 38.4739 125.134 39.245 125.134 40.148H126.134C126.134 39.3524 126.307 38.8927 126.541 38.6472L125.818 37.9568ZM125.134 40.148V47.35H126.134V40.148H125.134ZM125.134 47.35C125.134 47.3942 125.122 47.435 125.075 47.4887L125.828 48.1473C126.024 47.9237 126.134 47.6525 126.134 47.35H125.134ZM125.098 47.4644C125.081 47.4812 125.058 47.5 124.984 47.5V48.5C125.291 48.5 125.579 48.3975 125.805 48.1716L125.098 47.4644ZM124.984 47.5H121.968V48.5H124.984V47.5ZM121.968 47.5C121.893 47.5 121.87 47.4812 121.853 47.4644L121.146 48.1716C121.372 48.3975 121.66 48.5 121.968 48.5V47.5ZM121.853 47.4644C121.836 47.4477 121.818 47.4242 121.818 47.35H120.818C120.818 47.6571 120.92 47.9456 121.146 48.1716L121.853 47.4644ZM121.818 47.35V40.148H120.818V47.35H121.818ZM121.818 40.148C121.818 39.2399 121.616 38.4653 121.099 37.9484L120.392 38.6556C120.638 38.9014 120.818 39.3574 120.818 40.148H121.818ZM121.115 37.9649C120.65 37.4557 120.045 37.204 119.342 37.204V38.204C119.783 38.204 120.113 38.351 120.376 38.6391L121.115 37.9649ZM119.342 37.204C118.651 37.204 118.053 37.4585 117.576 37.9564L118.299 38.6476C118.585 38.3482 118.923 38.204 119.342 38.204V37.204ZM117.576 37.9568C117.084 38.4724 116.892 39.2329 116.892 40.122H117.892C117.892 39.3471 118.063 38.8943 118.299 38.6472L117.576 37.9568ZM116.892 40.122V47.35H117.892V40.122H116.892ZM116.892 47.35C116.892 47.3942 116.88 47.435 116.833 47.4887L117.586 48.1473C117.782 47.9237 117.892 47.6525 117.892 47.35H116.892ZM116.856 47.4644C116.839 47.4812 116.816 47.5 116.742 47.5V48.5C117.049 48.5 117.337 48.3975 117.563 48.1716L116.856 47.4644ZM116.742 47.5H113.648V48.5H116.742V47.5ZM138.4 46.57L138.743 46.2061L138.4 46.57ZM136.528 41.656H136.028L136.028 41.6681L136.528 41.656ZM136.528 40.746L136.028 40.7291L136.028 40.7375V40.746H136.528ZM138.426 35.962L138.772 36.3233L138.772 36.3232L138.426 35.962ZM147.006 35.13L146.748 35.5582L146.756 35.5632L147.006 35.13ZM149.294 37.574L148.844 37.7916L148.847 37.7976L149.294 37.574ZM149.892 42.254L150.246 42.6076L150.257 42.5958L150.268 42.5833L149.892 42.254ZM141.104 42.436V41.936H140.604V42.436H141.104ZM141.104 42.618H140.604V42.6286L140.604 42.6393L141.104 42.618ZM141.702 44.594L142.107 44.3007L141.702 44.594ZM144.354 45.088L144.619 45.512L144.628 45.5062L144.637 45.5L144.354 45.088ZM145.108 44.412L145.486 44.7395L145.49 44.7341L145.495 44.7286L145.108 44.412ZM145.472 44.074L145.658 44.5382L145.677 44.5305L145.696 44.5212L145.472 44.074ZM149.554 44.152L149.2 44.5056L149.23 44.5348L149.263 44.5589L149.554 44.152ZM148.956 46.076L148.581 45.7451L148.576 45.7515L148.956 46.076ZM146.746 47.61L146.95 48.0666L146.746 47.61ZM145.498 39.862V40.362H145.998V39.862H145.498ZM144.9 37.808L144.502 38.1102L144.507 38.1179L144.514 38.1254L144.9 37.808ZM141.676 37.808L141.284 37.4973L141.283 37.4991L141.676 37.808ZM141.104 39.862H140.604V40.362H141.104V39.862ZM143.314 47.76C141.326 47.76 139.823 47.2238 138.743 46.2061L138.057 46.9339C139.369 48.1695 141.142 48.76 143.314 48.76V47.76ZM138.743 46.2061C137.671 45.1967 137.078 43.7026 137.028 41.6439L136.028 41.6681C136.082 43.9081 136.737 45.6899 138.057 46.9339L138.743 46.2061ZM137.028 41.656V40.746H136.028V41.656H137.028ZM137.028 40.7629C137.094 38.8155 137.691 37.3568 138.772 36.3233L138.08 35.6007C136.769 36.8552 136.101 38.5858 136.028 40.7291L137.028 40.7629ZM138.772 36.3232C139.873 35.2688 141.36 34.72 143.288 34.72V33.72C141.16 33.72 139.405 34.3325 138.08 35.6008L138.772 36.3232ZM143.288 34.72C144.693 34.72 145.838 35.0091 146.748 35.5581L147.264 34.7019C146.163 34.0376 144.829 33.72 143.288 33.72V34.72ZM146.756 35.5632C147.694 36.1036 148.386 36.844 148.844 37.7916L149.744 37.3564C149.197 36.224 148.363 35.3351 147.256 34.6968L146.756 35.5632ZM148.847 37.7976C149.327 38.7577 149.574 39.875 149.574 41.162H150.574C150.574 39.745 150.301 38.4703 149.741 37.3504L148.847 37.7976ZM149.574 41.162V41.786H150.574V41.162H149.574ZM149.574 41.786C149.574 41.8302 149.563 41.871 149.516 41.9247L150.268 42.5833C150.464 42.3597 150.574 42.0885 150.574 41.786H149.574ZM149.538 41.9004C149.522 41.9172 149.498 41.936 149.424 41.936V42.936C149.731 42.936 150.02 42.8335 150.246 42.6076L149.538 41.9004ZM149.424 41.936H141.104V42.936H149.424V41.936ZM140.604 42.436V42.618H141.604V42.436H140.604ZM140.604 42.6393C140.642 43.5216 140.86 44.2837 141.297 44.8873L142.107 44.3007C141.816 43.8989 141.635 43.3437 141.604 42.5967L140.604 42.6393ZM141.297 44.8873C141.767 45.5364 142.456 45.848 143.288 45.848V44.848C142.733 44.848 142.365 44.6569 142.107 44.3007L141.297 44.8873ZM143.288 45.848C143.785 45.848 144.24 45.7487 144.619 45.512L144.089 44.664C143.913 44.774 143.657 44.848 143.288 44.848V45.848ZM144.637 45.5C144.95 45.2848 145.233 45.0308 145.486 44.7395L144.73 44.0845C144.532 44.3132 144.312 44.5099 144.071 44.676L144.637 45.5ZM145.495 44.7286C145.565 44.6433 145.618 44.5862 145.656 44.5509C145.675 44.5335 145.686 44.5252 145.69 44.5226C145.694 44.5193 145.683 44.5281 145.658 44.5382L145.286 43.6098C145.158 43.6612 145.052 43.7472 144.976 43.8181C144.892 43.8954 144.807 43.99 144.721 44.0954L145.495 44.7286ZM145.696 44.5212C145.69 44.5239 145.704 44.5162 145.749 44.5087C145.793 44.5014 145.855 44.496 145.94 44.496V43.496C145.706 43.496 145.457 43.5225 145.248 43.6268L145.696 44.5212ZM145.94 44.496H149.164V43.496H145.94V44.496ZM149.164 44.496C149.175 44.496 149.183 44.4969 149.187 44.4977C149.191 44.4984 149.193 44.4991 149.193 44.4992C149.193 44.4993 149.193 44.4994 149.194 44.4998C149.194 44.5002 149.197 44.5018 149.2 44.5056L149.908 43.7984C149.704 43.5945 149.444 43.496 149.164 43.496V44.496ZM149.263 44.5589C149.265 44.5598 149.262 44.558 149.257 44.5527C149.253 44.5473 149.248 44.5401 149.243 44.5316C149.239 44.5232 149.237 44.5163 149.236 44.5123C149.235 44.5087 149.236 44.5094 149.236 44.516H150.236C150.236 44.2073 150.104 43.9307 149.845 43.7451L149.263 44.5589ZM149.236 44.516C149.236 44.782 149.075 45.1853 148.581 45.7452L149.331 46.4068C149.877 45.788 150.236 45.1513 150.236 44.516H149.236ZM148.576 45.7515C148.136 46.2672 147.469 46.7398 146.542 47.1534L146.95 48.0666C147.965 47.6136 148.771 47.0634 149.336 46.4005L148.576 45.7515ZM146.542 47.1534C145.649 47.5521 144.577 47.76 143.314 47.76V48.76C144.685 48.76 145.902 48.5345 146.95 48.0666L146.542 47.1534ZM145.998 39.862V39.81H144.998V39.862H145.998ZM145.998 39.81C145.998 38.8857 145.781 38.0925 145.286 37.4906L144.514 38.1254C144.817 38.4942 144.998 39.0357 144.998 39.81H145.998ZM145.298 37.5058C144.812 36.865 144.12 36.554 143.288 36.554V37.554C143.843 37.554 144.225 37.7457 144.502 38.1102L145.298 37.5058ZM143.288 36.554C142.469 36.554 141.784 36.8678 141.284 37.4973L142.068 38.1187C142.366 37.7428 142.755 37.554 143.288 37.554V36.554ZM141.283 37.4991C140.81 38.1004 140.604 38.8902 140.604 39.81H141.604C141.604 39.0311 141.779 38.4862 142.069 38.1169L141.283 37.4991ZM140.604 39.81V39.862H141.604V39.81H140.604ZM141.104 40.362H145.498V39.362H141.104V40.362ZM152.954 47.818L152.6 48.1716L152.954 47.818ZM152.954 34.662L153.307 35.0156L153.307 35.0156L152.954 34.662ZM156.88 34.662L156.526 35.0156L156.538 35.0273L156.55 35.0383L156.88 34.662ZM157.088 36.118H156.588V37.5187L157.474 36.4346L157.088 36.118ZM158.882 34.74L158.671 34.2866L158.667 34.2886L158.882 34.74ZM165.122 35.78L164.753 36.1179L164.756 36.1209L165.122 35.78ZM166.37 47.818L166.723 48.1716L166.735 48.1598L166.746 48.1473L166.37 47.818ZM162.158 47.818L161.781 48.1473L161.803 48.1723L161.828 48.1943L162.158 47.818ZM161.378 38.38L161.003 38.7113L161.01 38.7185L161.378 38.38ZM157.946 38.38L158.306 38.7263L158.313 38.7191L157.946 38.38ZM157.14 47.818L157.493 48.1716L157.505 48.1598L157.516 48.1473L157.14 47.818ZM153.422 47.5C153.347 47.5 153.324 47.4812 153.307 47.4644L152.6 48.1716C152.826 48.3975 153.114 48.5 153.422 48.5V47.5ZM153.307 47.4644C153.29 47.4477 153.271 47.4242 153.271 47.35H152.271C152.271 47.6571 152.374 47.9456 152.6 48.1716L153.307 47.4644ZM153.271 47.35V35.13H152.271V47.35H153.271ZM153.271 35.13C153.271 35.0558 153.29 35.0323 153.307 35.0156L152.6 34.3084C152.374 34.5344 152.271 34.8229 152.271 35.13H153.271ZM153.307 35.0156C153.324 34.9988 153.347 34.98 153.422 34.98V33.98C153.114 33.98 152.826 34.0825 152.6 34.3084L153.307 35.0156ZM153.422 34.98H156.412V33.98H153.422V34.98ZM156.412 34.98C156.486 34.98 156.509 34.9988 156.526 35.0156L157.233 34.3084C157.007 34.0825 156.719 33.98 156.412 33.98V34.98ZM156.55 35.0383C156.576 35.061 156.588 35.0778 156.588 35.13H157.588C157.588 34.8009 157.46 34.5057 157.209 34.2857L156.55 35.0383ZM156.588 35.13V36.118H157.588V35.13H156.588ZM157.474 36.4346C157.892 35.9247 158.429 35.5093 159.096 35.1914L158.667 34.2886C157.878 34.664 157.219 35.1673 156.701 35.8014L157.474 36.4346ZM159.092 35.1934C159.763 34.8814 160.53 34.72 161.404 34.72V33.72C160.405 33.72 159.491 33.9053 158.671 34.2866L159.092 35.1934ZM161.404 34.72C162.801 34.72 163.903 35.1902 164.753 36.1179L165.49 35.4421C164.434 34.2898 163.056 33.72 161.404 33.72V34.72ZM164.756 36.1209C165.598 37.0241 166.052 38.3256 166.052 40.096H167.052C167.052 38.1571 166.552 36.5812 165.487 35.4391L164.756 36.1209ZM166.052 40.096V47.35H167.052V40.096H166.052ZM166.052 47.35C166.052 47.3942 166.04 47.435 165.993 47.4887L166.746 48.1473C166.941 47.9237 167.052 47.6525 167.052 47.35H166.052ZM166.016 47.4644C165.999 47.4812 165.976 47.5 165.902 47.5V48.5C166.209 48.5 166.497 48.3975 166.723 48.1716L166.016 47.4644ZM165.902 47.5H162.626V48.5H165.902V47.5ZM162.626 47.5C162.581 47.5 162.541 47.4888 162.487 47.4417L161.828 48.1943C162.052 48.3899 162.323 48.5 162.626 48.5V47.5ZM162.534 47.4887C162.487 47.435 162.476 47.3942 162.476 47.35H161.476C161.476 47.6525 161.586 47.9237 161.781 48.1473L162.534 47.4887ZM162.476 47.35V40.252H161.476V47.35H162.476ZM162.476 40.252C162.476 39.3603 162.257 38.5974 161.745 38.0415L161.01 38.7185C161.295 39.0292 161.476 39.5143 161.476 40.252H162.476ZM161.752 38.0487C161.236 37.4659 160.513 37.204 159.662 37.204V38.204C160.301 38.204 160.721 38.3928 161.003 38.7113L161.752 38.0487ZM159.662 37.204C158.822 37.204 158.106 37.4685 157.578 38.0409L158.313 38.7191C158.617 38.3902 159.045 38.204 159.662 38.204V37.204ZM157.585 38.0337C157.051 38.5893 156.822 39.3552 156.822 40.252H157.822C157.822 39.5195 158.008 39.0374 158.306 38.7263L157.585 38.0337ZM156.822 40.252V47.35H157.822V40.252H156.822ZM156.822 47.35C156.822 47.3942 156.81 47.435 156.763 47.4887L157.516 48.1473C157.711 47.9237 157.822 47.6525 157.822 47.35H156.822ZM156.786 47.4644C156.769 47.4812 156.746 47.5 156.672 47.5V48.5C156.979 48.5 157.267 48.3975 157.493 48.1716L156.786 47.4644ZM156.672 47.5H153.422V48.5H156.672V47.5ZM171.12 37.886H171.62V37.386H171.12V37.886ZM168.598 37.704L168.245 38.0576L168.256 38.0693L168.269 38.0803L168.598 37.704ZM168.598 34.662L168.269 34.2857L168.256 34.2967L168.245 34.3084L168.598 34.662ZM171.12 34.48V34.98H171.62V34.48H171.12ZM171.302 29.722L170.973 29.3457L170.96 29.3567L170.949 29.3684L171.302 29.722ZM175.254 29.722L174.901 30.0756V30.0756L175.254 29.722ZM175.436 34.48H174.936V34.98H175.436V34.48ZM179.154 34.662L178.801 35.0156L178.812 35.0273L178.825 35.0383L179.154 34.662ZM179.154 37.704L178.825 37.3277L178.812 37.3387L178.801 37.3504L179.154 37.704ZM175.436 37.886V37.386H174.936V37.886H175.436ZM179.388 44.62L179.742 44.2664L179.388 44.62ZM179.388 47.818L179.742 48.1716L179.754 48.1598L179.764 48.1473L179.388 47.818ZM176.502 47.5C174.779 47.5 173.58 47.0896 172.81 46.3573C172.046 45.6294 171.62 44.5018 171.62 42.878H170.62C170.62 44.6689 171.092 46.1023 172.121 47.0817C173.145 48.0567 174.637 48.5 176.502 48.5V47.5ZM171.62 42.878V37.886H170.62V42.878H171.62ZM171.12 37.386H169.092V38.386H171.12V37.386ZM169.092 37.386C169.018 37.386 168.972 37.3663 168.927 37.3277L168.269 38.0803C168.502 38.2844 168.785 38.386 169.092 38.386V37.386ZM168.952 37.3504C168.935 37.3337 168.916 37.3102 168.916 37.236H167.916C167.916 37.5431 168.019 37.8316 168.245 38.0576L168.952 37.3504ZM168.916 37.236V35.13H167.916V37.236H168.916ZM168.916 35.13C168.916 35.0558 168.935 35.0323 168.952 35.0156L168.245 34.3084C168.019 34.5344 167.916 34.8229 167.916 35.13H168.916ZM168.927 35.0383C168.972 34.9997 169.018 34.98 169.092 34.98V33.98C168.785 33.98 168.502 34.0816 168.269 34.2857L168.927 35.0383ZM169.092 34.98H171.12V33.98H169.092V34.98ZM171.62 34.48V30.19H170.62V34.48H171.62ZM171.62 30.19C171.62 30.1158 171.639 30.0923 171.656 30.0756L170.949 29.3684C170.723 29.5944 170.62 29.8829 170.62 30.19H171.62ZM171.631 30.0983C171.685 30.0512 171.726 30.04 171.77 30.04V29.04C171.468 29.04 171.197 29.1501 170.973 29.3457L171.631 30.0983ZM171.77 30.04H174.786V29.04H171.77V30.04ZM174.786 30.04C174.86 30.04 174.884 30.0588 174.901 30.0756L175.608 29.3684C175.382 29.1425 175.093 29.04 174.786 29.04V30.04ZM174.901 30.0756C174.917 30.0923 174.936 30.1158 174.936 30.19H175.936C175.936 29.8829 175.834 29.5944 175.608 29.3684L174.901 30.0756ZM174.936 30.19V34.48H175.936V30.19H174.936ZM175.436 34.98H178.686V33.98H175.436V34.98ZM178.686 34.98C178.76 34.98 178.784 34.9988 178.801 35.0156L179.508 34.3084C179.282 34.0825 178.993 33.98 178.686 33.98V34.98ZM178.825 35.0383C178.851 35.061 178.862 35.0778 178.862 35.13H179.862C179.862 34.8009 179.735 34.5057 179.483 34.2857L178.825 35.0383ZM178.862 35.13V37.236H179.862V35.13H178.862ZM178.862 37.236C178.862 37.2882 178.851 37.305 178.825 37.3277L179.483 38.0803C179.735 37.8603 179.862 37.5651 179.862 37.236H178.862ZM178.801 37.3504C178.784 37.3672 178.76 37.386 178.686 37.386V38.386C178.993 38.386 179.282 38.2835 179.508 38.0576L178.801 37.3504ZM178.686 37.386H175.436V38.386H178.686V37.386ZM174.936 37.886V42.514H175.936V37.886H174.936ZM174.936 42.514C174.936 43.2055 175.067 43.816 175.411 44.2621C175.773 44.733 176.307 44.938 176.918 44.938V43.938C176.541 43.938 176.334 43.8224 176.203 43.6519C176.052 43.4567 175.936 43.1051 175.936 42.514H174.936ZM176.918 44.938H178.92V43.938H176.918V44.938ZM178.92 44.938C178.994 44.938 179.018 44.9568 179.035 44.9736L179.742 44.2664C179.516 44.0405 179.227 43.938 178.92 43.938V44.938ZM179.035 44.9736C179.051 44.9903 179.07 45.0138 179.07 45.088H180.07C180.07 44.7809 179.968 44.4924 179.742 44.2664L179.035 44.9736ZM179.07 45.088V47.35H180.07V45.088H179.07ZM179.07 47.35C179.07 47.3942 179.059 47.435 179.012 47.4887L179.764 48.1473C179.96 47.9237 180.07 47.6525 180.07 47.35H179.07ZM179.035 47.4644C179.018 47.4812 178.994 47.5 178.92 47.5V48.5C179.227 48.5 179.516 48.3975 179.742 48.1716L179.035 47.4644ZM178.92 47.5H176.502V48.5H178.92V47.5ZM184.011 47.662L183.815 48.122L183.818 48.1233L184.011 47.662ZM181.931 46.232L182.319 45.9167L181.931 46.232ZM181.437 44.334L181.762 44.7136L181.766 44.7103L181.437 44.334ZM185.129 44.282L184.775 44.6356L184.81 44.6706L184.852 44.698L185.129 44.282ZM185.597 44.62L185.277 45.0041L185.289 45.0147L185.303 45.0244L185.597 44.62ZM186.585 45.244L186.361 45.6912L186.378 45.6994L186.395 45.7063L186.585 45.244ZM188.873 45.14L189.134 45.5667L189.14 45.5627L188.873 45.14ZM189.107 43.58L188.735 43.9145L188.744 43.9243L188.753 43.9336L189.107 43.58ZM188.171 43.086L187.997 43.5549L188.005 43.5577L188.013 43.5603L188.171 43.086ZM186.039 42.54L185.939 43.0298L185.941 43.0303L186.039 42.54ZM182.711 41.11L182.379 41.4843L182.388 41.492L182.711 41.11ZM182.243 36.378L182.652 36.6655L182.243 36.378ZM184.245 34.818L184.043 34.3607L184.039 34.3622L184.245 34.818ZM190.667 34.792L190.475 35.2538L190.667 34.792ZM192.747 36.196L192.365 36.5184L192.37 36.5249L192.376 36.5311L192.747 36.196ZM193.293 38.094L192.939 37.7404L192.926 37.754L192.913 37.7686L193.293 38.094ZM189.809 38.146L190.1 37.7391L190.074 37.7208L190.046 37.7058L189.809 38.146ZM189.211 37.756L189.523 37.3655L189.515 37.3588L189.211 37.756ZM188.379 37.236L188.59 36.7829L188.379 37.236ZM186.325 37.366L186.025 36.966L186.019 36.9707L186.013 36.9756L186.325 37.366ZM186.143 38.822L185.752 39.1343L185.762 39.1457L185.771 39.1565L186.143 38.822ZM187.079 39.342L186.905 39.8109L186.915 39.8147L186.926 39.818L187.079 39.342ZM189.211 39.836L189.12 40.3277L189.125 40.3285L189.211 39.836ZM192.877 41.396L192.527 41.7536L192.531 41.7575L192.877 41.396ZM192.331 47.116L192.608 47.532L192.613 47.5291L192.331 47.116ZM187.547 47.76C186.187 47.76 185.078 47.5664 184.204 47.2007L183.818 48.1233C184.85 48.5549 186.099 48.76 187.547 48.76V47.76ZM184.207 47.202C183.316 46.8225 182.701 46.3872 182.319 45.9167L181.543 46.5473C182.062 47.1862 182.834 47.7041 183.815 48.122L184.207 47.202ZM182.319 45.9167C181.897 45.3978 181.755 45.0147 181.755 44.75H180.755C180.755 45.352 181.063 45.9569 181.543 46.5473L182.319 45.9167ZM181.755 44.75C181.755 44.7223 181.76 44.714 181.758 44.7164C181.758 44.7171 181.758 44.7181 181.757 44.7185C181.757 44.7189 181.758 44.7172 181.762 44.7136L181.112 43.9544C180.869 44.1621 180.755 44.4447 180.755 44.75H181.755ZM181.766 44.7103C181.831 44.6535 181.865 44.652 181.879 44.652V43.652C181.581 43.652 181.32 43.7719 181.108 43.9577L181.766 44.7103ZM181.879 44.652H184.843V43.652H181.879V44.652ZM184.843 44.652C184.823 44.652 184.802 44.6473 184.786 44.6397C184.77 44.6327 184.767 44.6275 184.775 44.6356L185.482 43.9284C185.32 43.766 185.103 43.652 184.843 43.652V44.652ZM184.852 44.698C185.055 44.8336 185.193 44.9346 185.277 45.0041L185.917 44.2359C185.792 44.1321 185.619 44.0078 185.406 43.866L184.852 44.698ZM185.303 45.0244C185.696 45.3105 186.05 45.5356 186.361 45.6912L186.809 44.7968C186.565 44.675 186.26 44.4842 185.891 44.2156L185.303 45.0244ZM186.395 45.7063C186.765 45.8589 187.189 45.926 187.651 45.926V44.926C187.281 44.926 186.994 44.8718 186.775 44.7817L186.395 45.7063ZM187.651 45.926C188.212 45.926 188.719 45.82 189.134 45.5666L188.612 44.7134C188.403 44.8413 188.095 44.926 187.651 44.926V45.926ZM189.14 45.5627C189.602 45.2708 189.867 44.8315 189.867 44.282H188.867C188.867 44.4605 188.802 44.5932 188.606 44.7173L189.14 45.5627ZM189.867 44.282C189.867 43.8834 189.746 43.512 189.46 43.2264L188.753 43.9336C188.814 43.9946 188.867 44.0913 188.867 44.282H189.867ZM189.479 43.2455C189.229 42.9683 188.807 42.7708 188.329 42.6117L188.013 43.5603C188.471 43.7132 188.673 43.8451 188.735 43.9145L189.479 43.2455ZM188.345 42.6171C187.839 42.4297 187.097 42.2417 186.137 42.0497L185.941 43.0303C186.888 43.2197 187.567 43.3956 187.997 43.5549L188.345 42.6171ZM186.139 42.0502C184.749 41.7654 183.728 41.3142 183.033 40.728L182.388 41.492C183.254 42.2231 184.452 42.7253 185.939 43.0298L186.139 42.0502ZM183.043 40.7358C182.399 40.1654 182.067 39.4065 182.067 38.406H181.067C181.067 39.6588 181.497 40.7026 182.379 41.4842L183.043 40.7358ZM182.067 38.406C182.067 37.8088 182.254 37.2317 182.652 36.6655L181.834 36.0905C181.33 36.807 181.067 37.5819 181.067 38.406H182.067ZM182.652 36.6655C183.04 36.113 183.629 35.6443 184.45 35.2738L184.039 34.3622C183.093 34.789 182.347 35.3603 181.834 36.0905L182.652 36.6655ZM184.447 35.2753C185.271 34.9109 186.265 34.72 187.443 34.72V33.72C186.159 33.72 185.021 33.9278 184.043 34.3607L184.447 35.2753ZM187.443 34.72C188.623 34.72 189.63 34.9029 190.475 35.2538L190.859 34.3302C189.867 33.9184 188.724 33.72 187.443 33.72V34.72ZM190.475 35.2538C191.346 35.6153 191.964 36.0431 192.365 36.5184L193.129 35.8736C192.594 35.2396 191.825 34.7314 190.859 34.3302L190.475 35.2538ZM192.376 36.5311C192.826 37.0294 192.975 37.4075 192.975 37.678H193.975C193.975 37.0472 193.639 36.4373 193.118 35.8609L192.376 36.5311ZM192.975 37.678C192.975 37.6875 192.977 37.7026 192.939 37.7404L193.646 38.4476C193.851 38.2427 193.975 37.9805 193.975 37.678H192.975ZM192.913 37.7686C192.907 37.7754 192.904 37.7783 192.903 37.7789C192.902 37.7795 192.903 37.7786 192.906 37.7774C192.909 37.7762 192.911 37.7757 192.911 37.7755C192.912 37.7754 192.909 37.776 192.903 37.776V38.776C193.209 38.776 193.476 38.6484 193.673 38.4194L192.913 37.7686ZM192.903 37.776H190.199V38.776H192.903V37.776ZM190.199 37.776C190.172 37.776 190.143 37.77 190.1 37.7391L189.518 38.5529C189.718 38.6953 189.948 38.776 190.199 38.776V37.776ZM190.046 37.7058C189.843 37.5966 189.67 37.4828 189.523 37.3656L188.899 38.1464C189.099 38.3065 189.324 38.4527 189.572 38.5862L190.046 37.7058ZM189.515 37.3588C189.199 37.1176 188.891 36.9232 188.59 36.7829L188.167 37.6891C188.387 37.7915 188.633 37.9438 188.907 38.1532L189.515 37.3588ZM188.59 36.7829C188.246 36.6223 187.848 36.554 187.417 36.554V37.554C187.748 37.554 187.992 37.6071 188.167 37.6891L188.59 36.7829ZM187.417 36.554C186.891 36.554 186.412 36.676 186.025 36.966L186.625 37.766C186.793 37.64 187.042 37.554 187.417 37.554V36.554ZM186.013 36.9756C185.635 37.2772 185.435 37.6888 185.435 38.172H186.435C186.435 37.9965 186.494 37.8708 186.637 37.7564L186.013 36.9756ZM185.435 38.172C185.435 38.5252 185.531 38.8577 185.752 39.1343L186.533 38.5097C186.477 38.4396 186.435 38.3388 186.435 38.172H185.435ZM185.771 39.1565C186.015 39.4272 186.429 39.6345 186.905 39.8109L187.253 38.8731C186.793 38.7028 186.583 38.5634 186.515 38.4875L185.771 39.1565ZM186.926 39.818C187.442 39.9839 188.178 40.1531 189.12 40.3276L189.302 39.3444C188.372 39.1722 187.686 39.0121 187.232 38.866L186.926 39.818ZM189.125 40.3285C190.761 40.6153 191.868 41.1095 192.527 41.7536L193.226 41.0384C192.36 40.1918 191.023 39.646 189.297 39.3435L189.125 40.3285ZM192.531 41.7575C193.221 42.4162 193.547 43.164 193.547 44.022H194.547C194.547 42.8694 194.093 41.8665 193.222 41.0345L192.531 41.7575ZM193.547 44.022C193.547 45.1244 193.069 46.0073 192.049 46.7029L192.613 47.5291C193.88 46.6647 194.547 45.4849 194.547 44.022H193.547ZM192.054 46.7C191.023 47.3872 189.539 47.76 187.547 47.76V48.76C189.646 48.76 191.351 48.3701 192.608 47.532L192.054 46.7Z" fill="url(#paint0_linear)"/>
</g>
<g filter="url(#filter1_d)">
<mask id="path-3-inside-1" fill="white">
<path fill-rule="evenodd" clip-rule="evenodd" d="M24.4776 15.1036C23.6682 15.1036 23.1941 16.0149 23.6588 16.6777L40.4781 40.6652C41.0392 41.4654 42.2969 41.0684 42.2969 40.0911L42.2969 16.1035C42.2969 15.5513 41.8492 15.1035 41.2969 15.1035L24.4776 15.1036ZM38.6228 18.9414L29.4374 18.9414L38.6228 32.3793L38.6228 18.9414Z"/>
</mask>
<path fill-rule="evenodd" clip-rule="evenodd" d="M24.4776 15.1036C23.6682 15.1036 23.1941 16.0149 23.6588 16.6777L40.4781 40.6652C41.0392 41.4654 42.2969 41.0684 42.2969 40.0911L42.2969 16.1035C42.2969 15.5513 41.8492 15.1035 41.2969 15.1035L24.4776 15.1036ZM38.6228 18.9414L29.4374 18.9414L38.6228 32.3793L38.6228 18.9414Z" fill="#576FFF"/>
<path d="M23.6588 16.6777L24.4776 16.1036L24.4776 16.1036L23.6588 16.6777ZM24.4776 15.1036L24.4776 16.1036L24.4776 15.1036ZM40.4781 40.6652L39.6593 41.2393L40.4781 40.6652ZM41.2969 15.1035L41.2969 14.1035L41.2969 14.1035L41.2969 15.1035ZM29.4374 18.9414L29.4374 17.9414L27.5426 17.9414L28.6119 19.5057L29.4374 18.9414ZM38.6228 18.9414L39.6228 18.9414L39.6228 17.9414L38.6228 17.9414L38.6228 18.9414ZM38.6228 32.3793L37.7973 32.9436L39.6228 35.6143L39.6228 32.3793L38.6228 32.3793ZM24.4776 16.1036L24.4776 16.1036L24.4776 14.1036C22.8588 14.1036 21.9107 15.9263 22.84 17.2518L24.4776 16.1036ZM41.2969 40.0911L24.4776 16.1036L22.84 17.2518L39.6593 41.2393L41.2969 40.0911ZM41.2969 40.0911L41.2969 40.0911L39.6593 41.2393C40.7815 42.8397 43.2969 42.0458 43.2969 40.0911L41.2969 40.0911ZM41.2969 16.1035L41.2969 40.0911L43.2969 40.0911L43.2969 16.1035L41.2969 16.1035ZM41.2969 16.1035L41.2969 16.1035L43.2969 16.1035C43.2969 14.999 42.4014 14.1035 41.2969 14.1035L41.2969 16.1035ZM24.4776 16.1036L41.2969 16.1035L41.2969 14.1035L24.4776 14.1036L24.4776 16.1036ZM29.4374 19.9414L38.6228 19.9414L38.6228 17.9414L29.4374 17.9414L29.4374 19.9414ZM39.4484 31.815L30.263 18.3771L28.6119 19.5057L37.7973 32.9436L39.4484 31.815ZM37.6228 18.9414L37.6228 32.3793L39.6228 32.3793L39.6228 18.9414L37.6228 18.9414Z" fill="url(#paint1_linear)" mask="url(#path-3-inside-1)"/>
</g>
<g filter="url(#filter2_d)">
<mask id="path-5-inside-2" fill="white">
<path fill-rule="evenodd" clip-rule="evenodd" d="M30.4443 42.5695C31.2537 42.5695 31.7277 41.6581 31.2631 40.9954L14.4438 17.0079C13.8827 16.2077 12.625 16.6047 12.625 17.582L12.625 41.5695C12.625 42.1218 13.0727 42.5695 13.625 42.5695L30.4443 42.5695ZM16.299 38.7317L25.4845 38.7317L16.299 25.2938L16.299 38.7317Z"/>
</mask>
<path fill-rule="evenodd" clip-rule="evenodd" d="M30.4443 42.5695C31.2537 42.5695 31.7277 41.6581 31.2631 40.9954L14.4438 17.0079C13.8827 16.2077 12.625 16.6047 12.625 17.582L12.625 41.5695C12.625 42.1218 13.0727 42.5695 13.625 42.5695L30.4443 42.5695ZM16.299 38.7317L25.4845 38.7317L16.299 25.2938L16.299 38.7317Z" fill="#576FFF"/>
<path d="M31.2631 40.9954L30.4443 41.5695L30.4443 41.5695L31.2631 40.9954ZM30.4443 42.5695L30.4443 41.5695L30.4443 42.5695ZM14.4438 17.0079L15.2626 16.4338L14.4438 17.0079ZM13.625 42.5695L13.625 43.5695L13.625 43.5695L13.625 42.5695ZM25.4845 38.7317L25.4845 39.7317L27.3793 39.7317L26.31 38.1674L25.4845 38.7317ZM16.299 38.7317L15.299 38.7317L15.299 39.7317L16.299 39.7317L16.299 38.7317ZM16.299 25.2938L17.1246 24.7295L15.299 22.0587L15.299 25.2938L16.299 25.2938ZM30.4443 41.5695L30.4443 41.5695L30.4443 43.5695C32.063 43.5695 33.0112 41.7468 32.0819 40.4213L30.4443 41.5695ZM13.625 17.582L30.4443 41.5695L32.0819 40.4213L15.2626 16.4338L13.625 17.582ZM13.625 17.582L13.625 17.582L15.2626 16.4338C14.1404 14.8334 11.625 15.6273 11.625 17.582L13.625 17.582ZM13.625 41.5695L13.625 17.582L11.625 17.582L11.625 41.5695L13.625 41.5695ZM13.625 41.5695L13.625 41.5695L11.625 41.5695C11.625 42.6741 12.5204 43.5695 13.625 43.5695L13.625 41.5695ZM30.4443 41.5695L13.625 41.5695L13.625 43.5695L30.4443 43.5695L30.4443 41.5695ZM25.4845 37.7317L16.299 37.7317L16.299 39.7317L25.4845 39.7317L25.4845 37.7317ZM15.4735 25.8581L24.6589 39.296L26.31 38.1674L17.1246 24.7295L15.4735 25.8581ZM17.299 38.7317L17.299 25.2938L15.299 25.2938L15.299 38.7317L17.299 38.7317Z" fill="url(#paint2_linear)" mask="url(#path-5-inside-2)"/>
</g>
<g filter="url(#filter3_d)">
<path fill-rule="evenodd" clip-rule="evenodd" d="M16.8512 10.06C19.3749 8.77083 22.1377 7.98533 24.9847 7.76063C28.9599 7.4469 32.9444 8.23871 36.4976 10.0485C40.0508 11.8583 43.0342 14.6155 45.1179 18.0153C47.2017 21.4151 48.3045 25.325 48.3045 29.3125H51.9981C51.9981 28.0526 51.9041 26.7993 51.7188 25.5625C51.2176 22.2164 50.0485 18.9916 48.2671 16.0852C45.8274 12.1045 42.3342 8.87621 38.174 6.75722C34.0137 4.63823 29.3484 3.71114 24.6941 4.07848C21.2958 4.34668 18 5.29732 14.9987 6.85947C13.8917 7.4357 12.707 8.25845 11.6895 8.99785L11.6847 8.99999L38.1526 47.3923C35.3654 49.0076 32.2436 49.9844 29.0134 50.2394C25.0383 50.5531 21.0537 49.7613 17.5006 47.9515C13.9474 46.1417 10.9639 43.3845 8.88019 39.9847C6.79646 36.5849 5.69361 32.675 5.69361 28.6875H2C2 29.9474 2.09404 31.2007 2.27931 32.4375C2.78057 35.7836 3.94967 39.0084 5.73102 41.9148C8.17076 45.8955 11.6639 49.1238 15.8242 51.2428C19.9844 53.3618 24.6497 54.2889 29.304 53.9215C32.7024 53.6533 35.9982 52.7027 38.9994 51.1405C40.0235 50.6075 41.0133 50.0033 41.9612 49.3306L41.9975 49.3125L43.2475 48.375L16.8512 10.06Z" fill="#84F195"/>
<path d="M16.8512 10.06L16.6237 9.61469L16.116 9.87407L16.4394 10.3436L16.8512 10.06ZM24.9847 7.76063L24.9454 7.26218L24.9847 7.76063ZM45.1179 18.0153L44.6916 18.2766L45.1179 18.0153ZM48.3045 29.3125H47.8045V29.8125H48.3045V29.3125ZM51.9981 29.3125V29.8125H52.4981V29.3125H51.9981ZM51.7188 25.5625L52.2133 25.4884L51.7188 25.5625ZM48.2671 16.0852L47.8408 16.3465V16.3465L48.2671 16.0852ZM38.174 6.75722L37.947 7.20276L38.174 6.75722ZM24.6941 4.07848L24.7334 4.57693L24.6941 4.07848ZM14.9987 6.85947L15.2296 7.30298L14.9987 6.85947ZM11.6895 8.99785L11.8926 9.45475L11.9408 9.43333L11.9835 9.40233L11.6895 8.99785ZM11.6847 8.99999L11.4816 8.54309L10.9311 8.78778L11.2731 9.28378L11.6847 8.99999ZM38.1526 47.3923L38.4033 47.8249L38.8712 47.5537L38.5643 47.1085L38.1526 47.3923ZM29.0134 50.2394L28.9741 49.7409L29.0134 50.2394ZM8.88019 39.9847L9.30649 39.7234L8.88019 39.9847ZM5.69361 28.6875H6.19361V28.1875H5.69361V28.6875ZM2 28.6875V28.1875H1.5V28.6875H2ZM2.27931 32.4375L2.77379 32.3634H2.77379L2.27931 32.4375ZM5.73102 41.9148L6.15732 41.6535L5.73102 41.9148ZM15.8242 51.2428L15.5972 51.6883H15.5972L15.8242 51.2428ZM29.304 53.9215L29.2647 53.4231L29.304 53.9215ZM38.9994 51.1405L38.7686 50.697L38.9994 51.1405ZM41.9612 49.3306L41.7375 48.8834L41.7031 48.9006L41.6718 48.9229L41.9612 49.3306ZM41.9975 49.3125L42.2211 49.7597L42.2614 49.7395L42.2975 49.7125L41.9975 49.3125ZM43.2475 48.375L43.5475 48.775L43.9317 48.4868L43.6592 48.0913L43.2475 48.375ZM17.0786 10.5052C19.544 9.24591 22.2429 8.47858 25.024 8.25908L24.9454 7.26218C22.0325 7.49208 19.2058 8.29574 16.6237 9.61469L17.0786 10.5052ZM25.024 8.25908C28.9073 7.95261 32.7996 8.7261 36.2707 10.494L36.7245 9.60296C33.0891 7.75132 29.0125 6.94119 24.9454 7.26218L25.024 8.25908ZM36.2707 10.494C39.7417 12.262 42.6561 14.9554 44.6916 18.2766L45.5442 17.754C43.4123 14.2756 40.3599 11.4546 36.7245 9.60296L36.2707 10.494ZM44.6916 18.2766C46.7272 21.5978 47.8045 25.4172 47.8045 29.3125H48.8045C48.8045 25.2327 47.6762 21.2325 45.5442 17.754L44.6916 18.2766ZM48.3045 29.8125H51.9981V28.8125H48.3045V29.8125ZM52.4981 29.3125C52.4981 28.0277 52.4022 26.7496 52.2133 25.4884L51.2243 25.6366C51.406 26.8489 51.4981 28.0774 51.4981 29.3125H52.4981ZM52.2133 25.4884C51.7022 22.0762 50.51 18.7877 48.6934 15.8239L47.8408 16.3465C49.587 19.1955 50.733 22.3566 51.2243 25.6366L52.2133 25.4884ZM48.6934 15.8239C46.2055 11.7646 42.6433 8.47253 38.4009 6.31169L37.947 7.20276C42.0251 9.27989 45.4493 12.4444 47.8408 16.3465L48.6934 15.8239ZM38.4009 6.31169C34.1585 4.15084 29.401 3.20544 24.6548 3.58003L24.7334 4.57693C29.2958 4.21685 33.8689 5.12562 37.947 7.20276L38.4009 6.31169ZM24.6548 3.58003C21.1893 3.85353 17.8284 4.82295 14.7679 6.41595L15.2296 7.30298C18.1715 5.77169 21.4022 4.83984 24.7334 4.57693L24.6548 3.58003ZM14.7679 6.41595C13.6252 7.01071 12.4148 7.85274 11.3956 8.59337L11.9835 9.40233C12.9993 8.66416 14.1581 7.86068 15.2296 7.30298L14.7679 6.41595ZM11.8878 9.45688L11.8926 9.45475L11.4864 8.54095L11.4816 8.54309L11.8878 9.45688ZM38.5643 47.1085L12.0964 8.71619L11.2731 9.28378L37.741 47.6761L38.5643 47.1085ZM29.0528 50.7378C32.3577 50.477 35.5517 49.4775 38.4033 47.8249L37.9019 46.9597C35.1792 48.5376 32.1296 49.4919 28.9741 49.7409L29.0528 50.7378ZM17.2736 48.397C20.909 50.2487 24.9857 51.0588 29.0528 50.7378L28.9741 49.7409C25.0909 50.0474 21.1985 49.2739 17.7275 47.506L17.2736 48.397ZM8.45389 40.246C10.5858 43.7244 13.6383 46.5454 17.2736 48.397L17.7275 47.506C14.2565 45.738 11.342 43.0446 9.30649 39.7234L8.45389 40.246ZM5.19361 28.6875C5.19361 32.7673 6.32196 36.7675 8.45389 40.246L9.30649 39.7234C7.27095 36.4022 6.19361 32.5828 6.19361 28.6875H5.19361ZM2 29.1875H5.69361V28.1875H2V29.1875ZM2.77379 32.3634C2.59218 31.1511 2.5 29.9226 2.5 28.6875H1.5C1.5 29.9723 1.59589 31.2504 1.78482 32.5116L2.77379 32.3634ZM6.15732 41.6535C4.41116 38.8045 3.26515 35.6434 2.77379 32.3634L1.78482 32.5116C2.29599 35.9238 3.48818 39.2123 5.30472 42.1761L6.15732 41.6535ZM16.0511 50.7972C11.973 48.7201 8.54887 45.5555 6.15732 41.6535L5.30472 42.1761C7.79265 46.2354 11.3548 49.5275 15.5972 51.6883L16.0511 50.7972ZM29.2647 53.4231C24.7023 53.7831 20.1292 52.8744 16.0511 50.7972L15.5972 51.6883C19.8397 53.8492 24.5971 54.7946 29.3434 54.42L29.2647 53.4231ZM38.7686 50.697C35.8266 52.2283 32.5959 53.1602 29.2647 53.4231L29.3434 54.42C32.8088 54.1465 36.1698 53.1771 39.2303 51.584L38.7686 50.697ZM41.6718 48.9229C40.7427 49.5822 39.7724 50.1745 38.7686 50.697L39.2303 51.584C40.2746 51.0405 41.2839 50.4243 42.2505 49.7384L41.6718 48.9229ZM41.7738 48.8653L41.7375 48.8834L42.1848 49.7778L42.2211 49.7597L41.7738 48.8653ZM42.9475 47.975L41.6975 48.9125L42.2975 49.7125L43.5475 48.775L42.9475 47.975ZM16.4394 10.3436L42.8357 48.6586L43.6592 48.0913L17.2629 9.7763L16.4394 10.3436Z" fill="url(#paint3_linear)"/>
</g>
<defs>
<filter id="filter0_d" x="61.7339" y="5.04004" width="141.813" height="55.4" filterUnits="userSpaceOnUse" color-interpolation-filters="sRGB">
<feFlood flood-opacity="0" result="BackgroundImageFix"/>
<feColorMatrix in="SourceAlpha" type="matrix" values="0 0 0 0 0 0 0 0 0 0 0 0 0 0 0 0 0 0 127 0"/>
<feOffset dx="4" dy="2"/>
<feGaussianBlur stdDeviation="2.5"/>
<feColorMatrix type="matrix" values="0 0 0 0 0 0 0 0 0 0 0 0 0 0 0 0 0 0 0.1 0"/>
<feBlend mode="normal" in2="BackgroundImageFix" result="effect1_dropShadow"/>
<feBlend mode="normal" in="SourceGraphic" in2="effect1_dropShadow" result="shape"/>
</filter>
<filter id="filter1_d" x="22.4758" y="12.1035" width="28.821" height="35.9895" filterUnits="userSpaceOnUse" color-interpolation-filters="sRGB">
<feFlood flood-opacity="0" result="BackgroundImageFix"/>
<feColorMatrix in="SourceAlpha" type="matrix" values="0 0 0 0 0 0 0 0 0 0 0 0 0 0 0 0 0 0 127 0"/>
<feOffset dx="4" dy="2"/>
<feGaussianBlur stdDeviation="2.5"/>
<feColorMatrix type="matrix" values="0 0 0 0 0 0 0 0 0 0 0 0 0 0 0 0 0 0 0.1 0"/>
<feBlend mode="normal" in2="BackgroundImageFix" result="effect1_dropShadow"/>
<feBlend mode="normal" in="SourceGraphic" in2="effect1_dropShadow" result="shape"/>
</filter>
<filter id="filter2_d" x="11.625" y="13.5801" width="28.821" height="35.9895" filterUnits="userSpaceOnUse" color-interpolation-filters="sRGB">
<feFlood flood-opacity="0" result="BackgroundImageFix"/>
<feColorMatrix in="SourceAlpha" type="matrix" values="0 0 0 0 0 0 0 0 0 0 0 0 0 0 0 0 0 0 127 0"/>
<feOffset dx="4" dy="2"/>
<feGaussianBlur stdDeviation="2.5"/>
<feColorMatrix type="matrix" values="0 0 0 0 0 0 0 0 0 0 0 0 0 0 0 0 0 0 0.1 0"/>
<feBlend mode="normal" in2="BackgroundImageFix" result="effect1_dropShadow"/>
<feBlend mode="normal" in="SourceGraphic" in2="effect1_dropShadow" result="shape"/>
</filter>
<filter id="filter3_d" x="0.5" y="0.5" width="60.9981" height="61" filterUnits="userSpaceOnUse" color-interpolation-filters="sRGB">
<feFlood flood-opacity="0" result="BackgroundImageFix"/>
<feColorMatrix in="SourceAlpha" type="matrix" values="0 0 0 0 0 0 0 0 0 0 0 0 0 0 0 0 0 0 127 0"/>
<feOffset dx="4" dy="2"/>
<feGaussianBlur stdDeviation="2.5"/>
<feColorMatrix type="matrix" values="0 0 0 0 0 0 0 0 0 0 0 0 0 0 0 0 0 0 0.1 0"/>
<feBlend mode="normal" in2="BackgroundImageFix" result="effect1_dropShadow"/>
<feBlend mode="normal" in="SourceGraphic" in2="effect1_dropShadow" result="shape"/>
</filter>
<linearGradient id="paint0_linear" x1="76" y1="7.99999" x2="195" y2="48" gradientUnits="userSpaceOnUse">
<stop stop-color="#4E64E8"/>
<stop offset="1" stop-color="#132DCA"/>
</linearGradient>
<linearGradient id="paint1_linear" x1="32.8864" y1="41.093" x2="32.8864" y2="15.1035" gradientUnits="userSpaceOnUse">
<stop stop-color="#536BFF"/>
<stop offset="1" stop-color="#2943DC"/>
</linearGradient>
<linearGradient id="paint2_linear" x1="22.0355" y1="16.5801" x2="22.0355" y2="42.5695" gradientUnits="userSpaceOnUse">
<stop stop-color="#536BFF"/>
<stop offset="1" stop-color="#2943DC"/>
</linearGradient>
<linearGradient id="paint3_linear" x1="8.5" y1="4" x2="45" y2="55" gradientUnits="userSpaceOnUse">
<stop stop-color="#71EB85"/>
<stop offset="1" stop-color="#4FCC63"/>
</linearGradient>
</defs>
</svg>
