<svg width="72" height="72" viewBox="0 0 72 72" fill="none" xmlns="http://www.w3.org/2000/svg">
<g filter="url(#filter0_d)">
<circle cx="36" cy="28" r="26" fill="white"/>
</g>
<path d="M30.7627 33.5174L32.5721 23.3394H35.3994L33.6465 33.5174H30.7627Z" fill="#3C58BF"/>
<path d="M30.7627 33.5174L33.081 23.3394H35.3994L33.6465 33.5174H30.7627Z" fill="#293688"/>
<path d="M43.8818 23.4524C43.3163 23.2262 42.4116 23 41.2807 23C38.4535 23 36.4179 24.4136 36.4179 26.4492C36.4179 27.9759 37.8315 28.7676 38.9624 29.2765C40.0933 29.7854 40.4326 30.1246 40.4326 30.577C40.4326 31.2555 39.5279 31.5948 38.7362 31.5948C37.6053 31.5948 36.9834 31.4251 36.0221 31.0293L35.6263 30.8597L35.2305 33.178C35.909 33.4608 37.153 33.7435 38.4535 33.7435C41.4504 33.7435 43.4294 32.3299 43.4294 30.1812C43.4294 28.9937 42.6944 28.089 40.998 27.3539C39.9802 26.845 39.3582 26.5623 39.3582 26.0534C39.3582 25.6011 39.8671 25.1487 40.998 25.1487C41.9593 25.1487 42.6378 25.3183 43.1467 25.5445L43.4294 25.6576L43.8818 23.4524Z" fill="#3C58BF"/>
<path d="M43.8818 23.4524C43.3163 23.2262 42.4116 23 41.2807 23C38.4535 23 36.9268 24.4136 36.9268 26.4492C36.9268 27.9759 37.8315 28.7676 38.9624 29.2765C40.0933 29.7854 40.4326 30.1246 40.4326 30.577C40.4326 31.2555 39.5279 31.5948 38.7362 31.5948C37.6053 31.5948 36.9834 31.4251 36.0221 31.0293L35.6263 30.8597L35.2305 33.178C35.909 33.4608 37.153 33.7435 38.4535 33.7435C41.4504 33.7435 43.4294 32.3299 43.4294 30.1812C43.4294 28.9937 42.6944 28.089 40.998 27.3539C39.9802 26.845 39.3582 26.5623 39.3582 26.0534C39.3582 25.6011 39.8671 25.1487 40.998 25.1487C41.9593 25.1487 42.6378 25.3183 43.1467 25.5445L43.4294 25.6576L43.8818 23.4524Z" fill="#293688"/>
<path d="M48.7447 23.3394C48.0662 23.3394 47.5573 23.3959 47.2745 24.0744L43.0337 33.5174H46.0871L46.6525 31.821H50.2714L50.6107 33.5174H53.3248L50.9499 23.3394H48.7447ZM47.4442 30.1247C47.6138 29.6158 48.5751 27.1278 48.5751 27.1278C48.5751 27.1278 48.8012 26.5059 48.9709 26.11L49.1405 27.0713C49.1405 27.0713 49.706 29.6158 49.819 30.1813H47.4442V30.1247Z" fill="#3C58BF"/>
<path d="M49.4232 23.3394C48.7447 23.3394 48.2358 23.3959 47.9531 24.0744L43.0337 33.5174H46.0871L46.6525 31.821H50.2714L50.6107 33.5174H53.3248L50.9499 23.3394H49.4232ZM47.4442 30.1247C47.6704 29.5593 48.5751 27.1278 48.5751 27.1278C48.5751 27.1278 48.8012 26.5059 48.9709 26.11L49.1405 27.0713C49.1405 27.0713 49.706 29.6158 49.819 30.1813H47.4442V30.1247Z" fill="#293688"/>
<path d="M25.5612 30.4638L25.2784 28.9937C24.7695 27.2973 23.1297 25.4314 21.3203 24.5266L23.8648 33.5738H26.9182L31.4983 23.3958H28.4449L25.5612 30.4638Z" fill="#3C58BF"/>
<path d="M25.5612 30.4638L25.2784 28.9937C24.7695 27.2973 23.1297 25.4314 21.3203 24.5266L23.8648 33.5738H26.9182L31.4983 23.3958H29.0104L25.5612 30.4638Z" fill="#293688"/>
<path d="M17.7012 23.3394L18.2101 23.4524C21.8289 24.3006 24.3169 26.4493 25.2782 28.9938L24.2603 24.1875C24.0907 23.509 23.5818 23.3394 22.9598 23.3394H17.7012Z" fill="#FFBC00"/>
<path d="M17.7012 23.3394C21.32 24.1875 24.3169 26.3928 25.2782 28.9373L24.3169 24.9226C24.1473 24.2441 23.5818 23.8483 22.9598 23.8483L17.7012 23.3394Z" fill="#F7981D"/>
<path d="M17.7012 23.3394C21.32 24.1875 24.3169 26.3928 25.2782 28.9373L24.5996 26.732C24.43 26.0535 24.2038 25.375 23.4122 25.0922L17.7012 23.3394Z" fill="#ED7C00"/>
<path d="M28.3875 30.1244L26.465 28.2019L25.5603 30.3506L25.3341 28.937C24.8252 27.2407 23.1854 25.3747 21.376 24.47L23.9205 33.5171H26.9739L28.3875 30.1244Z" fill="#051244"/>
<path d="M33.647 33.5173L31.2155 31.0293L30.7632 33.5173H33.647Z" fill="#051244"/>
<path d="M40.1489 30.0115C40.3751 30.2377 40.4881 30.4073 40.4316 30.6335C40.4316 31.312 39.5269 31.6513 38.7353 31.6513C37.6044 31.6513 36.9824 31.4816 36.0211 31.0858L35.6253 30.9162L35.2295 33.2345C35.908 33.5172 37.152 33.8 38.4525 33.8C40.262 33.8 41.7321 33.2911 42.5803 32.3863L40.1489 30.0115Z" fill="#051244"/>
<path d="M43.4297 33.5172H46.0873L46.6527 31.8209H50.2716L50.6109 33.5172H53.325L52.3637 29.3895L48.9711 26.1099L49.1407 27.0146C49.1407 27.0146 49.7061 29.5591 49.8192 30.1245H47.4444C47.6705 29.5591 48.5752 27.1277 48.5752 27.1277C48.5752 27.1277 48.8014 26.5057 48.9711 26.1099" fill="#051244"/>
<defs>
<filter id="filter0_d" x="0" y="0" width="72" height="72" filterUnits="userSpaceOnUse" color-interpolation-filters="sRGB">
<feFlood flood-opacity="0" result="BackgroundImageFix"/>
<feColorMatrix in="SourceAlpha" type="matrix" values="0 0 0 0 0 0 0 0 0 0 0 0 0 0 0 0 0 0 127 0"/>
<feOffset dy="8"/>
<feGaussianBlur stdDeviation="5"/>
<feColorMatrix type="matrix" values="0 0 0 0 0.728194 0 0 0 0 0.739253 0 0 0 0 0.816667 0 0 0 0.2 0"/>
<feBlend mode="normal" in2="BackgroundImageFix" result="effect1_dropShadow"/>
<feBlend mode="normal" in="SourceGraphic" in2="effect1_dropShadow" result="shape"/>
</filter>
</defs>
</svg>
