<svg width="945" height="931" viewBox="0 0 945 931" fill="none" xmlns="http://www.w3.org/2000/svg">
<path d="M878.541 139.061L520.703 181.742M520.703 181.742L237.974 215.465C211.31 217.299 154.072 234.047 138.439 286.369C122.807 338.69 74.1182 512.73 51.7279 593.209C46.8427 615.417 49.4074 663.257 98.7475 676.948C148.088 690.64 771.474 851.354 1077 930V114L520.703 181.742Z" stroke="#C4C4C4"/>
<g filter="url(#filter0_ii)">
<path d="M93.6062 182.508C110.152 127.108 170.734 109.375 198.956 107.434L498.203 71.7272L1087 0V864C763.625 780.728 103.818 610.56 51.5954 596.063C-0.627215 581.566 -3.34175 530.912 1.82881 507.398C25.5272 422.184 77.0604 237.907 93.6062 182.508Z" fill="url(#paint0_linear)"/>
<path d="M93.6062 182.508C110.152 127.108 170.734 109.375 198.956 107.434L498.203 71.7272L1087 0V864C763.625 780.728 103.818 610.56 51.5954 596.063C-0.627215 581.566 -3.34175 530.912 1.82881 507.398C25.5272 422.184 77.0604 237.907 93.6062 182.508Z" fill="#3A51DB"/>
<path d="M93.6062 182.508C110.152 127.108 170.734 109.375 198.956 107.434L498.203 71.7272L1087 0V864C763.625 780.728 103.818 610.56 51.5954 596.063C-0.627215 581.566 -3.34175 530.912 1.82881 507.398C25.5272 422.184 77.0604 237.907 93.6062 182.508Z" fill="#576FFF"/>
</g>
<defs>
<filter id="filter0_ii" x="-4" y="-3" width="1091" height="870" filterUnits="userSpaceOnUse" color-interpolation-filters="sRGB">
<feFlood flood-opacity="0" result="BackgroundImageFix"/>
<feBlend mode="normal" in="SourceGraphic" in2="BackgroundImageFix" result="shape"/>
<feColorMatrix in="SourceAlpha" type="matrix" values="0 0 0 0 0 0 0 0 0 0 0 0 0 0 0 0 0 0 127 0" result="hardAlpha"/>
<feOffset dx="-4" dy="-3"/>
<feGaussianBlur stdDeviation="2"/>
<feComposite in2="hardAlpha" operator="arithmetic" k2="-1" k3="1"/>
<feColorMatrix type="matrix" values="0 0 0 0 0.270035 0 0 0 0 0.351696 0 0 0 0 0.841667 0 0 0 1 0"/>
<feBlend mode="normal" in2="shape" result="effect1_innerShadow"/>
<feColorMatrix in="SourceAlpha" type="matrix" values="0 0 0 0 0 0 0 0 0 0 0 0 0 0 0 0 0 0 127 0" result="hardAlpha"/>
<feOffset dy="3"/>
<feGaussianBlur stdDeviation="2"/>
<feComposite in2="hardAlpha" operator="arithmetic" k2="-1" k3="1"/>
<feColorMatrix type="matrix" values="0 0 0 0 0.616667 0 0 0 0 0.671429 0 0 0 0 1 0 0 0 1 0"/>
<feBlend mode="normal" in2="effect1_innerShadow" result="effect2_innerShadow"/>
</filter>
<linearGradient id="paint0_linear" x1="51.3335" y1="79.4117" x2="1087.33" y2="961.024" gradientUnits="userSpaceOnUse">
<stop stop-color="#6076FF"/>
<stop offset="1" stop-color="#1D35BF"/>
</linearGradient>
</defs>
</svg>
