<svg width="24" height="24" viewBox="0 0 24 24" fill="none" xmlns="http://www.w3.org/2000/svg">
<path d="M22.5006 5.68677C21.6841 6.85569 20.6655 7.86941 19.4926 8.68017L19.4926 8.68016C19.4183 10.7305 18.8198 12.7277 17.7541 14.481C16.6884 16.2342 15.1911 17.6851 13.4052 18.695C11.6192 19.7049 9.60418 20.2402 7.55247 20.2497C5.50076 20.2593 3.48084 19.7428 1.68555 18.7495L1.68616 18.7484C4.03051 18.716 6.31343 17.9941 8.25024 16.6728L8.25016 16.6729C6.17689 15.2598 4.59782 13.2333 3.73433 10.8775C2.87084 8.52177 2.76623 5.95484 3.43517 3.53662L3.43513 3.53664C4.39323 5.01214 5.66407 6.25889 7.15762 7.18858C8.65117 8.11827 10.3309 8.70815 12.0778 8.91644L12.0775 8.91649C11.8936 8.03956 12.0296 7.12575 12.461 6.34043C12.8924 5.55511 13.5907 4.95017 14.4295 4.6351C15.2683 4.32003 16.1922 4.31564 17.034 4.62273C17.8757 4.92982 18.5797 5.52809 19.0186 6.30927L19.0186 6.30969C20.2036 6.27432 21.3769 6.06443 22.5006 5.68677" stroke="white" stroke-width="1.7" stroke-linecap="round" stroke-linejoin="round"/>
</svg>
