<svg width="72" height="75" viewBox="0 0 72 75" fill="none" xmlns="http://www.w3.org/2000/svg">
<g filter="url(#filter0_f)">
<g filter="url(#filter1_d)">
<circle cx="36" cy="31" r="26" fill="white"/>
</g>
<path d="M31.2137 32.4927H26.3828V40.7052H31.2137V32.4927Z" fill="#494949"/>
<path d="M31.2137 32.4927V40.7052H26.3828" fill="black"/>
<path d="M28.7971 31.4299C30.2912 31.4299 31.5024 30.2187 31.5024 28.7246C31.5024 27.2305 30.2912 26.0193 28.7971 26.0193C27.303 26.0193 26.0918 27.2305 26.0918 28.7246C26.0918 30.2187 27.303 31.4299 28.7971 31.4299Z" fill="#494949"/>
<path d="M30.6811 26.7922C31.7439 27.855 31.7439 29.5942 30.6811 30.657C29.6183 31.7198 27.8792 31.7198 26.8164 30.657" fill="black"/>
<path d="M40.3913 18H23V44.087H40.3913C43.7729 44.0386 47.058 43.1208 49.1836 41.285C51.744 39.1111 53 35.6329 53 30.9952C53 28.7729 52.6135 26.7923 51.9372 25.1014C51.3092 23.4589 50.3913 22.1063 49.1836 20.9952C47.0097 19.1111 43.7729 18.0483 40.3913 18ZM39.9082 19.9324C43.2415 19.9324 46.0435 20.7536 47.9758 22.4444C50.1498 24.3768 51.2609 27.1304 51.2609 30.9952C51.2126 38.628 47.4928 42.1546 39.9082 42.1546C39.3285 42.1546 26.3816 42.1546 24.9324 42.1546C24.9324 40.7053 24.9324 21.3816 24.9324 19.9324C26.3816 19.9324 39.2802 19.9324 39.9082 19.9324Z" fill="black"/>
<path d="M42.9531 29.111C43.6778 29.111 43.0981 29.111 43.8227 29.111C43.7261 29.111 43.5328 28.2898 43.3879 27.9033C43.243 28.2898 43.0014 29.111 42.9531 29.111Z" fill="#CC1B69"/>
<path d="M34.402 30.4155C34.5469 30.3672 34.6435 30.2706 34.7402 30.2223C34.8368 30.1257 34.8851 29.9807 34.9334 29.8358C34.9817 29.6426 35.03 29.3527 35.03 29.0146C35.03 28.6764 34.9817 28.4348 34.9334 28.2416C34.8851 28.0967 34.7885 27.9518 34.6919 27.8551C34.5952 27.7585 34.4503 27.7585 34.3054 27.7102C34.2088 27.7102 34.0155 27.7102 33.5807 27.7102C33.5807 27.7102 33.5807 27.7102 33.0977 27.7102V30.6088C33.5807 30.6088 33.8223 30.6088 33.8223 30.6088C34.1121 30.5604 34.3054 30.4155 34.402 30.4155Z" fill="#CC1B69"/>
<path d="M46.188 31.5266V26.6957H47.6373C47.6373 26.6957 47.6373 29.5942 47.6373 30.0773C47.6373 30.0773 49.1832 30.0773 49.618 30.0773C49.1832 23.314 44.0141 21.8647 39.1832 21.8647H33.1445V26.6957H33.9658C34.3523 26.6957 34.6421 26.6474 34.8837 26.744C35.1735 26.8406 35.4151 26.9372 35.6083 27.1788C35.8015 27.372 35.9465 27.6135 36.0914 27.9517C36.188 28.2416 36.2363 28.628 36.2363 29.0628C36.2363 29.4493 36.188 29.7875 36.0914 30.0773C35.9948 30.4155 35.8015 30.7053 35.56 30.9469C35.3668 31.0918 35.1735 31.3333 34.8837 31.43C34.6904 31.4783 34.4006 31.6232 34.0141 31.6232H33.1445V40.8019H39.1832C44.2556 40.8019 49.618 39.3527 49.6663 31.6232H46.188V31.5266ZM40.874 31.5266H37.0093V26.6957H40.3909V27.6618C40.3909 27.6618 38.4585 27.6618 37.9754 27.6618V28.1449C38.4585 28.1449 40.3909 28.1449 40.3909 28.1449V29.5942C40.3909 29.5942 38.4585 29.5942 37.9754 29.5942C37.9754 29.5942 37.9754 30.0773 37.9754 30.5604C38.4585 30.5604 40.874 30.5604 40.874 30.5604V31.5266ZM44.5938 31.5266C44.5938 31.5266 44.2556 30.5604 44.2073 30.5604C44.0624 30.5604 42.7097 30.5604 42.5648 30.5604C42.5165 30.5604 42.1783 31.5266 42.1783 31.5266H40.9223L42.8064 26.6957H43.9658L45.8982 31.5266H44.5938Z" fill="#F42588"/>
<path d="M33.1445 26.6958H33.9658C34.3523 26.6958 34.6421 26.6474 34.8837 26.7441C35.1735 26.8407 35.4151 26.9373 35.6083 27.1788C35.8015 27.3721 35.9465 27.6136 36.0914 27.9518C36.188 28.2417 36.2363 28.6281 36.2363 29.0629C36.2363 29.4494 36.188 29.7875 36.0914 30.0774C35.9948 30.4156 35.8015 30.7054 35.56 30.947C35.3668 31.0919 35.1735 31.3334 34.8837 31.4301C34.6904 31.4784 34.4006 31.6233 34.0141 31.6233H33.1445V40.802H39.1832C44.2556 40.802 49.618 39.3528 49.6663 31.6233H46.188V26.6958H47.6373C47.6373 26.6958 47.6373 29.5943 47.6373 30.0774C47.6373 30.0774 49.1832 30.0774 49.618 30.0774C49.1832 23.3141 43.9175 22.0098 39.0866 22.0098L33.1445 26.6958ZM40.3909 31.5267H37.0093V26.6958H40.3909V27.6619C40.3909 27.6619 38.4585 27.6619 37.9754 27.6619V28.6281C38.3136 28.6281 37.8788 28.6281 40.3909 28.6281V29.5943C40.3909 29.5943 38.4585 29.5943 37.9754 29.5943C37.9754 29.5943 37.9754 30.0774 37.9754 30.5605C38.4585 30.5605 40.3909 30.5605 40.3909 30.5605V31.5267ZM44.5938 31.5267C44.5938 31.5267 44.2556 30.5605 44.2073 30.5605C44.0624 30.5605 42.7097 30.5605 42.5648 30.5605C42.5165 30.5605 42.1783 31.5267 42.1783 31.5267H40.9223L42.8064 26.6958H43.9658L45.8982 31.5267H44.5938Z" fill="#CC1B69"/>
<path d="M47.637 26.6957C47.637 26.6957 47.637 29.5942 47.637 30.0773C49.3278 30.0773 48.7964 30.0773 49.6177 30.0773C49.4728 28.145 49.1346 26.8889 48.3617 25.7295L47.3472 26.6957H47.637Z" fill="#B50662"/>
<path d="M46.188 27.6135L44.8354 29.1111L45.8498 31.5266H44.5938C44.5938 31.5266 44.2556 30.5604 44.2073 30.5604C44.159 30.5604 43.9175 30.5604 43.6276 30.5604L33.1445 40.6087V40.7053H39.1832C44.2556 40.7053 49.618 39.256 49.6663 31.5266H46.188V27.6135Z" fill="#B50662"/>
<path d="M23 18V44.087L24.9324 42.1546C24.9324 40.4155 24.9324 21.3816 24.9324 19.9324C26.3816 19.9324 39.2802 19.9324 39.9082 19.9324C42.2754 19.9324 44.3043 20.3671 46.0435 21.1401L47.4444 19.7874C45.4638 18.628 42.8068 18.0483 40.3913 18H23Z" fill="#494949"/>
</g>
<defs>
<filter id="filter0_f" x="5" y="0" width="62" height="62" filterUnits="userSpaceOnUse" color-interpolation-filters="sRGB">
<feFlood flood-opacity="0" result="BackgroundImageFix"/>
<feBlend mode="normal" in="SourceGraphic" in2="BackgroundImageFix" result="shape"/>
<feGaussianBlur stdDeviation="2.5" result="effect1_foregroundBlur"/>
</filter>
<filter id="filter1_d" x="0" y="3" width="72" height="72" filterUnits="userSpaceOnUse" color-interpolation-filters="sRGB">
<feFlood flood-opacity="0" result="BackgroundImageFix"/>
<feColorMatrix in="SourceAlpha" type="matrix" values="0 0 0 0 0 0 0 0 0 0 0 0 0 0 0 0 0 0 127 0"/>
<feOffset dy="8"/>
<feGaussianBlur stdDeviation="5"/>
<feColorMatrix type="matrix" values="0 0 0 0 0.729412 0 0 0 0 0.741176 0 0 0 0 0.815686 0 0 0 0.2 0"/>
<feBlend mode="normal" in2="BackgroundImageFix" result="effect1_dropShadow"/>
<feBlend mode="normal" in="SourceGraphic" in2="effect1_dropShadow" result="shape"/>
</filter>
</defs>
</svg>
