<svg width="72" height="72" viewBox="0 0 72 72" fill="none" xmlns="http://www.w3.org/2000/svg">
<g filter="url(#filter0_d)">
<circle cx="36" cy="28" r="26" fill="white"/>
</g>
<path d="M43.851 16.8607C42.6867 15.5301 40.5244 14.8647 37.5305 14.8647H29.214C28.715 14.8647 28.2161 15.3637 28.0497 15.8627L24.7231 37.6518C24.7231 38.1508 25.0558 38.4835 25.3885 38.4835H30.5447L31.8753 30.3333V30.666C32.0416 30.167 32.5406 29.668 33.0396 29.668H35.5345C40.3581 29.668 44.0173 27.6721 45.1816 22.1832C45.1816 22.0169 45.1816 21.8506 45.1816 21.6842C45.0153 21.6842 45.0153 21.6842 45.1816 21.6842C45.3479 19.522 45.0153 18.1913 43.851 16.8607Z" fill="#263B80"/>
<path d="M45.015 21.6841C45.015 21.8504 45.015 22.0167 45.015 22.1831C43.8507 27.8383 40.1915 29.6679 35.3679 29.6679H32.873C32.374 29.6679 31.875 30.1669 31.7087 30.6658L30.0454 40.8119C30.0454 41.1446 30.2117 41.4772 30.7107 41.4772H35.0353C35.5343 41.4772 36.0333 41.1446 36.0333 40.6456V40.4793L36.8649 35.3231V34.9904C36.8649 34.4914 37.3639 34.1588 37.8629 34.1588H38.5282C42.6864 34.1588 46.013 32.4955 46.8446 27.5056C47.1773 25.5096 47.011 23.68 46.013 22.5157C45.8467 22.1831 45.514 21.8504 45.015 21.6841Z" fill="#139AD6"/>
<path d="M43.8497 21.1853C43.6834 21.1853 43.517 21.0189 43.3507 21.0189C43.1844 21.0189 43.0181 21.0189 42.8517 20.8526C42.1864 20.6863 41.5211 20.6863 40.6895 20.6863H34.2026C34.0363 20.6863 33.87 20.6863 33.7036 20.8526C33.371 21.0189 33.2047 21.3516 33.2047 21.6843L31.874 30.3334V30.666C32.0404 30.167 32.5393 29.668 33.0383 29.668H35.5333C40.3568 29.668 44.016 27.6721 45.1803 22.1832C45.1803 22.0169 45.1803 21.8506 45.3467 21.6843C45.014 21.5179 44.8477 21.3516 44.515 21.3516C44.016 21.1853 44.016 21.1853 43.8497 21.1853Z" fill="#232C65"/>
<defs>
<filter id="filter0_d" x="0" y="0" width="72" height="72" filterUnits="userSpaceOnUse" color-interpolation-filters="sRGB">
<feFlood flood-opacity="0" result="BackgroundImageFix"/>
<feColorMatrix in="SourceAlpha" type="matrix" values="0 0 0 0 0 0 0 0 0 0 0 0 0 0 0 0 0 0 127 0"/>
<feOffset dy="8"/>
<feGaussianBlur stdDeviation="5"/>
<feColorMatrix type="matrix" values="0 0 0 0 0.729412 0 0 0 0 0.741176 0 0 0 0 0.815686 0 0 0 0.2 0"/>
<feBlend mode="normal" in2="BackgroundImageFix" result="effect1_dropShadow"/>
<feBlend mode="normal" in="SourceGraphic" in2="effect1_dropShadow" result="shape"/>
</filter>
</defs>
</svg>
