<svg width="36" height="26" viewBox="0 0 36 26" fill="none" xmlns="http://www.w3.org/2000/svg">
<path d="M9.84998 22.5508L9.84963 11.4521H12.2496L12.25 22.5508H9.84998Z" stroke="#414B83" stroke-width="1.5"/>
<path d="M22.75 11.75H25.25V22.559H22.75V11.75Z" stroke="#414B83" stroke-width="1.5"/>
<path d="M16.75 10.75H19.25V22.5502H16.75V10.75Z" stroke="#414B83" stroke-width="1.5"/>
<path d="M17.3975 1.06388C17.4874 0.99468 17.6126 0.99468 17.7025 1.06388L29.9628 10.5019C30.152 10.6475 30.049 10.95 29.8104 10.95H5.28965C5.05099 10.95 4.94803 10.6475 5.13715 10.5019L17.3975 1.06388Z" stroke="#414B83" stroke-width="1.5"/>
<rect x="5.94922" y="22.8506" width="23.2" height="2.4" rx="1.2" stroke="#414B83" stroke-width="1.5"/>
<path d="M25.2516 13.6502C25.2516 17.9028 21.8042 21.3502 17.5516 21.3502C13.299 21.3502 9.85156 17.9028 9.85156 13.6502C9.85156 9.3976 13.299 5.9502 17.5516 5.9502C21.8042 5.9502 25.2516 9.3976 25.2516 13.6502Z" fill="white" stroke="#576FFF" stroke-width="1.5"/>
<path d="M21.0108 14.8456C21.0108 15.4469 20.7908 15.9639 20.3508 16.3966C19.9108 16.8219 19.2764 17.0859 18.4478 17.1886V18.4206H17.3478V17.2216C16.8051 17.1923 16.2881 17.0969 15.7968 16.9356C15.3054 16.7743 14.9094 16.5763 14.6088 16.3416L15.2138 14.9996C15.4924 15.2049 15.8188 15.3773 16.1928 15.5166C16.5668 15.6559 16.9518 15.7439 17.3478 15.7806V13.9436C16.8271 13.8189 16.3871 13.6796 16.0278 13.5256C15.6684 13.3716 15.3678 13.1479 15.1258 12.8546C14.8838 12.5539 14.7628 12.1579 14.7628 11.6666C14.7628 11.0579 14.9828 10.5373 15.4228 10.1046C15.8701 9.66459 16.5118 9.39692 17.3478 9.30159V8.08059H18.4478V9.27959C19.3498 9.35292 20.0941 9.57659 20.6808 9.95059L20.1308 11.3036C19.5808 10.9883 19.0198 10.7976 18.4478 10.7316V12.6016C18.9611 12.7189 19.3938 12.8546 19.7458 13.0086C20.1051 13.1553 20.4058 13.3789 20.6478 13.6796C20.8898 13.9729 21.0108 14.3616 21.0108 14.8456ZM16.5338 11.5786C16.5338 11.7619 16.6034 11.9123 16.7428 12.0296C16.8821 12.1469 17.0838 12.2459 17.3478 12.3266V10.7646C17.0691 10.8306 16.8638 10.9369 16.7318 11.0836C16.5998 11.2229 16.5338 11.3879 16.5338 11.5786ZM18.4478 15.7366C18.7118 15.6779 18.9098 15.5826 19.0418 15.4506C19.1738 15.3186 19.2398 15.1609 19.2398 14.9776C19.2398 14.7943 19.1701 14.6439 19.0308 14.5266C18.8988 14.4093 18.7044 14.3066 18.4478 14.2186V15.7366Z" fill="#576FFF"/>
</svg>
