<svg width="26" height="26" viewBox="0 0 26 26" fill="none" xmlns="http://www.w3.org/2000/svg">
<path d="M16.8974 14.8439C16.8974 15.6092 16.6174 16.2672 16.0574 16.8179C15.4974 17.3592 14.6901 17.6952 13.6354 17.8259V19.3939H12.2354V17.8679C11.5448 17.8305 10.8868 17.7092 10.2614 17.5039C9.63609 17.2985 9.13209 17.0465 8.74942 16.7479L9.51942 15.0399C9.87409 15.3012 10.2894 15.5205 10.7654 15.6979C11.2414 15.8752 11.7314 15.9872 12.2354 16.0339V13.6959C11.5728 13.5372 11.0128 13.3599 10.5554 13.1639C10.0981 12.9679 9.71542 12.6832 9.40742 12.3099C9.09942 11.9272 8.94542 11.4232 8.94542 10.7979C8.94542 10.0232 9.22542 9.36053 9.78542 8.80987C10.3548 8.24987 11.1714 7.9092 12.2354 7.78787V6.23387H13.6354V7.75987C14.7834 7.8532 15.7308 8.13787 16.4774 8.61387L15.7774 10.3359C15.0774 9.93453 14.3634 9.69187 13.6354 9.60787V11.9879C14.2888 12.1372 14.8394 12.3099 15.2874 12.5059C15.7448 12.6925 16.1274 12.9772 16.4354 13.3599C16.7434 13.7332 16.8974 14.2279 16.8974 14.8439ZM11.1994 10.6859C11.1994 10.9192 11.2881 11.1105 11.4654 11.2599C11.6428 11.4092 11.8994 11.5352 12.2354 11.6379V9.64987C11.8808 9.73387 11.6194 9.8692 11.4514 10.0559C11.2834 10.2332 11.1994 10.4432 11.1994 10.6859ZM13.6354 15.9779C13.9714 15.9032 14.2234 15.7819 14.3914 15.6139C14.5594 15.4459 14.6434 15.2452 14.6434 15.0119C14.6434 14.7785 14.5548 14.5872 14.3774 14.4379C14.2094 14.2885 13.9621 14.1579 13.6354 14.0459V15.9779Z" fill="#576FFF"/>
<path d="M24.1128 9.67958L22.8449 9.46455C22.732 9.15034 22.6044 8.84209 22.4634 8.54236L23.2101 7.49777C23.8597 6.5851 23.7554 5.35246 22.9645 4.56932L21.4408 3.04549C21.0102 2.61484 20.4393 2.37759 19.8335 2.37759C19.3564 2.37759 18.9002 2.52458 18.5173 2.80011L17.4688 3.54695C17.1445 3.39362 16.8154 3.25813 16.4841 3.1411L16.2744 1.89874C16.09 0.798416 15.1461 0 14.0301 0H11.8775C10.7617 0 9.81786 0.798416 9.63378 1.89656L9.41339 3.18752C9.10216 3.30118 8.79529 3.43031 8.49477 3.57452L7.46526 2.83304C7.07924 2.55513 6.62121 2.40834 6.14058 2.40834C5.52882 2.40834 4.95773 2.64598 4.53184 3.07762L3.00463 4.59987C2.21593 5.38857 2.11258 6.62021 2.75905 7.52832L3.5178 8.59433C3.37795 8.89525 3.25219 9.2049 3.1411 9.52089L1.89855 9.73056C0.798418 9.91524 0 10.8591 0 11.9749V14.1275C0 15.2433 0.798418 16.1871 1.89656 16.3714L3.18752 16.5916C3.30118 16.903 3.43052 17.2101 3.57453 17.5104L2.83582 18.5379C2.18618 19.4506 2.29052 20.6834 3.0814 21.4664L4.60504 22.9902C5.03569 23.4209 5.60658 23.6581 6.21238 23.6581C6.68945 23.6581 7.14569 23.5111 7.52834 23.2358L8.59435 22.4771C8.87444 22.6072 9.16484 22.7264 9.46299 22.8337L9.67424 24.1015C9.85892 25.2016 10.8027 26 11.9185 26H14.0762C15.192 26 16.136 25.2016 16.3203 24.1028L16.5353 22.8347C16.8495 22.7218 17.1577 22.5943 17.4575 22.4532L18.4987 23.1975C18.8847 23.4754 19.3427 23.6224 19.8234 23.6224C20.429 23.6224 20.9999 23.3852 21.4305 22.9545L22.9542 21.4307C23.7431 20.642 23.8462 19.4103 23.1997 18.5022L22.4523 17.4527C22.5971 17.146 22.7251 16.838 22.8351 16.5317L24.1013 16.3206C25.2014 16.1359 25.9999 15.1921 25.9999 14.0763V11.928C26.0124 10.8111 25.2197 9.86604 24.1128 9.67958ZM24.4764 14.0763C24.4764 14.4451 24.2126 14.7571 23.85 14.818L22.1706 15.0979C21.8608 15.1495 21.6108 15.3681 21.5178 15.6686C21.3686 16.152 21.1637 16.6461 20.9092 17.1365C20.7652 17.413 20.7882 17.7425 20.9691 17.996L21.9588 19.3857C22.1722 19.6857 22.1379 20.0927 21.877 20.3536L20.3534 21.8772C20.2084 22.0222 20.0251 22.099 19.8234 22.099C19.6643 22.099 19.5141 22.0514 19.3868 21.9597L18.003 20.9707C17.7485 20.788 17.4176 20.765 17.1397 20.9104C16.6743 21.154 16.1798 21.3589 15.6698 21.519C15.3723 21.6122 15.1551 21.8613 15.1033 22.168L14.818 23.8491C14.7571 24.2127 14.4451 24.4766 14.0762 24.4766H11.9185C11.5496 24.4766 11.2378 24.2127 11.1769 23.8501L10.897 22.1708C10.8458 21.8629 10.6292 21.6134 10.3316 21.5193C9.82897 21.3607 9.35032 21.1639 8.90856 20.9344C8.78815 20.8719 8.65782 20.8411 8.52809 20.8411C8.36028 20.8411 8.19325 20.8927 8.05023 20.9945L6.64165 21.997C6.51469 22.0885 6.37028 22.1347 6.21238 22.1347C6.01065 22.1347 5.82736 22.0581 5.68235 21.9129L4.15594 20.3867C3.89549 20.1288 3.86236 19.723 4.07481 19.4244L5.0585 18.0561C5.24357 17.7992 5.26619 17.466 5.11701 17.1857C4.86688 16.7166 4.65959 16.2246 4.5007 15.7233C4.40667 15.4278 4.15852 15.2118 3.85304 15.1596L2.15067 14.8694C1.78727 14.8083 1.52344 14.4963 1.52344 14.1275V11.9749C1.52344 11.6061 1.78727 11.2941 2.15126 11.233L3.80999 10.9531C4.12003 10.9009 4.36978 10.6817 4.46201 10.3802C4.61852 9.86803 4.81986 9.37271 5.06048 8.90854C5.2037 8.63261 5.18069 8.30392 5.00038 8.05022L4.00022 6.645C3.78658 6.34508 3.8209 5.93803 4.08096 5.67798L5.60975 4.15434L5.61531 4.14859C5.75277 4.00874 5.93924 3.93178 6.14058 3.93178C6.29966 3.93178 6.45003 3.97939 6.575 4.06944L7.94927 5.05869C8.20654 5.24396 8.54019 5.26617 8.81949 5.117C9.28862 4.86687 9.78057 4.65958 10.2812 4.50089C10.5768 4.40706 10.7928 4.1593 10.8454 3.85303L11.1358 2.15067C11.1967 1.78726 11.5087 1.52344 11.8777 1.52344H14.0303C14.3991 1.52344 14.7111 1.78726 14.7722 2.15126L15.0521 3.81058C15.1045 4.12082 15.3241 4.37036 15.6258 4.4624C16.1401 4.61871 16.6531 4.82977 17.1508 5.09003C17.4273 5.23444 17.7568 5.21182 18.0115 5.03072L19.4044 4.0387C19.5312 3.94725 19.6756 3.90103 19.8337 3.90103C20.0352 3.90103 20.2185 3.9776 20.3637 4.1228L21.8899 5.64902C22.1504 5.90689 22.1837 6.31274 21.9699 6.61287L20.9798 7.99805C20.7981 8.25275 20.7755 8.58322 20.9205 8.86014C21.1643 9.3255 21.369 9.82002 21.5293 10.3302C21.6227 10.6278 21.8717 10.8448 22.1784 10.8965L23.8581 11.1816L23.8595 11.1818C24.2219 11.2427 24.4816 11.5502 24.4764 11.913V14.0763Z" fill="#414B83"/>
</svg>
