<svg width="18" height="26" viewBox="0 0 18 26" fill="none" xmlns="http://www.w3.org/2000/svg">
<rect x="0.75" y="0.75" width="16.5" height="21.5" rx="2.25" stroke="#414B83" stroke-width="1.5"/>
<rect x="3.75" y="3.75" width="10.5" height="5.5" rx="2.25" stroke="#576FFF" stroke-width="1.5"/>
<rect x="4" y="11" width="2" height="1" rx="0.5" fill="#414B83"/>
<rect x="4" y="13" width="2" height="1" rx="0.5" fill="#414B83"/>
<rect x="8" y="11" width="2" height="1" rx="0.5" fill="#414B83"/>
<rect x="8" y="13" width="2" height="1" rx="0.5" fill="#414B83"/>
<rect x="12" y="11" width="2" height="1" rx="0.5" fill="#414B83"/>
<rect x="12" y="13" width="2" height="1" rx="0.5" fill="#576FFF"/>
<path d="M4.75 17.2538C4.75 17.1157 4.86193 17.0038 5 17.0038H13C13.1381 17.0038 13.25 17.1157 13.25 17.2538V25.0005C13.25 25.1386 13.1381 25.2505 13 25.2505H5C4.86193 25.2505 4.75 25.1386 4.75 25.0005V17.2538Z" fill="white" stroke="#576FFF" stroke-width="1.5"/>
<rect x="10" y="17" width="1" height="8" fill="#576FFF"/>
<path d="M3.76172 16.25C3.34751 16.25 3.01172 16.5858 3.01172 17C3.01172 17.4142 3.34751 17.75 3.76172 17.75V16.25ZM14.251 17.75C14.6652 17.75 15.001 17.4142 15.001 17C15.001 16.5858 14.6652 16.25 14.251 16.25V17.75ZM3.76172 17.75L14.251 17.75V16.25L3.76172 16.25V17.75Z" fill="#414B83"/>
</svg>
