<svg width="194" height="86" viewBox="0 0 194 86" fill="none" xmlns="http://www.w3.org/2000/svg">
<g filter="url(#filter0_i)">
<path d="M19.6 85.02H13.48V78.6C9.6 78.08 6.56 76.62 4.36 74.22C2.2 71.82 0.96 69.18 0.64 66.3L8.08 64.5C8.28 66.58 9.08 68.32 10.48 69.72C11.88 71.08 13.88 71.76 16.48 71.76C18.4 71.76 19.9 71.36 20.98 70.56C22.1 69.72 22.66 68.62 22.66 67.26C22.66 65.06 21.16 63.64 18.16 63L12.64 61.8C9.36 61.08 6.78 59.74 4.9 57.78C3.06 55.78 2.14 53.36 2.14 50.52C2.14 47.4 3.2 44.74 5.32 42.54C7.48 40.34 10.2 38.98 13.48 38.46V32.04H19.6V38.64C22.76 39.2 25.22 40.44 26.98 42.36C28.74 44.24 29.86 46.36 30.34 48.72L22.96 50.82C22.72 49.42 22.06 48.14 20.98 46.98C19.94 45.82 18.32 45.24 16.12 45.24C14.28 45.24 12.82 45.7 11.74 46.62C10.7 47.54 10.18 48.64 10.18 49.92C10.18 52 11.56 53.34 14.32 53.94L19.78 55.2C23.42 56 26.16 57.44 28 59.52C29.84 61.56 30.76 63.98 30.76 66.78C30.76 69.66 29.76 72.2 27.76 74.4C25.8 76.6 23.08 77.98 19.6 78.54V85.02ZM72.6222 78H56.1822V25.92H37.4622V14.76C43.0622 14.68 47.7422 13.28 51.5022 10.56C55.2622 7.76 57.5422 4.28 58.3422 0.119994H72.6222V78ZM108.055 43.44L100.735 31.92L121.135 14.4H87.055V0.119994H142.135V13.44L121.975 30.24C128.135 30.48 133.415 32.8 137.815 37.2C142.295 41.52 144.535 47.12 144.535 54C144.535 61.04 141.815 67.12 136.375 72.24C130.935 77.28 123.695 79.8 114.655 79.8C105.935 79.8 98.855 77.4 93.415 72.6C87.975 67.72 85.015 61.84 84.535 54.96L100.495 51.84C100.655 55.84 102.015 59.12 104.575 61.68C107.215 64.24 110.575 65.52 114.655 65.52C118.655 65.52 121.855 64.4 124.255 62.16C126.655 59.92 127.855 57.12 127.855 53.76C127.855 50.16 126.655 47.36 124.255 45.36C121.935 43.28 118.895 42.24 115.135 42.24C112.655 42.24 110.295 42.64 108.055 43.44ZM156.394 78H151.074V58.32H156.154V60.72C156.661 59.8133 157.461 59.0933 158.554 58.56C159.648 58.0267 160.768 57.76 161.914 57.76C164.768 57.76 166.714 58.8533 167.754 61.04C169.168 58.8533 171.248 57.76 173.994 57.76C175.994 57.76 177.674 58.3867 179.034 59.64C180.421 60.8933 181.114 62.76 181.114 65.24V78H175.954V66.32C175.954 65.2 175.661 64.3067 175.074 63.64C174.514 62.9467 173.648 62.6 172.474 62.6C171.381 62.6 170.501 62.9733 169.834 63.72C169.168 64.4667 168.834 65.3867 168.834 66.48V78H163.554V66.32C163.554 65.2 163.261 64.3067 162.674 63.64C162.088 62.9467 161.221 62.6 160.074 62.6C158.954 62.6 158.061 62.9733 157.394 63.72C156.728 64.44 156.394 65.36 156.394 66.48V78ZM187.304 77.24C186.584 76.52 186.224 75.6533 186.224 74.64C186.224 73.6267 186.584 72.7733 187.304 72.08C188.024 71.36 188.877 71 189.864 71C190.877 71 191.744 71.36 192.464 72.08C193.184 72.7733 193.544 73.6267 193.544 74.64C193.544 75.6533 193.184 76.52 192.464 77.24C191.744 77.9333 190.877 78.28 189.864 78.28C188.877 78.28 188.024 77.9333 187.304 77.24Z" fill="#FFDB66"/>
</g>
<defs>
<filter id="filter0_i" x="0.640137" y="0.119873" width="192.904" height="88.9" filterUnits="userSpaceOnUse" color-interpolation-filters="sRGB">
<feFlood flood-opacity="0" result="BackgroundImageFix"/>
<feBlend mode="normal" in="SourceGraphic" in2="BackgroundImageFix" result="shape"/>
<feColorMatrix in="SourceAlpha" type="matrix" values="0 0 0 0 0 0 0 0 0 0 0 0 0 0 0 0 0 0 127 0" result="hardAlpha"/>
<feOffset dy="4"/>
<feGaussianBlur stdDeviation="2"/>
<feComposite in2="hardAlpha" operator="arithmetic" k2="-1" k3="1"/>
<feColorMatrix type="matrix" values="0 0 0 0 0.819608 0 0 0 0 0.682353 0 0 0 0 0.227451 0 0 0 1 0"/>
<feBlend mode="normal" in2="shape" result="effect1_innerShadow"/>
</filter>
</defs>
</svg>
