<svg width="65" height="65" viewBox="0 0 65 65" fill="none" xmlns="http://www.w3.org/2000/svg">
<circle cx="32.5" cy="32.5" r="32.5" fill="#F6F8FF"/>
<path d="M40.9447 19.7407C37.5499 16.3459 34.1928 16.195 32.7217 16.195V13.7432C34.4568 13.7432 37.3613 14.0826 40.4544 16.195C45.8107 19.7784 46.301 25.6251 46.3765 26.4172C47.659 26.3795 48.3002 26.4927 50.0354 27.5865C51.4235 28.4617 51.9214 30.4659 51.9968 31.3586V34.4894C51.9968 35.7341 51.9591 36.1491 51.2047 37.6202C50.3598 39.3402 48.3379 39.9966 47.4327 40.1097H44.9808C44.2868 40.1097 44.063 39.4307 44.0378 39.0913V37.9219C44.0504 34.6277 44.068 27.8581 44.0378 27.1339C44.0001 26.2286 43.6606 22.4943 40.9447 19.7407Z" fill="#576FFF"/>
<path d="M24.5006 19.7407C27.8954 16.3459 31.2525 16.195 32.7236 16.195V13.7432C30.9885 13.7432 28.084 14.0826 24.9909 16.195C19.6346 19.7784 19.1443 25.6251 19.0688 26.4172C17.7863 26.3795 17.1451 26.4927 15.41 27.5865C14.0218 28.4617 13.5239 30.4659 13.4485 31.3586V34.4894C13.4485 35.7341 13.4862 36.1491 14.2406 37.6202C15.0856 39.3402 17.1074 39.9966 18.0127 40.1097H20.4645C21.1585 40.1097 21.3823 39.4307 21.4075 39.0913V37.9219C21.3949 34.6277 21.3773 27.8581 21.4075 27.1339C21.4452 26.2286 21.7847 22.4943 24.5006 19.7407Z" fill="#576FFF"/>
<path d="M19.5625 42.335C19.7637 43.4037 20.6639 45.7977 22.6556 46.8237C24.6472 47.8497 26.5031 47.9302 27.182 47.8421" stroke="#576FFF" stroke-width="2"/>
<rect x="28.7617" y="45.429" width="7.84584" height="4.82821" rx="2.4141" fill="#576FFF"/>
</svg>
