<svg width="65" height="65" viewBox="0 0 65 65" fill="none" xmlns="http://www.w3.org/2000/svg">
<circle cx="32.5" cy="32.5" r="32.5" fill="#F6F8FF"/>
<path d="M33 16C24.1777 16 17 23.1777 17 32C17 40.8223 24.1777 48 33 48C41.8223 48 49 40.8223 49 32C49 23.1777 41.8223 16 33 16ZM33 45.3333C29.3678 45.3333 26.0737 43.8697 23.6667 41.5059V39.3333C23.6667 38.6992 23.9506 38.291 24.2787 37.8183C24.6166 37.3321 25 36.7806 25 36C25 34.7285 23.8522 34.5996 23.235 34.5306C22.7936 34.4811 22.3769 34.4342 22.138 34.1953C21.957 34.0143 21.776 33.6856 21.5846 33.3379C21.2046 32.6464 20.6894 31.7319 19.7086 31.1719C20.1398 24.206 25.9273 18.6667 33 18.6667C33.3659 18.6667 33.7257 18.6926 34.0843 18.7216C34.0113 18.7696 33.9219 18.8021 33.862 18.862C33.7324 18.9916 33.6615 19.1693 33.6667 19.3529C33.6726 19.5358 33.7533 19.709 33.89 19.8314C34.1296 20.0443 34.1758 20.1517 34.1849 20.1517C34.1699 20.1836 34.0476 20.3926 33.3652 20.7389C32.2389 21.3099 30.9382 22.4785 30.7448 23.6947C30.6562 24.2467 30.8164 24.7591 31.1953 25.1381C31.3203 25.2631 31.4896 25.3334 31.6667 25.3334C32.5925 25.3334 33.3079 24.9909 34 24.6602C34.7103 24.3209 35.3815 24 36.3333 24C38.9499 24 41 24.5859 41 25.3333C41 25.6074 40.9147 25.6914 40.8822 25.7226C40.5547 26.0449 39.4395 26.0241 38.459 26.0091C38.1992 26.0045 37.9336 25.9999 37.6667 25.9999C36.7617 25.9999 36.4811 25.8677 36.1562 25.7141C35.778 25.5357 35.3496 25.3333 34.3333 25.3333C33.2344 25.3333 31.1921 25.5318 29.8619 26.8619C28.7741 27.9491 28.8892 29.2499 28.9648 30.1099C28.9824 30.3079 29 30.4954 29 30.6666C29 31.9797 30.3418 32.6666 31.6667 32.6666C33.7044 32.6666 35.4662 33.0467 35.6667 33.3333C35.6667 34.0794 35.8887 34.5891 36.0671 34.9979C36.2155 35.3398 36.3333 35.6092 36.3333 35.9999C36.3333 36.3019 36.2838 36.3664 36.1504 36.5383C35.8958 36.8691 35.6666 37.2291 35.6666 37.9999C35.6666 39.4029 37.0176 40.9419 37.1712 41.1132C37.2994 41.2551 37.4804 41.3333 37.6666 41.3333C37.7219 41.3333 37.7773 41.3267 37.832 41.3124C38.2246 41.2115 41.6666 40.2642 41.6666 37.9999C41.6666 37.2903 41.8873 37.0989 42.2219 36.8085C42.5501 36.5233 42.9999 36.1334 42.9999 35.3333C42.9999 34.7987 43.9485 33.4192 44.8274 32.4472C44.9518 32.3098 45.0136 32.1263 44.9974 31.9413C44.9811 31.7564 44.8886 31.5865 44.7422 31.4732C44.2239 31.0715 42.7929 29.7636 42.3138 28.4947C42.5853 28.6366 42.9251 28.8678 43.1953 29.1379C43.4173 29.3612 43.7149 29.468 44.0534 29.4544C44.5933 29.4236 45.2347 28.9969 45.8426 28.4648C46.1536 29.5927 46.3334 30.7746 46.3334 32C46.3333 39.3522 40.3522 45.3333 33 45.3333Z" fill="#576FFF"/>
</svg>
