<svg width="65" height="65" viewBox="0 0 65 65" fill="none" xmlns="http://www.w3.org/2000/svg">
<circle cx="32.5" cy="32.5" r="32.5" fill="#F6F8FF"/>
<path fill-rule="evenodd" clip-rule="evenodd" d="M40.5 32C45.1944 32 49 28.1944 49 23.5C49 18.8056 45.1944 15 40.5 15C35.8056 15 32 18.8056 32 23.5C32 28.1944 35.8056 32 40.5 32ZM36.825 22.886C37.1843 23.2673 37.6463 23.458 38.211 23.458C38.7757 23.458 39.234 23.2673 39.586 22.886C39.938 22.4973 40.114 21.9803 40.114 21.335C40.114 20.6897 39.938 20.1763 39.586 19.795C39.234 19.4063 38.7757 19.212 38.211 19.212C37.6463 19.212 37.1843 19.4063 36.825 19.795C36.473 20.1763 36.297 20.6897 36.297 21.335C36.297 21.9803 36.473 22.4973 36.825 22.886ZM44.107 19.3H42.798L37.54 27H38.849L44.107 19.3ZM38.794 22.248C38.6547 22.4533 38.4603 22.556 38.211 22.556C37.969 22.556 37.7747 22.4533 37.628 22.248C37.4813 22.0353 37.408 21.731 37.408 21.335C37.408 20.939 37.4813 20.6383 37.628 20.433C37.7747 20.2203 37.969 20.114 38.211 20.114C38.4603 20.114 38.6547 20.2167 38.794 20.422C38.9407 20.6273 39.014 20.9317 39.014 21.335C39.014 21.7383 38.9407 22.0427 38.794 22.248ZM42.446 26.835C42.7393 27.0037 43.0693 27.088 43.436 27.088C44.0007 27.088 44.459 26.8973 44.811 26.516C45.1703 26.1273 45.35 25.6103 45.35 24.965C45.35 24.3197 45.1703 23.8063 44.811 23.425C44.459 23.0363 44.0007 22.842 43.436 22.842C43.0693 22.842 42.7393 22.93 42.446 23.106C42.16 23.2747 41.9363 23.5203 41.775 23.843C41.6137 24.1657 41.533 24.5397 41.533 24.965C41.533 25.3903 41.6137 25.7643 41.775 26.087C41.9363 26.4097 42.16 26.659 42.446 26.835ZM44.019 25.878C43.8797 26.0833 43.6853 26.186 43.436 26.186C43.194 26.186 42.9997 26.0833 42.853 25.878C42.7063 25.6727 42.633 25.3683 42.633 24.965C42.633 24.5617 42.7063 24.2573 42.853 24.052C42.9997 23.8467 43.194 23.744 43.436 23.744C43.6853 23.744 43.8797 23.8503 44.019 24.063C44.1657 24.2683 44.239 24.569 44.239 24.965C44.239 25.361 44.1657 25.6653 44.019 25.878Z" fill="#576FFF"/>
<path d="M13 37.3162C13 36.7639 13.4477 36.3162 14 36.3162H17.5148V48.8606C17.5148 49.4128 17.0671 49.8606 16.5148 49.8606H15C13.8954 49.8606 13 48.9651 13 47.8606V37.3162Z" fill="#576FFF"/>
<path d="M19.7734 47.8666V35.3004C20.3002 34.8865 21.015 34.6608 22.8209 34.1717C24.2657 33.7804 26.2572 34.0839 27.0724 34.2845C30.8974 35.5386 38.6227 38.0845 38.9237 38.235C39.2999 38.4231 40.5039 39.6647 39.6386 41.2448C38.9463 42.509 37.5442 42.4488 36.9297 42.2607C34.4591 41.458 29.4953 39.8453 29.405 39.8152C29.2921 39.7775 28.2763 39.4013 27.8248 40.4171C27.5238 41.3577 28.1634 41.8092 28.502 41.9221C30.3456 42.5115 34.4917 43.8409 36.3277 44.4428C38.6152 44.9244 40.8676 44.1418 41.7078 43.6904L43.288 42.5993C44.7302 41.5709 47.6674 39.4841 47.8781 39.3637C48.1414 39.2132 49.7216 38.0092 51.0008 39.7399C52.0242 41.1245 51.3018 42.3485 50.8127 42.7874C49.3203 43.8409 46.1098 46.1133 45.2068 46.7755C44.0781 47.6032 40.9554 49.4467 37.0425 50.1616C33.9123 50.7334 30.9476 50.3999 29.8565 50.1616L19.7734 47.8666Z" fill="#576FFF"/>
</svg>
