<svg width="65" height="65" viewBox="0 0 65 65" fill="none" xmlns="http://www.w3.org/2000/svg">
<circle cx="32.5" cy="32.5" r="32.5" fill="#EBFFED"/>
<g clip-path="url(#clip0)">
<path d="M30.2885 25.25H33.6686C34.2629 24.0167 33.3634 22.5625 31.9781 22.5625C30.5955 22.5625 29.6918 24.0144 30.2885 25.25Z" fill="#6ED67A"/>
<path d="M31.9766 20.6875C34.3649 20.6875 36.1562 22.9031 35.6379 25.25H40.4141V23.1875C40.4141 22.8423 40.1343 22.5625 39.7891 22.5625H38.5276C38.3839 22.0592 38.1834 21.58 37.9341 21.1316L38.8266 20.2391C39.0707 19.995 39.0707 19.5992 38.8266 19.3552L37.0589 17.5874C36.8148 17.3434 36.4191 17.3434 36.175 17.5874L35.2824 18.48C34.8341 18.2306 34.3548 18.0302 33.8516 17.8864V16.625C33.8516 16.2798 33.5717 16 33.2266 16H30.7266C30.3814 16 30.1016 16.2798 30.1016 16.625V17.8864C29.5983 18.0302 29.1191 18.2307 28.6707 18.4801L27.7781 17.5874C27.5341 17.3434 27.1383 17.3434 26.8942 17.5874L25.1265 19.3552C24.8824 19.5992 24.8824 19.995 25.1265 20.2391L26.0191 21.1316C25.7698 21.58 25.5693 22.0592 25.4256 22.5625H24.1641C23.8189 22.5625 23.5391 22.8423 23.5391 23.1875V25.25H28.3173C27.7961 22.8969 29.5933 20.6875 31.9766 20.6875Z" fill="#6ED67A"/>
<path d="M47.6274 35.8538L43.9481 30.3519C43.8854 29.2388 43.6618 28.1588 43.2813 27.125H20.9022C18.7909 32.8568 21.6778 39.4667 27.7168 41.6094V47.0625C27.7168 47.58 28.1361 48 28.6543 48H39.3418C39.8593 48 40.2793 47.58 40.2793 47.0625V42.25H43.0293C43.5468 42.25 43.9668 41.83 43.9668 41.3125V37.3125H46.848C47.5956 37.3125 48.0437 36.4763 47.6274 35.8538Z" fill="#6ED67A"/>
</g>
<defs>
<clipPath id="clip0">
<rect width="32" height="32" fill="white" transform="translate(18 16)"/>
</clipPath>
</defs>
</svg>
